<svg width="64" height="64" viewBox="0 0 64 64" fill="none" xmlns="http://www.w3.org/2000/svg">
<g transform="translate(8, 5) scale(0.9)">
<path d="M27.4561 53.7615C27.2441 53.7615 27.0337 53.7584 26.8217 53.7537V53.76C12.0328 53.6475 0 41.5927 0 26.8867C0 14.9068 7.10471 5.22983 17.5717 1.5795C25.6014 -1.42914 35.9067 -0.114523 43.3082 5.25794C44.406 6.05577 45.4409 6.94415 46.3832 7.89967L42.1854 11.9887C41.4693 11.2612 40.6809 10.5836 39.8423 9.97621C36.4988 7.54838 31.7717 5.94804 27.0321 5.83562V5.8528C24.3938 5.8528 21.9109 6.26342 19.64 7.0269C18.569 7.43596 17.5403 7.95432 16.5761 8.59601C13.8278 10.4212 12.1364 14.2651 14.0634 17.5376C14.8941 18.949 16.3719 20.1934 18.4575 21.2379C23.7797 23.9046 29.7584 23.8125 36.0936 23.7157L38.5969 23.6829C38.6142 23.6829 52.3634 23.6673 52.3634 23.6673L52.4263 26.6713C52.4435 27.1475 52.4922 28.4028 52.4938 29.8782C52.6932 36.0188 50.4695 41.8004 46.2324 46.1611C41.5368 50.9918 34.6928 53.7615 27.4561 53.7615ZM26.8562 47.9097C32.6952 48.0612 38.2844 45.93 42.0032 42.1017C45.1818 38.8307 46.7774 34.6542 46.6172 30.0265L46.6156 29.925C46.6156 29.7845 46.6156 29.6456 46.614 29.5097C42.9722 29.5144 38.6252 29.5222 38.6252 29.5222L36.1847 29.5534C29.4223 29.6565 22.4276 29.7658 15.8128 26.4527C12.6986 24.8929 10.4026 22.8851 8.99082 20.4854C8.46 19.5829 8.06425 18.6352 7.79728 17.6641C6.55662 20.4057 5.87819 23.5159 5.87819 26.8821C5.87819 38.3873 15.2867 47.8192 26.8562 47.9144V47.9097Z" fill="#44D0A0"/>
</g>
</svg>
