<svg width="49" height="40" viewBox="0 0 49 40" fill="none" xmlns="http://www.w3.org/2000/svg">
<path d="M15.8306 18.3525C17.519 18.3525 18.8877 16.9796 18.8877 15.2861C18.8877 13.5926 17.519 12.2197 15.8306 12.2197C14.1421 12.2197 12.7734 13.5926 12.7734 15.2861C12.7734 16.9796 14.1421 18.3525 15.8306 18.3525Z" stroke="white" stroke-width="2.5095" stroke-miterlimit="10"/>
<path d="M27.1822 7.38764C28.8706 7.38764 30.2393 6.01479 30.2393 4.32128C30.2393 2.62776 28.8706 1.25488 27.1822 1.25488C25.4937 1.25488 24.125 2.62776 24.125 4.32128C24.125 6.01479 25.4937 7.38764 27.1822 7.38764Z" stroke="white" stroke-width="2.5095" stroke-miterlimit="10"/>
<path d="M38.4165 18.3525C40.1049 18.3525 41.4737 16.9796 41.4737 15.2861C41.4737 13.5926 40.1049 12.2197 38.4165 12.2197C36.7281 12.2197 35.3594 13.5926 35.3594 15.2861C35.3594 16.9796 36.7281 18.3525 38.4165 18.3525Z" stroke="white" stroke-width="2.5095" stroke-miterlimit="10"/>
<path d="M29.3047 6.55273L36.2999 13.1013" stroke="white" stroke-width="2.5095" stroke-miterlimit="10"/>
<path d="M25.0054 6.29492L18.4766 13.3112" stroke="white" stroke-width="2.5095" stroke-miterlimit="10"/>
<path d="M4.31497 7.38764C6.00339 7.38764 7.3721 6.01479 7.3721 4.32128C7.3721 2.62776 6.00339 1.25488 4.31497 1.25488C2.62656 1.25488 1.25781 2.62776 1.25781 4.32128C1.25781 6.01479 2.62656 7.38764 4.31497 7.38764Z" stroke="white" stroke-width="2.5095" stroke-miterlimit="10"/>
<path d="M15.565 18.3525C17.2534 18.3525 18.6221 16.9796 18.6221 15.2861C18.6221 13.5926 17.2534 12.2197 15.565 12.2197C13.8766 12.2197 12.5078 13.5926 12.5078 15.2861C12.5078 16.9796 13.8766 18.3525 15.565 18.3525Z" stroke="white" stroke-width="2.5095" stroke-miterlimit="10"/>
<path d="M6.44531 6.55273L13.4405 13.1013" stroke="white" stroke-width="2.5095" stroke-miterlimit="10"/>
<line x1="29.8231" y1="39.1787" x2="29.8231" y2="18.9396" stroke="white" stroke-width="2.51"/>
<line x1="47.745" y1="39.1787" x2="47.745" y2="14.4415" stroke="white" stroke-width="2.51"/>
<line x1="38.7841" y1="39.1787" x2="38.7841" y2="24.561" stroke="white" stroke-width="2.51"/>
<line x1="19.7294" y1="39.1787" x2="19.7294" y2="29.0592" stroke="white" stroke-width="2.51"/>
</svg>
