<svg width="479" height="373" viewBox="0 0 479 373" fill="none" xmlns="http://www.w3.org/2000/svg">
<path d="M327.09 267.346C327.174 238.609 311.796 215.268 292.742 215.212C273.688 215.156 258.174 238.406 258.09 267.143C258.006 295.88 273.384 319.221 292.437 319.277C311.491 319.333 327.005 296.083 327.09 267.346Z" stroke="#03313E" stroke-width="2.49" stroke-miterlimit="10"/>
<path d="M292.562 218.002V372.706" stroke="#03313E" stroke-width="2.49" stroke-miterlimit="10"/>
<path d="M229.865 307.285L197.606 251.264H215.493L189.377 205.968H204.058L170.292 147.393L136.526 205.968H151.207L125.129 251.264H142.978L110.719 307.285H229.865Z" stroke="#03313E" stroke-width="2.49" stroke-miterlimit="10"/>
<path d="M170.297 150.181V372.713" stroke="#03313E" stroke-width="2.49" stroke-miterlimit="10"/>
<path d="M18.9609 285.332C18.9609 285.332 44.691 311.271 47.8976 314.523" stroke="#03313E" stroke-width="2.49" stroke-miterlimit="10"/>
<path d="M48.5938 314.486C51.839 311.234 76.8737 286.302 76.8737 286.302" stroke="#03313E" stroke-width="2.49" stroke-miterlimit="10"/>
<path d="M0.882812 221.183C0.882812 221.183 42.4914 263.111 47.7842 268.453" stroke="#03313E" stroke-width="2.49" stroke-miterlimit="10"/>
<path d="M48.8281 268.567C53.696 263.728 94.8023 222.768 94.8023 222.768" stroke="#03313E" stroke-width="2.49" stroke-miterlimit="10"/>
<path d="M47.9375 169.305V372.712" stroke="#03313E" stroke-width="2.49" stroke-miterlimit="10"/>
<path d="M18.9609 191.725L48.2453 221.225" stroke="#03313E" stroke-width="2.49" stroke-miterlimit="10"/>
<path d="M48.5938 220.875C51.9163 217.584 76.8737 192.69 76.8737 192.69" stroke="#03313E" stroke-width="2.49" stroke-miterlimit="10"/>
<path d="M293.183 167.177C338.908 167.177 375.975 130.032 375.975 84.2108C375.975 38.3901 338.908 1.24512 293.183 1.24512C247.458 1.24512 210.391 38.3901 210.391 84.2108C210.391 130.032 247.458 167.177 293.183 167.177Z" stroke="#03313E" stroke-width="2.49" stroke-miterlimit="10"/>
<path d="M362.92 131.619L340.492 154.094L362.019 175.665L384.447 153.19L362.92 131.619Z" stroke="#03313E" stroke-width="2.4396" stroke-miterlimit="10"/>
<path d="M474.226 247.038L455.72 265.582C451.934 269.376 445.753 269.376 441.928 265.582L364.004 187.494C360.218 183.7 360.218 177.506 364.004 173.673L382.509 155.129C386.295 151.335 392.477 151.335 396.301 155.129L474.226 233.216C478.012 237.049 478.012 243.243 474.226 247.038Z" stroke="#03313E" stroke-width="2.49" stroke-miterlimit="10"/>
<path d="M249.297 84.2041H335.218" stroke="#03313E" stroke-width="2.49" stroke-miterlimit="10"/>
<path d="M292.258 127.22V41.1572" stroke="#03313E" stroke-width="2.49" stroke-miterlimit="10"/>
<path d="M33.4609 50.4141H179.342" stroke="#03313E" stroke-width="2.49" stroke-miterlimit="10"/>
<path d="M33.4609 79.6455H179.342" stroke="#03313E" stroke-width="2.49" stroke-miterlimit="10"/>
<path d="M33.4609 108.87H179.342" stroke="#03313E" stroke-width="2.49" stroke-miterlimit="10" stroke-dasharray="5 5"/>
</svg>
