<svg width="50" height="40" viewBox="0 0 50 40" fill="none" xmlns="http://www.w3.org/2000/svg">
<path d="M15.8734 18.3587C17.5676 18.3587 18.9411 16.9853 18.9411 15.2912C18.9411 13.597 17.5676 12.2236 15.8734 12.2236C14.1791 12.2236 12.8057 13.597 12.8057 15.2912C12.8057 16.9853 14.1791 18.3587 15.8734 18.3587Z" stroke="#03303D" stroke-width="2.5095" stroke-miterlimit="10"/>
<path d="M27.2601 7.38996C28.9544 7.38996 30.3278 6.01659 30.3278 4.32244C30.3278 2.62828 28.9544 1.25488 27.2601 1.25488C25.5659 1.25488 24.1924 2.62828 24.1924 4.32244C24.1924 6.01659 25.5659 7.38996 27.2601 7.38996Z" stroke="#03303D" stroke-width="2.5095" stroke-miterlimit="10"/>
<path d="M38.5414 18.3587C40.2356 18.3587 41.6091 16.9853 41.6091 15.2912C41.6091 13.597 40.2356 12.2236 38.5414 12.2236C36.8471 12.2236 35.4736 13.597 35.4736 15.2912C35.4736 16.9853 36.8471 18.3587 38.5414 18.3587Z" stroke="#03303D" stroke-width="2.5095" stroke-miterlimit="10"/>
<path d="M29.3906 6.55371L36.41 13.1047" stroke="#03303D" stroke-width="2.5095" stroke-miterlimit="10"/>
<path d="M25.0738 6.2959L18.5225 13.3149" stroke="#03303D" stroke-width="2.5095" stroke-miterlimit="10"/>
<path d="M4.32261 7.38996C6.01687 7.38996 7.39031 6.01659 7.39031 4.32244C7.39031 2.62828 6.01687 1.25488 4.32261 1.25488C2.62836 1.25488 1.25488 2.62828 1.25488 4.32244C1.25488 6.01659 2.62836 7.38996 4.32261 7.38996Z" stroke="#03303D" stroke-width="2.5095" stroke-miterlimit="10"/>
<path d="M15.6039 18.3587C17.2981 18.3587 18.6716 16.9853 18.6716 15.2912C18.6716 13.597 17.2981 12.2236 15.6039 12.2236C13.9096 12.2236 12.5361 13.597 12.5361 15.2912C12.5361 16.9853 13.9096 18.3587 15.6039 18.3587Z" stroke="#03303D" stroke-width="2.5095" stroke-miterlimit="10"/>
<path d="M6.45312 6.55371L13.4725 13.1047" stroke="#03303D" stroke-width="2.5095" stroke-miterlimit="10"/>
<line x1="29.9218" y1="39.1934" x2="29.9218" y2="18.9462" stroke="#03303D" stroke-width="2.51"/>
<line x1="47.9188" y1="39.1934" x2="47.9188" y2="14.4468" stroke="#03303D" stroke-width="2.51"/>
<line x1="38.9227" y1="39.1934" x2="38.9227" y2="24.5704" stroke="#03303D" stroke-width="2.51"/>
<line x1="19.7987" y1="39.1934" x2="19.7987" y2="29.0698" stroke="#03303D" stroke-width="2.51"/>
</svg>
