<svg width="120" height="54" viewBox="0 0 120 54" fill="none" xmlns="http://www.w3.org/2000/svg">
<rect width="119.781" height="53.9916" rx="26.9958" fill="white"/>
<path d="M50.5427 25.1394C52.2383 25.1394 53.6128 23.7648 53.6128 22.0692C53.6128 20.3736 52.2383 18.999 50.5427 18.999C48.8472 18.999 47.4727 20.3736 47.4727 22.0692C47.4727 23.7648 48.8472 25.1394 50.5427 25.1394Z" stroke="#03303D" stroke-width="2.5095" stroke-miterlimit="10"/>
<path d="M61.9373 14.1618C63.6329 14.1618 65.0074 12.7873 65.0074 11.0917C65.0074 9.39607 63.6329 8.02148 61.9373 8.02148C60.2417 8.02148 58.8672 9.39607 58.8672 11.0917C58.8672 12.7873 60.2417 14.1618 61.9373 14.1618Z" stroke="#03303D" stroke-width="2.5095" stroke-miterlimit="10"/>
<path d="M73.2264 25.1394C74.9219 25.1394 76.2964 23.7648 76.2964 22.0692C76.2964 20.3736 74.9219 18.999 73.2264 18.999C71.5308 18.999 70.1562 20.3736 70.1562 22.0692C70.1562 23.7648 71.5308 25.1394 73.2264 25.1394Z" stroke="#03303D" stroke-width="2.5095" stroke-miterlimit="10"/>
<path d="M64.0703 13.3232L71.0951 19.8799" stroke="#03303D" stroke-width="2.5095" stroke-miterlimit="10"/>
<path d="M59.7479 13.0684L53.1914 20.0934" stroke="#03303D" stroke-width="2.5095" stroke-miterlimit="10"/>
<path d="M38.9842 14.1618C40.6797 14.1618 42.0543 12.7873 42.0543 11.0917C42.0543 9.39607 40.6797 8.02148 38.9842 8.02148C37.2886 8.02148 35.9141 9.39607 35.9141 11.0917C35.9141 12.7873 37.2886 14.1618 38.9842 14.1618Z" stroke="#03303D" stroke-width="2.5095" stroke-miterlimit="10"/>
<path d="M50.2732 25.1394C51.9688 25.1394 53.3433 23.7648 53.3433 22.0692C53.3433 20.3736 51.9688 18.999 50.2732 18.999C48.5777 18.999 47.2031 20.3736 47.2031 22.0692C47.2031 23.7648 48.5777 25.1394 50.2732 25.1394Z" stroke="#03303D" stroke-width="2.5095" stroke-miterlimit="10"/>
<path d="M41.1133 13.3232L48.1381 19.8799" stroke="#03303D" stroke-width="2.5095" stroke-miterlimit="10"/>
<line x1="64.6005" y1="45.9883" x2="64.6005" y2="25.7256" stroke="#03303D" stroke-width="2.51"/>
<line x1="82.6083" y1="45.9883" x2="82.6083" y2="21.2227" stroke="#03303D" stroke-width="2.51"/>
<line x1="73.6083" y1="45.9883" x2="73.6083" y2="31.3541" stroke="#03303D" stroke-width="2.51"/>
<line x1="54.4716" y1="45.9883" x2="54.4716" y2="35.856" stroke="#03303D" stroke-width="2.51"/>
</svg>
