<svg width="477" height="372" viewBox="0 0 477 372" fill="none" xmlns="http://www.w3.org/2000/svg">
<path d="M326.095 266.539C326.179 237.889 310.848 214.619 291.852 214.563C272.856 214.507 257.388 237.687 257.305 266.337C257.221 294.987 272.552 318.257 291.548 318.313C310.544 318.369 326.011 295.189 326.095 266.539Z" stroke="#03313E" stroke-width="2.49" stroke-miterlimit="10"/>
<path d="M291.683 217.345V371.58" stroke="#03313E" stroke-width="2.49" stroke-miterlimit="10"/>
<path d="M229.176 306.358L197.014 250.508H214.848L188.81 205.349H203.447L169.783 146.951L136.12 205.349H150.756L124.757 250.508H142.552L110.391 306.358H229.176Z" stroke="#03313E" stroke-width="2.49" stroke-miterlimit="10"/>
<path d="M169.786 149.73V371.588" stroke="#03313E" stroke-width="2.49" stroke-miterlimit="10"/>
<path d="M18.9077 284.472C18.9077 284.472 44.5598 310.332 47.7567 313.574" stroke="#03313E" stroke-width="2.49" stroke-miterlimit="10"/>
<path d="M48.4536 313.537C51.689 310.295 76.6478 285.438 76.6478 285.438" stroke="#03313E" stroke-width="2.49" stroke-miterlimit="10"/>
<path d="M0.883301 220.517C0.883301 220.517 42.3657 262.318 47.6425 267.644" stroke="#03313E" stroke-width="2.49" stroke-miterlimit="10"/>
<path d="M48.6821 267.757C53.5352 262.933 94.5169 222.097 94.5169 222.097" stroke="#03313E" stroke-width="2.49" stroke-miterlimit="10"/>
<path d="M47.7983 168.797V371.587" stroke="#03313E" stroke-width="2.49" stroke-miterlimit="10"/>
<path d="M18.9077 191.147L48.1033 220.559" stroke="#03313E" stroke-width="2.49" stroke-miterlimit="10"/>
<path d="M48.4536 220.209C51.766 216.928 76.6478 192.11 76.6478 192.11" stroke="#03313E" stroke-width="2.49" stroke-miterlimit="10"/>
<path d="M292.298 166.673C337.884 166.673 374.839 129.641 374.839 83.9593C374.839 38.2775 337.884 1.24512 292.298 1.24512C246.712 1.24512 209.757 38.2775 209.757 83.9593C209.757 129.641 246.712 166.673 292.298 166.673Z" stroke="#03313E" stroke-width="2.49" stroke-miterlimit="10"/>
<path d="M361.821 131.223L339.461 153.63L360.923 175.136L383.283 152.729L361.821 131.223Z" stroke="#03313E" stroke-width="2.4396" stroke-miterlimit="10"/>
<path d="M472.792 246.292L454.342 264.78C450.568 268.563 444.405 268.563 440.592 264.78L362.904 186.929C359.129 183.147 359.129 176.971 362.904 173.15L381.353 154.662C385.128 150.88 391.29 150.88 395.104 154.662L472.792 232.513C476.566 236.334 476.566 242.51 472.792 246.292Z" stroke="#03313E" stroke-width="2.49" stroke-miterlimit="10"/>
<path d="M248.547 83.9531H334.208" stroke="#03313E" stroke-width="2.49" stroke-miterlimit="10"/>
<path d="M291.375 126.839V41.0371" stroke="#03313E" stroke-width="2.49" stroke-miterlimit="10"/>
<path d="M33.3579 50.2637H178.797" stroke="#03313E" stroke-width="2.49" stroke-miterlimit="10"/>
<path d="M33.3579 79.4072H178.797" stroke="#03313E" stroke-width="2.49" stroke-miterlimit="10"/>
<path d="M33.3579 108.544H178.797" stroke="#03313E" stroke-width="2.49" stroke-miterlimit="10" stroke-dasharray="5 5"/>
</svg>
