<svg width="154" height="44" viewBox="0 0 154 44" fill="none" xmlns="http://www.w3.org/2000/svg">
<path d="M9.18872 2.2373V41.2898" stroke="#03303D" stroke-width="2.5095" stroke-miterlimit="10"/>
<path d="M1.54004 9.41226L9.13737 1.776L16.8374 9.4635" stroke="#03303D" stroke-width="2.5095" stroke-miterlimit="10"/>
<path d="M1.54004 14.5885L9.13737 6.95227L16.8374 14.6398" stroke="#03303D" stroke-width="2.5095" stroke-miterlimit="10"/>
<path d="M1.54004 19.7135L9.13737 12.1285L16.8374 19.816" stroke="#03303D" stroke-width="2.5095" stroke-miterlimit="10"/>
<path d="M1.54004 24.8898L9.13737 17.2535L16.8374 24.941" stroke="#03303D" stroke-width="2.5095" stroke-miterlimit="10"/>
<path d="M1.54004 30.066L9.13737 22.4298L16.8374 30.1173" stroke="#03303D" stroke-width="2.5095" stroke-miterlimit="10"/>
<path d="M1.54004 35.191L9.13737 27.606L16.8374 35.2935" stroke="#03303D" stroke-width="2.5095" stroke-miterlimit="10"/>
<path d="M37.5247 31.706L32.802 23.5572H35.42L31.6213 16.946H33.726L28.798 8.43848L23.87 16.946H26.026L22.2273 23.5572H24.8454L20.1227 31.706H37.5247Z" stroke="#03303D" stroke-width="2.5095" stroke-miterlimit="10"/>
<path d="M28.798 8.89978V41.2898" stroke="#03303D" stroke-width="2.5095" stroke-miterlimit="10"/>
<path d="M65.912 37.3435L70.07 41.4435L74.382 37.3435" stroke="#03303D" stroke-width="2.7708" stroke-miterlimit="10"/>
<path d="M70.1213 34.576V41.4436" stroke="#03303D" stroke-width="2.7708" stroke-miterlimit="10"/>
<path d="M77.8213 37.3435L81.9793 41.4435L86.2913 37.3435" stroke="#03303D" stroke-width="2.7708" stroke-miterlimit="10"/>
<path d="M82.0306 34.576V41.4436" stroke="#03303D" stroke-width="2.7708" stroke-miterlimit="10"/>
<path d="M54.0027 37.3435L58.1607 41.4435L62.4213 37.3435" stroke="#03303D" stroke-width="2.7708" stroke-miterlimit="10"/>
<path d="M58.212 34.576V41.4436" stroke="#03303D" stroke-width="2.7708" stroke-miterlimit="10"/>
<path d="M42.0934 37.3435L46.2514 41.4435L50.512 37.3435" stroke="#03303D" stroke-width="2.7708" stroke-miterlimit="10"/>
<path d="M46.3027 34.576V41.4436" stroke="#03303D" stroke-width="2.7708" stroke-miterlimit="10"/>
<path d="M81.624 5.36353V9.71978C81.624 9.71978 81.3673 14.1273 84.9607 14.1273C88.554 14.1273 91.48 14.1273 91.48 14.1273C91.48 14.1273 93.7387 13.9735 93.7387 17.5098" stroke="#03303D" stroke-width="2.5095" stroke-miterlimit="10"/>
<path d="M86.244 8.48975V9.71975C86.244 9.71975 85.9873 14.1272 89.5807 14.1272" stroke="#03303D" stroke-width="2.5095" stroke-miterlimit="10"/>
<path d="M109.344 5.36353V9.71978C109.344 9.71978 109.601 14.1273 106.007 14.1273C102.414 14.1273 99.488 14.1273 99.488 14.1273C99.488 14.1273 97.2294 13.9735 97.2294 17.5098" stroke="#03303D" stroke-width="2.5095" stroke-miterlimit="10"/>
<path d="M104.775 8.48975V9.71975C104.775 9.71975 105.032 14.1272 101.439 14.1272" stroke="#03303D" stroke-width="2.5095" stroke-miterlimit="10"/>
<path d="M103.441 16.946L98.9233 20.636L96.9726 28.7848H94.5086L92.558 20.636L88.0406 16.946" stroke="#03303D" stroke-width="2.5095" stroke-miterlimit="10"/>
<path d="M103.287 20.0723H122.229C123.409 20.0723 124.693 20.021 125.771 20.5848C126.9 21.1998 127.824 22.5323 127.824 23.8648C127.824 26.4785 127.824 40.9823 127.824 40.9823" stroke="#03303D" stroke-width="2.5095" stroke-miterlimit="10"/>
<path d="M112.886 30.2197C112.475 30.2197 106.418 30.2197 106.418 30.2197C104.621 30.2197 103.184 28.836 103.081 27.0422" stroke="#03303D" stroke-width="2.5095" stroke-miterlimit="10"/>
<path d="M105.648 30.2197V40.931" stroke="#03303D" stroke-width="2.5095" stroke-miterlimit="10"/>
<path d="M108.112 30.2197V40.931" stroke="#03303D" stroke-width="2.5095" stroke-miterlimit="10"/>
<path d="M125.257 32.4236V40.9311" stroke="#03303D" stroke-width="2.5095" stroke-miterlimit="10"/>
<path d="M115.761 23.6085C115.761 23.6085 114.067 33.0898 127.773 33.0898" stroke="#03303D" stroke-width="2.5095" stroke-miterlimit="10"/>
<path d="M135.161 28.7335C136.663 28.7335 137.881 27.5174 137.881 26.0173C137.881 24.5171 136.663 23.301 135.161 23.301C133.658 23.301 132.44 24.5171 132.44 26.0173C132.44 27.5174 133.658 28.7335 135.161 28.7335Z" stroke="#03303D" stroke-width="2.5095" stroke-miterlimit="10"/>
<path d="M138.292 37.8048H151.125V25.0436L138.292 37.8048Z" stroke="#03303D" stroke-width="2.5095" stroke-miterlimit="10"/>
</svg>
