<svg width="300" height="82" viewBox="0 0 300 82" fill="none" xmlns="http://www.w3.org/2000/svg">
<path d="M17.8984 3.8999V80.0999" stroke="#03303D" stroke-width="1.58098" stroke-miterlimit="10"/>
<path d="M3 17.9L17.8 3L32.8 18" stroke="#03303D" stroke-width="1.58098" stroke-miterlimit="10"/>
<path d="M3 28.0001L17.8 13.1001L32.8 28.1001" stroke="#03303D" stroke-width="1.58098" stroke-miterlimit="10"/>
<path d="M3 38.0002L17.8 23.2002L32.8 38.2002" stroke="#03303D" stroke-width="1.58098" stroke-miterlimit="10"/>
<path d="M3 48.1002L17.8 33.2002L32.8 48.2002" stroke="#03303D" stroke-width="1.58098" stroke-miterlimit="10"/>
<path d="M3 58.1998L17.8 43.2998L32.8 58.2998" stroke="#03303D" stroke-width="1.58098" stroke-miterlimit="10"/>
<path d="M3 68.1999L17.8 53.3999L32.8 68.3999" stroke="#03303D" stroke-width="1.58098" stroke-miterlimit="10"/>
<path d="M73.1031 61.4L63.9031 45.5H69.0031L61.6031 32.6H65.7031L56.1031 16L46.5031 32.6H50.7031L43.3031 45.5H48.4031L39.2031 61.4H73.1031Z" stroke="#03303D" stroke-width="1.58098" stroke-miterlimit="10"/>
<path d="M56.1016 16.8999V80.0999" stroke="#03303D" stroke-width="1.58098" stroke-miterlimit="10"/>
<path d="M128.398 72.3999L136.498 80.3999L144.898 72.3999" stroke="#03303D" stroke-width="1.7456" stroke-miterlimit="10"/>
<path d="M136.602 67V80.4" stroke="#03303D" stroke-width="1.7456" stroke-miterlimit="10"/>
<path d="M151.602 72.3999L159.702 80.3999L168.102 72.3999" stroke="#03303D" stroke-width="1.7456" stroke-miterlimit="10"/>
<path d="M159.805 67V80.4" stroke="#03303D" stroke-width="1.7456" stroke-miterlimit="10"/>
<path d="M105.203 72.3999L113.303 80.3999L121.603 72.3999" stroke="#03303D" stroke-width="1.7456" stroke-miterlimit="10"/>
<path d="M113.406 67V80.4" stroke="#03303D" stroke-width="1.7456" stroke-miterlimit="10"/>
<path d="M82 72.3999L90.1 80.3999L98.4 72.3999" stroke="#03303D" stroke-width="1.7456" stroke-miterlimit="10"/>
<path d="M90.2031 67V80.4" stroke="#03303D" stroke-width="1.7456" stroke-miterlimit="10"/>
<path d="M159.008 10V18.5C159.008 18.5 158.508 27.1 165.508 27.1C172.508 27.1 178.208 27.1 178.208 27.1C178.208 27.1 182.608 26.8 182.608 33.7" stroke="#03303D" stroke-width="1.58098" stroke-miterlimit="10"/>
<path d="M168.008 16.1001V18.5001C168.008 18.5001 167.508 27.1001 174.508 27.1001" stroke="#03303D" stroke-width="1.58098" stroke-miterlimit="10"/>
<path d="M213.006 10V18.5C213.006 18.5 213.506 27.1 206.506 27.1C199.506 27.1 193.806 27.1 193.806 27.1C193.806 27.1 189.406 26.8 189.406 33.7" stroke="#03303D" stroke-width="1.58098" stroke-miterlimit="10"/>
<path d="M204.109 16.1001V18.5001C204.109 18.5001 204.609 27.1001 197.609 27.1001" stroke="#03303D" stroke-width="1.58098" stroke-miterlimit="10"/>
<path d="M201.508 32.6001L192.708 39.8001L188.908 55.7001H184.108L180.308 39.8001L171.508 32.6001" stroke="#03303D" stroke-width="1.58098" stroke-miterlimit="10"/>
<path d="M201.211 38.7001H238.111C240.411 38.7001 242.911 38.6001 245.011 39.7001C247.211 40.9001 249.011 43.5001 249.011 46.1001C249.011 51.2001 249.011 79.5001 249.011 79.5001" stroke="#03303D" stroke-width="1.58098" stroke-miterlimit="10"/>
<path d="M219.905 58.4998C219.105 58.4998 207.305 58.4998 207.305 58.4998C203.805 58.4998 201.005 55.7998 200.805 52.2998" stroke="#03303D" stroke-width="1.58098" stroke-miterlimit="10"/>
<path d="M205.805 58.5V79.4" stroke="#03303D" stroke-width="1.58098" stroke-miterlimit="10"/>
<path d="M210.609 58.5V79.4" stroke="#03303D" stroke-width="1.58098" stroke-miterlimit="10"/>
<path d="M244.008 62.7998V79.3998" stroke="#03303D" stroke-width="1.58098" stroke-miterlimit="10"/>
<path d="M225.505 45.6001C225.505 45.6001 222.205 64.1001 248.905 64.1001" stroke="#03303D" stroke-width="1.58098" stroke-miterlimit="10"/>
<path d="M263.3 55.6C266.227 55.6 268.6 53.2271 268.6 50.3C268.6 47.3729 266.227 45 263.3 45C260.373 45 258 47.3729 258 50.3C258 53.2271 260.373 55.6 263.3 55.6Z" stroke="#03303D" stroke-width="1.58098" stroke-miterlimit="10"/>
<path d="M269.398 73.3004H294.398V48.4004L269.398 73.3004Z" stroke="#03303D" stroke-width="1.58098" stroke-miterlimit="10"/>
</svg>
