<svg width="124" height="126" viewBox="0 0 124 126" fill="none" xmlns="http://www.w3.org/2000/svg">
<path d="M123.934 0H0V125.846H123.934V0Z" fill="#407D45"/>
<path d="M15.637 10.5547V35.9191H11.4367V16.503H11.4027L8.45234 19.6066H8.41406V15.1562L12.2827 10.5547H15.637Z" fill="white"/>
<path d="M29.4881 16.0521V18.2579C29.4881 20.3903 28.3445 21.8104 26.6142 22.3716C28.7143 22.8594 29.7091 24.3529 29.7091 26.6753V30.4177C29.7091 33.9358 27.8683 36.2149 23.6298 36.2149C19.3912 36.2149 17.8438 33.7458 17.8438 29.8911V26.563H21.6742V30.1933C21.6742 31.6911 22.1886 32.6624 23.6255 32.6624C24.9137 32.6624 25.5046 31.73 25.5046 30.3789V26.1875C25.5046 24.8407 24.9137 24.1328 23.4427 24.1328H21.6742V20.878H23.2599C24.6246 20.878 25.5046 20.1658 25.5046 18.819V16.0909C25.5046 14.7053 25.0285 13.8074 23.7021 13.8074C22.3757 13.8074 21.8953 14.7053 21.8953 16.2765V18.8579H18.0606V16.6132C18.0606 12.8707 19.5698 10.2549 23.9189 10.2549C27.7876 10.2549 29.4838 12.4607 29.4838 16.0521" fill="white"/>
<path d="M81.6546 83.371C81.1402 83.2286 78.9933 80.2156 80.6895 78.23C80.9701 77.9062 80.1199 76.9436 80.3537 76.9264C81.2805 76.853 81.7779 77.4357 82.0202 78.2818C82.0415 78.653 82.0542 79.0285 82.0542 79.4084C82.0542 80.7681 81.9139 82.0933 81.6546 83.371ZM76.4127 93.1784C76.2214 93.1223 76.0259 93.0618 75.8091 92.9539C74.7675 92.4143 74.8908 93.2777 74.3764 93.0877C73.862 92.8935 74.9545 91.6848 73.4113 92.7079C71.8766 93.7266 72.289 92.5525 71.6215 90.8215C70.9456 89.0905 72.3953 87.1178 73.6026 86.6689C75.2649 86.056 76.298 85.9351 77.0759 85.7409C79.3759 85.1581 79.8606 83.7725 80.2772 84.6142C80.358 84.7739 80.4302 84.9207 80.5025 85.0631C80.6343 85.3135 80.7916 85.8272 80.8001 86.3279C79.8265 88.9222 78.3216 91.2532 76.417 93.1784M62.9234 98.8288C61.057 98.8288 59.2545 98.5525 57.5455 98.0475C57.2989 97.8446 57.1628 97.5079 57.3159 97.0978C57.9068 95.5309 59.6711 94.918 61.0613 94.7798C64.1647 94.4733 68.2375 96.8259 68.8879 96.446C69.5384 96.0662 70.8478 94.3352 72.7736 94.4086C74.0873 94.4604 74.0788 94.6849 74.5166 94.8532C71.2984 97.3439 67.2852 98.8288 62.9234 98.8288ZM60.3216 86.1725C60.058 86.6085 59.3395 89.8762 58.8549 89.4963C58.3702 89.1164 59.0504 85.7106 59.1907 85.4517C59.9474 84.0444 61.58 84.1135 60.3216 86.1768M68.1355 82.3178C67.7571 82.6588 66.7878 82.5336 66.3074 82.1494C65.827 81.7696 66.6135 81.1394 66.8983 81.1178C67.5445 81.0573 68.5096 81.9725 68.1355 82.3178ZM76.5743 82.348C76.366 82.2703 76.1874 82.0717 76.0301 81.5969C75.8771 81.1178 76.2682 80.8458 76.6551 81.0401C77.0504 81.243 77.5563 81.8386 77.5563 82.1538C77.5563 82.4689 76.7869 82.4343 76.5743 82.348ZM77.3905 82.948C78.0325 82.8962 79.0018 83.7984 78.6234 84.148C78.2451 84.4934 77.2842 84.3682 76.7996 83.984C76.3192 83.6041 77.1014 82.9739 77.3905 82.948ZM56.8695 90.692C56.4954 92.1769 56.066 92.7122 55.6919 93.1784C55.322 93.6489 53.9531 94.2575 53.0858 94.1885C52.2143 94.1237 52.0953 91.7668 52.0953 90.5539C52.0953 90.1352 51.5129 91.3783 51.2068 88.8531C51.0112 87.2387 49.9909 89.0215 49.9186 87.9466C49.8463 86.8718 49.3362 87.0833 48.7963 86.4142C48.2649 85.7409 47.5974 86.479 46.8534 86.82C46.1137 87.1567 46.4156 87.3294 45.3612 86.9927C45.3357 86.984 45.3187 86.9754 45.2932 86.9668C44.3239 84.6444 43.7925 82.089 43.7925 79.4084C43.7925 78.7523 43.8265 78.1091 43.886 77.4702C43.92 77.4055 43.9583 77.3407 44.0051 77.2889C45.0169 76.076 44.9956 75.7868 44.9956 75.7868L46.1137 75.394C46.1137 75.394 47.8992 75.6745 49.2469 76.1882C50.3565 76.6112 52.1038 77.5652 53.1156 77.1465C53.8511 76.84 54.425 76.4299 54.3527 75.8127C54.2719 75.0357 53.6683 74.8457 52.9328 75.3724C52.665 75.5666 52.091 74.1983 51.6404 74.2673C51.1898 74.3364 52.1973 75.8731 51.8147 75.9378C51.4321 76.0026 50.6583 74.3364 50.5266 74.0644C50.399 73.7968 49.8038 73.1234 49.2682 73.6371C48.1416 74.7249 46.305 74.6601 45.9394 74.9364C44.8213 75.7868 44.5237 74.6558 44.5492 73.9695C44.5917 73.8141 44.6385 73.6544 44.6895 73.499C45.0551 73.0889 46.3688 72.9551 46.8194 73.2615C47.3126 73.5982 47.6697 73.1752 47.861 72.9723C48.0566 72.7738 47.9885 72.45 47.8652 72.1824C47.7377 71.9105 48.1118 71.7162 48.3669 71.6471C48.6262 71.5781 49.4765 70.9694 49.8166 70.7709C50.1609 70.5723 51.9295 70.3522 52.7202 70.7536C53.5152 71.1594 54.2422 70.827 54.6291 70.3608C55.118 69.7737 55.7387 69.3248 56.015 69.1867C56.2913 69.0529 55.3305 68.1464 54.544 69.1349C53.7533 70.1234 53.3494 70.214 52.9796 70.214C52.6097 70.214 50.399 69.6529 50.1269 68.9449C49.8591 68.237 50.8157 67.7061 51.6319 67.3046C52.4482 66.9118 54.6758 66.9161 55.2455 66.7823C56.4061 66.5233 57.8856 65.932 58.6338 66.4499C59.3778 66.955 55.5176 67.8485 56.7845 68.5435C57.2351 68.7939 59.2757 67.3521 59.9772 66.9809C61.6225 66.1176 58.383 65.837 58.7996 64.0845C59.2757 62.1031 54.8246 62.8715 52.6097 63.0398C55.5856 61.106 59.1184 59.9794 62.9106 59.9794C71.9361 59.9794 79.4949 66.3291 81.51 74.863C81.5228 75.286 81.459 75.5925 81.4165 75.7652C81.2422 76.4645 79.9371 77.0645 79.1761 75.9378C78.9848 75.653 78.1643 74.8673 78.1898 76.2141C78.2153 77.5609 79.4779 77.699 78.2536 78.5062C77.0334 79.3134 76.8081 79.1192 76.2427 79.3221C75.6772 79.5249 75.1331 80.9106 75.2691 81.653C75.4052 82.3955 77.1482 84.42 75.8558 84.338C75.554 84.3164 73.2668 82.7322 72.8884 81.7091C72.4888 80.6343 72.0552 79.5854 71.7491 78.7782C71.4387 77.971 70.631 77.7681 69.9465 78.2386C69.2663 78.7091 70.1378 79.1839 69.6447 80.194C69.1558 81.2041 68.8072 82.1063 68.0887 81.2732C66.2224 79.0976 63.51 80.1724 63.0849 77.7551C62.8553 76.4429 61.7457 76.5724 60.8147 75.8256C59.8794 75.0875 59.3608 74.686 59.2035 75.2213C59.0674 75.6918 62.1283 78.1566 62.3452 78.7868C62.6683 79.7278 61.4269 80.5523 60.5171 80.7768C59.6116 80.9969 59.212 80.2588 58.3235 79.3177C57.4349 78.3767 57.0438 77.7033 56.9843 78.4415C56.895 79.512 57.8303 81.0789 58.7358 81.666C59.5096 82.1667 60.3768 82.3912 60.126 83.1984C59.8752 84.0099 60.1218 83.548 59.2545 84.42C58.3872 85.2962 58.2214 85.5768 58.2852 86.7855C58.3489 87.9984 58.0386 88.0675 57.8516 89.0776C57.6645 90.0834 57.2351 89.2114 56.861 90.692M46.5941 69.286C46.6366 69.2342 46.6749 69.191 46.6919 69.1694C47.0363 68.768 47.725 68.6859 48.2011 68.6082C48.6772 68.5262 49.3107 68.768 49.3872 69.0917C49.468 69.4111 48.1926 69.9982 47.963 70.2183C47.2998 70.8356 46.2667 72.0918 45.6631 72.2299C45.4675 72.2731 45.3017 72.2428 45.1699 72.1781C45.5695 71.1723 46.0414 70.2011 46.5941 69.286ZM47.5719 67.309C47.8185 66.9377 48.6432 65.8845 48.741 65.755C48.9536 65.4787 49.3745 65.4226 49.6678 65.3665C49.9569 65.3104 50.348 65.4787 50.3948 65.6989C50.4458 65.9233 50.28 66.7823 50.1354 66.9334C49.7316 67.3564 48.6857 67.9565 48.1076 67.8615C47.6612 67.7924 47.4869 67.4428 47.5719 67.309ZM108.383 78.7825C105.118 74.1292 90.3485 55.5635 62.8936 55.5635C35.4387 55.5635 20.6697 74.1292 17.3962 78.7825C17.2559 78.9811 17.1368 79.1537 17.0391 79.3005C17.1368 79.4516 17.2559 79.6199 17.3962 79.8228C20.6654 84.4718 35.4302 103.037 62.8936 103.037C90.357 103.037 105.118 84.4675 108.383 79.8228C108.523 79.6199 108.642 79.4516 108.735 79.3005C108.642 79.1537 108.523 78.9811 108.383 78.7825Z" fill="white"/>
<path d="M39.5469 18.3073V13.2266C39.5469 11.5863 40.3078 10.3906 42.1402 10.3906C44.0617 10.3906 44.5932 11.4741 44.5932 13.0237V14.2626H43.0074V12.8856C43.0074 12.2338 42.7949 11.8626 42.1699 11.8626C41.545 11.8626 41.2856 12.3115 41.2856 12.9461V18.5835C41.2856 19.2181 41.545 19.667 42.1699 19.667C42.7949 19.667 43.0074 19.2612 43.0074 18.644V16.7101H44.5932V18.5231C44.5932 20.0253 43.9852 21.1433 42.1402 21.1433C40.2951 21.1433 39.5469 19.9346 39.5469 18.3073Z" fill="white"/>
<path d="M45.7109 10.5205H47.454V19.5811H49.5243V21.0185H45.7109V10.5205Z" fill="white"/>
<path d="M52.1997 10.5205H50.4609V21.0228H52.1997V10.5205Z" fill="white"/>
<path d="M58.2834 14.2069H58.2367L57.0633 21.0185H56.2555L54.9589 14.2069H54.9249V21.0185H53.4922V10.5205H55.5243L56.6509 16.4343H56.6679L57.6755 10.5205H59.8691V21.0185H58.2834V14.2069Z" fill="white"/>
<path d="M62.9231 17.6888H64.309L63.6246 13.4758H63.6076L62.9231 17.6888ZM60.7422 21.0169L62.6935 10.5146H64.6789L66.6473 21.0169H64.8617L64.5429 19.0961H62.6978L62.3917 21.0169H60.7422Z" fill="white"/>
<path d="M66.4141 10.5205H71.0395V11.9579H69.6025V21.0185H67.851V11.9579H66.4141V10.5205Z" fill="white"/>
<path d="M72 10.5205H76.1493V11.9579H73.7388V14.9623H75.4648V16.3911H73.7388V19.5811H76.1493V21.0185H72V10.5205Z" fill="white"/>
<path d="M41.4309 32.5912H42.8168L42.1324 28.3782H42.1154L41.4309 32.5912ZM39.25 35.9193L41.2013 25.417H43.1867L45.1551 35.9193H43.3695L43.0507 33.9984H41.2056L40.8995 35.9193H39.25Z" fill="white"/>
<path d="M45.6406 33.2086V28.128C45.6406 26.4877 46.4016 25.292 48.2339 25.292C50.1555 25.292 50.6912 26.3755 50.6912 27.9251V29.164H49.1054V27.787C49.1054 27.1352 48.8929 26.764 48.2637 26.764C47.6345 26.764 47.3794 27.2129 47.3794 27.8474V33.4849C47.3794 34.1194 47.6388 34.5684 48.2637 34.5684C48.8886 34.5684 49.1054 34.1626 49.1054 33.5453V31.6115H50.6912V33.4245C50.6912 34.9267 50.079 36.0447 48.2339 36.0447C46.3889 36.0447 45.6406 34.836 45.6406 33.2086Z" fill="white"/>
<path d="M51.3047 25.417H55.9301V26.8587H54.4932V35.9193H52.7416V26.8587H51.3047V25.417Z" fill="white"/>
<path d="M58.6294 25.417H56.8906V35.9193H58.6294V25.417Z" fill="white"/>
<path d="M63.3091 33.4892V27.8517C63.3091 27.2172 63.037 26.7683 62.4079 26.7683C61.7787 26.7683 61.5236 27.2172 61.5236 27.8517V33.4892C61.5236 34.1238 61.7957 34.5727 62.4079 34.5727C63.02 34.5727 63.3091 34.1238 63.3091 33.4892ZM59.7891 33.2086V28.128C59.7891 26.4877 60.584 25.292 62.4121 25.292C64.2402 25.292 65.0522 26.4834 65.0522 28.128V33.2086C65.0522 34.836 64.2572 36.0447 62.4121 36.0447C60.567 36.0447 59.7891 34.836 59.7891 33.2086Z" fill="white"/>
<path d="M67.6421 29.3192V35.9193H66.1797V25.417H67.8887L69.7635 31.443V25.417H71.2132V35.9193H69.687L67.6421 29.3192Z" fill="white"/>
</svg>
