<svg width="124" height="126" viewBox="0 0 124 126" fill="none" xmlns="http://www.w3.org/2000/svg">
<path d="M123.938 0H0V125.846H123.938V0Z" fill="#1A476B"/>
<path d="M18.5433 10.5459V35.9189H14.343V16.4942H14.3047L11.3586 19.6021H11.3203V15.1474L15.189 10.5459H18.5433Z" fill="white"/>
<path d="M20.4609 10.5459H31.0042V14.474L25.5115 35.9189H21.3452L26.9484 14.0251H20.4609V10.5459Z" fill="white"/>
<path d="M73.6682 77.414C76.8482 74.4183 78.8421 70.1448 78.8421 65.4009C78.8421 64.693 78.791 63.9937 78.706 63.3073C85.168 64.0109 90.2186 69.5794 90.2186 76.3219C90.2186 80.155 88.5776 83.5954 85.9843 85.9911C83.5526 81.368 79.0079 78.0658 73.6682 77.414ZM84.6281 93.6833C84.6281 100.901 78.8464 106.771 71.7339 106.771C69.4212 106.771 67.2573 106.141 65.3782 105.053C68.1203 102.114 69.8123 98.151 69.8123 93.7912C69.8123 92.7164 69.7061 91.6674 69.5105 90.6574C71.8275 91.9653 74.493 92.712 77.3286 92.712C79.8539 92.712 82.2389 92.1207 84.3688 91.0674C84.5388 91.9135 84.6324 92.7897 84.6324 93.6833M40.7759 93.7912C40.7759 92.8588 40.8737 91.9523 41.0608 91.0804C43.1864 92.125 45.5629 92.712 48.0797 92.712C50.9068 92.712 53.5596 91.9696 55.8766 90.6703C55.6937 91.6459 55.596 92.6559 55.596 93.6833C55.596 98.1078 57.339 102.131 60.1618 105.083C58.253 106.219 56.0381 106.879 53.6744 106.879C46.562 106.879 40.7802 101.009 40.7802 93.7912M35.1854 76.3219C35.1854 69.575 40.236 64.0109 46.6938 63.3073C46.6087 63.9937 46.5577 64.693 46.5577 65.4009C46.5577 70.1923 48.5941 74.5089 51.8293 77.509C46.4769 78.1262 41.9068 81.4112 39.4538 86.0256C36.8392 83.6299 35.1812 80.1723 35.1812 76.3219M62.6999 52.3129C67.9843 52.3129 72.5289 55.5547 74.5185 60.1821C69.2724 61.1231 64.8936 64.6369 62.6999 69.3938C60.5062 64.6369 56.1274 61.1231 50.8855 60.1821C52.8751 55.5547 57.4198 52.3129 62.6999 52.3129ZM65.7693 82.0889C67.5549 81.1392 69.5785 80.591 71.7339 80.591C76.8015 80.591 81.1845 83.5868 83.2889 87.9163C81.5034 88.866 79.4713 89.4098 77.3244 89.4098C72.2568 89.4098 67.8737 86.4184 65.7693 82.0889ZM59.5922 82.1752C57.4708 86.4573 53.1132 89.4098 48.0797 89.4098C45.9455 89.4098 43.9304 88.8703 42.1576 87.9336C44.279 83.6515 48.6409 80.6989 53.6744 80.6989C55.8086 80.6989 57.8194 81.2385 59.5964 82.1752M49.9757 63.3894C56.1826 64.3261 60.9653 69.7607 60.9653 76.3219C60.9653 77.0039 60.8974 77.6773 60.7953 78.3334C54.5884 77.3967 49.8057 71.9621 49.8057 65.4052C49.8057 64.7189 49.8737 64.0498 49.9757 63.3937M62.7594 103.059C60.3447 100.681 58.8397 97.3567 58.8397 93.6833C58.8397 90.0099 60.2979 86.7854 62.6404 84.4112C65.0509 86.7897 66.5601 90.1134 66.5601 93.7912C66.5601 97.4689 65.1062 100.689 62.7594 103.059ZM75.5941 65.4009C75.5941 71.9621 70.8114 77.3924 64.6045 78.3291C64.5025 77.673 64.4344 77.0039 64.4344 76.3176C64.4344 69.7563 69.2171 64.3217 75.424 63.385C75.5261 64.0412 75.5941 64.7102 75.5941 65.3966M93.4708 76.3219C93.4708 67.4815 86.5454 60.2641 77.9238 59.9447C75.7046 53.582 69.7188 49.0107 62.7042 49.0107C55.6895 49.0107 49.7079 53.582 47.4845 59.9447C38.8586 60.2641 31.9375 67.4858 31.9375 76.3219C31.9375 81.5666 34.3777 86.2371 38.1656 89.2415C37.7532 90.6876 37.5279 92.2156 37.5279 93.7912C37.5279 102.826 44.7722 110.177 53.6744 110.177C57.0542 110.177 60.1874 109.115 62.7849 107.306C65.3485 109.05 68.4307 110.069 71.7424 110.069C80.6447 110.069 87.8846 102.714 87.8846 93.6833C87.8846 92.1379 87.6678 90.6401 87.2724 89.2242C91.0433 86.2199 93.4751 81.5536 93.4751 76.3219" fill="white"/>
<path d="M41.2751 11.952V16.001H41.9043C42.4867 16.001 42.7418 15.7117 42.7418 15.1506V12.7851C42.7418 12.2239 42.4867 11.952 41.9043 11.952H41.2751ZM39.5703 10.5405H42.0956C43.8131 10.5405 44.4423 11.4038 44.4423 12.8455V15.0125C44.4423 16.4542 43.8131 17.3305 42.0956 17.3305H41.2751V20.8183H39.5746V10.5361L39.5703 10.5405Z" fill="white"/>
<path d="M46.7869 17.5598H48.1473L47.4756 13.4331H47.4585L46.7869 17.5598ZM44.6484 20.8232L46.5615 10.541H48.5044L50.4303 20.8232H48.6829L48.3683 18.9411H46.5615L46.264 20.8232H44.6484Z" fill="white"/>
<path d="M52.986 11.9525V15.1511H53.5557C54.1381 15.1511 54.3932 14.849 54.3932 14.3008V12.7856C54.3932 12.2245 54.1424 11.9525 53.5557 11.9525H52.986ZM52.986 16.1051V20.8232H51.2812V10.541H53.7597C55.4773 10.541 56.1065 11.4043 56.1065 12.8461V14.1626C56.1065 15.272 55.7196 15.9238 54.746 16.1483L56.3743 20.8189H54.5802L52.9818 16.1008L52.986 16.1051Z" fill="white"/>
<path d="M56.7109 10.541H61.2343V11.9525H59.8314V20.8232H58.1139V11.9525H56.7109V10.541Z" fill="white"/>
<path d="M63.7416 14.3612V20.8232H62.3047V10.541H63.9797L65.8163 16.4375V10.541H67.2362V20.8232H65.744L63.7416 14.3612Z" fill="white"/>
<path d="M68.6406 10.541H72.7006V11.9525H70.3411V14.8922H72.0289V16.2864H70.3411V19.4116H72.7006V20.8232H68.6406V10.541Z" fill="white"/>
<path d="M75.4782 11.9535V15.1521H76.0479C76.6304 15.1521 76.8854 14.85 76.8854 14.3018V12.7866C76.8854 12.2255 76.6346 11.9535 76.0479 11.9535H75.4782ZM75.4782 16.1061V20.8241H73.7734V10.542H76.252C77.9695 10.542 78.5987 11.4053 78.5987 12.8471V14.1636C78.5987 15.273 78.2118 15.9248 77.2383 16.1493L78.8665 20.8198H77.0725L75.474 16.1018L75.4782 16.1061Z" fill="white"/>
<path d="M79.4453 18.6105V17.2292H81.0268V18.6407C81.0268 19.2191 81.2819 19.5515 81.8643 19.5515C82.3999 19.5515 82.6422 19.1889 82.6422 18.6407V18.2479C82.6422 17.6565 82.4 17.2896 81.8813 16.7932L80.8823 15.7788C79.913 14.8075 79.4623 14.2162 79.4623 13.0334V12.6838C79.4623 11.4104 80.1935 10.4219 81.8515 10.4219C83.5095 10.4219 84.228 11.2722 84.228 12.7572V13.5903H82.672V12.6967C82.672 12.1053 82.4042 11.8161 81.8685 11.8161C81.3881 11.8161 81.0608 12.0881 81.0608 12.6665V12.878C81.0608 13.4564 81.3754 13.7888 81.8685 14.2723L82.9568 15.3644C83.8836 16.3184 84.3301 16.8968 84.3301 18.032V18.5328C84.3301 19.9443 83.5818 20.9458 81.8515 20.9458C80.1212 20.9458 79.4453 19.9616 79.4453 18.6105Z" fill="white"/>
<path d="M88.7208 16.2864H87.0755V20.8232H85.375V10.541H87.0755V14.8922H88.7208V10.541H90.4383V20.8232H88.7208V16.2864Z" fill="white"/>
<path d="M93.263 10.541H91.5625V20.8232H93.263V10.541Z" fill="white"/>
<path d="M96.111 11.9539V16.0029H96.7402C97.3226 16.0029 97.5777 15.7137 97.5777 15.1525V12.787C97.5777 12.2259 97.3226 11.9539 96.7402 11.9539H96.111ZM94.4062 10.5424H96.9316C98.6491 10.5424 99.2782 11.4057 99.2782 12.8475V15.0144C99.2782 16.4562 98.6491 17.3324 96.9316 17.3324H96.111V20.8202H94.4105V10.5381L94.4062 10.5424Z" fill="white"/>
<path d="M99.9375 18.6105V17.2292H101.519V18.6407C101.519 19.2191 101.774 19.5515 102.357 19.5515C102.892 19.5515 103.134 19.1889 103.134 18.6407V18.2479C103.134 17.6565 102.892 17.2896 102.373 16.7932L101.374 15.7788C100.405 14.8075 99.9545 14.2162 99.9545 13.0334V12.6838C99.9545 11.4104 100.686 10.4219 102.344 10.4219C104.002 10.4219 104.72 11.2722 104.72 12.7572V13.5903H103.164V12.6967C103.164 12.1053 102.896 11.8161 102.361 11.8161C101.88 11.8161 101.553 12.0881 101.553 12.6665V12.878C101.553 13.4564 101.863 13.7888 102.361 14.2723L103.449 15.3644C104.376 16.3184 104.822 16.8968 104.822 18.032V18.5328C104.822 19.9443 104.074 20.9458 102.344 20.9458C100.613 20.9458 99.9375 19.9616 99.9375 18.6105Z" fill="white"/>
<path d="M39.5781 25.4775H43.6296V26.9107H41.3084V29.8977H43.0344V31.3179H41.3084V35.9237H39.5781V25.4775Z" fill="white"/>
<path d="M47.7219 33.5003V27.8931C47.7219 27.2585 47.4497 26.8139 46.8291 26.8139C46.2084 26.8139 45.9491 27.2585 45.9491 27.8931V33.5003C45.9491 34.1349 46.2211 34.5795 46.8291 34.5795C47.437 34.5795 47.7219 34.1349 47.7219 33.5003ZM44.2188 33.2241V28.1693C44.2188 26.5377 45.0052 25.3506 46.8291 25.3506C48.6529 25.3506 49.4521 26.5377 49.4521 28.1693V33.2241C49.4521 34.8428 48.6656 36.0428 46.8291 36.0428C44.9925 36.0428 44.2188 34.8428 44.2188 33.2241Z" fill="white"/>
<path d="M52.324 26.9097V30.1601H52.8979C53.4889 30.1601 53.7482 29.8536 53.7482 29.2968V27.7557C53.7482 27.1859 53.4889 26.9097 52.8979 26.9097H52.324ZM52.324 31.1313V35.9228H50.5938V25.4766H53.1105C54.8578 25.4766 55.4912 26.3528 55.4912 27.8162V29.1543C55.4912 30.2766 55.0958 30.9414 54.1095 31.1702L55.7633 35.9141H53.9437L52.3198 31.1227L52.324 31.1313Z" fill="white"/>
<path d="M58.2031 25.4775H62.8031V26.9107H61.3746V35.9237H59.6316V26.9107H58.2031V25.4775Z" fill="white"/>
<path d="M67.0182 31.3179H65.3475V35.9237H63.6172V25.4775H65.3475V29.9021H67.0182V25.4775H68.7613V35.9237H67.0182V31.3179Z" fill="white"/>
<path d="M69.9062 25.4775H74.03V26.9107H71.6366V29.8977H73.3498V31.3179H71.6366V34.4906H74.03V35.9237H69.9062V25.4775Z" fill="white"/>
<path d="M79.5556 30.3449H82.0128V35.922H80.7715V34.7824C80.5419 35.568 80.0573 36.0428 79.1177 36.0428C77.6298 36.0428 76.9453 34.8428 76.9453 33.2241V28.1693C76.9453 26.5377 77.719 25.3506 79.5386 25.3506C81.4474 25.3506 82.0128 26.4297 82.0128 27.9708V28.8945H80.4356V27.8326C80.4356 27.1851 80.1933 26.8139 79.5726 26.8139C78.9519 26.8139 78.6756 27.2585 78.6756 27.8931V33.5003C78.6756 34.1306 78.9349 34.5795 79.5258 34.5795C80.1168 34.5795 80.3761 34.2557 80.3761 33.578V31.7305H79.5556V30.3449Z" fill="white"/>
<path d="M86.4917 33.5003V27.8931C86.4917 27.2585 86.2196 26.8139 85.5989 26.8139C84.9782 26.8139 84.7189 27.2585 84.7189 27.8931V33.5003C84.7189 34.1349 84.991 34.5795 85.5989 34.5795C86.2069 34.5795 86.4917 34.1349 86.4917 33.5003ZM82.9844 33.2241V28.1693C82.9844 26.5377 83.7709 25.3506 85.5947 25.3506C87.4185 25.3506 88.2178 26.5377 88.2178 28.1693V33.2241C88.2178 34.8428 87.4312 36.0428 85.5947 36.0428C83.7581 36.0428 82.9844 34.8428 82.9844 33.2241Z" fill="white"/>
<path d="M90.8713 32.6129H92.253L91.5685 28.4215H91.5515L90.8671 32.6129H90.8713ZM88.7031 35.9237L90.646 25.4775H92.6186L94.5742 35.9237H92.8014L92.4825 34.0115H90.646L90.3441 35.9237H88.7074H88.7031Z" fill="white"/>
<path d="M95.5703 25.4775H97.3006V34.4906H99.3625V35.9237H95.5703V25.4775Z" fill="white"/>
<path d="M99.9922 33.674V32.2711H101.599V33.7042C101.599 34.2869 101.859 34.6279 102.449 34.6279C102.998 34.6279 103.24 34.2567 103.24 33.7042V33.3027C103.24 32.7027 102.998 32.3315 102.466 31.8222L101.45 30.7905C100.464 29.8063 100.009 29.202 100.009 28.002V27.648C100.009 26.353 100.753 25.3516 102.437 25.3516C104.12 25.3516 104.851 26.2149 104.851 27.7257V28.5718H103.274V27.6653C103.274 27.0653 103.002 26.7717 102.454 26.7717C101.969 26.7717 101.633 27.048 101.633 27.635V27.8509C101.633 28.4379 101.952 28.7746 102.454 29.2667L103.563 30.3761C104.503 31.3473 104.958 31.9344 104.958 33.0869V33.5963C104.958 35.0294 104.201 36.0481 102.441 36.0481C100.681 36.0481 100.001 35.0467 100.001 33.674" fill="white"/>
</svg>
