<svg width="124" height="126" viewBox="0 0 124 126" fill="none" xmlns="http://www.w3.org/2000/svg">
<path d="M123.938 0H0V125.846H123.938V0Z" fill="#57BF2B"/>
<path d="M9.07812 15.1351V19.5898H9.11214L12.0625 16.4819H12.1008V35.9066H16.3011V10.5293H12.9468L9.07812 15.1351Z" fill="white"/>
<path d="M26.2877 18.5803C24.6297 18.5803 23.4138 19.176 22.7506 20.3372H22.7123V14.0134H29.9353V10.5342H18.8777V24.8308H22.7081V24.2653C22.7081 22.7718 23.3713 21.9473 24.5489 21.9473C25.8413 21.9473 26.3557 22.8451 26.3557 24.2308V30.369C26.3557 31.7158 25.8753 32.6525 24.5871 32.6525C23.1502 32.6525 22.6358 31.6812 22.6358 30.1834V27.002H18.7969V29.8855C18.7969 33.7359 20.3103 36.2093 24.5829 36.2093C28.8555 36.2093 30.5517 33.9259 30.5517 30.4078V24.1919C30.5517 20.1904 28.5281 18.5803 26.2749 18.5803" fill="white"/>
<path d="M51.3266 85.0859C51.4797 85.0859 51.5987 85.2111 51.5987 85.3622V94.5263C51.5987 94.6817 51.4797 94.8069 51.3266 94.8069H47.6748C47.5217 94.8069 47.3984 94.6861 47.3984 94.5263V85.3622C47.3984 85.2111 47.5217 85.0859 47.6748 85.0859H51.3266Z" fill="white"/>
<path d="M91.4308 98.7441H31.2451C31.0963 98.7441 30.9688 98.878 30.9688 99.0334V102.767C30.9688 102.918 31.0963 103.043 31.2451 103.043H91.4308C91.5796 103.043 91.7071 102.923 91.7071 102.767V99.0334C91.7071 98.878 91.5796 98.7441 91.4308 98.7441Z" fill="white"/>
<path d="M91.4308 106.165H31.2451C31.0963 106.165 30.9688 106.286 30.9688 106.441V110.188C30.9688 110.339 31.0963 110.464 31.2451 110.464H91.4308C91.5796 110.464 91.7071 110.339 91.7071 110.188V106.441C91.7071 106.29 91.5796 106.165 91.4308 106.165Z" fill="white"/>
<path d="M79.9766 74.9431C79.2241 74.3474 77.2175 72.9531 74.7687 72.9531C73.0172 72.9531 71.3889 73.6524 69.935 75.0381C69.8329 75.1373 69.7734 75.2755 69.7734 75.4222V75.7546C69.7734 75.9186 69.8287 76.0697 69.9435 76.1733C70.0753 76.2726 70.2113 76.3114 70.3686 76.2726C70.4026 76.2683 70.4451 76.2553 70.4834 76.2424C70.5939 76.2035 70.7002 76.1388 70.7852 76.0481C71.1041 75.8323 71.9629 75.5388 73.1957 75.5388C74.4286 75.5388 76.9751 75.8841 79.3984 78.1805L79.4536 78.2323C79.5897 78.3748 79.7768 78.4525 79.9766 78.4525C80.1764 78.4525 80.3634 78.3748 80.4867 78.2367L80.5377 78.1849C82.9737 75.8884 85.4735 75.5431 86.7446 75.5431C88.0158 75.5431 88.8448 75.8366 89.1636 76.0525C89.2486 76.1388 89.3549 76.2078 89.4952 76.2596C89.5505 76.2769 89.7035 76.3071 89.8481 76.2726C90.0734 76.2078 90.2264 76.005 90.2264 75.7676V75.474C90.2264 75.3359 90.1669 75.1935 90.0649 75.0942C88.5939 73.6697 86.9487 72.9531 85.1717 72.9531C82.7484 72.9531 80.7503 74.3258 79.9766 74.9474" fill="white"/>
<path d="M76.2434 50.5896C76.1158 50.65 76.0223 50.7666 75.9798 50.9133L75.9203 51.1162C75.8735 51.2759 75.9032 51.4443 75.9968 51.5738C76.0903 51.6989 76.2221 51.7723 76.3709 51.781C76.3964 51.781 76.4262 51.7896 76.4474 51.781C76.5495 51.781 76.643 51.7551 76.7365 51.7033C76.7918 51.6903 76.9023 51.6644 77.1021 51.6644C77.3699 51.6644 79.7974 51.7464 81.4002 54.5177L81.4214 54.5565C81.5107 54.7162 81.6425 54.8285 81.8041 54.8717C81.8508 54.8889 81.9401 54.9019 81.9954 54.9019C82.1059 54.9019 82.2207 54.8717 82.2972 54.8242L82.3355 54.8069C83.2155 54.3623 84.121 54.1335 85.0223 54.1335C86.5443 54.1335 87.5348 54.7637 87.7644 55.027C87.8112 55.1177 87.8834 55.1954 87.9684 55.2558C88.0195 55.286 88.1087 55.3335 88.164 55.3508C88.1895 55.3551 88.2235 55.3594 88.2533 55.3637C88.2703 55.3637 88.2873 55.3637 88.3086 55.3637C88.3893 55.3637 88.4701 55.3422 88.5466 55.3033C88.6699 55.2429 88.7634 55.1263 88.8017 54.9925L88.8527 54.8112C88.8697 54.7637 88.874 54.7163 88.874 54.6601C88.874 54.5652 88.8527 54.4702 88.8059 54.3968C87.6368 52.3378 85.9406 51.9061 84.7205 51.9061C83.8149 51.9061 83.0242 52.1436 82.5565 52.3162C82.0039 51.5651 80.6094 50.0068 78.4965 50.0068C77.7526 50.0068 76.9958 50.2011 76.2391 50.5853" fill="white"/>
<path d="M63.5315 59.9915L63.5485 60.2678C63.557 60.4405 63.6463 60.5872 63.7908 60.6779C63.9099 60.7512 64.0629 60.7771 64.1947 60.7383C64.2245 60.7297 64.2585 60.721 64.284 60.7124C64.386 60.6692 64.4753 60.6002 64.5433 60.5181C64.7984 60.3325 65.6232 59.9915 66.839 59.9915C68.0549 59.9915 69.7852 60.3066 71.5962 61.8218L71.6388 61.8649C71.7663 61.9772 71.9321 62.0419 72.1021 62.0419H72.1447C72.336 62.0246 72.5103 61.9383 72.6165 61.8131L72.6591 61.7656C74.6657 59.6073 76.8253 59.2879 77.9349 59.2879C78.7257 59.2879 79.2868 59.4563 79.5037 59.5771C79.5887 59.6505 79.6907 59.7066 79.8183 59.7455C79.8523 59.7541 79.9415 59.7714 80.0393 59.7584C80.0776 59.7541 80.1286 59.7412 80.1669 59.7282C80.3837 59.6505 80.524 59.439 80.507 59.2016L80.4942 58.9642C80.4857 58.8217 80.4219 58.6922 80.3114 58.6016C79.1125 57.5785 77.8201 57.0605 76.464 57.0605C74.3468 57.0605 72.6591 58.3296 71.9576 58.9512C71.3157 58.5109 69.7639 57.6001 67.9401 57.6001C66.3374 57.6001 64.9004 58.2735 63.6718 59.603C63.574 59.7066 63.5273 59.8534 63.5315 59.9958" fill="white"/>
<path d="M33.0703 64.8948C33.0703 61.2343 35.991 58.2688 39.5961 58.2688C39.7364 58.2688 39.8766 58.2818 40.0127 58.2904C40.357 53.6587 44.1577 50.0068 48.8086 50.0068C53.4596 50.0068 57.6386 54.0213 57.6386 58.9724C57.6386 60.3753 57.3112 61.6962 56.7458 62.8789C61.1629 63.8761 64.4704 67.8689 64.4704 72.6517C64.4704 78.1856 60.0533 82.6706 54.6032 82.6706C54.2035 82.6706 41.4369 82.5929 41.4369 82.5929C37.5767 82.5929 34.452 79.4202 34.452 75.5007C34.452 73.6187 35.179 71.9136 36.3566 70.6445C34.3967 69.5006 33.0703 67.3596 33.0703 64.8991" fill="white"/>
<path d="M39.6172 10.5371H41.3177V19.4077H43.3498V20.8193H39.6172V10.5371Z" fill="white"/>
<path d="M45.9818 10.5371H44.2812V20.8193H45.9818V10.5371Z" fill="white"/>
<path d="M47.125 10.5371H51.1127V11.9486H48.8255V14.8882H50.5303V16.2825H48.8255V20.8193H47.125V10.5371Z" fill="white"/>
<path d="M51.9844 10.5371H56.0486V11.9486H53.6891V14.8882H55.3769V16.2825H53.6891V19.4077H56.0486V20.8193H51.9844V10.5371Z" fill="white"/>
<path d="M43.0572 33.549V28.028C43.0572 27.4065 42.7893 26.9662 42.1772 26.9662C41.565 26.9662 41.3099 27.4065 41.3099 28.028V33.549C41.3099 34.1706 41.5777 34.6109 42.1772 34.6109C42.7766 34.6109 43.0572 34.1706 43.0572 33.549ZM39.6094 33.277V28.3C39.6094 26.6942 40.3874 25.5244 42.1772 25.5244C43.967 25.5244 44.762 26.6899 44.762 28.3V33.277C44.762 34.8699 43.984 36.0526 42.1772 36.0526C40.3704 36.0526 39.6094 34.8699 39.6094 33.277Z" fill="white"/>
<path d="M47.1358 29.4716V35.9335H45.7031V25.6514H47.3739L49.2104 31.5479V25.6514H50.6304V35.9335H49.1382L47.1358 29.4716Z" fill="white"/>
<path d="M54.3125 25.6455H56.013V34.5205H58.0451V35.932H54.3125V25.6455Z" fill="white"/>
<path d="M60.642 32.6702H62.0024L61.3307 28.5435H61.3137L60.642 32.6702ZM58.5078 35.9335L60.4209 25.6514H62.3637L64.2896 35.9335H62.5423L62.2277 34.0515H60.4209L60.1233 35.9335H58.5078Z" fill="white"/>
<path d="M66.4135 29.4716V35.9335H64.9766V25.6514H66.6516L68.4881 31.5479V25.6514H69.9081V35.9335H68.4116L66.4135 29.4716Z" fill="white"/>
<path d="M73.419 34.5205C74.1205 34.5205 74.3883 34.0974 74.3883 33.4758V28.093C74.3883 27.4887 74.1205 27.0614 73.419 27.0614H72.7005V34.5205H73.419ZM76.0931 28.4081V33.1694C76.0931 34.7492 75.4511 35.9277 73.6273 35.9277H71V25.6455H73.6273C75.4511 25.6455 76.0931 26.8153 76.0931 28.4081Z" fill="white"/>
</svg>
