<svg width="124" height="126" viewBox="0 0 124 126" fill="none" xmlns="http://www.w3.org/2000/svg">
<path d="M123.934 0H0V125.846H123.934V0Z" fill="#BF8C2E"/>
<path d="M12.3672 16.5342H12.4055V35.9589H16.61V10.5859H13.2515L9.38281 15.1874V19.6422H9.41683L12.3672 16.5342Z" fill="white"/>
<path d="M19.1156 15.8263V18.8954H22.946V15.7141C22.946 14.1817 23.6857 13.7327 24.5658 13.7327C25.3778 13.7327 26.0792 14.0694 26.0792 15.6407V17.7342C26.0792 19.8278 25.8964 20.6523 24.5318 22.1113L22.1723 24.6581C19.8893 27.1315 19.0391 28.7761 19.0391 31.284V35.9632H29.9479V32.4797H23.0565V31.284C23.0565 29.2984 23.758 28.5516 24.8251 27.3905L27.5162 24.5113C29.6886 22.1544 30.1732 20.6523 30.1732 18.1098V15.6407C30.1732 12.0104 28.443 10.2881 24.6805 10.2881C20.9181 10.2881 19.1156 12.2737 19.1156 15.8263Z" fill="white"/>
<path d="M95.9089 67.4131C90.8541 63.3598 84.796 62.9238 82.4238 62.9238C81.1739 62.9238 80.0175 63.0361 79.1672 63.2389L78.8357 63.3166C75.6344 64.085 70.2778 65.367 64.0369 73.2276L63.8541 73.4607C63.752 73.6117 63.6968 73.7714 63.6968 73.9355C63.6968 74.0779 63.7308 74.2161 63.8073 74.3542L63.9518 74.5873C64.9807 76.3355 65.8394 77.855 66.5154 79.1456C66.7577 79.6248 67.4081 79.7802 67.8503 79.3356C67.8928 79.2794 67.9396 79.219 67.9651 79.1672C73.3515 71.6002 77.573 70.5944 80.3661 69.9254L80.7105 69.8433C81.0973 69.7484 81.718 69.6966 82.4238 69.6966C83.7204 69.6966 88.2395 69.9167 91.7596 72.7398C94.8928 75.252 96.4828 79.2622 96.4828 84.6622C96.4828 93.7098 92.172 97.2408 88.5499 98.6092C87.1682 99.1315 85.6803 99.3991 84.1285 99.3991C80.4044 99.3991 77.5347 97.884 77.4965 97.8667L77.2372 97.7372C74.1252 96.3646 69.4785 93.507 65.0869 84.5457C56.0827 66.1785 48.5153 64.439 43.5073 63.2907L43.2437 63.2303C42.8611 63.1397 41.7771 62.9368 40.017 62.9368C37.1134 62.9368 31.5357 63.5152 26.7529 67.3915C23.4879 70.0376 19.5938 75.1743 19.5938 84.6234C19.5938 90.3817 20.7629 94.1847 23.7558 98.1862C24.3212 98.9675 29.5375 105.809 39.5579 105.809C41.0416 105.809 42.5848 105.658 44.1365 105.356C45.9646 105.002 48.7917 104.083 51.9419 101.734L54.5777 104.147C54.8711 104.419 55.3812 104.393 55.6448 104.096C55.7723 103.957 55.8403 103.772 55.8361 103.586L57.8725 90.8393V90.6882C57.8725 90.4724 57.7789 90.2652 57.6302 90.1314C57.4941 90.0019 57.3241 89.9328 57.103 89.9328H57.0987L44.8762 93.3645L44.6467 93.4034C44.4936 93.4379 44.3576 93.5156 44.2598 93.6321C44.1195 93.7875 44.0515 93.9861 44.06 94.1933C44.0728 94.4005 44.162 94.5904 44.3108 94.7242L46.8403 97.0466C45.5097 97.8754 44.179 98.4236 42.8866 98.6783C41.7856 98.8941 40.693 99.002 39.6429 99.002C32.7175 99.002 29.3122 94.3876 29.1719 94.1933L29.1039 94.0983C26.9953 91.2882 26.2853 88.8968 26.2853 84.6191C26.2853 79.2017 27.8455 75.1873 30.9277 72.688C34.3543 69.9124 38.7671 69.6966 40.0383 69.6966C40.7355 69.6966 41.3647 69.7484 41.7685 69.8433L42.0364 69.9038C46.0369 70.8232 51.5125 72.0837 59.1011 87.563C63.1101 95.7386 68.1394 101.083 74.4568 103.901C75.1923 104.281 79.112 106.181 84.137 106.181C86.4837 106.181 88.7539 105.77 90.8923 104.963C94.5825 103.565 103.17 98.7819 103.17 84.6493C103.17 75.2046 99.2206 70.0549 95.9046 67.3958" fill="white"/>
<path d="M41.2595 11.9447V15.1433H41.8291C42.4116 15.1433 42.6666 14.8412 42.6666 14.293V12.7778C42.6666 12.2167 42.4158 11.9447 41.8291 11.9447H41.2595ZM41.2595 16.0973V20.8154H39.5547V10.5332H42.0332C43.7507 10.5332 44.3799 11.3965 44.3799 12.8383V14.1548C44.3799 15.2642 43.9931 15.916 43.0195 16.1405L44.6478 20.811H42.8537L41.2552 16.093L41.2595 16.0973Z" fill="white"/>
<path d="M45.2891 10.5342H49.3533V11.9457H46.9938V14.8853H48.6816V16.2839H46.9938V19.4048H49.3533V20.8163H45.2891V10.5342Z" fill="white"/>
<path d="M50.1641 18.6027V17.2213H51.7455V18.6329C51.7455 19.207 52.0006 19.5437 52.5831 19.5437C53.1187 19.5437 53.3611 19.1811 53.3611 18.6329V18.2401C53.3611 17.6487 53.1187 17.2818 52.6001 16.7854L51.601 15.771C50.6317 14.7997 50.1811 14.2084 50.1811 13.0256V12.676C50.1811 11.4026 50.9123 10.4141 52.5703 10.4141C54.2283 10.4141 54.9468 11.2644 54.9468 12.7493V13.5824H53.3908V12.6889C53.3908 12.0975 53.123 11.8126 52.5873 11.8126C52.1069 11.8126 51.7796 12.0846 51.7796 12.663V12.8745C51.7796 13.453 52.0899 13.7853 52.5873 14.2688L53.6756 15.3609C54.6024 16.3149 55.0488 16.8933 55.0488 18.0286V18.5293C55.0488 19.9408 54.3006 20.9423 52.5703 20.9423C50.84 20.9423 50.1641 19.9581 50.1641 18.607" fill="white"/>
<path d="M57.6068 11.9442V15.9931H58.236C58.8184 15.9931 59.0735 15.7039 59.0735 15.1428V12.7773C59.0735 12.2161 58.8184 11.9442 58.236 11.9442H57.6068ZM55.9062 10.5326H58.4315C60.1491 10.5326 60.7783 11.396 60.7783 12.8377V15.0046C60.7783 16.4464 60.1491 17.3227 58.4315 17.3227H57.611V20.8105H55.9105V10.5283L55.9062 10.5326Z" fill="white"/>
<path d="M65.0927 18.4371V12.9161C65.0927 12.2946 64.8248 11.8543 64.2127 11.8543C63.6005 11.8543 63.3454 12.2946 63.3454 12.9161V18.4371C63.3454 19.0587 63.6132 19.499 64.2127 19.499C64.8121 19.499 65.0927 19.0587 65.0927 18.4371ZM61.6406 18.1608V13.1838C61.6406 11.578 62.4186 10.4082 64.2084 10.4082C65.9982 10.4082 66.7932 11.5737 66.7932 13.1838V18.1608C66.7932 19.7536 66.0152 20.9364 64.2084 20.9364C62.4016 20.9364 61.6406 19.7536 61.6406 18.1608Z" fill="white"/>
<path d="M69.1827 14.3544V20.8163H67.75V10.5342H69.4208L71.2616 16.435V10.5342H72.6773V20.8163H71.1851L69.1827 14.3544Z" fill="white"/>
<path d="M73.5625 18.6007V17.2194H75.144V18.6309C75.144 19.205 75.3991 19.5417 75.9815 19.5417C76.5172 19.5417 76.7595 19.1791 76.7595 18.6309V18.2381C76.7595 17.6467 76.5172 17.2798 75.9985 16.7834L74.9994 15.769C74.0301 14.7978 73.5795 14.2064 73.5795 13.0237V12.674C73.5795 11.4006 74.3107 10.4121 75.9688 10.4121C77.6268 10.4121 78.3452 11.2625 78.3452 12.7474V13.5805H76.7892V12.687C76.7892 12.0956 76.5214 11.8107 75.9857 11.8107C75.5054 11.8107 75.178 12.0826 75.178 12.6611V12.8726C75.178 13.451 75.4926 13.7834 75.9857 14.2668L77.0741 15.3589C78.0009 16.3129 78.4472 16.8913 78.4472 18.0266V18.5273C78.4472 19.9389 77.699 20.9403 75.9688 20.9403C74.2385 20.9403 73.5625 19.9561 73.5625 18.605" fill="white"/>
<path d="M80.9974 10.5342H79.2969V20.8163H80.9974V10.5342Z" fill="white"/>
<path d="M83.6735 16.1932V19.4091H84.4217C84.9914 19.4091 85.2593 19.1199 85.2593 18.576V17.0307C85.2593 16.4868 85.0042 16.1976 84.409 16.1976H83.6735V16.1932ZM83.6735 14.8724H84.2729C84.8256 14.8724 85.0765 14.5832 85.0765 14.0393V12.7831C85.0765 12.222 84.8256 11.95 84.256 11.95H83.6735V14.8767V14.8724ZM81.9688 10.5342H84.4345C86.135 10.5342 86.7047 11.3371 86.7047 12.7918V13.8364C86.7047 14.704 86.3901 15.2479 85.6886 15.4767C86.5389 15.6753 86.9598 16.2494 86.9598 17.1904V18.5544C86.9598 20.0091 86.3178 20.8163 84.613 20.8163H81.9688V10.5342Z" fill="white"/>
<path d="M87.8047 10.5342H89.5095V19.4048H91.5416V20.8163H87.8047V10.5342Z" fill="white"/>
<path d="M92.2969 10.5342H96.3611V11.9457H94.0017V14.8853H95.6894V16.2839H94.0017V19.4048H96.3611V20.8163H92.2969V10.5342Z" fill="white"/>
<path d="M39.5547 33.2653V28.2883C39.5547 26.6825 40.3029 25.5127 42.097 25.5127C43.9803 25.5127 44.499 26.5746 44.499 28.0897V29.3027H42.9472V27.9516C42.9472 27.3127 42.7389 26.9501 42.1267 26.9501C41.5145 26.9501 41.2595 27.3904 41.2595 28.012V33.5329C41.2595 34.1545 41.5145 34.5948 42.1267 34.5948C42.7389 34.5948 42.9472 34.202 42.9472 33.5934V31.6984H44.499V33.4725C44.499 34.9445 43.9038 36.0366 42.097 36.0366C40.2902 36.0366 39.5547 34.8538 39.5547 33.261" fill="white"/>
<path d="M49.026 33.5373V28.0163C49.026 27.3947 48.7581 26.9544 48.1459 26.9544C47.5337 26.9544 47.2786 27.3947 47.2786 28.0163V33.5373C47.2786 34.1589 47.5465 34.5991 48.1459 34.5991C48.7454 34.5991 49.026 34.1589 49.026 33.5373ZM45.5781 33.2653V28.2883C45.5781 26.6825 46.3561 25.5127 48.1459 25.5127C49.9357 25.5127 50.7307 26.6782 50.7307 28.2883V33.2653C50.7307 34.8581 49.9527 36.0409 48.1459 36.0409C46.3391 36.0409 45.5781 34.8581 45.5781 33.2653Z" fill="white"/>
<path d="M53.2885 29.454V35.9159H51.8516V25.6338H53.5266L55.3631 31.5303V25.6338H56.7831V35.9159H55.2909L53.2885 29.454Z" fill="white"/>
<path d="M57.8125 33.7023V32.321H59.394V33.7325C59.394 34.3066 59.6491 34.6433 60.2315 34.6433C60.7672 34.6433 61.0095 34.2807 61.0095 33.7325V33.3397C61.0095 32.7483 60.7671 32.3814 60.2485 31.885L59.2494 30.8706C58.2801 29.8993 57.8295 29.308 57.8295 28.1252V27.7756C57.8295 26.5022 58.5607 25.5137 60.2187 25.5137C61.8767 25.5137 62.5952 26.364 62.5952 27.849V28.6821H61.0392V27.7885C61.0392 27.1971 60.7714 26.9079 60.2357 26.9079C59.7554 26.9079 59.428 27.1799 59.428 27.7583V27.9698C59.428 28.5482 59.7383 28.8806 60.2357 29.3641L61.3241 30.4562C62.2509 31.4102 62.6972 31.9886 62.6972 33.1238V33.6246C62.6972 35.0361 61.949 36.0376 60.2187 36.0376C58.4884 36.0376 57.8125 35.0534 57.8125 33.7023Z" fill="white"/>
<path d="M68.6865 25.6338V33.4123C68.6865 35.0051 68.0147 36.0368 66.2845 36.0368C64.5542 36.0368 63.7422 35.0051 63.7422 33.4123V25.6338H65.4427V33.5807C65.4427 34.185 65.6808 34.5951 66.2802 34.5951C66.8796 34.5951 67.1177 34.185 67.1177 33.5807V25.6338H68.6865Z" fill="white"/>
<path d="M74.5017 29.2425H74.4592L73.3071 35.9159H72.5163L71.2452 29.2425H71.2155V35.9159H69.8125V25.6338H71.7979L72.9032 31.4267H72.9202L73.9065 25.6338H76.0577V35.9159H74.5017V29.2425Z" fill="white"/>
<path d="M78.8802 27.0467V31.0957H79.5094C80.0918 31.0957 80.3469 30.8065 80.3469 30.2453V27.8798C80.3469 27.3187 80.0918 27.0467 79.5094 27.0467H78.8802ZM77.1797 25.6352H79.705C81.4225 25.6352 82.0517 26.4985 82.0517 27.9402V30.1072C82.0517 31.5489 81.4225 32.4252 79.705 32.4252H78.8845V35.913H77.1839V25.6309L77.1797 25.6352Z" fill="white"/>
<path d="M82.6016 25.6338H87.1292V27.0453H85.7263V35.9159H84.0087V27.0453H82.6016V25.6338Z" fill="white"/>
<path d="M89.638 25.6338H87.9375V35.9159H89.638V25.6338Z" fill="white"/>
<path d="M94.0806 33.5353V28.0144C94.0806 27.3928 93.8128 26.9525 93.2006 26.9525C92.5884 26.9525 92.3333 27.3928 92.3333 28.0144V33.5353C92.3333 34.1569 92.6012 34.5972 93.2006 34.5972C93.8 34.5972 94.0806 34.1569 94.0806 33.5353ZM90.6328 33.2634V28.2863C90.6328 26.6805 91.4108 25.5107 93.2006 25.5107C94.9904 25.5107 95.7854 26.6762 95.7854 28.2863V33.2634C95.7854 34.8562 95.0074 36.0389 93.2006 36.0389C91.3938 36.0389 90.6328 34.8562 90.6328 33.2634Z" fill="white"/>
<path d="M98.1983 29.454V35.9159H96.7656V25.6338H98.4406L100.277 31.5303V25.6338H101.697V35.9159H100.201L98.1983 29.454Z" fill="white"/>
<path d="M41.4232 47.7581H42.7836L42.1119 43.6357H42.0949L41.4232 47.7581ZM39.2891 51.0214L41.2021 40.7393H43.145L45.0708 51.0214H43.3235L43.009 49.1394H41.2021L40.9046 51.0214H39.2891Z" fill="white"/>
<path d="M47.2494 44.5595V51.0214H45.8125V40.7393H47.4875L49.3241 46.6357V40.7393H50.744V51.0214H49.2518L47.2494 44.5595Z" fill="white"/>
<path d="M54.1846 49.6079C54.8861 49.6079 55.1539 49.1806 55.1539 48.5633V43.1762C55.1539 42.5719 54.8861 42.1445 54.1846 42.1445H53.4661V49.6079H54.1846ZM56.8587 43.4956V48.2568C56.8587 49.8367 56.2167 51.0195 54.3929 51.0195H51.7656V40.7373H54.3929C56.2167 40.7373 56.8587 41.9028 56.8587 43.4956Z" fill="white"/>
<path d="M61.1892 42.144V46.1929H61.8183C62.4008 46.1929 62.6559 45.9037 62.6559 45.3426V42.9771C62.6559 42.4159 62.4008 42.144 61.8183 42.144H61.1892ZM59.4844 40.7367H62.0096C63.7272 40.7367 64.3564 41.6001 64.3564 43.0418V45.2087C64.3564 46.6505 63.7272 47.5268 62.0096 47.5268H61.1892V51.0146H59.4886V40.7324L59.4844 40.7367Z" fill="white"/>
<path d="M66.9938 42.1445V45.3431H67.5635C68.1459 45.3431 68.401 45.041 68.401 44.4928V42.9776C68.401 42.4165 68.1502 42.1445 67.5635 42.1445H66.9938ZM66.9938 46.3014V51.0195H65.2891V40.7373H67.7676C69.4851 40.7373 70.1143 41.6006 70.1143 43.0424V44.3589C70.1143 45.4683 69.7274 46.1201 68.7539 46.3446L70.3821 51.0151H68.5881L66.9896 46.2971L66.9938 46.3014Z" fill="white"/>
<path d="M74.5337 48.6359V43.115C74.5337 42.4934 74.2659 42.0531 73.6537 42.0531C73.0415 42.0531 72.7865 42.4934 72.7865 43.115V48.6359C72.7865 49.2575 73.0543 49.6978 73.6537 49.6978C74.2531 49.6978 74.5337 49.2575 74.5337 48.6359ZM71.0859 48.364V43.3869C71.0859 41.7811 71.8639 40.6113 73.6537 40.6113C75.4435 40.6113 76.2385 41.7768 76.2385 43.3869V48.364C76.2385 49.9568 75.4605 51.1395 73.6537 51.1395C71.8469 51.1395 71.0859 49.9568 71.0859 48.364Z" fill="white"/>
<path d="M79.6732 49.6079C80.3747 49.6079 80.6426 49.1806 80.6426 48.5633V43.1762C80.6426 42.5719 80.3747 42.1445 79.6732 42.1445H78.9548V49.6079H79.6732ZM82.3431 43.4956V48.2568C82.3431 49.8367 81.7011 51.0195 79.8773 51.0195H77.25V40.7373H79.8773C81.7011 40.7373 82.3431 41.9028 82.3431 43.4956Z" fill="white"/>
<path d="M88.3115 40.7373V48.5158C88.3115 50.1087 87.6398 51.1403 85.9095 51.1403C84.1792 51.1403 83.3672 50.1087 83.3672 48.5158V40.7373H85.0677V48.6842C85.0677 49.2885 85.3058 49.6986 85.9052 49.6986C86.5047 49.6986 86.7427 49.2885 86.7427 48.6842V40.7373H88.3115Z" fill="white"/>
<path d="M89.3281 48.364V43.3869C89.3281 41.7811 90.0763 40.6113 91.8704 40.6113C93.7537 40.6113 94.2724 41.6732 94.2724 43.1883V44.4013H92.7207V43.0502C92.7207 42.4113 92.5123 42.0488 91.9002 42.0488C91.288 42.0488 91.0329 42.489 91.0329 43.1106V48.6316C91.0329 49.2532 91.288 49.6935 91.9002 49.6935C92.5123 49.6935 92.7207 49.3007 92.7207 48.692V46.797H94.2724V48.5711C94.2724 50.0431 93.6772 51.1352 91.8704 51.1352C90.0636 51.1352 89.3281 49.9525 89.3281 48.3596" fill="white"/>
<path d="M95.0469 40.7393H99.5745V42.1465H98.1673V51.0214H96.4498V42.1465H95.0469V40.7393Z" fill="white"/>
<path d="M102.083 40.7393H100.383V51.0214H102.083V40.7393Z" fill="white"/>
<path d="M106.522 48.6388V43.1179C106.522 42.4963 106.255 42.056 105.642 42.056C105.03 42.056 104.775 42.4963 104.775 43.1179V48.6388C104.775 49.2604 105.043 49.7007 105.642 49.7007C106.242 49.7007 106.522 49.2604 106.522 48.6388ZM103.07 48.3669V43.3898C103.07 41.7841 103.848 40.6143 105.638 40.6143C107.428 40.6143 108.223 41.7797 108.223 43.3898V48.3669C108.223 49.9597 107.445 51.1425 105.638 51.1425C103.831 51.1425 103.07 49.9597 103.07 48.3669Z" fill="white"/>
<path d="M110.648 44.5595V51.0214H109.211V40.7393H110.886L112.722 46.6357V40.7393H114.142V51.0214H112.65L110.648 44.5595Z" fill="white"/>
</svg>
