<svg width="291" height="83" viewBox="0 0 291 83" fill="none" xmlns="http://www.w3.org/2000/svg">
<path d="M28.4061 61.9961V80.4125H6.51562V61.9961" stroke="#03303D" stroke-width="2.70687" stroke-miterlimit="10"/>
<path d="M0.976562 67.9308L17.5263 50.7422L33.9441 67.7262" stroke="#03303D" stroke-width="2.70687" stroke-miterlimit="10"/>
<path d="M19.9642 64.6562H14.9531" stroke="#03303D" stroke-width="2.70687" stroke-miterlimit="10"/>
<path d="M19.9642 71.75H14.9531" stroke="#03303D" stroke-width="2.70687" stroke-miterlimit="10"/>
<path d="M66.9764 61.9961V80.4125H45.0859V61.9961" stroke="#03303D" stroke-width="2.70687" stroke-miterlimit="10"/>
<path d="M39.5469 67.9308L56.0966 50.7422L72.5145 67.7262" stroke="#03303D" stroke-width="2.70687" stroke-miterlimit="10"/>
<path d="M58.5345 64.6562H53.5234" stroke="#03303D" stroke-width="2.70687" stroke-miterlimit="10"/>
<path d="M58.5345 71.75H53.5234" stroke="#03303D" stroke-width="2.70687" stroke-miterlimit="10"/>
<path d="M222.98 62.4961V80.9125H201.09V62.4961" stroke="#03303D" stroke-width="2.70687" stroke-miterlimit="10"/>
<path d="M195.551 68.4308L212.101 51.2422L228.518 68.2262" stroke="#03303D" stroke-width="2.70687" stroke-miterlimit="10"/>
<path d="M214.538 65.1562H209.527" stroke="#03303D" stroke-width="2.70687" stroke-miterlimit="10"/>
<path d="M214.538 72.25H209.527" stroke="#03303D" stroke-width="2.70687" stroke-miterlimit="10"/>
<path d="M97.1602 28.7422V81.5422" stroke="#03303D" stroke-width="2.7708" stroke-miterlimit="10"/>
<path d="M97.1604 49.2422C108.105 49.2422 116.977 40.064 116.977 28.7422C116.977 17.4204 108.105 8.24219 97.1604 8.24219C86.216 8.24219 77.3438 17.4204 77.3438 28.7422C77.3438 40.064 86.216 49.2422 97.1604 49.2422Z" stroke="#03303D" stroke-width="2.7708" stroke-miterlimit="10"/>
<path d="M111.469 43.543V81.543" stroke="#03303D" stroke-width="2.7708" stroke-miterlimit="10"/>
<path d="M111.467 58.3422C119.368 58.3422 125.773 51.716 125.773 43.5422C125.773 35.3684 119.368 28.7422 111.467 28.7422C103.565 28.7422 97.1602 35.3684 97.1602 43.5422C97.1602 51.716 103.565 58.3422 111.467 58.3422Z" stroke="#03303D" stroke-width="2.7708" stroke-miterlimit="10"/>
<path d="M249.988 1.24219C249.988 1.24219 254.822 1.94216 256.562 5.84216" stroke="#03303D" stroke-width="2.5095" stroke-miterlimit="10"/>
<path d="M267.101 1.24219C267.101 1.24219 262.267 1.94216 260.527 5.84216" stroke="#03303D" stroke-width="2.5095" stroke-miterlimit="10"/>
<path d="M258.689 8.84296C260.622 8.84296 262.362 9.54298 263.716 10.743C263.716 10.643 263.716 10.543 263.716 10.343C263.716 7.44296 261.395 5.04297 258.592 5.04297C255.789 5.04297 253.469 7.44296 253.469 10.343C253.469 10.543 253.469 10.743 253.469 10.943C254.919 9.64299 256.755 8.84296 258.689 8.84296Z" stroke="#03303D" stroke-width="2.5095" stroke-miterlimit="10"/>
<path d="M265.071 21.8418C266.038 20.4418 266.521 18.6418 266.521 16.9418C266.521 12.4418 263.041 8.8418 258.691 8.8418C254.341 8.8418 250.861 12.4418 250.861 16.9418C250.861 18.7418 251.441 20.4418 252.311 21.8418C250.861 23.9418 249.895 26.6418 249.895 29.7418C249.895 36.0418 253.858 40.0418 258.691 40.0418C263.525 40.0418 267.488 36.0418 267.488 29.7418C267.488 26.7418 266.618 23.9418 265.071 21.8418Z" stroke="#03303D" stroke-width="2.5095" stroke-miterlimit="10"/>
<path d="M250.859 16.9422C250.859 15.7422 251.149 14.6422 251.536 13.6422L233.846 7.9422C233.459 7.8422 232.976 7.74219 232.493 7.74219H232.396C230.173 7.74219 228.336 9.6422 228.336 11.9422C228.336 13.6422 229.303 15.0422 230.656 15.7422C231.429 16.1422 231.913 16.8422 231.913 17.7422C231.913 20.6422 234.039 23.0422 236.746 23.4422C238.099 23.6422 239.646 23.5422 240.999 23.1422C242.449 22.7422 243.899 22.1422 245.349 21.7422C246.896 21.2422 248.443 20.7422 250.086 20.2422C250.183 20.2422 250.859 20.0422 251.439 19.8422C251.053 19.0422 250.859 18.0422 250.859 16.9422Z" stroke="#03303D" stroke-width="2.5095" stroke-miterlimit="10"/>
<path d="M284.79 7.8418H284.694C284.21 7.8418 283.824 7.84181 283.34 8.04181L265.844 13.6418C266.327 14.6418 266.52 15.7418 266.52 16.9418C266.52 18.0418 266.327 19.0418 265.94 19.9418C266.52 20.1418 267.004 20.2418 267.1 20.2418C268.647 20.7418 270.194 21.2418 271.837 21.7418C273.287 22.2418 274.737 22.7418 276.187 23.1418C277.54 23.5418 278.99 23.6418 280.44 23.4418C283.147 23.0418 285.274 20.5418 285.274 17.7418C285.274 16.8418 285.757 16.1418 286.53 15.7418C287.884 15.0418 288.85 13.6418 288.85 11.9418C288.85 9.74183 287.014 7.8418 284.79 7.8418Z" stroke="#03303D" stroke-width="2.5095" stroke-miterlimit="10"/>
<path d="M250.859 14.4414H266.616" stroke="#03303D" stroke-width="2.5095" stroke-miterlimit="10"/>
<path d="M250.859 21.2422H266.616" stroke="#03303D" stroke-width="2.5095" stroke-miterlimit="10"/>
<path d="M250.859 27.9414H266.616" stroke="#03303D" stroke-width="2.5095" stroke-miterlimit="10"/>
<path d="M151.969 72.8418L158.542 79.7418L165.405 72.8418" stroke="#03303D" stroke-width="2.5095" stroke-miterlimit="10"/>
<path d="M158.641 68.2422V79.7422" stroke="#03303D" stroke-width="2.5095" stroke-miterlimit="10"/>
<path d="M262.168 72.8418L268.741 79.7418L275.605 72.8418" stroke="#03303D" stroke-width="2.5095" stroke-miterlimit="10"/>
<path d="M268.84 68.2422V79.7422" stroke="#03303D" stroke-width="2.5095" stroke-miterlimit="10"/>
<path d="M130.512 72.8418L137.182 79.7418L144.045 72.8418" stroke="#03303D" stroke-width="2.5095" stroke-miterlimit="10"/>
<path d="M137.277 68.2422V79.7422" stroke="#03303D" stroke-width="2.5095" stroke-miterlimit="10"/>
<path d="M240.711 72.8418L247.381 79.7418L254.244 72.8418" stroke="#03303D" stroke-width="2.5095" stroke-miterlimit="10"/>
<path d="M247.477 68.2422V79.7422" stroke="#03303D" stroke-width="2.5095" stroke-miterlimit="10"/>
<path d="M172.754 72.8418L179.327 79.7418L186.191 72.8418" stroke="#03303D" stroke-width="2.5095" stroke-miterlimit="10"/>
<path d="M179.52 68.2422V79.7422" stroke="#03303D" stroke-width="2.5095" stroke-miterlimit="10"/>
<path d="M183.096 39.643C185.925 39.643 188.219 37.2701 188.219 34.343C188.219 31.4159 185.925 29.043 183.096 29.043C180.266 29.043 177.973 31.4159 177.973 34.343C177.973 37.2701 180.266 39.643 183.096 39.643Z" stroke="#03303D" stroke-width="2.5095" stroke-miterlimit="10"/>
<path d="M158.447 34.7422C154.774 34.7422 151.777 31.6422 151.777 27.8422V14.1422C151.777 10.3422 154.774 7.24219 158.447 7.24219C162.121 7.24219 165.117 10.3422 165.117 14.1422V27.9422C165.021 31.6422 162.024 34.7422 158.447 34.7422Z" stroke="#03303D" stroke-width="2.5095" stroke-miterlimit="10"/>
</svg>
