<svg width="49" height="36" viewBox="0 0 49 36" fill="none" xmlns="http://www.w3.org/2000/svg">
<path d="M22.8167 15.0869C22.8822 15.0869 22.8822 15.0869 22.9478 15.0869C30.0288 15.0869 35.7985 20.8286 35.7985 27.8752C35.7985 20.8286 41.5682 15.0869 48.6492 15.0869C48.7147 15.0869 48.7147 15.0869 48.7803 15.0869" stroke="#03303D" stroke-width="2.7708" stroke-miterlimit="10"/>
<path d="M5.21239e-05 1.38525H0.0656009C4.32731 1.38525 7.80227 4.84329 7.80227 9.08429C7.80227 4.84329 11.2772 1.38525 15.5389 1.38525H15.6045" stroke="#03303D" stroke-width="2.7708" stroke-miterlimit="10"/>
<path d="M13.7035 34.4647C11.7119 34.4647 10.0974 32.858 10.0974 30.8761C10.0974 28.8942 11.7119 27.2876 13.7035 27.2876C15.6951 27.2876 17.3096 28.8942 17.3096 30.8761C17.3096 32.858 15.6951 34.4647 13.7035 34.4647Z" stroke="#03303D" stroke-width="2.7708" stroke-miterlimit="10"/>
</svg>
