<svg width="64" height="39" viewBox="0 0 64 39" fill="none" xmlns="http://www.w3.org/2000/svg">
<path d="M7.72354 37.4726C11.2988 37.4726 14.1971 34.5642 14.1971 30.9765C14.1971 27.3889 11.2988 24.4805 7.72354 24.4805C4.14828 24.4805 1.25 27.3889 1.25 30.9765C1.25 34.5642 4.14828 37.4726 7.72354 37.4726Z" stroke="#03303D" stroke-width="2.5" stroke-miterlimit="10"/>
<path d="M31.7568 14.2421C35.3321 14.2421 38.2303 11.3338 38.2303 7.74608C38.2303 4.15841 35.3321 1.25 31.7568 1.25C28.1815 1.25 25.2832 4.15841 25.2832 7.74608C25.2832 11.3338 28.1815 14.2421 31.7568 14.2421Z" stroke="#03303D" stroke-width="2.5" stroke-miterlimit="10"/>
<path d="M55.5654 37.4726C59.1407 37.4726 62.0389 34.5642 62.0389 30.9765C62.0389 27.3889 59.1407 24.4805 55.5654 24.4805C51.9901 24.4805 49.0918 27.3889 49.0918 30.9765C49.0918 34.5642 51.9901 37.4726 55.5654 37.4726Z" stroke="#03303D" stroke-width="2.5" stroke-miterlimit="10"/>
<path d="M36.2568 12.4844L51.0693 26.3573" stroke="#03303D" stroke-width="2.5" stroke-miterlimit="10"/>
<path d="M27.1423 11.9297L13.3174 26.7935" stroke="#03303D" stroke-width="2.5" stroke-miterlimit="10"/>
</svg>
