<svg width="64" height="39" viewBox="0 0 64 39" fill="none" xmlns="http://www.w3.org/2000/svg">
<path d="M7.73414 37.4686C11.3153 37.4686 14.2183 34.5607 14.2183 30.9736C14.2183 27.3865 11.3153 24.4785 7.73414 24.4785C4.15303 24.4785 1.25 27.3865 1.25 30.9736C1.25 34.5607 4.15303 37.4686 7.73414 37.4686Z" stroke="#03303D" stroke-width="2.5" stroke-miterlimit="10"/>
<path d="M31.8084 14.2401C35.3895 14.2401 38.2926 11.3322 38.2926 7.74506C38.2926 4.15795 35.3895 1.25 31.8084 1.25C28.2273 1.25 25.3242 4.15795 25.3242 7.74506C25.3242 11.3322 28.2273 14.2401 31.8084 14.2401Z" stroke="#03303D" stroke-width="2.5" stroke-miterlimit="10"/>
<path d="M55.6561 37.4686C59.2372 37.4686 62.1402 34.5607 62.1402 30.9736C62.1402 27.3865 59.2372 24.4785 55.6561 24.4785C52.075 24.4785 49.1719 27.3865 49.1719 30.9736C49.1719 34.5607 52.075 37.4686 55.6561 37.4686Z" stroke="#03303D" stroke-width="2.5" stroke-miterlimit="10"/>
<path d="M36.3203 12.4844L51.157 26.3551" stroke="#03303D" stroke-width="2.5" stroke-miterlimit="10"/>
<path d="M27.1874 11.9297L13.3398 26.7912" stroke="#03303D" stroke-width="2.5" stroke-miterlimit="10"/>
</svg>
