<svg width="303" height="286" viewBox="0 0 303 286" fill="none" xmlns="http://www.w3.org/2000/svg">
<path d="M151.695 56.8007L225.612 84.0659V136.356C225.612 158.001 220.423 182.001 196.63 202.772L151.541 238.278L106.491 202.734C82.6971 181.963 77.5078 157.963 77.5078 136.318V84.028L151.426 56.7627L151.695 56.8007Z" stroke="#03313E" stroke-width="2.49" stroke-miterlimit="10"/>
<path d="M109.023 140.153C123.515 153.938 140.313 169.963 140.313 169.963C141.35 170.95 143.003 170.912 144.003 169.887L198.163 114.369" stroke="#03313E" stroke-width="2.49" stroke-miterlimit="10"/>
<path d="M112.218 1.24512H77.5078V35.5356H112.218V1.24512Z" stroke="#03313E" stroke-width="2.49" stroke-miterlimit="10"/>
<path d="M225.609 1.24512H190.898V35.5356H225.609V1.24512Z" stroke="#03313E" stroke-width="2.49" stroke-miterlimit="10"/>
<path d="M112.218 249.595H77.5078V283.885H112.218V249.595Z" stroke="#03313E" stroke-width="2.49" stroke-miterlimit="10"/>
<path d="M225.609 249.595H190.898V283.885H225.609V249.595Z" stroke="#03313E" stroke-width="2.49" stroke-miterlimit="10"/>
<path d="M35.9524 84.1045H1.24219V118.395H35.9524V84.1045Z" stroke="#03313E" stroke-width="2.49" stroke-miterlimit="10"/>
<path d="M35.9524 170.685H1.24219V204.975H35.9524V170.685Z" stroke="#03313E" stroke-width="2.49" stroke-miterlimit="10"/>
<path d="M301.335 84.1045H266.625V118.395H301.335V84.1045Z" stroke="#03313E" stroke-width="2.49" stroke-miterlimit="10"/>
<path d="M301.335 170.685H266.625V204.975H301.335V170.685Z" stroke="#03313E" stroke-width="2.49" stroke-miterlimit="10"/>
<path d="M208.234 35.498V77.6871" stroke="#03313E" stroke-width="2.49" stroke-miterlimit="10"/>
<path d="M94.8438 35.498V77.6871" stroke="#03313E" stroke-width="2.49" stroke-miterlimit="10"/>
<path d="M225.609 18.3711H283.959V84.1039" stroke="#03313E" stroke-width="2.49" stroke-miterlimit="10"/>
<path d="M77.2323 18.3711H18.8438V84.1039" stroke="#03313E" stroke-width="2.49" stroke-miterlimit="10"/>
<path d="M283.961 118.395V170.685" stroke="#03313E" stroke-width="2.49" stroke-miterlimit="10"/>
<path d="M18.5781 114.56V170.685" stroke="#03313E" stroke-width="2.49" stroke-miterlimit="10"/>
<path d="M190.903 266.721H112.219" stroke="#03313E" stroke-width="2.49" stroke-miterlimit="10"/>
<path d="M77.5048 266.72H18.5781V204.975" stroke="#03313E" stroke-width="2.49" stroke-miterlimit="10"/>
<path d="M77.5048 101.23H35.9141" stroke="#03313E" stroke-width="2.49" stroke-miterlimit="10"/>
<path d="M267.164 187.811H210.352" stroke="#03313E" stroke-width="2.49" stroke-miterlimit="10"/>
<path d="M94.8438 35.498V77.6871" stroke="#03313E" stroke-width="2.49" stroke-miterlimit="10"/>
<path d="M112.219 18.3711H190.903" stroke="#03313E" stroke-width="2.49" stroke-miterlimit="10"/>
</svg>
