<svg width="64" height="39" viewBox="0 0 64 39" fill="none" xmlns="http://www.w3.org/2000/svg">
<path d="M7.70053 37.4583C11.2631 37.4583 14.1511 34.5512 14.1511 30.965C14.1511 27.3789 11.2631 24.4717 7.70053 24.4717C4.13798 24.4717 1.25 27.3789 1.25 30.965C1.25 34.5512 4.13798 37.4583 7.70053 37.4583Z" stroke="#03303D" stroke-width="2.5" stroke-miterlimit="10"/>
<path d="M31.6537 14.2366C35.2163 14.2366 38.1042 11.3295 38.1042 7.74333C38.1042 4.15718 35.2163 1.25 31.6537 1.25C28.0912 1.25 25.2031 4.15718 25.2031 7.74333C25.2031 11.3295 28.0912 14.2366 31.6537 14.2366Z" stroke="#03303D" stroke-width="2.5" stroke-miterlimit="10"/>
<path d="M55.3803 37.4583C58.9428 37.4583 61.8308 34.5512 61.8308 30.965C61.8308 27.3789 58.9428 24.4717 55.3803 24.4717C51.8177 24.4717 48.9297 27.3789 48.9297 30.965C48.9297 34.5512 51.8177 37.4583 55.3803 37.4583Z" stroke="#03303D" stroke-width="2.5" stroke-miterlimit="10"/>
<path d="M36.1406 12.4795L50.9004 26.3464" stroke="#03303D" stroke-width="2.5" stroke-miterlimit="10"/>
<path d="M27.057 11.9258L13.2812 26.7842" stroke="#03303D" stroke-width="2.5" stroke-miterlimit="10"/>
</svg>
