<svg width="486" height="480" viewBox="0 0 486 480" fill="none" xmlns="http://www.w3.org/2000/svg">
<path d="M243.32 154.212L317.237 181.477V233.767C317.237 255.412 312.048 279.412 288.255 300.184L243.166 335.689L198.116 300.146C174.322 279.374 169.133 255.374 169.133 233.729V181.439L243.051 154.174L243.32 154.212Z" stroke="#03313E" stroke-width="2.49" stroke-miterlimit="10"/>
<path d="M200.648 237.565C215.14 251.349 231.938 267.374 231.938 267.374C232.975 268.361 234.628 268.323 235.628 267.298L289.788 211.78" stroke="#03313E" stroke-width="2.49" stroke-miterlimit="10"/>
<path d="M203.843 98.6562H169.133V132.947H203.843V98.6562Z" stroke="#03313E" stroke-width="2.49" stroke-miterlimit="10"/>
<path d="M317.234 98.6562H282.523V132.947H317.234V98.6562Z" stroke="#03313E" stroke-width="2.49" stroke-miterlimit="10"/>
<path d="M203.843 347.006H169.133V381.296H203.843V347.006Z" stroke="#03313E" stroke-width="2.49" stroke-miterlimit="10"/>
<path d="M317.234 347.006H282.523V381.296H317.234V347.006Z" stroke="#03313E" stroke-width="2.49" stroke-miterlimit="10"/>
<path d="M127.577 181.516H92.8672V215.806H127.577V181.516Z" stroke="#03313E" stroke-width="2.49" stroke-miterlimit="10"/>
<path d="M127.577 268.096H92.8672V302.386H127.577V268.096Z" stroke="#03313E" stroke-width="2.49" stroke-miterlimit="10"/>
<path d="M392.96 181.516H358.25V215.806H392.96V181.516Z" stroke="#03313E" stroke-width="2.49" stroke-miterlimit="10"/>
<path d="M392.96 268.096H358.25V302.386H392.96V268.096Z" stroke="#03313E" stroke-width="2.49" stroke-miterlimit="10"/>
<path d="M299.859 132.909V175.098" stroke="#03313E" stroke-width="2.49" stroke-miterlimit="10"/>
<path d="M186.469 132.909V175.098" stroke="#03313E" stroke-width="2.49" stroke-miterlimit="10"/>
<path d="M317.234 115.782H375.584V181.515" stroke="#03313E" stroke-width="2.49" stroke-miterlimit="10"/>
<path d="M168.857 115.782H110.469V181.515" stroke="#03313E" stroke-width="2.49" stroke-miterlimit="10"/>
<path d="M375.586 215.806V268.096" stroke="#03313E" stroke-width="2.49" stroke-miterlimit="10"/>
<path d="M110.203 211.971V268.096" stroke="#03313E" stroke-width="2.49" stroke-miterlimit="10"/>
<path d="M282.528 364.132H203.844" stroke="#03313E" stroke-width="2.49" stroke-miterlimit="10"/>
<path d="M169.13 364.131H110.203V302.386" stroke="#03313E" stroke-width="2.49" stroke-miterlimit="10"/>
<path d="M169.13 198.642H127.539" stroke="#03313E" stroke-width="2.49" stroke-miterlimit="10"/>
<path d="M358.789 285.222H301.977" stroke="#03313E" stroke-width="2.49" stroke-miterlimit="10"/>
<path d="M186.469 132.909V175.098" stroke="#03313E" stroke-width="2.49" stroke-miterlimit="10"/>
<path d="M203.844 115.782H282.528" stroke="#03313E" stroke-width="2.49" stroke-miterlimit="10"/>
</svg>
