<svg width="120" height="54" viewBox="0 0 120 54" fill="none" xmlns="http://www.w3.org/2000/svg">
<rect width="119.781" height="53.9916" rx="26.9958" fill="white"/>
<path d="M36.4255 45.2167C40.0067 45.2167 42.9097 42.3087 42.9097 38.7216C42.9097 35.1345 40.0067 32.2266 36.4255 32.2266C32.8444 32.2266 29.9414 35.1345 29.9414 38.7216C29.9414 42.3087 32.8444 45.2167 36.4255 45.2167Z" stroke="#03303D" stroke-width="2.5" stroke-miterlimit="10"/>
<path d="M60.4998 21.9881C64.0809 21.9881 66.984 19.0802 66.984 15.4931C66.984 11.906 64.0809 8.99805 60.4998 8.99805C56.9187 8.99805 54.0156 11.906 54.0156 15.4931C54.0156 19.0802 56.9187 21.9881 60.4998 21.9881Z" stroke="#03303D" stroke-width="2.5" stroke-miterlimit="10"/>
<path d="M84.3475 45.2167C87.9286 45.2167 90.8316 42.3087 90.8316 38.7216C90.8316 35.1345 87.9286 32.2266 84.3475 32.2266C80.7664 32.2266 77.8633 35.1345 77.8633 38.7216C77.8633 42.3087 80.7664 45.2167 84.3475 45.2167Z" stroke="#03303D" stroke-width="2.5" stroke-miterlimit="10"/>
<path d="M65.0117 20.2324L79.8484 34.1032" stroke="#03303D" stroke-width="2.5" stroke-miterlimit="10"/>
<path d="M55.8788 19.6777L42.0312 34.5393" stroke="#03303D" stroke-width="2.5" stroke-miterlimit="10"/>
</svg>
