<svg width="300" height="80" viewBox="0 0 300 80" fill="none" xmlns="http://www.w3.org/2000/svg">
<path d="M260.9 1C260.9 1 260.9 12.9 260.9 27.3" stroke="#03303D" stroke-width="2.4094" stroke-miterlimit="10"/>
<path d="M260.9 53.3008C260.9 67.3008 260.9 78.7008 260.9 78.7008" stroke="#03303D" stroke-width="2.4094" stroke-miterlimit="10"/>
<path d="M241.4 6.19922C241.4 6.19922 247.3 16.4992 254.6 28.9992" stroke="#03303D" stroke-width="2.4094" stroke-miterlimit="10"/>
<path d="M267.699 51.8008C274.599 63.8008 280.199 73.5008 280.199 73.5008" stroke="#03303D" stroke-width="2.4094" stroke-miterlimit="10"/>
<path d="M227.199 20.3984C227.199 20.3984 237.099 26.0984 249.299 33.0984" stroke="#03303D" stroke-width="2.4094" stroke-miterlimit="10"/>
<path d="M271.4 46C284 53.3 294.5 59.3 294.5 59.3" stroke="#03303D" stroke-width="2.4094" stroke-miterlimit="10"/>
<path d="M222 39.8984C222 39.8984 233.6 39.8984 247.9 39.8984" stroke="#03303D" stroke-width="2.4094" stroke-miterlimit="10"/>
<path d="M274.301 39.8984C288.301 39.8984 299.701 39.8984 299.701 39.8984" stroke="#03303D" stroke-width="2.4094" stroke-miterlimit="10"/>
<path d="M227.199 59.3C227.199 59.3 237.099 53.6 249.399 46.5" stroke="#03303D" stroke-width="2.4094" stroke-miterlimit="10"/>
<path d="M272.199 33.2984C284.499 26.1984 294.499 20.3984 294.499 20.3984" stroke="#03303D" stroke-width="2.4094" stroke-miterlimit="10"/>
<path d="M241.6 73.8016C241.6 73.8016 247.5 63.6016 254.7 51.1016" stroke="#03303D" stroke-width="2.4094" stroke-miterlimit="10"/>
<path d="M267.9 28.3016C274.9 16.3016 280.5 6.60156 280.5 6.60156" stroke="#03303D" stroke-width="2.4094" stroke-miterlimit="10"/>
<path d="M260.9 53.2016C268.245 53.2016 274.2 47.247 274.2 39.9016C274.2 32.5562 268.245 26.6016 260.9 26.6016C253.554 26.6016 247.6 32.5562 247.6 39.9016C247.6 47.247 253.554 53.2016 260.9 53.2016Z" stroke="#03303D" stroke-width="2.4094" stroke-miterlimit="10"/>
<path d="M40.0004 32C39.9004 32 39.9004 32 39.8004 32C29.0004 32 20.2004 40.8 20.2004 51.6C20.2004 40.8 11.4003 32 0.600342 32C0.500342 32 0.500391 32 0.400391 32" stroke="#03303D" stroke-width="2.7708" stroke-miterlimit="10"/>
<path d="M74.8 11H74.7001C68.2001 11 62.9 16.3 62.9 22.8C62.9 16.3 57.6 11 51.1 11H51" stroke="#03303D" stroke-width="2.7708" stroke-miterlimit="10"/>
<path d="M172.4 36C172.4 36 177.4 36.7 179.2 40.6" stroke="#03303D" stroke-width="2.5095" stroke-miterlimit="10"/>
<path d="M190.101 36C190.101 36 185.101 36.7 183.301 40.6" stroke="#03303D" stroke-width="2.5095" stroke-miterlimit="10"/>
<path d="M181.4 43.6008C183.4 43.6008 185.2 44.3008 186.6 45.5008C186.6 45.4008 186.6 45.3008 186.6 45.1008C186.6 42.2008 184.2 39.8008 181.3 39.8008C178.4 39.8008 176 42.2008 176 45.1008C176 45.3008 176 45.5008 176 45.7008C177.5 44.4008 179.4 43.6008 181.4 43.6008Z" stroke="#03303D" stroke-width="2.5095" stroke-miterlimit="10"/>
<path d="M188.001 56.6016C189.001 55.2016 189.501 53.4016 189.501 51.7016C189.501 47.2016 185.901 43.6016 181.401 43.6016C176.901 43.6016 173.301 47.2016 173.301 51.7016C173.301 53.5016 173.901 55.2016 174.801 56.6016C173.301 58.7016 172.301 61.4016 172.301 64.5016C172.301 70.8016 176.401 74.8016 181.401 74.8016C186.401 74.8016 190.501 70.8016 190.501 64.5016C190.501 61.5016 189.601 58.7016 188.001 56.6016Z" stroke="#03303D" stroke-width="2.5095" stroke-miterlimit="10"/>
<path d="M173.3 51.7C173.3 50.5 173.6 49.4 174 48.4L155.7 42.7C155.3 42.6 154.8 42.5 154.3 42.5H154.2C151.9 42.5 150 44.4 150 46.7C150 48.4 151 49.8 152.4 50.5C153.2 50.9 153.7 51.6 153.7 52.5C153.7 55.4 155.9 57.8 158.7 58.2C160.1 58.4 161.7 58.3 163.1 57.9C164.6 57.5 166.1 56.9 167.6 56.5C169.2 56 170.8 55.5 172.5 55C172.6 55 173.3 54.8 173.9 54.6C173.5 53.8 173.3 52.8 173.3 51.7Z" stroke="#03303D" stroke-width="2.5095" stroke-miterlimit="10"/>
<path d="M208.401 42.6016H208.301C207.801 42.6016 207.401 42.6016 206.901 42.8016L188.801 48.4016C189.301 49.4016 189.501 50.5016 189.501 51.7016C189.501 52.8016 189.301 53.8016 188.901 54.7016C189.501 54.9016 190.001 55.0016 190.101 55.0016C191.701 55.5016 193.301 56.0016 195.001 56.5016C196.501 57.0016 198.001 57.5016 199.501 57.9016C200.901 58.3016 202.401 58.4016 203.901 58.2016C206.701 57.8016 208.901 55.3016 208.901 52.5016C208.901 51.6016 209.401 50.9016 210.201 50.5016C211.601 49.8016 212.601 48.4016 212.601 46.7016C212.601 44.5016 210.701 42.6016 208.401 42.6016Z" stroke="#03303D" stroke-width="2.5095" stroke-miterlimit="10"/>
<path d="M173.301 49.1992H189.601" stroke="#03303D" stroke-width="2.5095" stroke-miterlimit="10"/>
<path d="M173.301 56H189.601" stroke="#03303D" stroke-width="2.5095" stroke-miterlimit="10"/>
<path d="M173.301 62.6992H189.601" stroke="#03303D" stroke-width="2.5095" stroke-miterlimit="10"/>
<path d="M130.6 23.8008H88.4C83.2 23.8008 79 28.0008 79 33.2008V41.0008V47.1008V72.0008C79 73.1008 80.4 73.5008 81 72.7008L93.4 56.5008H130.5C135.7 56.5008 139.9 52.3008 139.9 47.1008V33.1008C140.1 28.0008 135.8 23.8008 130.6 23.8008Z" stroke="#03303D" stroke-width="2.5095" stroke-miterlimit="10"/>
<path d="M96 40.3008H100" stroke="#03303D" stroke-width="2.5095" stroke-miterlimit="10"/>
<path d="M107.6 40.3008H111.6" stroke="#03303D" stroke-width="2.5095" stroke-miterlimit="10"/>
<path d="M119.1 40.3008H123.2" stroke="#03303D" stroke-width="2.5095" stroke-miterlimit="10"/>
<path d="M161.801 12.3984L169.101 19.6984L176.701 12.3984" stroke="#03303D" stroke-width="2.5095" stroke-miterlimit="10"/>
<path d="M169.201 7.5V19.7" stroke="#03303D" stroke-width="2.5095" stroke-miterlimit="10"/>
<path d="M184.801 12.3984L192.101 19.6984L199.701 12.3984" stroke="#03303D" stroke-width="2.5095" stroke-miterlimit="10"/>
<path d="M192.201 7.5V19.7" stroke="#03303D" stroke-width="2.5095" stroke-miterlimit="10"/>
<path d="M53.9004 61.6992C56.938 61.6992 59.4004 59.2368 59.4004 56.1992C59.4004 53.1617 56.938 50.6992 53.9004 50.6992C50.8628 50.6992 48.4004 53.1617 48.4004 56.1992C48.4004 59.2368 50.8628 61.6992 53.9004 61.6992Z" stroke="#03303D" stroke-width="2.7708" stroke-miterlimit="10"/>
</svg>
