<svg width="302" height="82" viewBox="0 0 302 82" fill="none" xmlns="http://www.w3.org/2000/svg">
<path d="M200.875 67.3351C197.085 67.3351 193.992 64.2426 193.992 60.4519V46.7854C193.992 42.9947 197.085 39.9023 200.875 39.9023C204.666 39.9023 207.758 42.9947 207.758 46.7854V60.4519C207.659 64.2426 204.566 67.3351 200.875 67.3351Z" stroke="white" stroke-width="2.5095" stroke-miterlimit="10"/>
<path d="M35.9811 61.2499L26.8036 45.3888H31.8912L24.4095 32.6201H28.5992L19.0227 15.9609L9.44619 32.6201H13.6359L6.25401 45.3888H11.2418L2.16406 61.2499H35.9811Z" stroke="white" stroke-width="2.5095" stroke-miterlimit="10"/>
<path d="M19.0234 16.958V80.0034" stroke="white" stroke-width="2.5095" stroke-miterlimit="10"/>
<path d="M78.4812 61.2499L69.3037 45.3888H74.3912L67.0093 32.6201H71.199L61.6225 15.9609L52.046 32.6201H56.1359L48.754 45.3888H53.8416L44.6641 61.2499H78.4812Z" stroke="white" stroke-width="2.5095" stroke-miterlimit="10"/>
<path d="M61.625 16.958V80.0034" stroke="white" stroke-width="2.5095" stroke-miterlimit="10"/>
<path d="M221.425 28.7291C224.675 28.7291 227.31 26.0941 227.31 22.8436C227.31 19.5931 224.675 16.958 221.425 16.958C218.174 16.958 215.539 19.5931 215.539 22.8436C215.539 26.0941 218.174 28.7291 221.425 28.7291Z" stroke="white" stroke-width="2.5095" stroke-miterlimit="10"/>
<path d="M242.971 49.778C246.222 49.778 248.857 47.1429 248.857 43.8924C248.857 40.6419 246.222 38.0068 242.971 38.0068C239.721 38.0068 237.086 40.6419 237.086 43.8924C237.086 47.1429 239.721 49.778 242.971 49.778Z" stroke="white" stroke-width="2.5095" stroke-miterlimit="10"/>
<path d="M264.815 28.7291C268.066 28.7291 270.701 26.0941 270.701 22.8436C270.701 19.5931 268.066 16.958 264.815 16.958C261.565 16.958 258.93 19.5931 258.93 22.8436C258.93 26.0941 261.565 28.7291 264.815 28.7291Z" stroke="white" stroke-width="2.5095" stroke-miterlimit="10"/>
<path d="M286.464 49.778C289.714 49.778 292.349 47.1429 292.349 43.8924C292.349 40.6419 289.714 38.0068 286.464 38.0068C283.213 38.0068 280.578 40.6419 280.578 43.8924C280.578 47.1429 283.213 49.778 286.464 49.778Z" stroke="white" stroke-width="2.5095" stroke-miterlimit="10"/>
<path d="M225.414 27.1328L238.881 39.702" stroke="white" stroke-width="2.5095" stroke-miterlimit="10"/>
<path d="M268.906 27.1328L282.373 39.702" stroke="white" stroke-width="2.5095" stroke-miterlimit="10"/>
<path d="M260.632 26.6348L248.062 40.1017" stroke="white" stroke-width="2.5095" stroke-miterlimit="10"/>
<path d="M177.935 42.4959H144.916C143.519 42.4959 142.422 41.3986 142.422 40.002V18.4548C142.422 17.0582 143.519 15.9609 144.916 15.9609H177.935C179.331 15.9609 180.429 17.0582 180.429 18.4548V40.002C180.528 41.3986 179.331 42.4959 177.935 42.4959Z" stroke="white" stroke-width="2.5095" stroke-miterlimit="10"/>
<path d="M175.045 22.6445H168.461" stroke="white" stroke-width="2.5095" stroke-miterlimit="10"/>
<path d="M147.406 36.2109H175.138" stroke="white" stroke-width="2.5095" stroke-miterlimit="10"/>
<path d="M114.792 7.58091C111.699 10.6733 110.203 14.6636 110.203 18.6538C114.193 18.6538 118.283 17.1574 121.276 14.065C124.368 10.9726 125.865 6.9824 125.865 2.99219C121.874 2.99219 117.884 4.58825 114.792 7.58091Z" stroke="white" stroke-width="2.5095" stroke-miterlimit="10"/>
<path d="M121.276 23.242C118.184 20.1496 114.193 18.6533 110.203 18.6533C110.203 22.6435 111.699 26.7335 114.792 29.7261C117.884 32.8186 121.874 34.3149 125.865 34.3149C125.865 30.4245 124.368 26.3345 121.276 23.242Z" stroke="white" stroke-width="2.5095" stroke-miterlimit="10"/>
<path d="M105.612 29.8268C108.704 26.7344 110.201 22.7441 110.201 18.7539C106.21 18.7539 102.12 20.2503 99.1278 23.3427C96.0354 26.4351 94.5391 30.4253 94.5391 34.4155C98.5293 34.4155 102.519 32.9192 105.612 29.8268Z" stroke="white" stroke-width="2.5095" stroke-miterlimit="10"/>
<path d="M99.1278 14.1647C102.22 17.2571 106.21 18.7534 110.201 18.7534C110.201 14.7632 108.704 10.6732 105.612 7.68058C102.519 4.58816 98.5293 3.0918 94.5391 3.0918C94.5391 7.08201 96.0354 11.0723 99.1278 14.1647Z" stroke="white" stroke-width="2.5095" stroke-miterlimit="10"/>
<path d="M251.352 72.4229L258.135 79.3059L265.218 72.4229" stroke="white" stroke-width="2.5095" stroke-miterlimit="10"/>
<path d="M258.234 67.834V79.3059" stroke="white" stroke-width="2.5095" stroke-miterlimit="10"/>
<path d="M229.211 72.4229L236.094 79.3059L243.177 72.4229" stroke="white" stroke-width="2.5095" stroke-miterlimit="10"/>
<path d="M236.195 67.834V79.3059" stroke="white" stroke-width="2.5095" stroke-miterlimit="10"/>
<path d="M272.797 72.4229L279.58 79.3059L286.663 72.4229" stroke="white" stroke-width="2.5095" stroke-miterlimit="10"/>
<path d="M279.781 67.834V79.3059" stroke="white" stroke-width="2.5095" stroke-miterlimit="10"/>
<path d="M127.159 79.8041H122.468C121.295 79.8041 120.357 79.0222 120.201 77.8494L118.637 68.8579C121.843 66.8251 125.361 65.1832 128.098 62.4466C128.645 61.8993 129.192 61.352 129.583 60.7265C130.365 59.4755 130.678 57.6772 129.427 56.5826C128.567 55.8008 127.316 55.7226 126.221 55.5662C125.048 55.3316 123.797 55.1753 122.625 55.0189C122.625 52.7515 120.748 50.875 118.481 50.875C116.213 50.875 114.415 52.5169 114.337 55.1753C94.6337 58.1464 93.5391 79.6477 93.5391 79.6477H112.304" stroke="white" stroke-width="2.51" stroke-miterlimit="10"/>
<path d="M93.7734 79.7256C99.7938 79.5692 105.58 77.1454 110.193 73.1579C111.678 71.8287 113.555 69.8741 113.789 67.763C114.024 65.8865 112.46 63.8537 110.584 63.5409C108.082 63.15 105.658 64.7919 103.781 66.2775C100.888 68.5449 98.1519 71.4378 96.119 74.5653C95.5717 75.3471 95.1026 76.2072 94.7117 77.0673C94.7117 77.38 93.8516 79.7256 93.7734 79.7256Z" stroke="white" stroke-width="2.51" stroke-miterlimit="10"/>
</svg>
