<svg width="308" height="81" viewBox="0 0 308 81" fill="none" xmlns="http://www.w3.org/2000/svg">
<path d="M205.386 67.0172C201.51 67.0172 198.348 63.9393 198.348 60.1665V46.5645C198.348 42.7917 201.51 39.7139 205.386 39.7139C209.262 39.7139 212.424 42.7917 212.424 46.5645V60.1665C212.322 63.9393 209.16 67.0172 205.386 67.0172Z" stroke="#03303D" stroke-width="2.5095" stroke-miterlimit="10"/>
<path d="M36.7744 60.961L27.3901 45.1747H32.5923L24.942 32.4663H29.2262L19.4338 15.8857L9.64153 32.4663H13.9257L6.37742 45.1747H11.4776L2.19531 60.961H36.7744Z" stroke="#03303D" stroke-width="2.5095" stroke-miterlimit="10"/>
<path d="M19.4336 16.8784V79.6264" stroke="#03303D" stroke-width="2.5095" stroke-miterlimit="10"/>
<path d="M80.2315 60.961L70.8471 45.1747H76.0493L68.5011 32.4663H72.7852L62.9929 15.8857L53.2006 32.4663H57.3827L49.8345 45.1747H55.0367L45.6523 60.961H80.2315Z" stroke="#03303D" stroke-width="2.5095" stroke-miterlimit="10"/>
<path d="M62.9922 16.8784V79.6264" stroke="#03303D" stroke-width="2.5095" stroke-miterlimit="10"/>
<path d="M226.401 28.594C229.725 28.594 232.419 25.9714 232.419 22.7362C232.419 19.5011 229.725 16.8784 226.401 16.8784C223.077 16.8784 220.383 19.5011 220.383 22.7362C220.383 25.9714 223.077 28.594 226.401 28.594Z" stroke="#03303D" stroke-width="2.5095" stroke-miterlimit="10"/>
<path d="M248.432 49.5433C251.756 49.5433 254.45 46.9206 254.45 43.6855C254.45 40.4503 251.756 37.8276 248.432 37.8276C245.108 37.8276 242.414 40.4503 242.414 43.6855C242.414 46.9206 245.108 49.5433 248.432 49.5433Z" stroke="#03303D" stroke-width="2.5095" stroke-miterlimit="10"/>
<path d="M270.772 28.594C274.096 28.594 276.79 25.9714 276.79 22.7362C276.79 19.5011 274.096 16.8784 270.772 16.8784C267.448 16.8784 264.754 19.5011 264.754 22.7362C264.754 25.9714 267.448 28.594 270.772 28.594Z" stroke="#03303D" stroke-width="2.5095" stroke-miterlimit="10"/>
<path d="M292.909 49.5433C296.233 49.5433 298.927 46.9206 298.927 43.6855C298.927 40.4503 296.233 37.8276 292.909 37.8276C289.585 37.8276 286.891 40.4503 286.891 43.6855C286.891 46.9206 289.585 49.5433 292.909 49.5433Z" stroke="#03303D" stroke-width="2.5095" stroke-miterlimit="10"/>
<path d="M230.48 27.0054L244.251 39.5152" stroke="#03303D" stroke-width="2.5095" stroke-miterlimit="10"/>
<path d="M274.953 27.0054L288.724 39.5152" stroke="#03303D" stroke-width="2.5095" stroke-miterlimit="10"/>
<path d="M266.489 26.5093L253.637 39.9127" stroke="#03303D" stroke-width="2.5095" stroke-miterlimit="10"/>
<path d="M181.926 42.2955H148.163C146.735 42.2955 145.613 41.2034 145.613 39.8134V18.3679C145.613 16.9779 146.735 15.8857 148.163 15.8857H181.926C183.354 15.8857 184.476 16.9779 184.476 18.3679V39.8134C184.578 41.2034 183.354 42.2955 181.926 42.2955Z" stroke="#03303D" stroke-width="2.5095" stroke-miterlimit="10"/>
<path d="M178.967 22.5376H172.234" stroke="#03303D" stroke-width="2.5095" stroke-miterlimit="10"/>
<path d="M150.715 36.0405H179.072" stroke="#03303D" stroke-width="2.5095" stroke-miterlimit="10"/>
<path d="M117.36 7.54559C114.198 10.6234 112.668 14.5948 112.668 18.5662C116.748 18.5662 120.93 17.0769 123.99 13.9991C127.152 10.9213 128.682 6.9499 128.682 2.97852C124.602 2.97852 120.522 4.56705 117.36 7.54559Z" stroke="#03303D" stroke-width="2.5095" stroke-miterlimit="10"/>
<path d="M123.99 23.1335C120.828 20.0557 116.748 18.5664 112.668 18.5664C112.668 22.5378 114.198 26.6084 117.36 29.587C120.522 32.6648 124.602 34.1541 128.682 34.1541C128.682 30.282 127.152 26.2113 123.99 23.1335Z" stroke="#03303D" stroke-width="2.5095" stroke-miterlimit="10"/>
<path d="M107.975 29.6862C111.137 26.6083 112.667 22.6369 112.667 18.6655C108.587 18.6655 104.405 20.1548 101.344 23.2327C98.1824 26.3105 96.6523 30.2818 96.6523 34.2532C100.732 34.2532 104.813 32.764 107.975 29.6862Z" stroke="#03303D" stroke-width="2.5095" stroke-miterlimit="10"/>
<path d="M101.344 14.0983C104.507 17.1761 108.587 18.6653 112.667 18.6653C112.667 14.694 111.137 10.6233 107.975 7.64477C104.813 4.56694 100.732 3.07764 96.6523 3.07764C96.6523 7.04902 98.1824 11.0204 101.344 14.0983Z" stroke="#03303D" stroke-width="2.5095" stroke-miterlimit="10"/>
<path d="M257 72.0806L263.936 78.9312L271.178 72.0806" stroke="#03303D" stroke-width="2.5095" stroke-miterlimit="10"/>
<path d="M264.039 67.5137V78.9314" stroke="#03303D" stroke-width="2.5095" stroke-miterlimit="10"/>
<path d="M234.355 72.0806L241.394 78.9312L248.636 72.0806" stroke="#03303D" stroke-width="2.5095" stroke-miterlimit="10"/>
<path d="M241.496 67.5137V78.9314" stroke="#03303D" stroke-width="2.5095" stroke-miterlimit="10"/>
<path d="M278.93 72.0806L285.866 78.9312L293.108 72.0806" stroke="#03303D" stroke-width="2.5095" stroke-miterlimit="10"/>
<path d="M286.07 67.5137V78.9314" stroke="#03303D" stroke-width="2.5095" stroke-miterlimit="10"/>
<path d="M130.011 79.4278H125.214C124.015 79.4278 123.055 78.6496 122.895 77.4824L121.296 68.5333C124.574 66.5101 128.172 64.8759 130.97 62.1523C131.53 61.6075 132.089 61.0628 132.489 60.4403C133.289 59.1952 133.608 57.4054 132.329 56.3159C131.45 55.5378 130.171 55.46 129.051 55.3043C127.852 55.0709 126.573 54.9152 125.374 54.7596C125.374 52.5029 123.455 50.6353 121.136 50.6353C118.818 50.6353 116.979 52.2694 116.899 54.9152C96.7521 57.8723 95.6328 79.2722 95.6328 79.2722H114.82" stroke="#03303D" stroke-width="2.51" stroke-miterlimit="10"/>
<path d="M95.875 79.3501C102.031 79.1945 107.947 76.7821 112.664 72.8134C114.183 71.4905 116.102 69.5451 116.342 67.444C116.582 65.5764 114.983 63.5531 113.064 63.2418C110.506 62.8527 108.027 64.4869 106.108 65.9654C103.15 68.2222 100.352 71.1014 98.2735 74.2141C97.7138 74.9923 97.2341 75.8483 96.8344 76.7043C96.8344 77.0156 95.9549 79.3501 95.875 79.3501Z" stroke="#03303D" stroke-width="2.51" stroke-miterlimit="10"/>
</svg>
