<svg width="301" height="82" viewBox="0 0 301 82" fill="none" xmlns="http://www.w3.org/2000/svg">
<path d="M159.008 11V19.5C159.008 19.5 158.508 28.1 165.508 28.1C172.508 28.1 178.208 28.1 178.208 28.1C178.208 28.1 182.608 27.8 182.608 34.7" stroke="#03303D" stroke-width="2.5095" stroke-miterlimit="10"/>
<path d="M167.908 17.1016V19.5016C167.908 19.5016 167.408 28.1016 174.408 28.1016" stroke="#03303D" stroke-width="2.5095" stroke-miterlimit="10"/>
<path d="M213.008 11V19.5C213.008 19.5 213.508 28.1 206.508 28.1C199.508 28.1 193.808 28.1 193.808 28.1C193.808 28.1 189.408 27.8 189.408 34.7" stroke="#03303D" stroke-width="2.5095" stroke-miterlimit="10"/>
<path d="M204.008 17.1016V19.5016C204.008 19.5016 204.508 28.1016 197.508 28.1016" stroke="#03303D" stroke-width="2.5095" stroke-miterlimit="10"/>
<path d="M201.508 33.6016L192.608 40.8016L188.808 56.7015H184.008L180.308 40.8016L171.408 33.6016" stroke="#03303D" stroke-width="2.5095" stroke-miterlimit="10"/>
<path d="M201.107 39.6H238.007C240.307 39.6 242.807 39.5 244.907 40.6C247.107 41.8 248.907 44.4 248.907 47C248.907 52.1 248.907 80.4 248.907 80.4" stroke="#03303D" stroke-width="2.5095" stroke-miterlimit="10"/>
<path d="M219.908 59.5008C219.108 59.5008 207.308 59.5008 207.308 59.5008C203.808 59.5008 201.008 56.8008 200.808 53.3008" stroke="#03303D" stroke-width="2.5095" stroke-miterlimit="10"/>
<path d="M205.708 59.5V80.4" stroke="#03303D" stroke-width="2.5095" stroke-miterlimit="10"/>
<path d="M210.607 59.5V80.4" stroke="#03303D" stroke-width="2.5095" stroke-miterlimit="10"/>
<path d="M243.908 63.8008V80.4008" stroke="#03303D" stroke-width="2.5095" stroke-miterlimit="10"/>
<path d="M225.508 46.6016C225.508 46.6016 222.208 65.1016 248.908 65.1016" stroke="#03303D" stroke-width="2.5095" stroke-miterlimit="10"/>
<path d="M273.1 29.6992V48.4993" stroke="#03303D" stroke-width="2.5095" stroke-miterlimit="10"/>
<path d="M270.1 20.1992L273.4 35.2993L276.2 20.1992" stroke="#03303D" stroke-width="2.5095" stroke-miterlimit="10"/>
<path d="M269.3 11.1V19.2C269.3 19.8 269.8 20.3 270.4 20.3H276.4C277 20.3 277.5 19.8 277.5 19.2V11.1C277.5 10.5 277 10 276.4 10H270.4C269.8 10 269.3 10.5 269.3 11.1Z" stroke="#03303D" stroke-width="2.5095" stroke-miterlimit="10"/>
<path d="M269.3 10.8L248 3V5.29999L257.3 18.2" stroke="#03303D" stroke-width="2.5095" stroke-miterlimit="10"/>
<path d="M253.6 27.9993L269.3 18.1992" stroke="#03303D" stroke-width="2.5095" stroke-miterlimit="10"/>
<path d="M277.9 10.8L299.3 3V5.29999L290 18.2" stroke="#03303D" stroke-width="2.5095" stroke-miterlimit="10"/>
<path d="M293.6 27.9993L278 18.1992" stroke="#03303D" stroke-width="2.5095" stroke-miterlimit="10"/>
<path d="M275.1 9.69922V6.69922H271.6V9.69922" stroke="#03303D" stroke-width="2.5095" stroke-miterlimit="10"/>
<path d="M131 80H125C123.5 80 122.3 79 122.1 77.5L120.1 66C124.2 63.4 128.7 61.3 132.2 57.8C132.9 57.1 133.6 56.4 134.1 55.6C135.1 54 135.5 51.7 133.9 50.3C132.8 49.3 131.2 49.2 129.8 49C128.3 48.7 126.7 48.5 125.2 48.3C125.2 45.4 122.8 43 119.9 43C117 43 114.7 45.1 114.6 48.5C89.4 52.3 88 79.8 88 79.8H112" stroke="#03303D" stroke-width="2.7708" stroke-miterlimit="10"/>
<path d="M88.2998 79.8998C95.9998 79.6998 103.4 76.5999 109.3 71.4999C111.2 69.7999 113.6 67.2998 113.9 64.5998C114.2 62.1998 112.2 59.5998 109.8 59.1998C106.6 58.6998 103.5 60.7998 101.1 62.6998C97.3998 65.5998 93.8998 69.2999 91.2998 73.2999C90.5998 74.2999 89.9998 75.3999 89.4998 76.4999C89.4998 76.8999 88.3998 79.8998 88.2998 79.8998Z" stroke="#03303D" stroke-width="2.7708" stroke-miterlimit="10"/>
<path d="M55.6996 68.2C55.6996 72.1 55.6996 79.7 55.6996 79.7H43.4996C43.2996 72.9 37.6996 67.4 30.7996 67.4C23.8996 67.4 18.3996 72.9 18.0996 79.7H6.59961V35.7C6.59961 19.3 19.8996 6 36.2996 6H42.3996C42.3996 6 75.3996 6.00004 75.3996 36.1V69.7C75.3996 75.2 70.9996 79.6 65.4996 79.6L55.8996 50.8C37.5996 50.8 37.3996 31.6 37.3996 31.6V26.1C37.3996 22.2 40.5996 19.1 44.3996 19.1H55.9996" stroke="#03303D" stroke-width="2.7708" stroke-miterlimit="10"/>
<path d="M6.69983 35.6016C6.69983 35.6016 6.3998 45.9016 0.299805 45.9016" stroke="#03303D" stroke-width="2.7708" stroke-miterlimit="10"/>
<path d="M167.9 72.6016L174.7 79.5015L181.8 72.6016" stroke="#03303D" stroke-width="2.5095" stroke-miterlimit="10"/>
<path d="M174.801 68V79.5" stroke="#03303D" stroke-width="2.5095" stroke-miterlimit="10"/>
<path d="M145.7 72.6016L152.6 79.5015L159.7 72.6016" stroke="#03303D" stroke-width="2.5095" stroke-miterlimit="10"/>
<path d="M152.7 68V79.5" stroke="#03303D" stroke-width="2.5095" stroke-miterlimit="10"/>
<path d="M273.3 69.4984C276.227 69.4984 278.6 67.1255 278.6 64.1984C278.6 61.2713 276.227 58.8984 273.3 58.8984C270.373 58.8984 268 61.2713 268 64.1984C268 67.1255 270.373 69.4984 273.3 69.4984Z" stroke="#03303D" stroke-width="2.5095" stroke-miterlimit="10"/>
</svg>
