<svg width="147" height="112" viewBox="0 0 147 112" fill="none" xmlns="http://www.w3.org/2000/svg">
<path d="M71.6211 66.3301V111.831" stroke="white" stroke-width="2.5" stroke-miterlimit="10"/>
<path d="M63.2109 43.3359L72.4633 79.8821L80.3136 43.3359" stroke="white" stroke-width="2.5" stroke-miterlimit="10"/>
<path d="M60.9688 21.3107V40.9148C60.9688 42.367 62.3707 43.5772 64.0529 43.5772H80.8751C82.5573 43.5772 83.9591 42.367 83.9591 40.9148V21.3107C83.9591 19.8585 82.5573 18.6484 80.8751 18.6484H64.0529C62.3707 18.6484 60.9688 19.8585 60.9688 21.3107Z" stroke="white" stroke-width="2.5" stroke-miterlimit="10"/>
<path d="M60.9686 20.5851L1.25 1.70703V7.27363L27.3243 38.495" stroke="white" stroke-width="2.5" stroke-miterlimit="10"/>
<path d="M16.9492 62.2149L60.9672 38.4961" stroke="white" stroke-width="2.5" stroke-miterlimit="10"/>
<path d="M85.082 20.5851L145.081 1.70703V7.27363L119.007 38.495" stroke="white" stroke-width="2.5" stroke-miterlimit="10"/>
<path d="M129.097 62.2149L85.3594 38.4961" stroke="white" stroke-width="2.5" stroke-miterlimit="10"/>
<path d="M77.2309 17.9249V10.6641H67.418V17.9249" stroke="white" stroke-width="2.5" stroke-miterlimit="10"/>
</svg>
