<svg width="55" height="55" viewBox="0 0 55 55" fill="none" xmlns="http://www.w3.org/2000/svg">
<path d="M27.25 1.25C12.8911 1.25 1.25 12.8911 1.25 27.25C1.25 41.6089 12.8911 53.25 27.25 53.25C41.6089 53.25 53.25 41.6089 53.25 27.25C53.25 12.8911 41.6089 1.25 27.25 1.25ZM21.1365 27.2512C21.1365 27.7815 21.0496 28.29 20.9252 28.7805L30.4136 34.5617C31.5129 33.5869 32.9419 32.9757 34.5255 32.9757C37.9609 32.9757 40.7453 35.76 40.7453 39.1991C40.7453 42.6381 37.9609 45.4188 34.5255 45.4188C31.0901 45.4188 28.3045 42.6345 28.3045 39.1991C28.3045 38.6652 28.3915 38.1602 28.5159 37.6698L19.025 31.8873C17.9258 32.8622 16.498 33.4698 14.9144 33.4698C11.479 33.4698 8.69462 30.6854 8.69462 27.25C8.69462 23.8146 11.479 21.0266 14.9144 21.0266C16.498 21.0266 17.9282 21.6378 19.0263 22.6127L28.5171 16.8302C28.3903 16.3398 28.3033 15.8312 28.3033 15.3009C28.3033 11.8619 31.0877 9.07754 34.5243 9.07754C37.9609 9.07754 40.7441 11.8619 40.7441 15.3009C40.7441 18.74 37.9597 21.5207 34.5243 21.5207C32.9407 21.5207 31.5129 20.9095 30.4136 19.9383L20.9227 25.7195C21.0472 26.21 21.1341 26.7149 21.1341 27.2488L21.1365 27.2512Z" stroke="white" stroke-width="2.5" stroke-miterlimit="10"/>
</svg>
