<svg width="229" height="95" viewBox="0 0 229 95" fill="none" xmlns="http://www.w3.org/2000/svg">
<path d="M57.1016 64.3798C55.9032 61.9763 54.413 61.1647 52.8365 60.3072C52.0162 59.8603 51.165 59.3965 50.2341 58.6501C50.2297 58.6452 50.2231 58.6404 50.2186 58.6356C49.1927 57.6911 48.7439 56.5364 51.9919 50.8115C53.5529 48.0602 54.9016 45.6857 54.141 43.6856C53.7541 42.6638 52.8874 41.9705 51.5629 41.6251C48.735 40.7144 46.5815 39.8665 46.6766 38.0017C46.7318 36.9582 48.3724 35.6465 49.8184 34.4943C51.4015 33.2285 53.0421 31.9193 53.6413 30.2743C53.9111 29.5327 53.9265 28.8515 53.6855 28.2404C53.2853 27.2306 52.3346 26.8176 51.5696 26.4891C51.1804 26.32 50.6962 26.1098 50.537 25.9093C50.38 25.7161 50.2186 25.419 50.3181 25.0953C50.4663 24.617 51.207 23.972 52.8431 23.6049C54.413 23.2546 55.7418 22.0685 56.3056 20.5177C56.7655 19.2616 56.6483 17.95 55.9872 16.9185C55.0741 15.4885 53.4843 15.4885 52.9625 15.4885C52.14 15.4885 51.2379 15.6431 50.369 15.7905C49.7123 15.8992 49.0379 16.0393 48.4343 16.0562C47.9258 16.0707 48.2464 14.329 48.3194 13.6744C48.4056 12.8893 48.4874 12.1502 48.4343 11.5052C48.2707 9.55102 46.9883 8.93505 46.1393 8.52681L46.1017 8.5099C45.6374 8.28767 45.2504 7.91084 44.9873 7.42531C43.0129 3.80677 41.6708 1.61343 39.6742 1.61343C38.027 1.61343 36.55 3.09901 34.1665 6.22235C34.1333 6.26825 34.0825 6.29723 34.0316 6.3069C32.307 6.65474 30.9229 7.43014 29.9434 8.1524C29.8815 8.19829 29.7997 8.16206 29.7798 8.08718C29.0037 5.4083 28.0043 4.42274 27.8673 4.29955L27.7479 4.19085C27.5931 4.05075 27.3963 3.98069 27.1973 3.9976L27.0403 4.00968C26.7242 4.03625 26.4013 4.11597 26.1095 4.21501C25.9392 4.27298 25.7579 4.23675 25.6186 4.11838C22.7133 1.64966 19.5582 1.44434 18.5986 1.44434C18.4394 1.44434 18.3554 1.44917 18.3554 1.44917H18.309C17.8336 1.48299 17.4312 1.84291 17.3096 2.34293L17.2985 2.38641C16.3433 6.26342 16.9956 10.0221 17.3604 11.5825C17.3715 11.6308 17.3626 11.6767 17.3339 11.7178C17.1747 11.9376 16.916 12.2951 16.7037 12.5898C16.4782 12.9038 16.4583 13.3338 16.6507 13.672L16.7634 13.8701C16.8231 13.9739 17.67 15.4112 19.514 16.6987C19.5715 16.7398 19.5582 16.8364 19.4896 16.8557C18.1122 17.2205 17.4135 17.607 17.3582 17.6384L17.2454 17.7012C16.9293 17.8799 16.7303 18.2374 16.7303 18.6263V18.7665C16.7303 19.124 16.7568 19.4476 16.7988 19.7375C16.8099 19.81 16.7745 19.8752 16.717 19.909C13.2766 21.8004 12.5359 25.2402 12.6553 26.9311L12.6686 27.1074C12.6885 27.4166 12.8499 27.6896 13.0909 27.8442L13.2324 27.9336C14.4573 28.7017 15.7441 29.0931 17.0597 29.0931C18.0657 29.0931 18.9214 28.866 19.5781 28.6051C19.6533 28.5761 19.7461 28.6099 19.7859 28.6824C19.8832 28.8515 19.9584 28.9554 19.9893 28.9964L20.1021 29.151C20.2922 29.4071 20.5952 29.5327 20.8937 29.482L21.0705 29.4506C23.3479 29.0544 25.004 28.221 26.1471 27.4094C26.2422 27.3442 26.3638 27.3973 26.3947 27.5133C26.5937 28.2234 26.8546 28.8974 27.1398 29.5182C27.1796 29.6003 27.1133 29.6945 27.0337 29.6776C26.8148 29.6341 26.6866 29.6148 26.6711 29.6124L26.4588 29.5834C26.0454 29.523 25.6496 29.7839 25.5059 30.2115L25.4307 30.4289C23.9758 34.6948 24.7143 40.2313 25.3002 43.2145C25.3246 43.3256 25.2472 43.4319 25.1455 43.4368C24.5795 43.4682 24.1859 43.5793 24.1372 43.5938L23.8542 43.6759C23.6287 43.7411 23.4518 43.9368 23.3921 44.1832L23.3169 44.4875C22.6514 47.2051 23.3059 49.838 23.9382 51.5096C23.9692 51.5942 23.9095 51.6835 23.8255 51.6763C23.0605 51.599 22.2977 51.5604 21.5238 51.5604C19.2022 51.5604 16.7679 51.9082 14.0792 52.6184L13.4469 52.7875C13.0577 52.8913 12.8543 53.3575 13.0246 53.7537L13.6768 55.2538C13.7166 55.3456 13.6724 55.4543 13.5818 55.476C11.9146 55.9543 9.30118 56.7708 7.65617 57.6283L7.49698 57.708C7.10783 57.9109 6.89558 58.3723 6.9796 58.8361L7.01276 59.0245C7.03045 59.1139 7.12774 59.6187 7.34663 60.2516C7.37537 60.3337 7.34221 60.4279 7.26924 60.4714C4.50544 62.0319 2.22587 64.66 0.771003 67.9887L0.585276 68.4138C0.454825 68.711 0.536633 69.0685 0.775425 69.2641L1.12035 69.5492C1.24859 69.6555 4.37721 72.1628 11.8041 72.1628C12.0451 72.1628 12.2883 72.1604 12.5359 72.1532C12.5956 72.1507 12.6509 72.1894 12.6708 72.2522C12.8433 72.7619 13.102 73.3585 13.469 73.8682L13.5088 73.9214C13.721 74.2112 14.0505 74.3731 14.3888 74.3489H14.4507C14.9305 74.3127 18.0348 74.047 20.4094 72.4599C20.5156 72.3875 20.6549 72.4648 20.6681 72.6C20.8118 74.1122 21.1324 75.82 21.8179 77.1292L21.8466 77.18C21.9925 77.4602 22.2402 77.6583 22.5276 77.7259L22.5829 77.7404C22.6293 77.7525 23.7614 78.0109 25.4064 78.0109C26.0299 78.0109 26.6423 77.9747 27.2393 77.9022C27.4825 77.8805 27.4693 77.8829 27.6329 77.8563C27.6749 77.8515 27.7059 77.8998 27.686 77.9385C26.0188 81.0208 22.3065 88.0404 18.6937 91.0527L17.9574 91.6807C17.7827 91.8329 17.681 92.0599 17.6832 92.3039V92.5696C17.6876 92.6783 17.7695 92.7677 17.869 92.7677L19.2575 92.7629H24.8426C25.1189 92.7629 25.3776 92.6179 25.5435 92.374C25.7314 92.0962 30.0363 85.6442 32.831 76.7114C32.8554 76.6365 32.9372 76.6075 32.9947 76.6582C33.6403 77.1969 34.1024 78.4361 34.5601 79.6825C35.4799 82.1802 36.623 85.2867 39.745 85.2891H39.7472C40.7753 85.2891 41.9361 84.9944 43.203 84.2021C44.2533 83.5426 44.9144 82.4097 45.2593 81.5473C45.7391 80.354 46.1194 79.4096 49.6592 79.139C52.7083 78.9071 55.2045 77.1462 56.6881 74.1823C58.2535 71.0662 58.4194 67.037 57.095 64.3822M50.2054 60.8483C50.3513 60.9449 50.4265 61.1285 50.4044 61.3096C50.0042 64.3605 47.1541 66.3775 45.8607 67.1457C45.518 67.3486 45.1421 67.4718 44.7552 67.508C43.4175 67.636 42.1948 67.8993 41.0937 68.2375C41.0185 68.2592 40.961 68.1626 41.0119 68.0974C41.9339 66.921 43.0084 65.1093 43.0195 63.0295C43.0328 61.3628 42.354 59.8192 41.0185 58.4206C40.8925 58.2902 40.8704 58.08 40.9588 57.9206C41.5403 56.877 42.1439 55.6403 42.7475 54.1813C42.8581 53.9204 43.0394 53.7054 43.2693 53.5677C44.3152 52.9493 46.3206 52.1667 48.5095 53.4832C48.5869 53.5291 48.6201 53.6378 48.5803 53.7247C47.4173 56.5123 47.4128 58.4641 49.1396 60.0511L49.1817 60.0873L49.2237 60.1212C49.5597 60.3917 49.8892 60.6284 50.2054 60.8434M34.6883 23.1121C34.6773 23.0299 34.7502 22.9671 34.8188 22.9961C35.827 23.4478 36.5743 23.873 36.9789 24.1242C37.1381 24.2208 37.2487 24.3972 37.2686 24.5977C37.6467 28.0447 37.8965 31.9531 37.8877 36.277C37.8877 36.3809 37.7705 36.4243 37.7108 36.3495C36.1078 34.3204 34.3854 32.9145 32.778 31.9386C32.6873 31.8855 32.6608 31.7647 32.7205 31.6729C33.6712 30.2187 35.2565 27.0978 34.6905 23.1145M30.3724 20.3825C30.3149 20.3728 30.2684 20.3342 30.2441 20.2762C29.9854 19.6192 29.5145 18.078 29.8506 16.2301C29.8638 16.1649 29.9279 16.1311 29.9832 16.1552C31.9599 17.1142 34.0692 17.8099 36.2316 18.1819C36.3024 18.194 36.3576 18.2495 36.3709 18.3268C36.6097 19.6457 36.8308 21.0709 37.032 22.6072C37.0409 22.6604 36.9878 22.7014 36.9436 22.6797C35.6899 22.0033 33.3307 20.9067 30.3746 20.3825M39.2784 30.7381C39.274 30.5327 39.316 30.3322 39.3978 30.1511C39.798 29.2911 41.1357 26.6896 43.7248 24.2595C43.7735 24.2136 43.8553 24.245 43.8641 24.3175C44.0764 25.948 44.1825 28.9095 42.9598 32.1294C42.7586 32.6633 42.4513 33.1367 42.0665 33.5329C40.8372 34.8059 40.039 36.0548 39.5791 36.9123C39.5261 37.0089 39.3934 36.9703 39.3934 36.8591C39.4089 34.9436 39.3094 31.726 39.2762 30.7405M39.2342 27.9553C39.1966 28.0157 39.1148 27.9891 39.1082 27.9215C39.0617 27.2886 39.0087 26.6726 38.9534 26.076C38.8937 25.4407 38.8296 24.8199 38.761 24.2136C38.708 23.7353 38.7588 23.2474 38.9092 22.7932C39.1878 21.955 39.6388 20.7279 40.2601 19.3631C40.3751 19.107 40.5807 18.9114 40.8306 18.8268C41.9272 18.45 43.968 18.2761 46.5638 20.4211C46.6345 20.4791 46.6235 20.595 46.5483 20.6385C42.7696 22.827 40.4392 25.9456 39.2342 27.9577M39.232 42.084C39.2364 41.9802 39.316 41.9053 39.4089 41.9101C40.0545 41.9415 41.2241 42.1444 42.2346 43.0793C43.2583 44.0237 43.8884 45.4972 44.1184 47.4515C44.1648 47.8452 44.0764 48.2413 43.873 48.5699C43.4263 49.2897 43.0062 50.169 42.6215 51.2487C40.3464 57.6838 37.9717 60.4763 36.6893 61.6067C36.6473 61.643 36.5854 61.6019 36.5986 61.5415C38.1287 54.4252 38.9158 47.8911 39.232 42.084ZM33.0676 34.5136C34.109 37.3157 33.5916 40.2216 33.1494 41.8062C33.1229 41.8956 33.0146 41.9029 32.9748 41.8207C30.7593 37.2118 28.4377 33.429 27.4118 31.813C27.3631 31.7357 27.4228 31.6342 27.5091 31.6511C27.8429 31.7236 28.2697 31.8178 28.692 31.9072C29.048 31.9845 29.3951 32.086 29.7378 32.2212C29.9987 32.3251 30.2707 32.4386 30.5492 32.5691C31.1352 32.8396 31.699 33.1464 32.2451 33.4846C32.6166 33.7189 32.9084 34.0788 33.0698 34.5112M33.6712 42.5261C34.1378 41.0888 34.8851 37.9606 33.9034 34.7793C33.8901 34.7358 33.9343 34.6996 33.9697 34.7262C35.4268 35.9267 36.7092 37.4147 37.8147 39.1636C37.8346 39.195 37.8457 39.2361 37.8435 39.2747C37.7373 43.0503 37.4278 47.1084 36.8529 51.413C36.8441 51.4758 36.7645 51.4855 36.749 51.4251C35.9574 48.7076 34.8807 45.9731 33.7221 43.4247C33.5961 43.1445 33.5762 42.8232 33.6734 42.5285M36.5345 63.2711C37.1978 62.8556 38.6394 61.7227 40.3353 58.9858C40.3795 58.9134 40.4768 58.9037 40.5343 58.9641C41.7283 60.213 42.3341 61.5753 42.3252 63.0247C42.3098 65.4209 40.6382 67.5056 39.7715 68.4235C39.5017 68.711 39.1856 68.938 38.8406 69.095C38.7301 69.1458 38.624 69.1941 38.52 69.2472C36.55 70.1941 35.0089 71.3464 33.91 72.3198C33.8658 72.3561 33.8061 72.3102 33.8238 72.2546C34.6861 69.4163 35.4224 66.6505 36.0547 63.9595C36.1233 63.6696 36.2979 63.4233 36.5345 63.2735M52.5734 45.6374C52.2948 46.7823 51.4458 48.28 50.5591 49.838C49.9511 50.9081 49.4337 51.8816 49.0114 52.7754C48.9805 52.8382 48.9119 52.8599 48.8566 52.8261C46.7672 51.5676 44.7972 52.0241 43.528 52.616C43.4573 52.6474 43.3887 52.5725 43.4175 52.4952C43.5126 52.2391 43.6076 51.9758 43.7027 51.7077C45.3035 47.1857 47.3642 46.7678 49.7499 46.2823C50.6343 46.1036 51.5453 45.9176 52.4341 45.5093C52.5115 45.4731 52.5955 45.5504 52.5734 45.6374ZM51.5276 30.5182C50.8775 31.3564 49.8405 32.1898 48.8235 33.0015C46.9021 34.5329 45.089 35.9823 44.9917 37.8978C44.8149 41.3787 48.4388 42.543 51.0854 43.3957L51.1716 43.4174C51.6912 43.5551 52.0759 43.7484 52.3235 43.9996C52.3766 44.0503 52.3633 44.1445 52.297 44.1783C51.4303 44.647 50.5105 44.8378 49.5398 45.0335C48.0386 45.3354 46.4134 45.6736 44.9564 47.1712C44.8945 47.2341 44.795 47.1978 44.7817 47.106C44.5053 45.0721 43.8 43.5189 42.6768 42.485C41.5094 41.4149 40.1982 41.1806 39.4487 41.1444C39.358 41.1395 39.2851 41.0526 39.2873 40.9511V40.9463C39.3005 40.6685 39.3536 40.398 39.4376 40.1395C40.2933 37.6418 43.2074 31.6197 51.4612 30.383C51.5298 30.3733 51.574 30.4603 51.5298 30.5182M54.8242 19.5636C54.7999 19.6554 54.7756 19.7423 54.7424 19.8341C54.3842 20.8149 53.5286 21.5685 52.5071 21.7956C50.4619 22.2545 49.1175 23.2159 48.7196 24.5035C48.4454 25.39 48.6466 26.3441 49.2679 27.1219C49.6681 27.6195 50.2164 27.8828 50.9505 28.2017C51.2423 28.3273 51.574 28.4722 51.8172 28.6365C51.8769 28.6776 51.857 28.7742 51.7885 28.7814C48.4189 29.2235 45.8585 30.4458 43.9548 31.8686C43.8951 31.9144 43.8155 31.8468 43.842 31.7719C44.9409 28.4843 44.764 25.5518 44.5296 23.9841C44.4921 23.7425 44.5849 23.4986 44.7618 23.3536C47.1541 21.4163 50.4198 19.7593 54.7269 19.438C54.7888 19.4356 54.8397 19.4984 54.8242 19.5636ZM46.608 11.4086C46.6611 11.382 46.7208 11.4134 46.7318 11.4738C46.7429 11.5366 46.7517 11.6018 46.7584 11.6743C46.796 12.1212 46.7252 12.7662 46.6478 13.4522C46.4577 15.1648 46.4223 16.1093 46.7451 16.8485C46.9905 17.4017 47.4681 17.7906 48.0253 17.8775C48.1005 17.892 48.211 17.9065 48.368 17.9065C48.4233 17.9065 48.4785 17.9041 48.5382 17.9017C49.2259 17.8534 49.9378 17.7326 50.6277 17.6166C51.4436 17.4789 52.2749 17.3364 52.9714 17.3364C53.5153 17.3364 54.3312 17.4596 54.6695 18.0635C54.696 18.1118 54.6672 18.1746 54.6142 18.1795C51.9432 18.3824 49.6482 19.0732 47.6981 20.025C47.5168 20.1095 47.3089 20.0878 47.1541 19.9573C44.5849 17.7567 42.4601 17.6456 41.1136 17.9572C41.0406 17.9741 40.9831 17.8896 41.0185 17.8171C42.3341 15.317 44.1913 12.713 46.6102 11.4086M40.0744 7.50019C40.3154 6.49531 40.4945 5.36965 40.5763 4.12563C40.5807 4.02659 40.6869 3.97828 40.7532 4.0435C41.5779 4.85996 42.4955 6.46149 43.5369 8.37222C43.9835 9.1911 44.6358 9.82156 45.4229 10.2008L45.4627 10.2177C45.5357 10.254 45.6042 10.2854 45.6683 10.3216C45.7413 10.3578 45.7435 10.4738 45.6727 10.5148C44.3439 11.3216 43.1853 12.457 42.197 13.73C42.1483 13.7928 42.0533 13.7517 42.0577 13.6696C42.1881 11.8603 41.967 9.39159 40.1717 7.84079C40.0766 7.76108 40.0412 7.6258 40.0722 7.50019M39.7649 8.62585C39.7825 8.56546 39.8555 8.54372 39.8997 8.58479C41.5381 10.1839 41.485 12.8314 41.2706 14.4112C41.2042 14.9039 41.0362 15.375 40.7841 15.7905C39.7361 17.5176 38.949 19.2906 38.4029 20.711C38.383 20.7641 38.3122 20.7545 38.3034 20.6965C37.9319 18.1964 37.5008 16.0054 37.0762 14.1455C37.0364 13.9667 37.0784 13.7783 37.1934 13.6406C37.6732 13.0609 38.9114 11.3893 39.7626 8.62585M35.3162 7.59923L35.4135 7.47362C37.0807 5.28752 38.3432 3.83576 39.3072 3.52173C39.3779 3.49999 39.4509 3.5628 39.4487 3.64493C39.243 8.07993 37.6312 10.9665 36.7534 12.2275C36.7114 12.2903 36.623 12.271 36.6053 12.1961C36.0857 10.1839 35.6103 8.70074 35.2897 7.78523C35.2698 7.72243 35.2787 7.64996 35.3185 7.59923M31.9488 9.0051C32.453 8.72731 33.0389 8.46884 33.6978 8.28042C33.7818 8.25385 33.868 8.30216 33.899 8.39396C34.3788 9.79982 35.2499 12.6164 36.0547 16.6577C36.0746 16.7615 35.9928 16.8557 35.8977 16.834C34.8696 16.6311 33.8548 16.3557 32.8686 16.0054C32.7935 15.9789 32.7426 15.8992 32.7514 15.8146C32.8399 14.7397 32.9239 11.969 31.8781 9.22008C31.8471 9.13795 31.8759 9.04375 31.9488 9.00268M27.1244 6.41801C27.1354 6.34555 27.2194 6.32622 27.2526 6.38661C27.529 6.8649 27.8872 7.63063 28.2078 8.78045L28.5991 10.1767C28.7406 10.6839 29.2912 10.8941 29.6892 10.5897L30.788 9.75876C30.8875 9.68146 31.0025 9.60175 31.1197 9.51962C31.1661 9.48821 31.2325 9.50754 31.2524 9.56551C32.1279 11.9062 32.1346 14.3073 32.0727 15.4644C32.0682 15.5876 31.9533 15.6697 31.8449 15.6262C29.4106 14.6406 27.1487 13.2469 25.203 11.5608C25.1322 11.498 25.1189 11.3844 25.1764 11.3047C25.78 10.4834 26.7595 8.82393 27.1221 6.42043M19.5538 3.35264C20.8074 3.50966 22.8681 4.03867 24.774 5.74165L25.3224 6.23201C25.4418 6.34071 25.6054 6.3697 25.7513 6.31173L26.408 6.05085C26.4389 6.03877 26.4699 6.06775 26.4655 6.10157C26.1515 8.41328 25.2118 10.0221 24.6502 10.8047C24.5883 10.8868 24.4777 10.8989 24.4048 10.8313C22.1761 8.70798 20.4448 6.19095 19.4543 3.49516C19.4277 3.42028 19.483 3.34298 19.5538 3.35264ZM18.6185 12.9183C18.7423 12.7517 18.8882 12.5463 19.0076 12.3821C19.1469 12.1937 19.1934 11.9449 19.1381 11.7105L19.0121 11.1912C18.7578 10.1187 18.2913 7.6403 18.5831 4.8648C18.592 4.78267 18.6959 4.76576 18.7268 4.84306C19.9407 7.6717 21.9129 10.2781 24.376 12.4401C24.4755 12.5318 24.4534 12.7033 24.3362 12.7589C23.1976 13.2734 21.0175 13.945 18.6583 13.0729C18.6008 13.0512 18.5809 12.9739 18.6163 12.9183M19.3305 14.2421C19.2685 14.1817 19.3194 14.0682 19.4034 14.0851C20.2436 14.2759 21.0462 14.3073 21.7759 14.2397C23.1202 14.114 24.2213 13.6672 24.8757 13.3386C25.0968 13.2275 25.3533 13.2589 25.5523 13.4135C26.6556 14.2662 27.8341 15.0344 29.0789 15.6963C29.1674 15.7446 29.2116 15.8533 29.1917 15.9595C28.86 17.6311 29.1187 19.066 29.3929 19.9742C29.4327 20.1023 29.3354 20.2279 29.2116 20.2134C27.257 19.9863 25.0946 20.0298 22.8482 20.6023C22.7929 20.6144 22.7377 20.5975 22.6956 20.5564C22.1937 20.0346 21.3182 19.3631 19.9296 19.0008C19.755 18.9549 19.7528 18.6843 19.9274 18.6384C19.9694 18.6263 20.0114 18.6167 20.0535 18.6046L22.5475 17.9766C23.1047 17.834 23.2241 17.0297 22.7377 16.7035L20.5598 15.2373C20.0689 14.9064 19.6643 14.5633 19.3305 14.2445M14.5745 25.0711C14.946 23.8609 15.8038 22.4454 17.5616 21.5081L18.3487 21.0854C18.561 20.9743 18.676 20.7255 18.6362 20.4743L18.5057 19.6578C18.4925 19.5902 18.5455 19.5298 18.6052 19.5346C20.1507 19.6795 21.1656 20.2134 21.7913 20.7134C21.8621 20.7666 21.84 20.8897 21.7582 20.9187C19.4476 21.6772 17.073 23.0227 14.7713 25.2112C14.6806 25.3006 14.5369 25.1967 14.5745 25.0711ZM21.1678 27.1558C21.086 27.2306 20.9622 27.2065 20.9069 27.1074L20.5266 26.3948C20.4846 26.3151 20.3962 26.2813 20.3188 26.3127L19.1093 26.8224C18.4527 27.1026 17.7672 27.2427 17.0663 27.2427C16.403 27.2427 15.7441 27.105 15.0963 26.8466C15.0189 26.8127 14.9968 26.6992 15.0587 26.6364C18.3598 23.2932 21.8112 21.8415 24.9841 21.4212C25.057 21.4091 25.1123 21.4961 25.0814 21.5661C24.6038 22.6724 23.3921 25.0711 21.1678 27.1582M26.9386 24.5952L25.3909 25.7426C24.4888 26.4093 23.443 26.9166 22.2756 27.2645C22.2136 27.2838 22.1694 27.1968 22.2159 27.1437C24.3163 24.9624 25.4042 22.6483 25.8022 21.6772C25.8928 21.4526 26.094 21.3052 26.3217 21.298C29.0435 21.1675 31.4978 21.74 33.3971 22.4261C33.7155 22.5396 33.9454 22.8464 33.9963 23.2087C34.5247 26.9504 32.988 29.9313 32.1191 31.2695C32.0373 31.3951 31.8891 31.4362 31.7631 31.3734C31.2457 31.1052 30.7505 30.883 30.2773 30.697C29.7533 30.4893 29.3177 30.0714 29.0612 29.5303L28.7428 28.866C28.4001 28.1486 28.1392 27.448 27.969 26.7765L27.4626 24.8054C27.4007 24.5638 27.1354 24.4576 26.9431 24.6001M25.3821 45.2726C25.8397 45.2629 26.9497 45.2581 26.9497 45.2581C27.1354 45.2799 27.4825 45.1808 27.3344 44.6904L26.9983 43.0237C26.6114 41.1154 25.9039 36.7408 26.5495 32.9821C26.5627 32.8976 26.6645 32.8734 26.7109 32.9459C28.4554 35.7456 32.7448 42.9875 35.1548 50.2535C35.1946 50.3695 35.115 50.5023 35.0001 50.5047C29.8439 50.7342 26.5871 47.1712 25.3135 45.432C25.2693 45.3692 25.3091 45.2774 25.3843 45.275M24.7696 46.1374C24.7784 46.0601 24.8669 46.0311 24.9111 46.0915C26.3129 47.937 29.5366 51.2753 34.5335 51.2753C34.7944 51.2753 35.062 51.2632 35.3317 51.2439C35.4091 51.2391 35.4843 51.2898 35.5086 51.3719C35.754 52.1787 35.9729 52.988 36.1609 53.7827C36.3046 54.3914 36.3178 55.0267 36.2139 55.6427C36.0702 56.4809 35.9199 57.3288 35.7562 58.1863C35.743 58.2491 35.67 58.2684 35.6302 58.2201C32.8487 54.6813 29.101 53.0701 26.7087 52.3623C26.2864 52.2367 25.937 51.9082 25.7624 51.4661L25.5656 50.9637C25.0814 49.7318 24.606 47.9781 24.7674 46.135M16.4008 53.9663C18.2117 53.5919 19.9075 53.401 21.5304 53.401C22.3131 53.401 23.0715 53.4445 23.8476 53.5266L24.2102 53.5677C24.2832 53.5798 31.2678 54.4856 35.1018 60.2878C35.2168 60.4593 35.2543 60.6767 35.2079 60.8821C35.1327 61.2396 35.0553 61.5995 34.9757 61.957C34.9625 62.0246 34.8984 62.0657 34.8342 62.0415C33.6469 61.6019 31.1905 60.9086 27.4604 60.8434C27.2924 60.841 27.1398 60.7347 27.0691 60.5705C26.2731 58.7153 23.7791 55.0146 16.4052 54.1281C16.3212 54.116 16.3168 53.9856 16.4008 53.9687M9.89374 58.6235C11.0413 58.1718 12.5028 57.6887 14.1854 57.2128L15.6137 56.8046C15.8989 56.7249 16.0448 56.3819 15.9188 56.092L15.4103 54.9228C15.3837 54.86 15.4302 54.7876 15.4943 54.7948C22.7288 55.4277 25.3776 58.7974 26.2886 60.6164C26.3416 60.7202 26.2731 60.8483 26.1626 60.8507C23.852 60.899 21.1148 61.1937 17.953 61.8942C17.6545 61.9594 17.3494 61.8652 17.126 61.6454C16.2063 60.7323 13.8161 58.8143 9.90701 58.7032C9.865 58.7032 9.85394 58.638 9.89374 58.6235ZM3.20314 67.0225C4.48112 64.8629 6.1991 63.1286 8.16913 62.044L9.1044 61.5367C9.51344 61.37 9.45596 61.0294 9.35867 60.7806C9.35867 60.7806 9.11988 60.0946 8.97395 59.6936C8.94521 59.6139 8.99827 59.5269 9.07345 59.5221C13.0644 59.2878 15.4832 61.0608 16.4937 62.0271C16.5667 62.0995 16.5379 62.2276 16.445 62.2493C12.6399 63.2131 8.262 64.7712 3.31812 67.1626C3.23631 67.2036 3.15892 67.1046 3.20536 67.0225M14.3954 71.9575C14.3379 71.8198 14.2849 71.6773 14.2362 71.5275L13.9952 70.7908C13.8935 70.4816 13.6216 70.2763 13.3208 70.2835L12.6045 70.3004C12.3369 70.3101 12.0716 70.3125 11.8107 70.3125C7.4218 70.3125 4.67791 69.3825 3.28053 68.7206C3.21862 68.6892 3.21862 68.595 3.28053 68.566C9.83847 65.3412 15.4014 63.6358 19.9517 62.8169C20.0225 62.8049 20.0822 62.8653 20.0778 62.9401C20.007 64.3992 19.3017 68.0732 14.5192 71.9913C14.4772 72.0251 14.4153 72.0106 14.3932 71.9599M22.972 75.4625C22.6581 74.5856 22.4392 73.4576 22.333 72.1314L22.1628 70.0492C22.1252 69.6023 21.6631 69.3583 21.3182 69.6071L19.7196 70.757C18.3355 71.7522 16.5379 72.187 15.4081 72.373C15.3417 72.3851 15.3086 72.2933 15.3616 72.2474C20.0667 68.2182 20.7367 64.4909 20.7831 62.9257C20.7875 62.7807 20.8892 62.6575 21.0219 62.6382C24.2213 62.1406 26.8811 62.0874 28.9993 62.2324C29.1276 62.242 29.2293 62.3532 29.2381 62.4884C29.373 64.3629 29.3487 70.9526 23.1246 75.5108C23.0715 75.5519 22.9986 75.5277 22.9764 75.4625M30.7792 77.3442C28.6279 83.7045 25.7425 88.6854 24.6237 90.4995C24.4844 90.7217 24.2544 90.857 24.0068 90.857H21.7537C21.6675 90.857 21.6233 90.7435 21.683 90.6782C25.5833 86.3374 29.0281 79.383 29.824 77.7525C29.9279 77.5375 30.1115 77.3853 30.3281 77.3298C30.4542 77.2983 30.5891 77.2645 30.6908 77.238C30.7505 77.221 30.8013 77.2863 30.7792 77.3467M32.5348 71.3246V71.3053L31.7078 73.7402C31.4536 74.4914 30.9119 75.0881 30.2198 75.3562C30.065 75.4166 29.9014 75.4697 29.7356 75.5229C28.4864 75.9142 27.0647 76.0688 27.0647 76.0688C26.5296 76.134 25.9746 76.1654 25.4174 76.1654C24.8227 76.1654 24.3053 76.1292 23.8962 76.0833C23.8078 76.0736 23.7768 75.9456 23.852 75.8901C29.9722 71.17 30.0717 64.5393 29.9346 62.4812C29.9257 62.3918 29.9943 62.3218 30.0761 62.329C32.1876 62.5609 33.6447 62.9715 34.4429 63.2518C34.5711 63.2977 34.6441 63.4426 34.6109 63.5827C34.0184 66.1021 33.3285 68.6868 32.537 71.3295M39.9815 83.4267C39.9064 83.4363 39.8268 83.4388 39.7538 83.4388C37.9098 83.4388 37.1227 81.6754 36.1343 78.9868C35.5838 77.4819 34.9824 75.8997 34.0582 74.9842C34.056 74.9818 34.0537 74.9794 34.0471 74.9746L33.9034 74.8176C33.6911 74.5856 33.6978 74.2064 33.9211 73.9842C34.5424 73.3706 35.429 72.5976 36.6384 71.786C36.7136 71.7353 36.8153 71.7546 36.8662 71.8367C37.6201 73.0324 40.1916 77.5375 40.1186 83.2697C40.1164 83.3518 40.0589 83.417 39.9837 83.4242M50.3579 77.1824C50.0948 77.2331 49.8251 77.2742 49.5487 77.2935C45.6926 77.5882 44.5628 78.7066 43.7182 80.8009C43.4197 81.5449 43.0527 82.1488 42.4336 82.5571C41.8985 82.9146 41.3701 83.0981 40.9035 83.2431C40.8571 83.2576 40.8129 83.2165 40.8129 83.1658C40.8571 77.3225 38.3476 72.8392 37.4897 71.4816C37.43 71.3898 37.4565 71.2715 37.5472 71.2159C38.8141 70.4647 40.3176 69.769 42.0555 69.298C42.3186 69.2255 42.5994 69.2521 42.847 69.3752C44.7883 70.3415 49.2745 72.9624 50.4884 76.9433C50.5193 77.052 50.4574 77.1655 50.3579 77.1848M55.9585 71.2763C55.7772 71.9744 55.5318 72.6604 55.2134 73.2933C54.3157 75.0857 53.009 76.3031 51.3861 76.8974C51.2954 76.9312 51.1981 76.8756 51.1694 76.7742C50.0285 72.8851 46.1525 70.2883 43.8774 69.0588C43.8155 69.025 43.8287 68.9211 43.8973 68.9115C47.2072 68.3969 51.2003 68.7665 55.7993 70.926C55.9231 70.9864 55.9894 71.1338 55.9563 71.2763M56.2548 69.5516C56.2459 69.6458 56.1553 69.7038 56.0735 69.6651C52.6994 68.1071 49.6482 67.4838 46.9662 67.4283C46.9242 67.4259 46.9087 67.3679 46.9463 67.3437C48.4564 66.3171 50.6498 64.3726 51.0765 61.5536C51.0876 61.4811 51.1605 61.4425 51.2202 61.4763C51.5187 61.6502 51.8084 61.8072 52.0848 61.9594C53.5883 62.7759 54.6761 63.3701 55.618 65.2615C56.1951 66.421 56.4007 67.9694 56.2548 69.554" fill="#F49705"/>
<path d="M71.0811 14.3811C70.7406 13.4898 70.5703 12.497 70.5703 11.3979C70.5703 10.2988 70.7516 9.30115 71.1164 8.40497C71.4813 7.50879 71.9544 6.78894 72.5381 6.24544C73.1218 5.70193 73.7608 5.28162 74.4551 4.98451C75.1494 4.68739 75.8481 4.54004 76.5534 4.54004C78.2404 4.54004 79.5825 5.0763 80.5775 6.15123L79.4322 7.97016C78.97 7.54019 78.5212 7.22133 78.0878 7.01359C77.6545 6.80585 77.1548 6.70198 76.5865 6.70198C75.5341 6.70198 74.6209 7.12471 73.8471 7.97258C73.0732 8.81803 72.6841 9.96301 72.6841 11.4027C72.6841 12.8424 73.071 13.985 73.8471 14.8328C74.6209 15.6783 75.5341 16.1034 76.5865 16.1034C77.1879 16.1034 77.6899 16.0116 78.0945 15.828C78.4991 15.6445 78.9612 15.3208 79.4808 14.8521L80.573 16.5962C80.007 17.1904 79.41 17.6156 78.7865 17.874C78.163 18.1325 77.4157 18.2629 76.549 18.2629C75.7972 18.2629 75.0698 18.118 74.3645 17.8281C73.6591 17.5383 73.0201 17.1155 72.4475 16.5575C71.8748 16.002 71.4194 15.2797 71.0766 14.3884L71.0811 14.3811Z" fill="#234941"/>
<path d="M88.5819 9.72916C89.3978 10.664 89.8046 11.85 89.8046 13.2921C89.8046 14.7342 89.3978 15.9203 88.5819 16.8551C87.7661 17.7899 86.7114 18.2562 85.4179 18.2562C84.1245 18.2562 83.0676 17.7899 82.254 16.8551C81.4381 15.9203 81.0312 14.7342 81.0312 13.2921C81.0312 11.85 81.4381 10.664 82.254 9.72916C83.0698 8.79433 84.1245 8.32812 85.4179 8.32812C86.7114 8.32812 87.7683 8.79675 88.5819 9.72916ZM83.7177 15.4517C84.1444 15.9831 84.7126 16.2464 85.4179 16.2464C86.1233 16.2464 86.6893 15.9807 87.1182 15.4517C87.545 14.9202 87.7594 14.2004 87.7594 13.2921C87.7594 12.3839 87.545 11.6616 87.1182 11.1326C86.6893 10.6012 86.1233 10.3379 85.4179 10.3379C84.7126 10.3379 84.1466 10.6036 83.7177 11.1326C83.2887 11.664 83.0765 12.3839 83.0765 13.2921C83.0765 14.2004 83.2909 14.9227 83.7177 15.4517Z" fill="#234941"/>
<path d="M98.9954 13.8405H92.9261C93.0079 14.6352 93.2732 15.256 93.7243 15.6981C94.1753 16.1401 94.7347 16.3623 95.4069 16.3623C96.4129 16.3623 97.2332 15.9082 97.87 14.9975L99.0485 16.3986C98.0889 17.6378 96.875 18.2562 95.4069 18.2562C94.0537 18.2562 92.9681 17.7827 92.1456 16.8358C91.3253 15.8889 90.9141 14.7077 90.9141 13.2921C90.9141 11.8766 91.3187 10.7123 92.1279 9.75815C92.9372 8.80399 93.9609 8.32812 95.1968 8.32812C96.3532 8.32812 97.2929 8.70979 98.0159 9.47553C98.7389 10.2388 99.0993 11.2099 99.0993 12.3839C99.0993 12.9395 99.0639 13.425 98.9954 13.8429V13.8405ZM95.1968 10.1857C94.0869 10.1857 93.3749 10.8113 93.0632 12.0626H97.1912C97.1448 11.507 96.9458 11.0553 96.592 10.7075C96.2382 10.3596 95.7739 10.1857 95.1968 10.1857Z" fill="#234941"/>
<path d="M100.227 13.2926C100.227 11.8143 100.578 10.6186 101.283 9.70309C101.989 8.78759 102.873 8.32863 103.937 8.32863C104.538 8.32863 105.078 8.48564 105.557 8.80208C106.037 9.11852 106.387 9.5799 106.608 10.1862V4.76807H108.62V15.7565C108.62 16.6914 108.701 17.4499 108.863 18.0296H106.886C106.747 17.689 106.654 17.2035 106.61 16.5706C106.019 17.6938 105.131 18.2567 103.939 18.2567C102.886 18.2567 102.004 17.7953 101.294 16.8725C100.583 15.9498 100.229 14.7565 100.229 13.2926H100.227ZM102.871 15.4522C103.269 15.9836 103.8 16.2469 104.458 16.2469C105.117 16.2469 105.641 15.9812 106.028 15.4522C106.415 14.9207 106.61 14.2009 106.61 13.2926C106.61 12.3844 106.415 11.6621 106.028 11.1331C105.641 10.6017 105.117 10.3384 104.458 10.3384C103.8 10.3384 103.271 10.6041 102.871 11.1331C102.473 11.6645 102.272 12.3844 102.272 13.2926C102.272 14.2009 102.471 14.9232 102.871 15.4522Z" fill="#234941"/>
<path d="M114.459 18.0301H112.482L109.672 8.55615H111.719L113.506 15.0178L115.257 8.55615H117.234L118.985 15.0178L120.771 8.55615H122.816L120.006 18.0301H118.03L116.243 11.3993L114.457 18.0301H114.459Z" fill="#234941"/>
<path d="M124.14 7.03947C123.886 6.76168 123.758 6.42592 123.758 6.03459C123.758 5.64327 123.884 5.3075 124.14 5.02971C124.395 4.75192 124.702 4.61182 125.06 4.61182C125.418 4.61182 125.726 4.75192 125.98 5.02971C126.234 5.3075 126.362 5.64327 126.362 6.03459C126.362 6.42592 126.234 6.76168 125.98 7.03947C125.726 7.31726 125.418 7.45737 125.06 7.45737C124.702 7.45737 124.395 7.31968 124.14 7.03947ZM126.064 18.0304H124.052V8.55646H126.064V18.0304Z" fill="#234941"/>
<path d="M128.04 19.2031L129.844 18.4639C130.191 19.5123 130.872 20.0364 131.891 20.0364C132.769 20.0364 133.366 19.7417 133.678 19.1548C133.99 18.5678 134.147 17.7126 134.147 16.587V15.8092C133.881 16.4034 133.547 16.8575 133.149 17.174C132.752 17.4904 132.21 17.6474 131.529 17.6474C130.465 17.6474 129.572 17.2175 128.849 16.3599C128.126 15.5 127.766 14.3767 127.766 12.9878C127.766 11.5988 128.13 10.4587 128.858 9.60597C129.585 8.75327 130.483 8.32812 131.546 8.32812C132.137 8.32812 132.665 8.48272 133.134 8.79192C133.603 9.10111 133.941 9.54075 134.149 10.1084V8.55519H136.161V16.3237C136.161 18.1813 135.787 19.5992 135.042 20.5775C134.297 21.5558 133.247 22.0462 131.894 22.0462C130.923 22.0462 130.092 21.7974 129.404 21.2974C128.716 20.7973 128.263 20.0992 128.042 19.2031H128.04ZM130.364 14.9396C130.757 15.4082 131.288 15.6401 131.96 15.6401C132.632 15.6401 133.163 15.4058 133.556 14.9396C133.95 14.4734 134.147 13.8212 134.147 12.9878C134.147 12.1544 133.95 11.5046 133.556 11.036C133.163 10.5698 132.632 10.3355 131.96 10.3355C131.288 10.3355 130.757 10.5698 130.364 11.036C129.97 11.5046 129.773 12.1544 129.773 12.9878C129.773 13.8212 129.97 14.4734 130.364 14.9396Z" fill="#234941"/>
<path d="M76.0493 29.6547V27.7223H81.3049V33.5583C79.8589 34.7709 78.2758 35.3773 76.5534 35.3773C75.8016 35.3773 75.0742 35.2323 74.3689 34.9424C73.6636 34.6526 73.0246 34.2299 72.4519 33.6719C71.8792 33.1163 71.4238 32.394 71.0811 31.5027C70.7406 30.6113 70.5703 29.6185 70.5703 28.5194C70.5703 27.6353 70.6941 26.814 70.944 26.0555C71.1916 25.297 71.5188 24.6545 71.9235 24.1231C72.3281 23.5916 72.7968 23.1375 73.3275 22.7583C73.8581 22.379 74.4131 22.1012 74.9924 21.9249C75.5695 21.7486 76.1421 21.6592 76.7104 21.6592C77.6921 21.6592 78.5345 21.8138 79.2332 22.123C79.9318 22.4322 80.5996 22.9153 81.2364 23.5723L80.0402 25.3333C79.0231 24.3236 77.9242 23.8187 76.7457 23.8187C75.5673 23.8187 74.6674 24.239 73.8758 25.0796C73.0843 25.9203 72.6885 27.0652 72.6885 28.5194C72.6885 29.9736 73.0843 31.1186 73.8758 31.9592C74.6674 32.7998 75.6181 33.2201 76.7281 33.2201C77.6987 33.2201 78.5433 32.9182 79.2597 32.3095V29.6572H76.0515L76.0493 29.6547Z" fill="#234941"/>
<path d="M90.7923 30.9635H84.723C84.8048 31.7582 85.0701 32.3791 85.5212 32.8211C85.9722 33.2632 86.5316 33.4854 87.2038 33.4854C88.2098 33.4854 89.0301 33.0313 89.6669 32.1206L90.8453 33.5216C89.8858 34.7608 88.6719 35.3792 87.2038 35.3792C85.8506 35.3792 84.765 34.9057 83.9425 33.9588C83.1222 33.0119 82.7109 31.8307 82.7109 30.4152C82.7109 28.9997 83.1156 27.8353 83.9248 26.8812C84.734 25.927 85.7578 25.4512 86.9937 25.4512C88.1501 25.4512 89.0898 25.8328 89.8128 26.5986C90.5358 27.3619 90.8962 28.333 90.8962 29.5069C90.8962 30.0625 90.8608 30.548 90.7923 30.9659V30.9635ZM86.9937 27.3063C85.8838 27.3063 85.1718 27.932 84.8601 29.1832H88.9881C88.9416 28.6277 88.7427 28.1759 88.3889 27.8281C88.0351 27.4803 87.5708 27.3063 86.9937 27.3063Z" fill="#234941"/>
<path d="M100.677 30.2417V35.1477H98.6648V30.2779C98.6648 28.3455 98.0568 27.3792 96.8429 27.3792C96.2194 27.3792 95.702 27.6546 95.2908 28.203C94.8795 28.7513 94.6761 29.5508 94.6761 30.5992V35.1453H92.6641V25.6714H94.6761V27.5483C94.8839 26.9034 95.2399 26.3937 95.7418 26.0144C96.2437 25.6352 96.8252 25.4468 97.4841 25.4468C99.6111 25.4468 100.675 27.0459 100.675 30.2393L100.677 30.2417Z" fill="#234941"/>
<path d="M110.214 30.9635H104.145C104.227 31.7582 104.492 32.3791 104.943 32.8211C105.394 33.2632 105.953 33.4854 106.626 33.4854C107.632 33.4854 108.452 33.0313 109.089 32.1206L110.267 33.5216C109.308 34.7608 108.094 35.3792 106.626 35.3792C105.272 35.3792 104.187 34.9057 103.364 33.9588C102.544 33.0119 102.133 31.8307 102.133 30.4152C102.133 28.9997 102.537 27.8353 103.347 26.8812C104.156 25.927 105.18 25.4512 106.416 25.4512C107.572 25.4512 108.512 25.8328 109.235 26.5986C109.958 27.3619 110.318 28.333 110.318 29.5069C110.318 30.0625 110.283 30.548 110.214 30.9659V30.9635ZM106.418 27.3063C105.308 27.3063 104.596 27.932 104.284 29.1832H108.412C108.366 28.6277 108.167 28.1759 107.813 27.8281C107.459 27.4803 106.995 27.3063 106.418 27.3063Z" fill="#234941"/>
<path d="M111.5 30.4118C111.5 28.9335 111.852 27.7377 112.557 26.8222C113.262 25.9067 114.147 25.4478 115.21 25.4478C115.812 25.4478 116.351 25.6048 116.831 25.9212C117.311 26.2377 117.66 26.699 117.881 27.3054V21.8872H119.893V32.8757C119.893 33.8105 119.975 34.569 120.136 35.1487H118.16C118.02 34.8081 117.927 34.3226 117.883 33.6897C117.293 34.813 116.404 35.3758 115.212 35.3758C114.16 35.3758 113.278 34.9144 112.568 33.9917C111.856 33.0689 111.502 31.8756 111.502 30.4118H111.5ZM114.144 32.5713C114.542 33.1027 115.073 33.366 115.732 33.366C116.391 33.366 116.915 33.1003 117.302 32.5713C117.689 32.0399 117.883 31.32 117.883 30.4118C117.883 29.5035 117.689 28.7813 117.302 28.2523C116.915 27.7208 116.391 27.4575 115.732 27.4575C115.073 27.4575 114.545 27.7232 114.144 28.2523C113.746 28.7837 113.545 29.5035 113.545 30.4118C113.545 31.32 113.744 32.0423 114.144 32.5713Z" fill="#234941"/>
<path d="M121.867 32.0037V21.8872H123.879V32.0037C123.879 33.5955 124.019 34.6439 124.295 35.1487H122.283C122.006 34.5183 121.867 33.4699 121.867 32.0037Z" fill="#234941"/>
<path d="M127.604 28.6711L125.853 27.9899C126.025 27.2943 126.399 26.6976 126.972 26.2C127.544 25.7024 128.287 25.4512 129.201 25.4512C130.403 25.4512 131.292 25.7869 131.871 26.4561C132.449 27.1252 132.738 28.1494 132.738 29.5263V33.2028C132.738 33.9226 132.924 34.5724 133.293 35.1546H131.281C130.945 34.6376 130.762 34.1134 130.726 33.582C130.333 34.7826 129.548 35.3816 128.367 35.3816C127.558 35.3816 126.883 35.1062 126.346 34.5579C125.809 34.0096 125.539 33.2656 125.539 32.3307C125.539 31.3959 125.838 30.6761 126.432 30.1712C127.027 29.6664 127.805 29.3451 128.765 29.205L130.724 28.9199C130.724 27.7701 130.215 27.1952 129.198 27.1952C128.747 27.1952 128.382 27.3305 128.106 27.6035C127.83 27.874 127.662 28.2315 127.602 28.6736L127.604 28.6711ZM128.767 33.5603C129.391 33.5603 129.875 33.3429 130.215 32.9056C130.556 32.4708 130.726 31.9104 130.726 31.2292V30.548L129.079 30.7944C128.015 30.9466 127.483 31.4442 127.483 32.2921C127.483 32.6713 127.602 32.9781 127.839 33.21C128.075 33.4443 128.385 33.5603 128.767 33.5603Z" fill="#234941"/>
<path d="M142.363 30.9635H136.293C136.375 31.7582 136.64 32.3791 137.091 32.8211C137.543 33.2632 138.104 33.4854 138.774 33.4854C139.78 33.4854 140.6 33.0313 141.237 32.1206L142.416 33.5216C141.456 34.7608 140.242 35.3792 138.774 35.3792C137.421 35.3792 136.335 34.9057 135.513 33.9588C134.693 33.0119 134.281 31.8307 134.281 30.4152C134.281 28.9997 134.686 27.8353 135.495 26.8812C136.304 25.927 137.328 25.4512 138.564 25.4512C139.72 25.4512 140.66 25.8328 141.383 26.5986C142.106 27.3619 142.467 28.333 142.467 29.5069C142.467 30.0625 142.431 30.548 142.363 30.9659V30.9635ZM138.564 27.3063C137.454 27.3063 136.742 27.932 136.43 29.1832H140.558C140.512 28.6277 140.313 28.1759 139.959 27.8281C139.605 27.4803 139.141 27.3063 138.564 27.3063Z" fill="#234941"/>
<path d="M144.603 32.63V27.4945H143.32V25.6756H144.603V23.6296L146.615 22.8711V25.6756H148.401V27.4945H146.615V32.3063C146.615 32.9875 146.887 33.3306 147.431 33.3306C147.707 33.3306 147.997 33.2871 148.297 33.1977V35.1495C147.882 35.3017 147.431 35.3765 146.944 35.3765C146.25 35.3765 145.686 35.1543 145.253 34.7123C144.819 34.2702 144.603 33.5745 144.603 32.6276V32.63Z" fill="#234941"/>
<path d="M157.941 30.318V35.1492H155.929V30.2794C155.929 28.3469 155.27 27.3807 153.952 27.3807C153.329 27.3807 152.809 27.6488 152.4 28.1851C151.989 28.7213 151.785 29.4822 151.785 30.4678V35.1468H149.773V21.8828H151.785V27.5667C151.993 26.8976 152.352 26.3758 152.86 26.0038C153.369 25.6318 153.977 25.4458 154.682 25.4458C155.745 25.4458 156.555 25.8564 157.11 26.6777C157.665 27.499 157.941 28.7117 157.941 30.3156V30.318Z" fill="#234941"/>
<path d="M167.121 26.8522C167.937 27.787 168.344 28.9731 168.344 30.4152C168.344 31.8573 167.937 33.0433 167.121 33.9782C166.305 34.913 165.25 35.3792 163.957 35.3792C162.664 35.3792 161.607 34.913 160.793 33.9782C159.977 33.0433 159.57 31.8573 159.57 30.4152C159.57 28.9731 159.977 27.787 160.793 26.8522C161.609 25.9174 162.664 25.4512 163.957 25.4512C165.25 25.4512 166.307 25.9198 167.121 26.8522ZM162.257 32.5747C162.683 33.1061 163.252 33.3694 163.957 33.3694C164.662 33.3694 165.228 33.1037 165.657 32.5747C166.084 32.0433 166.298 31.3234 166.298 30.4152C166.298 29.5069 166.084 28.7847 165.657 28.2557C165.228 27.7242 164.662 27.4609 163.957 27.4609C163.252 27.4609 162.686 27.7266 162.257 28.2557C161.828 28.7871 161.616 29.5069 161.616 30.4152C161.616 31.3234 161.83 32.0457 162.257 32.5747Z" fill="#234941"/>
<path d="M169.68 32.0037V21.8872H171.692V32.0037C171.692 33.5955 171.831 34.6439 172.107 35.1487H170.095C169.819 34.5183 169.68 33.4699 169.68 32.0037Z" fill="#234941"/>
<path d="M177.698 31.5042C177.358 30.6128 177.188 29.62 177.188 28.5209C177.188 27.4218 177.369 26.4242 177.734 25.528C178.098 24.6318 178.572 23.912 179.155 23.3685C179.739 22.825 180.378 22.4047 181.072 22.1076C181.767 21.8104 182.465 21.6631 183.171 21.6631C184.858 21.6631 186.2 22.1993 187.195 23.2743L186.049 25.0932C185.587 24.6632 185.138 24.3444 184.705 24.1366C184.272 23.9289 183.772 23.825 183.206 23.825C182.153 23.825 181.24 24.2478 180.466 25.0956C179.693 25.9435 179.306 27.0861 179.306 28.5257C179.306 29.9654 179.693 31.108 180.466 31.9559C181.24 32.8013 182.153 33.2265 183.206 33.2265C183.807 33.2265 184.309 33.1347 184.714 32.9511C185.118 32.7675 185.581 32.4438 186.102 31.9752L187.195 33.7192C186.629 34.3135 186.034 34.7386 185.408 34.9971C184.785 35.2556 184.037 35.386 183.171 35.386C182.419 35.386 181.691 35.2411 180.986 34.9512C180.281 34.6613 179.642 34.2386 179.069 33.6806C178.496 33.125 178.039 32.4028 177.698 31.5114V31.5042Z" fill="#234941"/>
<path d="M188.528 38.9387V37.0256C188.804 37.1633 189.147 37.2334 189.552 37.2334C189.899 37.2334 190.171 37.1005 190.368 36.8348C190.564 36.5691 190.662 36.2478 190.662 35.8685C190.662 35.6415 190.626 35.4193 190.558 35.2043L187.367 25.6748H189.552L191.736 32.6099L193.695 25.6748H195.776L192.307 36.929C192.088 37.6609 191.778 38.2165 191.378 38.5957C190.98 38.975 190.445 39.1634 189.773 39.1634C189.311 39.1634 188.895 39.0885 188.524 38.9363L188.528 38.9387Z" fill="#234941"/>
<path d="M209.982 30.0885V35.1467H207.97V29.9363C207.97 28.2309 207.437 27.3782 206.374 27.3782C205.761 27.3782 205.29 27.6463 204.961 28.1826C204.631 28.7188 204.465 29.4797 204.465 30.4653V35.1443H202.453V29.4218C202.453 28.7768 202.321 28.2744 202.055 27.9144C201.79 27.5545 201.401 27.3734 200.895 27.3734C200.271 27.3734 199.798 27.6584 199.482 28.2261C199.163 28.7937 199.004 29.5401 199.004 30.4629V35.1419H196.992V25.668H199.004V27.5255C199.559 26.1366 200.479 25.4409 201.761 25.4409C202.409 25.4409 202.935 25.6269 203.34 25.9989C203.745 26.3709 204.017 26.8492 204.156 27.4289C204.768 26.1028 205.699 25.4385 206.948 25.4385C208.972 25.4385 209.984 26.9869 209.984 30.0812L209.982 30.0885Z" fill="#234941"/>
<path d="M217.994 26.171L217.195 27.8957C216.848 27.5793 216.455 27.4223 216.017 27.4223C215.323 27.4223 214.788 27.7194 214.412 28.3136C214.036 28.9079 213.848 29.7026 213.848 30.7002V35.1521H211.836V25.6782H213.848V27.4223C213.987 26.816 214.29 26.3353 214.759 25.9826C215.228 25.6299 215.749 25.4512 216.329 25.4512C216.908 25.4512 217.474 25.6903 217.994 26.171Z" fill="#234941"/>
<path d="M219.156 30.5808V25.6748H221.168V30.5446C221.168 32.4771 221.776 33.4433 222.99 33.4433C223.614 33.4433 224.131 33.1679 224.542 32.6196C224.954 32.0713 225.157 31.2717 225.157 30.2233V25.6772H227.169V32.006C227.169 33.5979 227.308 34.6463 227.585 35.1511H225.573C225.365 34.697 225.237 34.0593 225.19 33.238C224.947 33.9337 224.573 34.4627 224.071 34.8298C223.569 35.197 222.992 35.3782 222.347 35.3782C220.22 35.3782 219.156 33.7815 219.156 30.5857V30.5808Z" fill="#234941"/>
<path d="M71.1875 57.886V44.6221H72.817L78.9903 55.1178V44.6221H80.5512V57.886H78.9217L72.7485 47.3903V57.886H71.1875Z" fill="#234941"/>
<path d="M83.9889 51.2562L82.7065 50.7441C82.879 50.0243 83.2438 49.418 83.7988 48.9252C84.3537 48.4324 85.0657 48.186 85.9324 48.186C87.0777 48.186 87.9246 48.5146 88.4729 49.1716C89.0212 49.8286 89.2976 50.819 89.2976 52.1452V55.7444C89.2976 56.5898 89.4833 57.3048 89.8526 57.8846H88.3601C88.024 57.3677 87.8405 56.7927 87.8052 56.1599C87.3762 57.4619 86.4918 58.1117 85.1519 58.1117C84.3427 58.1117 83.6749 57.8411 83.1487 57.2976C82.6225 56.7541 82.3594 56.0294 82.3594 55.1187C82.3594 54.2081 82.6579 53.4882 83.2526 52.9979C83.8474 52.5051 84.608 52.1886 85.5322 52.051L87.8029 51.7104C87.8029 50.2441 87.1794 49.5122 85.9302 49.5122C85.4327 49.5122 85.0148 49.6644 84.6721 49.9663C84.3316 50.2683 84.1017 50.6982 83.9867 51.2538L83.9889 51.2562ZM85.4637 56.713C86.1579 56.713 86.7218 56.4473 87.1551 55.9183C87.5885 55.3893 87.8052 54.7371 87.8052 53.9665V52.9616L85.7754 53.2636C84.4687 53.4665 83.8164 54.0776 83.8164 55.1018C83.8164 55.6212 83.9734 56.0173 84.2852 56.2951C84.5969 56.5729 84.9905 56.713 85.4637 56.713Z" fill="#234941"/>
<path d="M92.1912 55.3456V49.7752H90.8203V48.4104H92.1912V46.1736L93.6836 45.606V48.4104H95.678V49.7752H93.6836V55.1934C93.6836 56.1282 94.0131 56.5944 94.6719 56.5944C94.9483 56.5944 95.2556 56.5195 95.5917 56.3674V57.8819C95.2335 58.0341 94.8466 58.109 94.4309 58.109C93.7367 58.109 93.1905 57.8819 92.7926 57.4278C92.3946 56.9737 92.1934 56.278 92.1934 55.3432L92.1912 55.3456Z" fill="#234941"/>
<path d="M97.2081 46.689C97.0113 46.4741 96.9141 46.2083 96.9141 45.8943C96.9141 45.5803 97.0113 45.3146 97.2081 45.0996C97.4049 44.8846 97.6481 44.7783 97.9356 44.7783C98.223 44.7783 98.4662 44.8846 98.663 45.0996C98.8598 45.3146 98.9571 45.5803 98.9571 45.8943C98.9571 46.2083 98.8598 46.4765 98.663 46.689C98.4662 46.9016 98.223 47.0103 97.9356 47.0103C97.6481 47.0103 97.4027 46.904 97.2081 46.689ZM98.6807 57.8877H97.1882V48.4138H98.6807V57.8877Z" fill="#234941"/>
<path d="M107.791 49.5871C108.593 50.5219 108.996 51.708 108.996 53.1501C108.996 54.5922 108.593 55.7782 107.791 56.713C106.986 57.6479 105.949 58.1141 104.678 58.1141C103.406 58.1141 102.367 57.6479 101.564 56.713C100.76 55.7782 100.359 54.5922 100.359 53.1501C100.359 51.708 100.762 50.5219 101.564 49.5871C102.367 48.6522 103.406 48.186 104.678 48.186C105.949 48.186 106.986 48.6547 107.791 49.5871ZM102.648 55.6985C103.178 56.3241 103.855 56.6357 104.678 56.6357C105.5 56.6357 106.174 56.3241 106.707 55.6985C107.238 55.0729 107.505 54.225 107.505 53.1501C107.505 52.0751 107.24 51.2272 106.707 50.6016C106.174 49.976 105.5 49.6644 104.678 49.6644C103.855 49.6644 103.181 49.976 102.648 50.6016C102.115 51.2272 101.85 52.0775 101.85 53.1501C101.85 54.2226 102.115 55.0729 102.648 55.6985Z" fill="#234941"/>
<path d="M118.295 52.8819V57.8846H116.802V52.9592C116.802 50.7369 116.104 49.6257 114.704 49.6257C113.976 49.6257 113.375 49.9639 112.9 50.6403C112.427 51.3166 112.188 52.2152 112.188 53.3409V57.887H110.695V48.4131H112.188V50.5171C112.407 49.7851 112.771 49.2127 113.28 48.802C113.789 48.3914 114.383 48.186 115.067 48.186C116.119 48.186 116.919 48.5894 117.468 49.3987C118.016 50.2079 118.292 51.3698 118.292 52.8843L118.295 52.8819Z" fill="#234941"/>
<path d="M121.434 51.2562L120.152 50.7441C120.324 50.0243 120.689 49.418 121.244 48.9252C121.799 48.4324 122.511 48.186 123.378 48.186C124.523 48.186 125.37 48.5146 125.918 49.1716C126.467 49.8286 126.743 50.819 126.743 52.1452V55.7444C126.743 56.5898 126.929 57.3048 127.298 57.8846H125.805C125.469 57.3677 125.286 56.7927 125.25 56.1599C124.822 57.4619 123.937 58.1117 122.597 58.1117C121.788 58.1117 121.12 57.8411 120.594 57.2976C120.068 56.7541 119.805 56.0294 119.805 55.1187C119.805 54.2081 120.103 53.4882 120.698 52.9979C121.293 52.5051 122.053 52.1886 122.978 52.051L125.25 51.7104C125.25 50.2441 124.627 49.5122 123.378 49.5122C122.88 49.5122 122.462 49.6644 122.12 49.9663C121.779 50.2683 121.549 50.6982 121.434 51.2538V51.2562ZM122.909 56.713C123.603 56.713 124.167 56.4473 124.6 55.9183C125.034 55.3893 125.25 54.7371 125.25 53.9665V52.9616L123.221 53.2636C121.914 53.4665 121.262 54.0776 121.262 55.1018C121.262 55.6212 121.419 56.0173 121.731 56.2951C122.042 56.5729 122.436 56.713 122.909 56.713Z" fill="#234941"/>
<path d="M128.961 54.7424V44.626H130.453V54.7424C130.453 56.3343 130.593 57.3826 130.869 57.8875H129.377C129.1 57.257 128.961 56.2087 128.961 54.7424Z" fill="#234941"/>
<path d="M136.658 57.886V44.6221H144.271V46.2139H138.217V49.8904H143.506V51.4437H138.217V57.886H136.656H136.658Z" fill="#234941"/>
<path d="M151.877 49.5871C152.679 50.5219 153.082 51.708 153.082 53.1501C153.082 54.5922 152.679 55.7782 151.877 56.713C151.072 57.6479 150.035 58.1141 148.763 58.1141C147.492 58.1141 146.453 57.6479 145.65 56.713C144.848 55.7782 144.445 54.5922 144.445 53.1501C144.445 51.708 144.848 50.5219 145.65 49.5871C146.453 48.6522 147.492 48.186 148.763 48.186C150.035 48.186 151.072 48.6547 151.877 49.5871ZM146.734 55.6985C147.267 56.3241 147.941 56.6357 148.763 56.6357C149.586 56.6357 150.26 56.3241 150.793 55.6985C151.324 55.0729 151.591 54.225 151.591 53.1501C151.591 52.0751 151.326 51.2272 150.793 50.6016C150.26 49.976 149.586 49.6644 148.763 49.6644C147.941 49.6644 147.267 49.976 146.734 50.6016C146.201 51.2272 145.936 52.0775 145.936 53.1501C145.936 54.2226 146.201 55.0729 146.734 55.6985Z" fill="#234941"/>
<path d="M160.586 48.8117L159.978 50.1185C159.62 49.8141 159.22 49.6644 158.782 49.6644C158.019 49.6644 157.409 50.0122 156.951 50.7055C156.494 51.4012 156.266 52.2974 156.266 53.3964V57.887H154.773V48.4131H156.266V50.4591C156.441 49.7513 156.774 49.1957 157.272 48.7923C157.769 48.3889 158.342 48.186 158.988 48.186C159.543 48.186 160.076 48.3938 160.584 48.8117H160.586Z" fill="#234941"/>
<path d="M168.496 53.5269H162.115C162.184 54.5004 162.491 55.2613 163.035 55.8096C163.579 56.3579 164.227 56.6333 164.979 56.6333C166.042 56.6333 166.922 56.1671 167.614 55.2323L168.498 56.2565C167.539 57.4957 166.365 58.1141 164.979 58.1141C163.683 58.1141 162.635 57.6406 161.83 56.6937C161.027 55.7468 160.625 54.5656 160.625 53.15C160.625 51.7345 161.027 50.5871 161.83 49.6257C162.633 48.6667 163.63 48.186 164.822 48.186C166.013 48.186 166.871 48.5677 167.57 49.3334C168.269 50.0968 168.62 51.0557 168.62 52.2031C168.62 52.7201 168.58 53.1621 168.498 53.5293L168.496 53.5269ZM164.819 49.5847C164.149 49.5847 163.577 49.8117 163.104 50.2658C162.63 50.72 162.323 51.3577 162.184 52.179H167.232C167.207 51.4205 166.98 50.7997 166.546 50.3117C166.113 49.8262 165.538 49.5822 164.822 49.5822L164.819 49.5847Z" fill="#234941"/>
<path d="M174.379 55.2733C174.379 54.655 173.727 54.0728 172.42 53.5293C170.733 52.8602 169.888 51.9254 169.888 50.7248C169.888 49.9301 170.18 49.3069 170.764 48.8576C171.348 48.4083 172.037 48.186 172.836 48.186C173.957 48.186 174.898 48.6716 175.663 49.645L174.883 50.7441C174.213 49.9494 173.523 49.5508 172.82 49.5508C172.345 49.5508 171.967 49.6547 171.684 49.8624C171.401 50.0702 171.259 50.3383 171.259 50.6668C171.259 50.9954 171.432 51.2756 171.779 51.5485C172.126 51.8191 172.663 52.1138 173.391 52.4302C174.235 52.7974 174.852 53.2008 175.246 53.6428C175.639 54.0849 175.836 54.6163 175.836 55.2347C175.836 56.1188 175.555 56.8193 174.996 57.3387C174.434 57.8556 173.727 58.1165 172.871 58.1165C172.119 58.1165 171.438 57.9136 170.824 57.5102C170.211 57.1068 169.778 56.6333 169.523 56.0898L170.547 55.01C171.113 56.0971 171.889 56.6406 172.871 56.6406C173.311 56.6406 173.671 56.5198 173.954 56.2806C174.237 56.0415 174.379 55.7057 174.379 55.2758V55.2733Z" fill="#234941"/>
<path d="M177.98 55.3456V49.7752H176.609V48.4104H177.98V46.1736L179.473 45.606V48.4104H181.467V49.7752H179.473V55.1934C179.473 56.1282 179.802 56.5944 180.461 56.5944C180.737 56.5944 181.045 56.5195 181.381 56.3674V57.8819C181.023 58.0341 180.636 58.109 180.218 58.109C179.524 58.109 178.977 57.8819 178.579 57.4278C178.181 56.9737 177.98 56.278 177.98 55.3432V55.3456Z" fill="#234941"/>
<path d="M70.0803 66.8985V65.5337H71.2942V64.4926C71.2942 63.5457 71.5286 62.8138 71.9973 62.2944C72.466 61.7775 73.0763 61.5166 73.8258 61.5166C74.2415 61.5166 74.5776 61.5915 74.8319 61.7437V63.222C74.5422 63.0457 74.2371 62.9563 73.9121 62.9563C73.5649 62.9563 73.2908 63.0891 73.0873 63.3549C72.8839 63.6206 72.7844 64.0119 72.7844 64.5288V65.5337H74.7965V66.8985H72.7844V75.0076H71.292V66.8985H70.0781H70.0803Z" fill="#234941"/>
<path d="M82.5954 66.7057C83.398 67.6406 83.8004 68.829 83.8004 70.2687C83.8004 71.7084 83.398 72.8969 82.5954 73.8317C81.7905 74.7665 80.7536 75.2327 79.4822 75.2327C78.2109 75.2327 77.1717 74.7665 76.3691 73.8317C75.5643 72.8969 75.1641 71.7108 75.1641 70.2687C75.1641 68.8266 75.5665 67.6406 76.3691 66.7057C77.1717 65.7709 78.2109 65.3047 79.4822 65.3047C80.7536 65.3047 81.7905 65.7709 82.5954 66.7057ZM77.4525 72.8171C77.9831 73.4428 78.6597 73.7544 79.4822 73.7544C80.3047 73.7544 80.9791 73.4428 81.512 72.8171C82.0426 72.1915 82.3101 71.3436 82.3101 70.2687C82.3101 69.1938 82.0448 68.3459 81.512 67.7203C80.9791 67.0946 80.3047 66.783 79.4822 66.783C78.6597 66.783 77.9853 67.0946 77.4525 67.7203C76.9196 68.3459 76.6543 69.1962 76.6543 70.2687C76.6543 71.3412 76.9196 72.1915 77.4525 72.8171Z" fill="#234941"/>
<path d="M91.3106 65.9303L90.7026 67.2372C90.3444 66.9352 89.9442 66.783 89.5064 66.783C88.7436 66.783 88.1333 67.1309 87.6779 67.8241C87.2202 68.5198 86.9924 69.416 86.9924 70.5151V75.0057H85.5V65.5318H86.9924V67.5777C87.1649 66.87 87.501 66.3144 87.9985 65.911C88.496 65.5076 89.0686 65.3047 89.7164 65.3047C90.2714 65.3047 90.8021 65.5124 91.3128 65.9303H91.3106Z" fill="#234941"/>
<path d="M111.165 61.7446L107.609 75.0086H105.98L103.309 64.3994L100.638 75.0086H99.0085L95.4531 61.7446H97.065L99.8398 72.3176L102.528 61.7446H104.089L106.778 72.3176L109.553 61.7446H111.165Z" fill="#234941"/>
<path d="M112.551 68.3749L111.269 67.8628C111.441 67.1429 111.806 66.5366 112.361 66.0439C112.916 65.5511 113.628 65.3047 114.495 65.3047C115.64 65.3047 116.487 65.6332 117.035 66.2902C117.584 66.9473 117.86 67.9377 117.86 69.2638V72.863C117.86 73.7085 118.046 74.4235 118.415 75.0032H116.923C116.587 74.4863 116.403 73.9114 116.368 73.2785C115.939 74.5805 115.054 75.2303 113.714 75.2303C112.905 75.2303 112.237 74.9598 111.711 74.4163C111.185 73.8727 110.922 73.1481 110.922 72.2374C110.922 71.3267 111.22 70.6069 111.815 70.1165C112.41 69.6237 113.171 69.3073 114.095 69.1696L116.365 68.829C116.365 67.3628 115.742 66.6308 114.493 66.6308C113.995 66.6308 113.577 66.783 113.235 67.085C112.894 67.3869 112.664 67.8169 112.549 68.3725L112.551 68.3749ZM114.026 73.8317C114.72 73.8317 115.284 73.566 115.718 73.037C116.151 72.5079 116.368 71.8557 116.368 71.0852V70.0803L114.338 70.3822C113.031 70.5851 112.379 71.1963 112.379 72.2205C112.379 72.7374 112.536 73.136 112.848 73.4138C113.159 73.6916 113.553 73.8317 114.026 73.8317Z" fill="#234941"/>
<path d="M120.148 71.8635V61.7446H121.641V71.8635C121.641 73.4554 121.78 74.5037 122.057 75.0086H120.564C120.288 74.3781 120.148 73.3297 120.148 71.8635Z" fill="#234941"/>
<path d="M131.176 70.6494H124.795C124.863 71.6229 125.171 72.3838 125.715 72.9322C126.259 73.4805 126.906 73.7559 127.658 73.7559C128.722 73.7559 129.602 73.2897 130.294 72.3548L131.178 73.379C130.219 74.6158 129.045 75.2366 127.658 75.2366C126.363 75.2366 125.315 74.7632 124.51 73.8163C123.707 72.8694 123.305 71.6881 123.305 70.2726C123.305 68.8571 123.707 67.7097 124.51 66.7483C125.312 65.7893 126.309 65.3086 127.501 65.3086C128.693 65.3086 129.551 65.6903 130.25 66.456C130.948 67.2193 131.3 68.1783 131.3 69.3257C131.3 69.8451 131.26 70.2847 131.178 70.6519L131.176 70.6494ZM127.499 66.7072C126.829 66.7072 126.256 66.9343 125.783 67.3884C125.31 67.8425 125.003 68.4802 124.863 69.3015H129.911C129.887 68.5431 129.659 67.9223 129.226 67.4343C128.792 66.9488 128.218 66.7048 127.501 66.7048L127.499 66.7072Z" fill="#234941"/>
<path d="M137.059 72.392C137.059 71.7736 136.406 71.1915 135.1 70.6479C133.413 69.9788 132.568 69.044 132.568 67.8435C132.568 67.0487 132.86 66.4255 133.444 65.9762C134.027 65.5269 134.717 65.3047 135.515 65.3047C136.636 65.3047 137.578 65.7902 138.343 66.7637L137.563 67.8628C136.893 67.0681 136.203 66.6695 135.5 66.6695C135.024 66.6695 134.646 66.7734 134.363 66.9811C134.08 67.1888 133.939 67.457 133.939 67.7855C133.939 68.114 134.111 68.3942 134.458 68.6672C134.806 68.9377 135.343 69.2324 136.07 69.5489C136.915 69.916 137.532 70.3194 137.925 70.7615C138.319 71.2035 138.516 71.735 138.516 72.3533C138.516 73.2374 138.235 73.938 137.675 74.4573C137.114 74.9742 136.406 75.2351 135.551 75.2351C134.799 75.2351 134.118 75.0322 133.503 74.6288C132.891 74.2254 132.457 73.752 132.203 73.2085L133.227 72.1287C133.793 73.2157 134.569 73.7592 135.551 73.7592C135.991 73.7592 136.351 73.6384 136.634 73.3993C136.917 73.1601 137.059 72.8244 137.059 72.3944V72.392Z" fill="#234941"/>
</svg>
