<svg width="30" height="16" viewBox="0 0 30 16" fill="none" xmlns="http://www.w3.org/2000/svg">
<path d="M10.3947 5.3199C10.3947 6.32383 9.58054 7.13456 8.58007 7.13456C7.57614 7.13456 6.76196 6.32038 6.76196 5.3199C6.76196 4.31598 7.57614 3.50525 8.58007 3.50525C9.58054 3.50525 10.3947 4.31943 10.3947 5.3199Z" stroke="#57C09B" stroke-miterlimit="10"/>
<path d="M9.54712 3.74119C10.4993 2.09213 11.2652 0.763916 11.2652 0.763916" stroke="#57C09B" stroke-miterlimit="10"/>
<path d="M5.94641 9.97309C5.94641 9.97309 6.75369 8.57587 7.73692 6.86816" stroke="#57C09B" stroke-miterlimit="10"/>
<path d="M10.1345 4.42328C11.8146 3.45385 13.1842 2.66382 13.1842 2.66382" stroke="#57C09B" stroke-miterlimit="10"/>
<path d="M3.96875 7.98001C3.96875 7.98001 5.33147 7.19343 7.00813 6.224" stroke="#57C09B" stroke-miterlimit="10"/>
<path d="M10.4177 5.32104H13.8952" stroke="#57C09B" stroke-miterlimit="10"/>
<path d="M3.26001 5.32104H6.79962" stroke="#57C09B" stroke-miterlimit="10"/>
<path d="M10.0293 6.1593C11.7612 7.15978 13.186 7.98086 13.186 7.98086" stroke="#57C09B" stroke-miterlimit="10"/>
<path d="M3.96875 2.66052C3.96875 2.66052 5.32112 3.4402 6.99088 4.40618" stroke="#57C09B" stroke-miterlimit="10"/>
<path d="M9.51953 6.95557C10.4683 8.60118 11.2341 9.92594 11.2341 9.92594" stroke="#57C09B" stroke-miterlimit="10"/>
<path d="M5.91565 0.715332C5.91565 0.715332 6.72638 2.12289 7.71651 3.8375" stroke="#57C09B" stroke-miterlimit="10"/>
<path d="M8.57446 7.1626V10.6401" stroke="#57C09B" stroke-miterlimit="10"/>
<path d="M8.57446 0V3.60516" stroke="#57C09B" stroke-miterlimit="10"/>
<path d="M26.5779 6.21143H10.6324C9.02474 6.21143 7.71032 7.52584 7.71032 9.13695H3.42208C1.81442 9.13695 0.5 10.4514 0.5 12.0625C0.5 13.6701 1.81442 14.988 3.42208 14.988H19.3676C20.9752 14.988 22.2897 13.6736 22.2897 12.0625H26.5779C28.1856 12.0625 29.5 10.7481 29.5 9.13695C29.5034 7.52929 28.1856 6.21143 26.5779 6.21143Z" fill="white" stroke="#57C09B" stroke-miterlimit="10"/>
</svg>
