<svg width="447" height="480" viewBox="0 0 447 480" fill="none" xmlns="http://www.w3.org/2000/svg">
<g clip-path="url(#clip0_2500_62745)">
<path d="M236.966 458.703C352.839 458.703 446.773 363.788 446.773 246.704C446.773 129.62 352.839 34.7051 236.966 34.7051C121.092 34.7051 27.1582 129.62 27.1582 246.704C27.1582 363.788 121.092 458.703 236.966 458.703Z" fill="#44D0A0"/>
<path d="M379.993 384.974C380.068 359.058 366.315 338.008 349.273 337.958C332.232 337.907 318.356 358.875 318.281 384.791C318.206 410.707 331.96 431.757 349.001 431.807C366.042 431.858 379.918 410.89 379.993 384.974Z" stroke="#03313E" stroke-width="2.49" stroke-miterlimit="10"/>
<path d="M349.128 340.483V480" stroke="#03313E" stroke-width="2.49" stroke-miterlimit="10"/>
<path d="M314.907 309.799C314.982 283.884 301.229 262.834 284.187 262.784C267.146 262.733 253.27 283.702 253.195 309.617C253.119 335.533 266.873 356.583 283.914 356.633C300.955 356.683 314.831 335.715 314.907 309.799Z" stroke="#03313E" stroke-width="2.49" stroke-miterlimit="10"/>
<path d="M284.063 265.731V480" stroke="#03313E" stroke-width="2.49" stroke-miterlimit="10"/>
<path d="M236.965 420.995L208.113 370.475H224.076L200.753 329.625H213.883L183.684 276.8L153.484 329.625H166.614L143.256 370.475H159.255L130.403 420.995H236.965Z" stroke="#03313E" stroke-width="2.49" stroke-miterlimit="10"/>
<path d="M183.685 280.466V480" stroke="#03313E" stroke-width="2.49" stroke-miterlimit="10"/>
<path d="M183.685 287.554V480.001" stroke="#03313E" stroke-width="2.49" stroke-miterlimit="10"/>
<path d="M56.6325 160.571H248.23C276.357 160.571 299.369 137.318 299.369 108.898H378.703C406.83 108.898 429.842 85.6449 429.842 57.2247C429.842 28.8046 406.83 5.55176 378.703 5.55176H202.136C174.01 5.55176 150.997 28.8046 150.997 57.2247H56.6325C28.5061 57.2247 5.49365 80.4776 5.49365 108.898C5.52821 137.318 28.5061 160.571 56.6325 160.571Z" stroke="#03313E" stroke-width="3.1915" stroke-miterlimit="10"/>
<path d="M53.4202 224.639V480.001" stroke="#03313E" stroke-width="2.49" stroke-miterlimit="10"/>
<path d="M3.87109 271.493L53.2477 221.601L103.004 271.842" stroke="#03313E" stroke-width="2.49" stroke-miterlimit="10"/>
<path d="M3.87109 305.22L53.2477 255.328L103.004 305.605" stroke="#03313E" stroke-width="2.49" stroke-miterlimit="10"/>
<path d="M3.87109 338.982L53.2477 289.09L103.004 339.366" stroke="#03313E" stroke-width="2.49" stroke-miterlimit="10"/>
<path d="M3.87109 372.744L53.2477 322.852L103.004 373.128" stroke="#03313E" stroke-width="2.49" stroke-miterlimit="10"/>
<path d="M3.87109 406.506L53.2477 356.613L103.004 406.855" stroke="#03313E" stroke-width="2.49" stroke-miterlimit="10"/>
<path d="M3.87109 440.233C3.87109 440.233 47.5464 396.101 52.764 390.829" stroke="#03313E" stroke-width="2.49" stroke-miterlimit="10"/>
<path d="M53.2471 390.341C53.2816 390.376 103.004 440.617 103.004 440.617" stroke="#03313E" stroke-width="2.49" stroke-miterlimit="10"/>
<path d="M82.5479 106.209H217.686V59.2148H350.75" stroke="#03313E" stroke-width="2.49" stroke-miterlimit="10" stroke-dasharray="7 7"/>
<path d="M377.528 43.1885H349.125V71.8879H377.528V43.1885Z" stroke="#03313E" stroke-width="2.49" stroke-miterlimit="10"/>
<path d="M66.7212 120.559C58.8776 120.559 52.5198 114.135 52.5198 106.209C52.5198 98.2836 58.8776 91.8594 66.7212 91.8594C74.5648 91.8594 80.9226 98.2836 80.9226 106.209C80.9226 114.135 74.5648 120.559 66.7212 120.559Z" stroke="#03313E" stroke-width="2.49" stroke-miterlimit="10"/>
<path d="M183.685 106.209V287.553" stroke="#03313E" stroke-width="2.49" stroke-miterlimit="10" stroke-dasharray="8 8"/>
</g>
<defs>
<clipPath id="clip0_2500_62745">
<rect width="446.774" height="480" fill="white"/>
</clipPath>
</defs>
</svg>
