<svg width="72" height="105" viewBox="0 0 72 105" fill="none" xmlns="http://www.w3.org/2000/svg">
<path d="M70.7096 72.1495C69.2119 69.3941 67.3495 68.4637 65.3792 67.4806C64.3541 66.9683 63.2902 66.4366 62.1269 65.5809C62.1213 65.5754 62.113 65.5698 62.1075 65.5643C60.8253 64.4815 60.2644 63.1578 64.3237 56.5948C66.2745 53.4406 67.9601 50.7185 67.0096 48.4255C66.526 47.2542 65.4428 46.4594 63.7876 46.0634C60.2533 45.0194 57.5619 44.0474 57.6807 41.9095C57.7498 40.7132 59.8002 39.2095 61.6073 37.8886C63.5859 36.4375 65.6362 34.9366 66.3851 33.0508C66.7222 32.2006 66.7415 31.4197 66.4403 30.7191C65.9402 29.5615 64.752 29.088 63.7959 28.7114C63.3095 28.5175 62.7044 28.2766 62.5054 28.0468C62.3092 27.8252 62.1075 27.4846 62.2318 27.1135C62.417 26.5652 63.3427 25.8258 65.3875 25.4049C67.3494 25.0034 69.0102 23.6437 69.7148 21.8658C70.2896 20.4258 70.1431 18.9222 69.3169 17.7397C68.1757 16.1003 66.1889 16.1003 65.5367 16.1003C64.5088 16.1003 63.3814 16.2775 62.2954 16.4465C61.4747 16.5711 60.6319 16.7317 59.8775 16.7511C59.242 16.7677 59.6427 14.7711 59.7338 14.0206C59.8416 13.1206 59.9439 12.2732 59.8775 11.5338C59.6731 9.29354 58.0703 8.58738 57.0092 8.11938L56.9623 8.1C56.382 7.84523 55.8984 7.41323 55.5696 6.85662C53.102 2.70831 51.4246 0.193846 48.9294 0.193846C46.8708 0.193846 45.0249 1.89692 42.0461 5.47754C42.0046 5.53015 41.941 5.56338 41.8775 5.57446C39.7221 5.97323 37.9923 6.86215 36.7682 7.69015C36.6908 7.74277 36.5886 7.70123 36.5637 7.61538C35.5938 4.54431 34.3448 3.41446 34.1735 3.27323L34.0242 3.14862C33.8308 2.988 33.5849 2.90769 33.3362 2.92708L33.14 2.94092C32.7448 2.97138 32.3414 3.06277 31.9766 3.17631C31.7639 3.24277 31.5373 3.20123 31.3632 3.06554C27.7322 0.235384 23.789 0 22.5898 0C22.3908 0 22.2858 0.00553846 22.2858 0.00553846H22.2278C21.6337 0.0443077 21.1308 0.456923 20.9788 1.03015L20.965 1.08C19.7712 5.52461 20.5864 9.83354 21.0423 11.6225C21.0561 11.6778 21.0451 11.7305 21.0092 11.7775C20.8102 12.0295 20.4869 12.4394 20.2216 12.7772C19.9398 13.1372 19.9149 13.6302 20.1553 14.0178L20.2962 14.2449C20.3708 14.364 21.4292 16.0117 23.7338 17.4877C23.8056 17.5348 23.789 17.6455 23.7034 17.6677C21.9818 18.0858 21.1086 18.5289 21.0396 18.5649L20.8986 18.6369C20.5035 18.8418 20.2548 19.2517 20.2548 19.6975V19.8582C20.2548 20.268 20.288 20.6391 20.3405 20.9714C20.3543 21.0545 20.3101 21.1292 20.2382 21.168C15.9385 23.3363 15.0128 27.2797 15.1621 29.2182L15.1786 29.4203C15.2035 29.7748 15.4052 30.0877 15.7064 30.2649L15.8833 30.3674C17.4141 31.248 19.0224 31.6966 20.6665 31.6966C21.9238 31.6966 22.9932 31.4363 23.8139 31.1372C23.9079 31.104 24.0239 31.1428 24.0737 31.2258C24.1952 31.4197 24.2892 31.5388 24.3279 31.5858L24.4688 31.7631C24.7064 32.0566 25.085 32.2006 25.4581 32.1425L25.6791 32.1065C28.5253 31.6523 30.595 30.6969 32.0236 29.7665C32.1424 29.6917 32.2944 29.7526 32.3331 29.8855C32.5818 30.6997 32.9079 31.4723 33.2643 32.184C33.3141 32.2782 33.2312 32.3862 33.1317 32.3668C32.8581 32.3169 32.6979 32.2948 32.6785 32.292L32.4132 32.2588C31.8965 32.1895 31.4019 32.4886 31.2223 32.9788L31.1283 33.228C29.3101 38.1185 30.233 44.4655 30.9653 47.8855C30.9957 48.0129 30.899 48.1348 30.7719 48.1403C30.0645 48.1763 29.5726 48.3037 29.5118 48.3203L29.1581 48.4145C28.8762 48.4892 28.6552 48.7135 28.5806 48.996L28.4866 49.3449C27.6549 52.4603 28.4728 55.4788 29.2631 57.3951C29.3018 57.492 29.2272 57.5945 29.1222 57.5862C28.1661 57.4975 27.2127 57.4532 26.2456 57.4532C23.3441 57.4532 20.3018 57.852 16.9416 58.6662L16.1513 58.86C15.665 58.9791 15.4108 59.5135 15.6235 59.9677L16.4387 61.6874C16.4884 61.7926 16.4332 61.9172 16.3199 61.9422C14.2364 62.4905 10.9702 63.4265 8.91427 64.4095L8.71531 64.5009C8.22897 64.7335 7.9637 65.2625 8.0687 65.7942L8.11015 66.0102C8.13226 66.1126 8.25384 66.6914 8.52741 67.4169C8.56333 67.5111 8.52188 67.6191 8.43069 67.6689C4.97659 69.4578 2.12764 72.4708 0.3094 76.2868L0.0772839 76.7741C-0.0857499 77.1148 0.0164916 77.5246 0.314926 77.7489L0.745999 78.0757C0.906269 78.1975 4.81632 81.072 14.0982 81.072C14.3994 81.072 14.7034 81.0692 15.0128 81.0609C15.0874 81.0582 15.1565 81.1024 15.1814 81.1744C15.3969 81.7588 15.7202 82.4428 16.1789 83.0271L16.2287 83.088C16.494 83.4203 16.9057 83.6058 17.3285 83.5781H17.4058C18.0055 83.5366 21.8851 83.232 24.8529 81.4126C24.9855 81.3295 25.1596 81.4181 25.1762 81.5732C25.3558 83.3068 25.7565 85.2646 26.6131 86.7655L26.649 86.8237C26.8314 87.1449 27.1409 87.372 27.5001 87.4495L27.5692 87.4661C27.6272 87.48 29.042 87.7763 31.0979 87.7763C31.8772 87.7763 32.6426 87.7348 33.3887 87.6517C33.6926 87.6268 33.6761 87.6295 33.8806 87.5991C33.9331 87.5935 33.9717 87.6489 33.9469 87.6932C31.8634 91.2268 27.2238 99.2741 22.7086 102.727L21.7884 103.447C21.5701 103.622 21.443 103.882 21.4458 104.162V104.466C21.4513 104.591 21.5535 104.694 21.6779 104.694L23.4132 104.688H30.3933C30.7387 104.688 31.062 104.522 31.2692 104.242C31.5041 103.924 36.8842 96.5271 40.377 86.2865C40.4074 86.2006 40.5097 86.1674 40.5815 86.2255C41.3884 86.8431 41.9659 88.2637 42.5379 89.6926C43.6874 92.556 45.1161 96.1172 49.0178 96.12H49.0206C50.3055 96.12 51.7562 95.7821 53.3396 94.8738C54.6522 94.1178 55.4784 92.8191 55.9095 91.8305C56.5091 90.4625 56.9844 89.3797 61.4084 89.0695C65.219 88.8037 68.3387 86.7849 70.1929 83.3871C72.1493 79.8148 72.3565 75.1957 70.7013 72.1523M62.0909 68.1009C62.2733 68.2117 62.3673 68.4221 62.3396 68.6298C61.8395 72.1274 58.2776 74.4397 56.6611 75.3203C56.2328 75.5529 55.763 75.6941 55.2794 75.7357C53.6076 75.8825 52.0795 76.1843 50.7034 76.572C50.6095 76.5969 50.5376 76.4861 50.6012 76.4114C51.7535 75.0628 53.0964 72.9858 53.1102 70.6015C53.1268 68.6908 52.2785 66.9212 50.6095 65.3178C50.452 65.1683 50.4243 64.9274 50.5349 64.7446C51.2616 63.5483 52.016 62.1305 52.7704 60.4578C52.9085 60.1588 53.1351 59.9123 53.4225 59.7545C54.7295 59.0455 57.2358 58.1483 59.9715 59.6575C60.0682 59.7102 60.1096 59.8348 60.0599 59.9345C58.6064 63.1301 58.6009 65.3677 60.759 67.1871L60.8115 67.2286L60.864 67.2674C61.284 67.5775 61.6958 67.8489 62.0909 68.0954M42.6982 24.84C42.6844 24.7458 42.7756 24.6738 42.8612 24.7071C44.1213 25.2249 45.0553 25.7123 45.561 26.0003C45.7599 26.1111 45.8981 26.3132 45.9229 26.5431C46.3955 30.4948 46.7077 34.9754 46.6967 39.9323C46.6967 40.0514 46.5502 40.1012 46.4756 40.0154C44.4722 37.6892 42.3196 36.0775 40.3107 34.9588C40.1974 34.8978 40.1643 34.7594 40.2389 34.6541C41.4271 32.9871 43.4084 29.4092 42.701 24.8428M37.3043 21.7108C37.2324 21.6997 37.1744 21.6554 37.144 21.5889C36.8207 20.8357 36.2321 19.0689 36.6521 16.9505C36.6687 16.8757 36.7488 16.8369 36.8179 16.8646C39.2883 17.964 41.9245 18.7615 44.627 19.188C44.7154 19.2018 44.7845 19.2655 44.801 19.3542C45.0995 20.8662 45.3758 22.5 45.6273 24.2612C45.6383 24.3221 45.572 24.3692 45.5167 24.3443C43.95 23.5689 41.0015 22.3117 37.307 21.7108M48.4348 33.5825C48.4292 33.3471 48.4817 33.1172 48.584 32.9095C49.0841 31.9237 50.7559 28.9412 53.9917 26.1554C54.0525 26.1028 54.1548 26.1388 54.1658 26.2218C54.4311 28.0911 54.5637 31.4861 53.0356 35.1775C52.7842 35.7895 52.4001 36.3323 51.9193 36.7865C50.3829 38.2458 49.3853 39.6775 48.8106 40.6606C48.7443 40.7714 48.5785 40.7271 48.5785 40.5997C48.5978 38.4037 48.4735 34.7151 48.432 33.5852M48.3795 30.3923C48.3325 30.4615 48.2303 30.4311 48.222 30.3535C48.164 29.628 48.0976 28.9218 48.0286 28.2378C47.954 27.5095 47.8738 26.7978 47.7882 26.1028C47.7218 25.5545 47.7854 24.9951 47.9733 24.4745C48.3215 23.5135 48.8852 22.1068 49.6617 20.5422C49.8054 20.2486 50.0623 20.0243 50.3746 19.9274C51.7452 19.4954 54.2957 19.296 57.5398 21.7551C57.6282 21.8215 57.6144 21.9545 57.5205 22.0043C52.798 24.5132 49.8855 28.0883 48.3795 30.3951M48.3767 46.5895C48.3823 46.4705 48.4817 46.3846 48.5978 46.3902C49.4047 46.4262 50.8665 46.6588 52.1293 47.7305C53.4087 48.8132 54.1962 50.5025 54.4836 52.7428C54.5416 53.1942 54.4311 53.6483 54.1769 54.0249C53.6187 54.8502 53.0937 55.8582 52.6129 57.096C49.7694 64.4732 46.8017 67.6745 45.199 68.9705C45.1465 69.012 45.0691 68.9649 45.0857 68.8957C46.9979 60.7375 47.9816 53.2468 48.3767 46.5895ZM40.6727 37.9108C41.9742 41.1231 41.3276 44.4545 40.7749 46.2711C40.7418 46.3735 40.6064 46.3818 40.5566 46.2877C37.7878 41.004 34.8864 36.6674 33.6042 34.8148C33.5434 34.7262 33.618 34.6098 33.7258 34.6292C34.1431 34.7123 34.6764 34.8203 35.2042 34.9228C35.6491 35.0114 36.0829 35.1277 36.5112 35.2828C36.8373 35.4018 37.1771 35.532 37.5253 35.6815C38.2576 35.9917 38.9622 36.3434 39.6448 36.7311C40.109 36.9997 40.4737 37.4123 40.6755 37.908M41.4271 47.0963C42.0101 45.4486 42.9441 41.8625 41.7172 38.2154C41.7006 38.1655 41.7559 38.124 41.8001 38.1545C43.6211 39.5308 45.2238 41.2366 46.6055 43.2415C46.6303 43.2775 46.6442 43.3246 46.6414 43.3689C46.5088 47.6972 46.1219 52.3495 45.4034 57.2843C45.3924 57.3563 45.2929 57.3674 45.2736 57.2982C44.2843 54.1828 42.9386 51.048 41.4906 48.1265C41.3331 47.8052 41.3083 47.4369 41.4298 47.0991M45.0055 70.8785C45.8345 70.4021 47.6362 69.1034 49.7556 65.9658C49.8109 65.8828 49.9325 65.8717 50.0043 65.9409C51.4965 67.3726 52.2536 68.9345 52.2426 70.596C52.2232 73.3431 50.1342 75.7329 49.051 76.7852C48.7139 77.1148 48.3187 77.3751 47.8876 77.5551C47.7495 77.6132 47.6168 77.6686 47.487 77.7295C45.0249 78.8151 43.0989 80.136 41.7255 81.252C41.6702 81.2935 41.5956 81.2409 41.6177 81.1772C42.6954 77.9234 43.6156 74.7526 44.4059 71.6677C44.4916 71.3354 44.7099 71.0529 45.0055 70.8812M65.0504 50.6631C64.7022 51.9757 63.6411 53.6926 62.533 55.4788C61.7731 56.7055 61.1265 57.8215 60.5987 58.8461C60.5601 58.9181 60.4744 58.9431 60.4053 58.9043C57.794 57.4615 55.3319 57.9849 53.7458 58.6634C53.6574 58.6994 53.5717 58.6135 53.6076 58.5249C53.7265 58.2314 53.8453 57.9295 53.9641 57.6222C55.9647 52.4382 58.5401 51.9591 61.5217 51.4025C62.627 51.1975 63.7655 50.9843 64.8763 50.5163C64.973 50.4748 65.078 50.5634 65.0504 50.6631ZM63.7434 33.3305C62.931 34.2914 61.635 35.2468 60.3639 36.1772C57.9626 37.9329 55.6967 39.5945 55.5751 41.7905C55.354 45.7809 59.8831 47.1157 63.1907 48.0932L63.2985 48.1182C63.9479 48.276 64.4287 48.4975 64.7382 48.7855C64.8045 48.8437 64.7879 48.9517 64.705 48.9905C63.6218 49.5277 62.4723 49.7465 61.2592 49.9708C59.3829 50.3169 57.3519 50.7046 55.5309 52.4215C55.4535 52.4935 55.3292 52.452 55.3126 52.3468C54.9672 50.0151 54.0857 48.2345 52.6819 47.0492C51.2229 45.8225 49.5843 45.5538 48.6475 45.5123C48.5342 45.5068 48.4431 45.4071 48.4458 45.2908V45.2852C48.4624 44.9668 48.5287 44.6566 48.6337 44.3603C49.7031 41.4969 53.3451 34.5932 63.6605 33.1754C63.7461 33.1643 63.8014 33.264 63.7461 33.3305M67.8634 20.772C67.833 20.8772 67.8026 20.9769 67.7612 21.0822C67.3135 22.2065 66.2441 23.0705 64.9675 23.3308C62.4115 23.8569 60.7314 24.9591 60.234 26.4351C59.8913 27.4514 60.1428 28.5452 60.9193 29.4369C61.4194 30.0074 62.1047 30.3092 63.0222 30.6748C63.3869 30.8188 63.8014 30.9849 64.1054 31.1732C64.18 31.2203 64.1551 31.3311 64.0694 31.3394C59.8582 31.8462 56.6583 33.2474 54.2791 34.8785C54.2045 34.9311 54.105 34.8535 54.1382 34.7677C55.5115 30.9988 55.2905 27.6369 54.9976 25.8397C54.9506 25.5628 55.0667 25.2831 55.2877 25.1169C58.2776 22.896 62.359 20.9963 67.7418 20.628C67.8192 20.6252 67.8828 20.6972 67.8634 20.772ZM57.5951 11.4231C57.6614 11.3926 57.736 11.4286 57.7498 11.4978C57.7636 11.5698 57.7747 11.6446 57.783 11.7277C57.8299 12.24 57.7415 12.9794 57.6448 13.7658C57.4072 15.7292 57.3629 16.812 57.7664 17.6594C58.0731 18.2935 58.67 18.7394 59.3663 18.8391C59.4603 18.8557 59.5984 18.8723 59.7946 18.8723C59.8637 18.8723 59.9328 18.8695 60.0074 18.8668C60.8668 18.8114 61.7566 18.6729 62.6187 18.54C63.6384 18.3822 64.6774 18.2188 65.5478 18.2188C66.2276 18.2188 67.2472 18.36 67.67 19.0523C67.7032 19.1077 67.6672 19.1797 67.6009 19.1852C64.2629 19.4178 61.3946 20.2098 58.9574 21.3009C58.7308 21.3978 58.471 21.3729 58.2776 21.2234C55.0667 18.7006 52.4111 18.5732 50.7283 18.9305C50.6371 18.9498 50.5653 18.8529 50.6095 18.7698C52.2536 15.9037 54.5748 12.9185 57.5978 11.4231M49.4296 6.94246C49.7307 5.79046 49.9546 4.5 50.0568 3.07385C50.0623 2.96031 50.195 2.90492 50.2779 2.97969C51.3086 3.91569 52.4553 5.75169 53.7569 7.94215C54.315 8.88092 55.1302 9.60369 56.1139 10.0385L56.1637 10.0578C56.2549 10.0994 56.3405 10.1354 56.4207 10.1769C56.5118 10.2185 56.5146 10.3514 56.4262 10.3985C54.7655 11.3234 53.3175 12.6249 52.0823 14.0843C52.0215 14.1563 51.9027 14.1092 51.9082 14.0151C52.0713 11.9409 51.7949 9.11077 49.5511 7.33292C49.4323 7.24154 49.3881 7.08646 49.4268 6.94246M49.0427 8.23292C49.0648 8.16369 49.156 8.13877 49.2113 8.18585C51.2589 10.0191 51.1925 13.0542 50.9245 14.8652C50.8416 15.4302 50.6316 15.9702 50.3166 16.4465C49.0068 18.4265 48.023 20.4591 47.3405 22.0874C47.3156 22.1483 47.2272 22.1372 47.2162 22.0708C46.7519 19.2046 46.2131 16.6929 45.6825 14.5606C45.6328 14.3557 45.6853 14.1397 45.829 13.9818C46.4286 13.3172 47.9761 11.4009 49.0399 8.23292M43.483 7.056L43.6045 6.912C45.6881 4.40585 47.2659 2.74154 48.4707 2.38154C48.5591 2.35662 48.6503 2.42862 48.6475 2.52277C48.3906 7.60708 46.3761 10.9163 45.2791 12.3618C45.2266 12.4338 45.1161 12.4117 45.094 12.3258C44.4446 10.0191 43.8505 8.31877 43.4498 7.26923C43.4249 7.19723 43.436 7.11415 43.4857 7.056M39.2745 8.66769C39.9045 8.34923 40.6368 8.05292 41.4602 7.83692C41.5652 7.80646 41.673 7.86185 41.7117 7.96708C42.3113 9.57877 43.4001 12.8077 44.4059 17.4406C44.4308 17.5597 44.3285 17.6677 44.2097 17.6428C42.9248 17.4102 41.6564 17.0945 40.424 16.6929C40.3301 16.6625 40.2665 16.5711 40.2776 16.4742C40.3881 15.2418 40.4931 12.0655 39.1861 8.91415C39.1474 8.82 39.1833 8.712 39.2745 8.66492M33.245 5.70185C33.2588 5.61877 33.3638 5.59662 33.4053 5.66585C33.7507 6.21415 34.1983 7.092 34.599 8.41015L35.0881 10.0108C35.265 10.5923 35.953 10.8332 36.4504 10.4843L37.8238 9.53169C37.9481 9.44308 38.0918 9.35169 38.2382 9.25754C38.2963 9.22154 38.3792 9.24369 38.404 9.31015C39.4983 11.9935 39.5066 14.7462 39.4292 16.0726C39.4237 16.2138 39.28 16.308 39.1446 16.2582C36.1022 15.1283 33.2754 13.5305 30.8437 11.5975C30.7553 11.5255 30.7387 11.3954 30.8105 11.304C31.5649 10.3625 32.7891 8.46 33.2422 5.70462M23.7835 2.18769C25.3503 2.36769 27.9257 2.97415 30.3076 4.92646L30.9929 5.48862C31.1421 5.61323 31.3466 5.64646 31.529 5.58L32.3497 5.28092C32.3884 5.26708 32.4271 5.30031 32.4215 5.33908C32.0291 7.98923 30.8548 9.83354 30.1529 10.7308C30.0755 10.8249 29.9373 10.8388 29.8462 10.7612C27.0608 8.32708 24.8971 5.44154 23.6592 2.35108C23.626 2.26523 23.6951 2.17662 23.7835 2.18769ZM22.6146 13.1538C22.7694 12.9628 22.9518 12.7274 23.101 12.5391C23.2751 12.3231 23.3331 12.0378 23.264 11.7692L23.1065 11.1738C22.7887 9.94431 22.2057 7.10308 22.5704 3.92123C22.5815 3.82708 22.7114 3.80769 22.75 3.89631C24.2671 7.13908 26.7319 10.1271 29.8102 12.6055C29.9346 12.7108 29.9069 12.9074 29.7605 12.9711C28.3374 13.5609 25.6128 14.3308 22.6644 13.3311C22.5925 13.3062 22.5677 13.2175 22.6119 13.1538M23.5044 14.6714C23.427 14.6022 23.4906 14.472 23.5956 14.4914C24.6457 14.7102 25.6487 14.7462 26.5606 14.6686C28.2407 14.5246 29.6168 14.0123 30.4347 13.6357C30.7111 13.5083 31.0316 13.5443 31.2803 13.7215C32.6592 14.6991 34.132 15.5797 35.6877 16.3385C35.7983 16.3938 35.8535 16.5185 35.8287 16.6403C35.4142 18.5566 35.7375 20.2015 36.0801 21.2428C36.1299 21.3895 36.0083 21.5335 35.8535 21.5169C33.4108 21.2566 30.7083 21.3065 27.9008 21.9628C27.8317 21.9766 27.7626 21.9572 27.7101 21.9102C27.0829 21.312 25.9886 20.5422 24.2533 20.1268C24.035 20.0742 24.0322 19.764 24.2505 19.7114C24.303 19.6975 24.3555 19.6865 24.408 19.6726L27.525 18.9526C28.2213 18.7892 28.3706 17.8671 27.7626 17.4932L25.0408 15.8123C24.4274 15.4329 23.9217 15.0397 23.5044 14.6742M17.5606 27.0858C18.0248 25.6985 19.097 24.0757 21.2938 23.0012L22.2775 22.5166C22.5428 22.3892 22.6865 22.104 22.6367 21.816L22.4737 20.88C22.4571 20.8025 22.5235 20.7332 22.5981 20.7388C24.5296 20.9049 25.7979 21.5169 26.58 22.0902C26.6684 22.1511 26.6407 22.2923 26.5385 22.3255C23.6509 23.1951 20.6831 24.7375 17.8065 27.2465C17.6932 27.3489 17.5136 27.2298 17.5606 27.0858ZM25.8007 29.4757C25.6985 29.5615 25.5437 29.5338 25.4746 29.4203L24.9994 28.6034C24.9468 28.512 24.8363 28.4732 24.7396 28.5092L23.2281 29.0935C22.4074 29.4148 21.5508 29.5754 20.6748 29.5754C19.8458 29.5754 19.0224 29.4175 18.2127 29.1212C18.116 29.0825 18.0884 28.9523 18.1657 28.8803C22.2913 25.0477 26.6048 23.3834 30.5701 22.9015C30.6613 22.8877 30.7304 22.9874 30.6917 23.0677C30.0948 24.336 28.5806 27.0858 25.8007 29.4785M33.0129 26.5403L31.0786 27.8557C29.9512 28.62 28.6441 29.2015 27.1851 29.6003C27.1077 29.6225 27.0525 29.5228 27.1105 29.4618C29.7356 26.9612 31.0952 24.3083 31.5926 23.1951C31.7058 22.9375 31.9573 22.7686 32.2419 22.7603C35.6435 22.6108 38.7108 23.2671 41.0844 24.0535C41.4823 24.1837 41.7697 24.5354 41.8333 24.9508C42.4937 29.2403 40.5732 32.6575 39.4873 34.1917C39.385 34.3357 39.1999 34.3828 39.0424 34.3108C38.3958 34.0034 37.7768 33.7486 37.1854 33.5354C36.5305 33.2972 35.9862 32.8181 35.6656 32.1978L35.2677 31.4363C34.8394 30.6138 34.5133 29.8108 34.3006 29.0409L33.6678 26.7812C33.5904 26.5043 33.2588 26.3825 33.0184 26.5458M31.0675 50.2449C31.6395 50.2338 33.0267 50.2283 33.0267 50.2283C33.2588 50.2532 33.6926 50.1397 33.5075 49.5775L33.0875 47.6668C32.6039 45.4791 31.7197 40.464 32.5265 36.1551C32.5431 36.0582 32.6702 36.0305 32.7283 36.1135C34.9085 39.3231 40.2693 47.6252 43.2812 55.9551C43.331 56.088 43.2315 56.2403 43.0878 56.2431C36.6438 56.5062 32.5735 52.4215 30.9819 50.4277C30.9266 50.3557 30.9763 50.2505 31.0703 50.2477M30.3021 51.2363C30.3131 51.1477 30.4237 51.1145 30.4789 51.1837C32.2309 53.2994 36.2597 57.1265 42.5048 57.1265C42.8308 57.1265 43.1652 57.1126 43.5023 57.0905C43.599 57.0849 43.693 57.1431 43.7234 57.2372C44.0301 58.1622 44.3037 59.0898 44.5385 60.0009C44.7182 60.6988 44.7347 61.4271 44.6049 62.1332C44.4252 63.0942 44.2373 64.0662 44.0329 65.0492C44.0163 65.1212 43.9251 65.1434 43.8754 65.088C40.3991 61.0311 35.7154 59.184 32.7255 58.3726C32.1977 58.2286 31.7611 57.852 31.5428 57.3452L31.2969 56.7692C30.6917 55.3569 30.0976 53.3465 30.2993 51.2335M19.8431 60.2114C22.1062 59.7822 24.2256 59.5634 26.2539 59.5634C27.2321 59.5634 28.1799 59.6132 29.1498 59.7074L29.603 59.7545C29.6942 59.7683 38.4234 60.8068 43.2149 67.4585C43.3586 67.6551 43.4056 67.9043 43.3476 68.1397C43.2536 68.5495 43.1569 68.9622 43.0574 69.372C43.0408 69.4495 42.9607 69.4966 42.8806 69.4689C41.3967 68.9649 38.3267 68.1702 33.665 68.0954C33.455 68.0926 33.2643 67.9708 33.1759 67.7825C32.1811 65.6557 29.0641 61.4132 19.8486 60.3969C19.7436 60.3831 19.7381 60.2335 19.8431 60.2141M11.7107 65.5505C13.1449 65.0326 14.9714 64.4788 17.0742 63.9332L18.8593 63.4652C19.2158 63.3738 19.3982 62.9806 19.2407 62.6483L18.6051 61.308C18.572 61.236 18.63 61.1529 18.7101 61.1612C27.7516 61.8868 31.062 65.7498 32.2005 67.8351C32.2668 67.9542 32.1811 68.1009 32.043 68.1037C29.1553 68.1591 25.7344 68.4969 21.7829 69.3C21.4098 69.3748 21.0285 69.2668 20.7494 69.0148C19.5999 67.968 16.6128 65.7692 11.7273 65.6418C11.6748 65.6418 11.661 65.5671 11.7107 65.5505ZM3.34901 75.1791C4.94619 72.7034 7.09326 70.7151 9.55535 69.4717L10.7242 68.8902C11.2354 68.6991 11.1636 68.3086 11.042 68.0234C11.042 68.0234 10.7436 67.2369 10.5612 66.7772C10.5253 66.6858 10.5916 66.5862 10.6855 66.5806C15.6733 66.312 18.6963 68.3446 19.9591 69.4523C20.0503 69.5354 20.0144 69.6822 19.8983 69.7071C15.1427 70.812 9.67141 72.5981 3.4927 75.3397C3.39046 75.3868 3.29375 75.2732 3.35178 75.1791M17.3368 80.8366C17.2649 80.6788 17.1986 80.5154 17.1378 80.3437L16.8366 79.4991C16.7095 79.1446 16.3696 78.9092 15.9938 78.9175L15.0985 78.9369C14.7641 78.948 14.4326 78.9508 14.1065 78.9508C8.62136 78.9508 5.19212 77.8846 3.44573 77.1258C3.36836 77.0898 3.36836 76.9818 3.44573 76.9486C11.6416 73.2517 18.5941 71.2966 24.2809 70.3578C24.3693 70.344 24.4439 70.4132 24.4384 70.4991C24.35 72.1717 23.4685 76.3837 17.4915 80.8754C17.439 80.9141 17.3616 80.8975 17.334 80.8394M28.0555 84.8548C27.6632 83.8495 27.3896 82.5563 27.257 81.036L27.0442 78.6489C26.9972 78.1366 26.4197 77.8569 25.9886 78.1422L23.9908 79.4603C22.2609 80.6012 20.0144 81.0997 18.6023 81.3129C18.5194 81.3268 18.478 81.2215 18.5443 81.1689C24.4246 76.5498 25.2619 72.2769 25.3199 70.4825C25.3254 70.3163 25.4525 70.1751 25.6183 70.1529C29.6168 69.5825 32.941 69.5215 35.5883 69.6877C35.7485 69.6988 35.8756 69.8262 35.8867 69.9812C36.0553 72.1302 36.0249 79.6846 28.2462 84.9101C28.1799 84.9572 28.0887 84.9295 28.0611 84.8548M37.8127 87.012C35.124 94.3034 31.5179 100.014 30.1197 102.093C29.9456 102.348 29.6583 102.503 29.3488 102.503H26.533C26.4252 102.503 26.3699 102.373 26.4446 102.298C31.319 97.3218 35.6242 89.3492 36.619 87.48C36.7488 87.2335 36.9782 87.0591 37.249 86.9954C37.4065 86.9594 37.5751 86.9206 37.7022 86.8901C37.7768 86.8708 37.8403 86.9455 37.8127 87.0148M40.0068 80.1111V80.0889L38.9733 82.8803C38.6555 83.7415 37.9785 84.4255 37.1136 84.7329C36.9202 84.8021 36.7157 84.8631 36.5084 84.924C34.9472 85.3726 33.1704 85.5498 33.1704 85.5498C32.5017 85.6246 31.8081 85.6606 31.1117 85.6606C30.3684 85.6606 29.7218 85.6191 29.2106 85.5665C29.1001 85.5554 29.0614 85.4086 29.1553 85.3449C36.8041 79.9338 36.9284 72.3323 36.7571 69.9729C36.7461 69.8705 36.8317 69.7902 36.934 69.7985C39.5729 70.0643 41.3939 70.5351 42.3915 70.8563C42.5517 70.9089 42.6429 71.0751 42.6015 71.2357C41.8609 74.124 40.9988 77.0871 40.0095 80.1166M49.3135 93.9849C49.2195 93.996 49.1201 93.9988 49.0289 93.9988C46.7243 93.9988 45.7406 91.9772 44.5054 88.8951C43.8173 87.1698 43.0657 85.356 41.9107 84.3065C41.9079 84.3037 41.9051 84.3009 41.8968 84.2954L41.7172 84.1154C41.452 83.8495 41.4602 83.4148 41.7393 83.16C42.5158 82.4566 43.6239 81.5704 45.1354 80.64C45.2294 80.5818 45.3565 80.604 45.42 80.6982C46.3623 82.0689 49.576 87.2335 49.4848 93.8049C49.4821 93.8991 49.4102 93.9738 49.3163 93.9821M62.2816 86.8264C61.9528 86.8846 61.6156 86.9317 61.2702 86.9538C56.4511 87.2917 55.039 88.5738 53.9834 90.9748C53.6104 91.8277 53.1517 92.52 52.378 92.988C51.7093 93.3978 51.0488 93.6083 50.4658 93.7745C50.4078 93.7911 50.3525 93.744 50.3525 93.6858C50.4078 86.9871 47.2714 81.8474 46.1993 80.2911C46.1247 80.1858 46.1578 80.0501 46.2711 79.9865C47.8545 79.1252 49.7335 78.3277 51.9055 77.7877C52.2343 77.7046 52.5852 77.7351 52.8947 77.8763C55.3209 78.984 60.9276 81.9886 62.4446 86.5523C62.4833 86.6769 62.4059 86.8071 62.2816 86.8292M69.281 80.0557C69.0544 80.856 68.7477 81.6425 68.3498 82.368C67.2279 84.4228 65.5948 85.8185 63.5665 86.4997C63.4532 86.5385 63.3316 86.4748 63.2957 86.3585C61.8699 81.9 57.0258 78.9231 54.1824 77.5135C54.105 77.4748 54.1216 77.3557 54.2073 77.3446C58.3439 76.7548 63.3344 77.1785 69.082 79.6541C69.2368 79.7234 69.3197 79.8923 69.2782 80.0557M69.6513 78.0785C69.6402 78.1865 69.5269 78.2529 69.4247 78.2086C65.2079 76.4224 61.3946 75.708 58.0427 75.6443C57.9902 75.6415 57.9709 75.5751 58.0178 75.5474C59.9052 74.3705 62.6463 72.1412 63.1797 68.9095C63.1935 68.8265 63.2847 68.7822 63.3593 68.8209C63.7323 69.0203 64.0943 69.2003 64.4397 69.3748C66.3188 70.3108 67.6783 70.992 68.8554 73.1603C69.5767 74.4895 69.8336 76.2646 69.6513 78.0812" fill="#F49705"/>
</svg>
