<svg width="11" height="11" viewBox="0 0 11 11" fill="none" xmlns="http://www.w3.org/2000/svg">
<path d="M5.19552 9.99357C6.14429 9.99357 7.07175 9.71223 7.86063 9.18512C8.6495 8.65801 9.26436 7.90881 9.62744 7.03226C9.99052 6.15571 10.0855 5.19117 9.90042 4.26063C9.71532 3.33009 9.25845 2.47533 8.58756 1.80445C7.91668 1.13356 7.06192 0.676687 6.13138 0.491591C5.20084 0.306494 4.2363 0.401493 3.35975 0.764572C2.4832 1.12765 1.734 1.74251 1.20689 2.53138C0.679781 3.32026 0.398438 4.24772 0.398438 5.19649C0.398438 5.98961 0.590321 6.73689 0.931446 7.39622L0.398438 9.99357L2.99579 9.46056C3.65459 9.80116 4.40293 9.99357 5.19552 9.99357Z" stroke="black" stroke-width="0.799513" stroke-linecap="round" stroke-linejoin="round"/>
</svg>
