<svg width="77" height="77" viewBox="0 0 77 77" fill="none" xmlns="http://www.w3.org/2000/svg">
<mask id="mask0_3018_37461" style="mask-type:luminance" maskUnits="userSpaceOnUse" x="0" y="0" width="77" height="77">
<path d="M75.2725 75.2725V1.25488H1.25488V75.2725H75.2725Z" fill="white" stroke="white" stroke-width="2.51"/>
</mask>
<g mask="url(#mask0_3018_37461)">
<path d="M59.8525 59.7109C59.8525 59.637 59.7926 59.5772 59.7188 59.5771C59.6631 59.5771 59.615 59.6109 59.5947 59.6592L59.585 59.7109C59.585 59.7849 59.6448 59.8447 59.7188 59.8447L59.7705 59.835C59.8188 59.8147 59.8525 59.7666 59.8525 59.7109Z" fill="#03303D" stroke="white" stroke-width="2.51"/>
<path d="M16.9521 16.8164C16.9521 16.7425 16.8922 16.6827 16.8184 16.6826C16.7628 16.6826 16.7146 16.7163 16.6943 16.7646L16.6846 16.8164C16.6846 16.8904 16.7444 16.9502 16.8184 16.9502L16.8701 16.9404C16.9184 16.9202 16.9521 16.872 16.9521 16.8164Z" fill="#03303D" stroke="white" stroke-width="2.51"/>
<path d="M16.9521 59.7109C16.9521 59.637 16.8922 59.5772 16.8184 59.5771C16.7628 59.5771 16.7146 59.6109 16.6943 59.6592L16.6846 59.7109C16.6846 59.7849 16.7444 59.8447 16.8184 59.8447L16.8701 59.835C16.9184 59.8147 16.9521 59.7666 16.9521 59.7109Z" fill="#03303D" stroke="white" stroke-width="2.51"/>
<path d="M59.8525 16.8164C59.8525 16.7425 59.7926 16.6827 59.7188 16.6826C59.6631 16.6826 59.615 16.7163 59.5947 16.7646L59.585 16.8164C59.585 16.8904 59.6448 16.9502 59.7188 16.9502L59.7705 16.9404C59.8188 16.9202 59.8525 16.872 59.8525 16.8164Z" fill="#03303D" stroke="white" stroke-width="2.51"/>
<path d="M12.4902 58.5547L1.66211 55.6534" stroke="white" stroke-width="2.51" stroke-miterlimit="10" stroke-linecap="round" stroke-linejoin="round"/>
<path d="M17.9766 64.047L20.8779 74.875" stroke="white" stroke-width="2.51" stroke-miterlimit="10" stroke-linecap="round" stroke-linejoin="round"/>
<path d="M12.4902 17.9776L1.66211 20.8789" stroke="white" stroke-width="2.51" stroke-miterlimit="10" stroke-linecap="round" stroke-linejoin="round"/>
<path d="M17.9766 12.4844L20.8779 1.6564" stroke="white" stroke-width="2.51" stroke-miterlimit="10" stroke-linecap="round" stroke-linejoin="round"/>
<path d="M64.0459 58.5547L74.874 55.6534" stroke="white" stroke-width="2.51" stroke-miterlimit="10" stroke-linecap="round" stroke-linejoin="round"/>
<path d="M58.5507 64.047L55.6494 74.875" stroke="white" stroke-width="2.51" stroke-miterlimit="10" stroke-linecap="round" stroke-linejoin="round"/>
<path d="M64.0459 17.9776L74.874 20.8789" stroke="white" stroke-width="2.51" stroke-miterlimit="10" stroke-linecap="round" stroke-linejoin="round"/>
<path d="M58.5507 12.4844L55.6494 1.6564" stroke="white" stroke-width="2.51" stroke-miterlimit="10" stroke-linecap="round" stroke-linejoin="round"/>
<path d="M31.5994 22.0852C32.1873 20.4375 32.5101 18.6636 32.5101 16.8138C32.5101 8.1462 25.4837 1.11976 16.8161 1.11976C8.14851 1.11976 1.12207 8.1462 1.12207 16.8138C1.12207 25.4815 8.14851 32.5078 16.8161 32.5078C18.6659 32.5078 20.4395 32.185 22.0875 31.5973" stroke="white" stroke-width="2.51" stroke-miterlimit="10" stroke-linecap="round" stroke-linejoin="round"/>
<path d="M22.0875 44.9291C20.4396 44.341 18.6659 44.0182 16.8161 44.0182C8.14851 44.0182 1.12207 51.0446 1.12207 59.7122C1.12207 68.3798 8.14851 75.4062 16.8161 75.4062C25.4837 75.4062 32.5101 68.3798 32.5101 59.7122C32.5101 57.8624 32.1873 56.0887 31.5994 54.441" stroke="white" stroke-width="2.51" stroke-miterlimit="10" stroke-linecap="round" stroke-linejoin="round"/>
<path d="M54.4441 31.597C56.092 32.185 57.8657 32.5078 59.7155 32.5078C68.3831 32.5078 75.4095 25.4814 75.4095 16.8138C75.4095 8.1462 68.3831 1.11976 59.7155 1.11976C51.0479 1.11976 44.0215 8.1462 44.0215 16.8138C44.0215 18.6636 44.3445 20.4373 44.9322 22.085" stroke="white" stroke-width="2.51" stroke-miterlimit="10" stroke-linecap="round" stroke-linejoin="round"/>
<path d="M44.9322 54.4408C44.3443 56.0885 44.0215 57.8624 44.0215 59.7122C44.0215 68.3798 51.0479 75.4062 59.7155 75.4062C68.3831 75.4062 75.4095 68.3798 75.4095 59.7122C75.4095 51.0445 68.3831 44.0182 59.7155 44.0182C57.8657 44.0182 56.092 44.341 54.4441 44.9289" stroke="white" stroke-width="2.51" stroke-miterlimit="10" stroke-linecap="round" stroke-linejoin="round"/>
<path d="M17.9834 21.1486L25.3771 28.5423C30.7471 33.9125 30.7471 42.6189 25.3771 47.989L17.9834 55.3828" stroke="white" stroke-width="2.51" stroke-miterlimit="10" stroke-linecap="round" stroke-linejoin="round"/>
<path d="M55.3835 17.9772L47.9898 25.3709C42.6197 30.7409 33.9131 30.7409 28.5431 25.3709L21.1494 17.9772" stroke="white" stroke-width="2.51" stroke-miterlimit="10" stroke-linecap="round" stroke-linejoin="round"/>
<path d="M58.5511 55.3828L51.1574 47.9891C45.7874 42.6189 45.7874 33.9125 51.1574 28.5424L58.5511 21.1486" stroke="white" stroke-width="2.51" stroke-miterlimit="10" stroke-linecap="round" stroke-linejoin="round"/>
<path d="M21.1494 58.5547L28.5431 51.161C33.9131 45.7908 42.6197 45.7908 47.9898 51.161L55.3836 58.5547" stroke="white" stroke-width="2.51" stroke-miterlimit="10" stroke-linecap="round" stroke-linejoin="round"/>
<path d="M38.2672 33.782C40.7436 33.782 42.7512 35.7896 42.7512 38.266C42.7512 40.7424 40.7436 42.75 38.2672 42.75C35.7908 42.75 33.7832 40.7424 33.7832 38.266C33.7832 35.7896 35.7908 33.782 38.2672 33.782Z" stroke="white" stroke-width="2.51" stroke-miterlimit="10" stroke-linecap="round" stroke-linejoin="round"/>
<path d="M59.7155 55.2312C62.1918 55.2312 64.1995 57.2388 64.1995 59.7152C64.1995 62.1916 62.1918 64.1992 59.7155 64.1992C57.2391 64.1992 55.2314 62.1916 55.2314 59.7152C55.2314 57.2388 57.2391 55.2312 59.7155 55.2312Z" stroke="white" stroke-width="2.51" stroke-miterlimit="10" stroke-linecap="round" stroke-linejoin="round"/>
<path d="M21.2991 16.8129C21.2991 19.2892 19.2914 21.2969 16.8151 21.2969C14.3387 21.2969 12.3311 19.2892 12.3311 16.8129C12.3311 14.3365 14.3387 12.3289 16.8151 12.3289C19.2914 12.3289 21.2991 14.3365 21.2991 16.8129Z" stroke="white" stroke-width="2.51" stroke-miterlimit="10" stroke-linecap="round" stroke-linejoin="round"/>
<path d="M21.2991 59.7152C21.2991 62.1916 19.2914 64.1992 16.8151 64.1992C14.3387 64.1992 12.3311 62.1916 12.3311 59.7152C12.3311 57.2388 14.3387 55.2312 16.8151 55.2312C19.2914 55.2312 21.2991 57.2388 21.2991 59.7152Z" stroke="white" stroke-width="2.51" stroke-miterlimit="10" stroke-linecap="round" stroke-linejoin="round"/>
<path d="M59.7155 12.3289C62.1918 12.3289 64.1995 14.3365 64.1995 16.8129C64.1995 19.2892 62.1918 21.2969 59.7155 21.2969C57.2391 21.2969 55.2314 19.2892 55.2314 16.8129C55.2314 14.3365 57.2391 12.3289 59.7155 12.3289Z" stroke="white" stroke-width="2.51" stroke-miterlimit="10" stroke-linecap="round" stroke-linejoin="round"/>
</g>
</svg>
