<svg width="71" height="71" viewBox="0 0 71 71" fill="none" xmlns="http://www.w3.org/2000/svg">
<path d="M53.2782 35.0762C53.2782 40.7243 52.532 46.0481 51.2148 50.7278" stroke="white" stroke-width="2.5" stroke-miterlimit="10"/>
<path d="M18.9422 50.7278C17.6251 46.0465 16.8789 40.7243 16.8789 35.0762" stroke="white" stroke-width="2.5" stroke-miterlimit="10"/>
<path d="M19.2634 18.3281C17.7467 23.2658 16.8789 28.9821 16.8789 35.0747" stroke="white" stroke-width="2.5" stroke-miterlimit="10"/>
<path d="M35.0781 68.9026C42.0905 68.9026 48.175 61.5301 51.2148 50.7285" stroke="white" stroke-width="2.5" stroke-miterlimit="10"/>
<path d="M35.0781 68.9026C28.0657 68.9026 21.9812 61.5301 18.9414 50.7285" stroke="white" stroke-width="2.5" stroke-miterlimit="10"/>
<path d="M50.8945 18.3281C52.4112 23.2658 53.279 28.9821 53.279 35.0747" stroke="white" stroke-width="2.5" stroke-miterlimit="10"/>
<path d="M35.0772 1.25C28.3049 1.25 22.3956 8.12772 19.2617 18.3291" stroke="white" stroke-width="2.5" stroke-miterlimit="10"/>
<path d="M35.0781 1.25C41.8504 1.25 47.7597 8.12772 50.8936 18.3291" stroke="white" stroke-width="2.5" stroke-miterlimit="10"/>
<path d="M8.84372 13.7246C4.09907 19.548 1.25391 26.9788 1.25391 35.0747" stroke="white" stroke-width="2.5" stroke-miterlimit="10"/>
<path d="M8.23153 55.6558C3.8551 49.9541 1.25 42.8201 1.25 35.0762" stroke="white" stroke-width="2.5" stroke-miterlimit="10"/>
<path d="M35.0802 68.902C24.1407 68.902 14.4178 63.708 8.23438 55.6543" stroke="white" stroke-width="2.5" stroke-miterlimit="10"/>
<path d="M35.0781 1.25C45.664 1.25 55.1111 6.11307 61.314 13.7256" stroke="white" stroke-width="2.5" stroke-miterlimit="10"/>
<path d="M35.0796 1.25C24.4938 1.25 15.0467 6.11307 8.84375 13.7256" stroke="white" stroke-width="2.5" stroke-miterlimit="10"/>
<path d="M61.3164 13.7246C66.0611 19.548 68.9062 26.9788 68.9062 35.0747" stroke="white" stroke-width="2.5" stroke-miterlimit="10"/>
<path d="M35.0781 68.902C46.0176 68.902 55.7405 63.708 61.9239 55.6543" stroke="white" stroke-width="2.5" stroke-miterlimit="10"/>
<path d="M61.9258 55.6558C66.3022 49.9541 68.9073 42.8201 68.9073 35.0762" stroke="white" stroke-width="2.5" stroke-miterlimit="10"/>
<path d="M8.84375 13.7246C11.6987 15.6095 15.2413 17.1813 19.2641 18.3281" stroke="white" stroke-width="2.5" stroke-miterlimit="10"/>
<path d="M61.3149 13.7246C58.46 15.6095 54.9173 17.1813 50.8945 18.3281" stroke="white" stroke-width="2.5" stroke-miterlimit="10"/>
<path d="M50.8927 18.3281C46.1724 19.6745 40.7919 20.4369 35.0772 20.4369C29.3626 20.4369 23.982 19.6728 19.2617 18.3281" stroke="white" stroke-width="2.5" stroke-miterlimit="10"/>
<path d="M18.9414 50.7285C23.738 49.3254 29.2353 48.5273 35.0781 48.5273C40.9209 48.5273 46.4182 49.3238 51.2148 50.7285" stroke="white" stroke-width="2.5" stroke-miterlimit="10"/>
<path d="M8.23438 55.6548C11.1152 53.6369 14.7617 51.9516 18.9435 50.7285" stroke="white" stroke-width="2.5" stroke-miterlimit="10"/>
<path d="M61.924 55.6548C59.0431 53.6369 55.3966 51.9516 51.2148 50.7285" stroke="white" stroke-width="2.5" stroke-miterlimit="10"/>
<path d="M1.25391 35.0762H16.8812" stroke="white" stroke-width="2.5" stroke-miterlimit="10"/>
<path d="M69.1041 35.0762H68.9062" stroke="white" stroke-width="2.5" stroke-miterlimit="10"/>
<path d="M68.9047 35.0762H53.2773" stroke="white" stroke-width="2.5" stroke-miterlimit="10"/>
<path d="M53.2773 35.0762H16.8789" stroke="white" stroke-width="2.5" stroke-miterlimit="10"/>
<path d="M35.0781 1.25V68.9031" stroke="white" stroke-width="2.5" stroke-miterlimit="10"/>
</svg>
