<svg width="72" height="63" viewBox="0 0 72 63" fill="none" xmlns="http://www.w3.org/2000/svg">
<path d="M34.9541 37.6445V62.8851" stroke="white" stroke-width="2.5095" stroke-miterlimit="10"/>
<path d="M30.9229 24.8867L35.3534 45.1597L39.1126 24.8867" stroke="white" stroke-width="2.5095" stroke-miterlimit="10"/>
<path d="M29.8545 12.6682V23.5431C29.8545 24.3486 30.5258 25.02 31.3314 25.02H39.3869C40.1924 25.02 40.8637 24.3486 40.8637 23.5431V12.6682C40.8637 11.8627 40.1924 11.1914 39.3869 11.1914H31.3314C30.5258 11.1914 29.8545 11.8627 29.8545 12.6682Z" stroke="white" stroke-width="2.5095" stroke-miterlimit="10"/>
<path d="M29.8518 12.269L1.25488 1.79688V4.88479L13.7409 22.204" stroke="white" stroke-width="2.5095" stroke-miterlimit="10"/>
<path d="M8.77246 35.3644L29.851 22.207" stroke="white" stroke-width="2.5095" stroke-miterlimit="10"/>
<path d="M41.3975 12.269L70.1286 1.79688V4.88479L57.6426 22.204" stroke="white" stroke-width="2.5095" stroke-miterlimit="10"/>
<path d="M62.4745 35.3644L41.5303 22.207" stroke="white" stroke-width="2.5095" stroke-miterlimit="10"/>
<path d="M37.6375 10.7895V6.76172H32.9385V10.7895" stroke="white" stroke-width="2.5095" stroke-miterlimit="10"/>
</svg>
