<svg width="204" height="36" viewBox="0 0 204 36" fill="none" xmlns="http://www.w3.org/2000/svg">
<path d="M163.183 4.16211V7.89596C163.183 7.89596 162.963 11.6737 166.038 11.6737C169.113 11.6737 171.617 11.6737 171.617 11.6737C171.617 11.6737 173.55 11.542 173.55 14.573" stroke="#03303D" stroke-width="1.10236" stroke-miterlimit="10"/>
<path d="M167.136 6.8418V7.89606C167.136 7.89606 166.917 11.6738 169.992 11.6738" stroke="#03303D" stroke-width="1.10236" stroke-miterlimit="10"/>
<path d="M186.906 4.16211V7.89596C186.906 7.89596 187.126 11.6737 184.051 11.6737C180.976 11.6737 178.472 11.6737 178.472 11.6737C178.472 11.6737 176.539 11.542 176.539 14.573" stroke="#03303D" stroke-width="1.10236" stroke-miterlimit="10"/>
<path d="M182.949 6.8418V7.89606C182.949 7.89606 183.169 11.6738 180.094 11.6738" stroke="#03303D" stroke-width="1.10236" stroke-miterlimit="10"/>
<path d="M181.855 14.0898L177.945 17.2526L176.32 24.2371H174.212L172.542 17.2526L168.633 14.0898" stroke="#03303D" stroke-width="1.10236" stroke-miterlimit="10"/>
<path d="M181.719 16.7256H197.928C198.938 16.7256 200.037 16.6817 200.959 17.1649C201.925 17.6921 202.716 18.8342 202.716 19.9763C202.716 22.2166 202.716 34.6481 202.716 34.6481" stroke="#03303D" stroke-width="1.10236" stroke-miterlimit="10"/>
<path d="M189.937 25.4677C189.586 25.4677 184.402 25.4677 184.402 25.4677C182.865 25.4677 181.635 24.2816 181.547 22.7441" stroke="#03303D" stroke-width="1.10236" stroke-miterlimit="10"/>
<path d="M183.742 25.4668V34.6477" stroke="#03303D" stroke-width="1.10236" stroke-miterlimit="10"/>
<path d="M185.852 25.4668V34.6477" stroke="#03303D" stroke-width="1.10236" stroke-miterlimit="10"/>
<path d="M200.477 27.3564V34.6484" stroke="#03303D" stroke-width="1.10236" stroke-miterlimit="10"/>
<path d="M192.393 19.8008C192.393 19.8008 190.943 27.9274 202.672 27.9274" stroke="#03303D" stroke-width="1.10236" stroke-miterlimit="10"/>
<path d="M6.9375 1.21875V34.6477" stroke="#03303D" stroke-width="1.10236" stroke-miterlimit="10"/>
<path d="M0.390625 7.32452L6.93585 0.779297L13.525 7.36845" stroke="#03303D" stroke-width="1.10236" stroke-miterlimit="10"/>
<path d="M0.390625 11.761L6.93585 5.21582L13.525 11.805" stroke="#03303D" stroke-width="1.10236" stroke-miterlimit="10"/>
<path d="M0.390625 16.1976L6.93585 9.65234L13.525 16.2415" stroke="#03303D" stroke-width="1.10236" stroke-miterlimit="10"/>
<path d="M0.390625 20.5911L6.93585 14.0898L13.525 20.679" stroke="#03303D" stroke-width="1.10236" stroke-miterlimit="10"/>
<path d="M0.390625 25.0276L6.93585 18.4824L13.525 25.0716" stroke="#03303D" stroke-width="1.10236" stroke-miterlimit="10"/>
<path d="M0.390625 29.4642L6.93585 22.9189L13.525 29.5081" stroke="#03303D" stroke-width="1.10236" stroke-miterlimit="10"/>
<path d="M34.2587 26.4334L30.2612 19.4489H32.4576L29.207 13.7822H31.0519L26.8349 6.49023L22.6178 13.7822H24.4628L21.1682 19.4489H23.4085L19.3672 26.4334H34.2587Z" stroke="#03303D" stroke-width="1.10236" stroke-miterlimit="10"/>
<path d="M26.8359 6.92969V34.648" stroke="#03303D" stroke-width="1.10236" stroke-miterlimit="10"/>
<path d="M136.962 26.4334L132.964 19.4489H135.161L131.91 13.7822H133.755L129.538 6.49023L125.321 13.7822H127.166L123.871 19.4489H126.112L122.07 26.4334H136.962Z" stroke="#03303D" stroke-width="1.10236" stroke-miterlimit="10"/>
<path d="M129.539 6.92969V34.648" stroke="#03303D" stroke-width="1.10236" stroke-miterlimit="10"/>
<path d="M110.602 31.1338L114.16 34.648L117.85 31.1338" stroke="#03303D" stroke-width="1.21715" stroke-miterlimit="10"/>
<path d="M114.25 28.7617V34.648" stroke="#03303D" stroke-width="1.21715" stroke-miterlimit="10"/>
<path d="M141.227 31.1338L144.785 34.648L148.431 31.1338" stroke="#03303D" stroke-width="1.21715" stroke-miterlimit="10"/>
<path d="M144.828 28.7617V34.648" stroke="#03303D" stroke-width="1.21715" stroke-miterlimit="10"/>
<path d="M161.602 31.1338L165.16 34.648L168.85 31.1338" stroke="#03303D" stroke-width="1.21715" stroke-miterlimit="10"/>
<path d="M165.203 28.7617V34.648" stroke="#03303D" stroke-width="1.21715" stroke-miterlimit="10"/>
<path d="M151.414 31.1338L154.972 34.648L158.618 31.1338" stroke="#03303D" stroke-width="1.21715" stroke-miterlimit="10"/>
<path d="M155.016 28.7617V34.648" stroke="#03303D" stroke-width="1.21715" stroke-miterlimit="10"/>
<path d="M49.4609 31.1338L53.0191 34.648L56.6651 31.1338" stroke="#03303D" stroke-width="1.21715" stroke-miterlimit="10"/>
<path d="M53.0625 28.7617V34.648" stroke="#03303D" stroke-width="1.21715" stroke-miterlimit="10"/>
<path d="M39.2656 31.1338L42.8238 34.648L46.4698 31.1338" stroke="#03303D" stroke-width="1.21715" stroke-miterlimit="10"/>
<path d="M42.8672 28.7617V34.648" stroke="#03303D" stroke-width="1.21715" stroke-miterlimit="10"/>
<path d="M68.5703 11.585V34.7788" stroke="#03303D" stroke-width="1.21715" stroke-miterlimit="10"/>
<path d="M68.5677 20.5904C73.5411 20.5904 77.5728 16.5587 77.5728 11.5852C77.5728 6.61183 73.5411 2.58008 68.5677 2.58008C63.5943 2.58008 59.5625 6.61183 59.5625 11.5852C59.5625 16.5587 63.5943 20.5904 68.5677 20.5904Z" stroke="#03303D" stroke-width="1.21715" stroke-miterlimit="10"/>
<path d="M75.0703 18.0869V34.7794" stroke="#03303D" stroke-width="1.21715" stroke-miterlimit="10"/>
<path d="M75.0716 24.5875C78.6622 24.5875 81.5729 21.6768 81.5729 18.0862C81.5729 14.4957 78.6622 11.585 75.0716 11.585C71.481 11.585 68.5703 14.4957 68.5703 18.0862C68.5703 21.6768 71.481 24.5875 75.0716 24.5875Z" stroke="#03303D" stroke-width="1.21715" stroke-miterlimit="10"/>
<path d="M93.1719 11.585V34.7788" stroke="#03303D" stroke-width="1.21715" stroke-miterlimit="10"/>
<path d="M93.1692 20.5904C98.1426 20.5904 102.174 16.5587 102.174 11.5852C102.174 6.61183 98.1426 2.58008 93.1692 2.58008C88.1958 2.58008 84.1641 6.61183 84.1641 11.5852C84.1641 16.5587 88.1958 20.5904 93.1692 20.5904Z" stroke="#03303D" stroke-width="1.21715" stroke-miterlimit="10"/>
<path d="M99.6719 18.0869V34.7794" stroke="#03303D" stroke-width="1.21715" stroke-miterlimit="10"/>
<path d="M99.6732 24.5875C103.264 24.5875 106.174 21.6768 106.174 18.0862C106.174 14.4957 103.264 11.585 99.6732 11.585C96.0826 11.585 93.1719 14.4957 93.1719 18.0862C93.1719 21.6768 96.0826 24.5875 99.6732 24.5875Z" stroke="#03303D" stroke-width="1.21715" stroke-miterlimit="10"/>
</svg>
