<svg width="138" height="49" viewBox="0 0 138 49" fill="none" xmlns="http://www.w3.org/2000/svg">
<g clip-path="url(#clip0_2824_33524)">
<path d="M24.8648 48.6948C22.1226 48.7344 19.3927 48.3239 16.7848 47.4797C14.3189 46.6598 11.9993 45.456 9.91236 43.9134C5.72857 40.8205 2.6398 36.4864 1.09101 31.5355C0.369114 29.2116 0.00136006 26.7933 0 24.3611C0 13.509 6.43418 4.73916 15.9129 1.43252C23.1863 -1.29442 32.5206 -0.102544 39.2252 4.76699C40.223 5.48577 41.1588 6.28623 42.0226 7.16001L38.2227 10.8701C38.2973 10.7959 36.6562 9.51594 36.5349 9.41855C35.6615 8.72848 34.7249 8.12139 33.7375 7.60523C31.4706 6.45815 29.0119 5.73355 26.4827 5.46727C23.1957 5.11481 19.7175 5.4209 16.6916 6.85857C15.2362 7.46778 13.9779 8.46428 13.0548 9.73855C12.2271 10.9446 11.86 12.4052 12.0198 13.8568C12.1149 14.5726 12.3543 15.2619 12.7238 15.8834C13.4745 17.1634 14.8126 18.2904 16.7009 19.2365C19.6848 20.7344 23.0138 21.277 26.3242 21.444C29.8723 21.6202 33.4297 21.444 36.9779 21.444H44.7968H47.4078L47.4637 24.1663C47.4637 24.5976 47.5243 25.7338 47.5243 27.0694C47.6327 29.782 47.1869 32.4883 46.2141 35.0247C45.2412 37.5611 43.7614 39.875 41.8641 41.8264C39.7331 43.9929 37.1762 45.6995 34.3529 46.8397C31.3719 48.0531 28.1836 48.683 24.9627 48.6948H24.8648ZM24.3193 43.4125C29.6065 43.5516 34.67 41.6177 38.0362 38.1488C39.4539 36.7099 40.5582 34.9958 41.2802 33.1135C42.0021 31.2312 42.3263 29.2211 42.2324 27.2086V26.7448L34.9683 26.7541L32.7584 26.7819C26.6366 26.8747 20.3003 26.9767 14.309 23.9715C11.4883 22.5802 9.41348 20.7251 8.13131 18.5686C7.66038 17.7657 7.29675 16.9051 7.04962 16.0086C5.88346 18.6376 5.29226 21.483 5.31519 24.3564C5.32595 29.3811 7.32663 34.1993 10.8838 37.767C14.4409 41.3347 19.268 43.3647 24.3193 43.4172V43.4125Z" fill="#59c09a
"/>
<path d="M69.3928 20.4389C67.3602 20.4366 65.3841 19.7738 63.7652 18.5514L61.9375 21.3758C63.8305 22.8923 66.7025 23.6946 69.3974 23.6946C73.1927 23.6946 76.6195 21.8395 76.6195 17.9717C76.6195 14.9155 74.1484 13.5706 70.9966 13.0558L70.0035 12.8935C67.8821 12.541 66.3575 12.1561 66.3575 10.8622C66.3575 9.5683 67.7562 8.75671 69.7378 8.75671C71.5034 8.77003 73.2305 9.27097 74.7266 10.2037L76.3911 7.34686C74.3675 6.09798 72.0257 5.45405 69.6445 5.4918C65.8866 5.4918 62.6042 7.39788 62.6042 11.057C62.6042 14.2291 64.8748 15.5972 67.9894 16.0842L69.113 16.2604C71.5701 16.65 72.843 17.0998 72.843 18.3195C72.857 19.6737 71.3323 20.4389 69.3928 20.4389Z" fill="#03303D"/>
<path d="M83.5667 23.6526C84.2636 23.6789 84.9569 23.5429 85.5916 23.2555C86.2262 22.968 86.7846 22.5371 87.2221 21.9969V23.3372H90.4485V11.1912H87.2314V12.5222C86.7961 11.9787 86.2385 11.5445 85.6036 11.2545C84.9687 10.9645 84.2742 10.8269 83.576 10.8527C80.2098 10.8527 77.6641 13.5982 77.6641 17.248C77.6641 20.8978 80.1911 23.6526 83.5667 23.6526ZM84.1728 13.9135C86.0378 13.9135 87.3247 15.3466 87.3247 17.2619C87.3247 19.1772 86.0518 20.6149 84.1728 20.6149C82.2939 20.6149 81.021 19.1216 81.021 17.2619C81.021 15.4022 82.2426 13.9135 84.1728 13.9135Z" fill="#03303D"/>
<path d="M98.1431 23.6518C99.0815 23.6793 100.013 23.4882 100.864 23.0936C101.715 22.699 102.461 22.112 103.043 21.3793L100.712 19.3851C100.381 19.7654 99.9723 20.0716 99.5134 20.2834C99.0545 20.4952 98.5557 20.6079 98.0498 20.6141C96.3481 20.6141 94.996 19.297 94.996 17.2611C94.996 15.2252 96.3527 13.9127 98.0545 13.9127C98.5532 13.9122 99.0458 14.0212 99.4972 14.2321C99.9485 14.4429 100.347 14.7504 100.665 15.1324L103.043 13.1614C102.467 12.423 101.724 11.8303 100.874 11.4314C100.024 11.0325 99.0917 10.8387 98.1524 10.8658C94.2546 10.8658 91.625 13.5881 91.625 17.2611C91.625 20.9341 94.2453 23.6518 98.1431 23.6518Z" fill="#03303D"/>
<path d="M107.198 16.7235C107.198 14.9195 108.247 13.992 109.772 13.992C110.454 13.9933 111.129 14.124 111.762 14.3769L112.257 11.1305C111.704 10.9444 111.124 10.8549 110.541 10.8662C109.04 10.8662 107.869 11.381 107.1 12.5218V11.1908H103.906V23.3461H107.198V16.7235Z" fill="#03303D"/>
<path d="M118.428 23.652C120.34 23.7232 122.205 23.0588 123.636 21.7969L121.692 19.71C120.827 20.4341 119.74 20.8431 118.61 20.8694C117.058 20.8694 115.813 20.1042 115.472 18.3511H124.135C124.177 17.9847 124.197 17.6161 124.196 17.2474C124.196 13.4584 121.776 10.8613 118.256 10.8613C114.601 10.8613 112.078 13.4723 112.078 17.2984C112.078 21.1244 114.698 23.652 118.428 23.652ZM118.237 13.681C119.636 13.681 120.596 14.5575 120.899 16.1111H115.482C115.775 14.6178 116.68 13.6903 118.233 13.6903L118.237 13.681Z" fill="#03303D"/>
<path d="M130.789 23.652C131.486 23.678 132.18 23.5418 132.815 23.2544C133.451 22.967 134.01 22.5363 134.449 21.9963V23.3366H137.661V5.39355H134.397V12.4613C133.962 11.9381 133.411 11.5218 132.788 11.2451C132.164 10.9684 131.485 10.8386 130.803 10.866C127.436 10.866 124.891 13.6115 124.891 17.2613C124.891 20.9111 127.422 23.652 130.789 23.652ZM131.395 13.9129C133.26 13.9129 134.547 15.3459 134.547 17.2613C134.547 19.1766 133.274 20.6143 131.395 20.6143C129.516 20.6143 128.243 19.121 128.243 17.2613C128.243 15.4016 129.464 13.9129 131.395 13.9129Z" fill="#03303D"/>
<path d="M71.3386 33.6278V36.5496H75.8239C75.3577 39.0446 73.6838 40.4266 70.8071 40.4266C67.7579 40.4266 65.2961 38.182 65.2961 34.5925C65.2961 31.1699 67.6273 28.8093 70.891 28.8093C71.6945 28.7899 72.4925 28.9459 73.2288 29.2664C73.9651 29.5869 74.6217 30.0641 75.1525 30.6644L77.6842 28.1925C76.1223 26.4998 73.7911 25.498 70.989 25.498C65.5665 25.498 61.6641 29.2963 61.6641 34.6018C61.6641 40.2736 66.0001 43.6962 70.891 43.6962C75.8985 43.6962 79.5166 39.9443 79.5166 34.6296C79.5178 34.2981 79.5007 33.9667 79.4653 33.6371L71.3386 33.6278Z" fill="#03303D"/>
<path d="M87.5284 30.8921C86.0318 30.8921 84.8569 31.4068 84.0876 32.5477V31.2213H80.8984V43.372H84.1901V36.7494C84.1901 34.9454 85.2345 34.0178 86.7638 34.0178C87.4465 34.0184 88.1226 34.1507 88.7547 34.4074L89.2209 31.1611C88.6765 30.9752 88.104 30.8842 87.5284 30.8921Z" fill="#03303D"/>
<path d="M95.4021 30.8916C91.6068 30.8916 88.8047 33.6278 88.8047 37.2916C88.8047 40.9553 91.6022 43.6869 95.4021 43.6869C99.202 43.6869 102.018 40.9553 102.018 37.2916C102.018 33.6278 99.2066 30.8916 95.4021 30.8916ZM95.4021 40.6307C94.7323 40.651 94.0716 40.472 93.5047 40.1166C92.9378 39.7613 92.4904 39.2457 92.2198 38.6359C91.9493 38.0262 91.8678 37.3499 91.9859 36.6938C92.1039 36.0377 92.4162 35.4316 92.8826 34.9531C93.3491 34.4745 93.9485 34.1454 94.6041 34.0077C95.2597 33.87 95.9418 33.9301 96.5629 34.1802C97.184 34.4304 97.7159 34.8592 98.0905 35.4119C98.4652 35.9645 98.6655 36.6158 98.6658 37.2823C98.691 37.7203 98.6247 38.1589 98.4711 38.5702C98.3175 38.9815 98.0799 39.3567 97.7733 39.6722C97.4667 39.9876 97.0977 40.2365 96.6896 40.403C96.2814 40.5696 95.8431 40.6503 95.4021 40.6399V40.6307Z" fill="#03303D"/>
<path d="M111.279 31.2207L108.09 39.9256L104.925 31.2207H101.344L106.174 43.376H109.969L114.748 31.2207H111.279Z" fill="#03303D"/>
<path d="M120.264 30.8916C116.604 30.8916 114.086 33.5026 114.086 37.3287C114.086 41.1547 116.683 43.6869 120.427 43.6869C122.338 43.7596 124.204 43.095 125.635 41.8318L123.705 39.7217C122.84 40.4541 121.748 40.8669 120.613 40.8904C119.065 40.8904 117.816 40.1252 117.476 38.3675H126.138C126.182 38.0012 126.204 37.6326 126.204 37.2637C126.19 33.4887 123.779 30.8916 120.264 30.8916ZM117.494 36.1739C117.783 34.6666 118.692 33.7391 120.24 33.7391C121.639 33.7391 122.6 34.6156 122.903 36.1739H117.494Z" fill="#03303D"/>
<path d="M133.616 35.9239L132.534 35.7616C131.425 35.5993 130.543 35.423 130.543 34.7181C130.543 34.0132 131.173 33.6143 132.408 33.6143C133.762 33.6748 135.089 34.0127 136.306 34.6068L137.416 32.0607C135.833 31.2714 134.081 30.8752 132.31 30.906C129.093 30.906 127.154 32.3854 127.154 34.8804C127.154 36.9535 128.552 38.1824 131.378 38.5905L132.371 38.725C133.77 38.9291 134.404 39.2537 134.404 39.8427C134.404 40.5569 133.672 40.9836 132.147 40.9836C130.669 41.0237 129.214 40.6073 127.984 39.7917L126.688 42.2775C128.273 43.3905 130.455 43.7059 132.119 43.7059C135.663 43.7059 137.714 42.0873 137.714 39.5784C137.742 37.5053 136.264 36.3274 133.616 35.9239Z" fill="#03303D"/>
</g>
<defs>
<clipPath id="clip0_2824_33524">
<rect width="137.743" height="48.7139" fill="white"/>
</clipPath>
</defs>
</svg>
