<svg width="100" height="47" viewBox="0 0 100 47" fill="none" xmlns="http://www.w3.org/2000/svg">
<path d="M88.2109 40.8428L84.2166 44.8002L80.1363 40.8428" stroke="#03303D" stroke-width="1.1" stroke-miterlimit="10"/>
<path d="M84.1719 38.2471V44.8003" stroke="#03303D" stroke-width="1.1" stroke-miterlimit="10"/>
<path d="M99.5508 40.8428L95.5994 44.8002L91.4762 40.8428" stroke="#03303D" stroke-width="1.1" stroke-miterlimit="10"/>
<path d="M95.5117 38.2471V44.8003" stroke="#03303D" stroke-width="1.1" stroke-miterlimit="10"/>
<path d="M53.8086 40.8428L49.8572 44.8002L45.734 40.8428" stroke="#03303D" stroke-width="1.1" stroke-miterlimit="10"/>
<path d="M49.7695 38.2471V44.8003" stroke="#03303D" stroke-width="1.1" stroke-miterlimit="10"/>
<path d="M65.1914 40.8428L61.24 44.8002L57.1168 40.8428" stroke="#03303D" stroke-width="1.1" stroke-miterlimit="10"/>
<path d="M61.1523 38.2471V44.8003" stroke="#03303D" stroke-width="1.1" stroke-miterlimit="10"/>
<path d="M76.7891 40.8428L72.8376 44.8002L68.7144 40.8428" stroke="#03303D" stroke-width="1.1" stroke-miterlimit="10"/>
<path d="M72.75 38.2471V44.8003" stroke="#03303D" stroke-width="1.1" stroke-miterlimit="10"/>
<path d="M23.1415 35.6943L28.5532 26.4177H25.5467L29.9276 18.8857H27.4794L33.1488 9.18359L38.8183 18.8857H36.3271L40.7081 26.4177H37.7016L43.1133 35.6943H23.1415Z" stroke="#03303D" stroke-width="1.1" stroke-miterlimit="10"/>
<path d="M33.1484 9.65137V46.545" stroke="#03303D" stroke-width="1.1" stroke-miterlimit="10"/>
<path d="M9.65631 32.3316C4.62752 32.3316 0.550896 28.2927 0.550896 23.3104C0.550896 18.328 4.62752 14.2891 9.65631 14.2891C14.6851 14.2891 18.7617 18.328 18.7617 23.3104C18.7617 28.2927 14.6851 32.3316 9.65631 32.3316Z" stroke="#03303D" stroke-width="1.1" stroke-miterlimit="10"/>
<path d="M9.65625 14.2891V46.5444" stroke="#03303D" stroke-width="1.1" stroke-miterlimit="10"/>
<path d="M17.3438 18.502L9.56978 26.2041L1.92463 18.6296" stroke="#03303D" stroke-width="1.1" stroke-miterlimit="10"/>
<path d="M66.3945 0.544922C66.3945 0.544922 64.5477 0.800241 63.8605 2.24705" stroke="#03303D" stroke-width="1.1" stroke-miterlimit="10"/>
<path d="M59.7355 0.544922C59.7355 0.544922 61.5823 0.800241 62.2695 2.24705" stroke="#03303D" stroke-width="1.1" stroke-miterlimit="10"/>
<path d="M63.0009 3.39645C62.2707 3.39645 61.5835 3.65176 61.0681 4.0773C61.0681 4.03474 61.0681 3.99219 61.0681 3.94964C61.0681 2.84325 61.9701 1.99219 63.0438 1.99219C64.1176 1.99219 65.0195 2.88581 65.0195 3.94964C65.0195 4.03474 65.0195 4.0773 65.0195 4.1624C64.5041 3.69432 63.774 3.39645 63.0009 3.39645Z" stroke="#03303D" stroke-width="1.1" stroke-miterlimit="10"/>
<path d="M60.5104 8.20459C60.1668 7.6514 59.952 7.05565 59.952 6.3748C59.952 4.71522 61.3264 3.35352 63.0015 3.35352C64.6765 3.35352 66.0509 4.71522 66.0509 6.3748C66.0509 7.0131 65.8362 7.6514 65.4926 8.20459C66.0509 8.97055 66.4375 9.99182 66.4375 11.1408C66.4375 13.4812 64.9342 14.9706 63.0444 14.9706C61.1546 14.9706 59.6514 13.4812 59.6514 11.1408C59.6084 9.99182 59.952 8.97055 60.5104 8.20459Z" stroke="#03303D" stroke-width="1.1" stroke-miterlimit="10"/>
<path d="M66.0077 6.37496C66.0077 5.94943 65.9218 5.5239 65.75 5.14092L72.622 3.05581C72.7938 3.01326 72.9656 2.9707 73.1374 2.9707H73.1804C74.0394 2.9707 74.7266 3.65156 74.7266 4.50262C74.7266 5.14092 74.34 5.65156 73.8246 5.90688C73.524 6.03454 73.3522 6.33241 73.3522 6.67284C73.3522 7.73667 72.5361 8.63029 71.5053 8.8005C70.9469 8.88561 70.3886 8.84305 69.8732 8.67284C69.3148 8.50263 68.7565 8.33241 68.1981 8.1622C67.5968 7.99199 66.9955 7.77922 66.3942 7.60901C66.3513 7.60901 66.0936 7.5239 65.8788 7.48135C65.9647 7.14092 66.0077 6.75794 66.0077 6.37496Z" stroke="#03303D" stroke-width="1.1" stroke-miterlimit="10"/>
<path d="M52.9094 3.01367C53.1242 3.01367 53.296 3.01367 53.4678 3.09878L60.2539 5.18389C60.0821 5.56687 59.9962 5.9924 59.9962 6.41793C59.9962 6.80091 60.0821 7.18389 60.211 7.52432C59.9962 7.56687 59.7815 7.65198 59.7815 7.65198C59.1802 7.82219 58.5789 8.03496 57.9776 8.20517C57.4192 8.37538 56.8608 8.5456 56.3025 8.71581C55.7871 8.88602 55.2287 8.92858 54.6704 8.84347C53.5966 8.67326 52.8235 7.77964 52.8235 6.71581C52.8235 6.37538 52.6517 6.12006 52.3511 5.94985C51.8357 5.69453 51.4491 5.18389 51.4491 4.54559C51.3203 3.69452 52.0504 3.01367 52.9094 3.01367Z" stroke="#03303D" stroke-width="1.1" stroke-miterlimit="10"/>
<path d="M66.0078 5.43848H59.9518" stroke="#03303D" stroke-width="1.1" stroke-miterlimit="10"/>
<path d="M66.0078 7.94922H59.9518" stroke="#03303D" stroke-width="1.1" stroke-miterlimit="10"/>
<path d="M66.0078 10.46H59.9518" stroke="#03303D" stroke-width="1.1" stroke-miterlimit="10"/>
</svg>
