<svg width="166" height="114" viewBox="0 0 166 114" fill="none" xmlns="http://www.w3.org/2000/svg">
<path d="M150.369 112.391H129.572C124.373 112.391 120.213 109.388 119.52 104.882L112.588 70.338C126.799 62.528 142.397 56.2199 154.528 45.7066C156.954 43.6039 159.381 41.5012 161.114 39.0981C164.58 34.292 165.966 27.3832 160.421 23.1779C156.608 20.1741 151.062 19.8737 146.209 19.2729C141.01 18.3718 135.464 17.771 130.265 17.1702C130.265 8.45914 121.946 1.25 111.895 1.25C101.843 1.25 93.8704 7.55803 93.5237 17.771C6.17674 29.1856 1.32422 111.791 1.32422 111.791H84.5118" stroke="white" stroke-width="2.5" stroke-miterlimit="10"/>
<path d="M2.36328 112.091C29.0526 111.491 54.7022 102.179 75.1524 86.8594C81.7381 81.7529 90.057 74.2433 91.0969 66.133C92.1367 58.9238 85.2043 51.1138 76.8855 49.9122C65.7938 48.4103 55.0487 54.7184 46.73 60.4256C33.9052 69.1367 21.7737 80.251 12.7617 92.2663C10.3354 95.2701 8.25578 98.5744 6.5227 101.879C6.5227 103.08 2.7099 112.091 2.36328 112.091Z" stroke="white" stroke-width="2.5" stroke-miterlimit="10"/>
</svg>
