<svg width="93" height="70" viewBox="0 0 93 70" fill="none" xmlns="http://www.w3.org/2000/svg">
<path d="M1.25781 0V8.5C1.25781 8.5 0.757812 17.1 7.75781 17.1C14.7578 17.1 20.4578 17.1 20.4578 17.1C20.4578 17.1 24.8578 16.8 24.8578 23.7" stroke="#03303D" stroke-width="2.5" stroke-miterlimit="10"/>
<path d="M10.1562 6.09961V8.49963C10.1562 8.49963 9.65625 17.0996 16.6562 17.0996" stroke="#03303D" stroke-width="2.5" stroke-miterlimit="10"/>
<path d="M55.2563 0V8.5C55.2563 8.5 55.7563 17.1 48.7563 17.1C41.7563 17.1 36.0563 17.1 36.0563 17.1C36.0563 17.1 31.6562 16.8 31.6562 23.7" stroke="#03303D" stroke-width="2.5" stroke-miterlimit="10"/>
<path d="M46.2578 6.09961V8.49963C46.2578 8.49963 46.7578 17.0996 39.7578 17.0996" stroke="#03303D" stroke-width="2.5" stroke-miterlimit="10"/>
<path d="M43.7563 22.5996L34.8563 29.7996L31.0563 45.6996H26.2563L22.5563 29.7996L13.6562 22.5996" stroke="#03303D" stroke-width="2.5" stroke-miterlimit="10"/>
<path d="M43.3594 28.6H80.2594C82.5594 28.6 85.0594 28.5 87.1594 29.6C89.3594 30.8 91.1594 33.4 91.1594 36C91.1594 41.1 91.1594 69.4 91.1594 69.4" stroke="#03303D" stroke-width="2.5" stroke-miterlimit="10"/>
<path d="M62.1586 48.5008C61.3586 48.5008 49.5586 48.5008 49.5586 48.5008C46.0586 48.5008 43.2586 45.8008 43.0586 42.3008" stroke="#03303D" stroke-width="2.5" stroke-miterlimit="10"/>
<path d="M47.957 48.5V69.4" stroke="#03303D" stroke-width="2.5" stroke-miterlimit="10"/>
<path d="M52.8594 48.5V69.4" stroke="#03303D" stroke-width="2.5" stroke-miterlimit="10"/>
<path d="M86.1562 52.8008V69.4008" stroke="#03303D" stroke-width="2.5" stroke-miterlimit="10"/>
<path d="M67.7585 35.5996C67.7585 35.5996 64.4585 54.0996 91.1585 54.0996" stroke="#03303D" stroke-width="2.5" stroke-miterlimit="10"/>
</svg>
