<svg width="60" height="38" viewBox="0 0 60 38" fill="none" xmlns="http://www.w3.org/2000/svg">
<path d="M21.6484 1.23828C21.6484 1.23828 26.1484 1.83829 27.7484 5.43829" stroke="#03303D" stroke-width="2.5" stroke-miterlimit="10"/>
<path d="M37.7484 1.23828C37.7484 1.23828 33.2484 1.83829 31.6484 5.43829" stroke="#03303D" stroke-width="2.5" stroke-miterlimit="10"/>
<path d="M29.8492 8.13831C31.6492 8.13831 33.2492 8.73832 34.5492 9.83832C34.5492 9.73832 34.5492 9.63833 34.5492 9.53833C34.5492 6.83833 32.3492 4.73828 29.7492 4.73828C27.1492 4.73828 24.9492 6.93833 24.9492 9.53833C24.9492 9.73833 24.9492 9.93833 24.9492 10.0383C26.2492 8.83833 27.9492 8.13831 29.8492 8.13831Z" stroke="#03303D" stroke-width="2.5" stroke-miterlimit="10"/>
<path d="M35.8508 20.0387C36.7508 18.7387 37.2508 17.1387 37.2508 15.5387C37.2508 11.4387 33.9508 8.13867 29.8508 8.13867C25.7508 8.13867 22.4508 11.4387 22.4508 15.5387C22.4508 17.1387 22.9508 18.7387 23.8508 20.0387C22.4508 21.9387 21.5508 24.4386 21.5508 27.2386C21.5508 33.0386 25.2508 36.6387 29.7508 36.6387C34.2508 36.6387 37.9508 33.0386 37.9508 27.2386C38.1508 24.3386 37.2508 21.8387 35.8508 20.0387Z" stroke="#03303D" stroke-width="2.5" stroke-miterlimit="10"/>
<path d="M22.45 15.5387C22.45 14.4387 22.65 13.4387 23.05 12.5387L6.35 7.33868C5.95 7.23868 5.55 7.13867 5.15 7.13867H5.05C2.95 7.13867 1.25 8.83866 1.25 10.9387C1.25 12.4387 2.15 13.7387 3.45 14.3387C4.15 14.6387 4.65 15.3387 4.65 16.1387C4.65 18.7387 6.65 20.9387 9.15 21.3387C10.45 21.5387 11.85 21.4387 13.15 21.0387C14.55 20.6387 15.85 20.1386 17.25 19.7386C18.75 19.2386 20.25 18.8387 21.65 18.3387C21.75 18.3387 22.35 18.1387 22.95 17.9387C22.65 17.3387 22.45 16.4387 22.45 15.5387Z" stroke="#03303D" stroke-width="2.5" stroke-miterlimit="10"/>
<path d="M54.3508 7.23828H54.2508C53.8508 7.23828 53.4508 7.23829 53.0508 7.43829L36.5508 12.5383C36.9508 13.4383 37.2508 14.5383 37.2508 15.5383C37.2508 16.5383 37.0508 17.4383 36.7508 18.3383C37.2508 18.4383 37.7508 18.6383 37.8508 18.6383C39.3508 19.1383 40.8508 19.5383 42.2508 20.0383C43.6508 20.4383 44.9508 20.9383 46.3508 21.3383C47.6508 21.7383 49.0508 21.8383 50.3508 21.6383C52.9508 21.2383 54.8508 19.0383 54.8508 16.4383C54.8508 15.6383 55.3508 14.9383 56.0508 14.6383C57.3508 14.0383 58.2508 12.7383 58.2508 11.2383C58.1508 8.93828 56.4508 7.23828 54.3508 7.23828Z" stroke="#03303D" stroke-width="2.5" stroke-miterlimit="10"/>
<path d="M22.4492 13.2383H37.2492" stroke="#03303D" stroke-width="2.5" stroke-miterlimit="10"/>
<path d="M22.4492 19.3379H37.2492" stroke="#03303D" stroke-width="2.5" stroke-miterlimit="10"/>
<path d="M22.4492 25.5391H37.2492" stroke="#03303D" stroke-width="2.5" stroke-miterlimit="10"/>
</svg>
