<svg width="302" height="82" viewBox="0 0 302 82" fill="none" xmlns="http://www.w3.org/2000/svg">
<path d="M45.1016 35.6992V54.4993" stroke="#03303D" stroke-width="2.5095" stroke-miterlimit="10"/>
<path d="M42.1016 26.1992L45.4016 41.2993L48.2016 26.1992" stroke="#03303D" stroke-width="2.5095" stroke-miterlimit="10"/>
<path d="M41.3008 17.1V25.2C41.3008 25.8 41.8008 26.3 42.4008 26.3H48.4008C49.0008 26.3 49.5008 25.8 49.5008 25.2V17.1C49.5008 16.5 49.0008 16 48.4008 16H42.4008C41.8008 16 41.3008 16.5 41.3008 17.1Z" stroke="#03303D" stroke-width="2.5095" stroke-miterlimit="10"/>
<path d="M41.3 16.8L20 9V11.3L29.3 24.2" stroke="#03303D" stroke-width="2.5095" stroke-miterlimit="10"/>
<path d="M25.6016 33.9993L41.3016 24.1992" stroke="#03303D" stroke-width="2.5095" stroke-miterlimit="10"/>
<path d="M49.8984 16.8L71.2984 9V11.3L61.9984 24.2" stroke="#03303D" stroke-width="2.5095" stroke-miterlimit="10"/>
<path d="M65.6 33.9993L50 24.1992" stroke="#03303D" stroke-width="2.5095" stroke-miterlimit="10"/>
<path d="M47.1016 15.6992V12.6992H43.6016V15.6992" stroke="#03303D" stroke-width="2.5095" stroke-miterlimit="10"/>
<path d="M282.002 59.6996L300.402 71.4996C300.402 71.4996 300.402 71.4996 300.302 71.4996C290.302 66.0996 277.602 68.8996 270.102 77.9996H270.002C269.202 77.2996 268.302 76.5996 267.402 75.9996C261.502 72.2996 251.902 69.5996 245.602 71.4996V69.2996L245.902 59.5996H282.002V59.6996Z" stroke="#03303D" stroke-width="2.5095" stroke-miterlimit="10"/>
<path d="M194.4 59.6996L176 71.4996C176 71.4996 176 71.4996 176.1 71.4996C186.1 66.0996 198.8 68.8996 206.3 77.9996H206.4C207.2 77.2996 208.1 76.5996 209 75.9996C214.9 72.2996 224.5 69.5996 230.8 71.4996V69.2996L231.1 59.5996H194.4V59.6996Z" stroke="#03303D" stroke-width="2.5095" stroke-miterlimit="10"/>
<path d="M242.301 78L243.501 80.3" stroke="#03303D" stroke-width="2.5095" stroke-miterlimit="10"/>
<path d="M233.902 78L232.602 80.3" stroke="#03303D" stroke-width="2.5095" stroke-miterlimit="10"/>
<path d="M245.901 53L238.601 58.9C238.601 58.9 232.001 53.3 231.701 53L231.301 71.5C231.301 75.4 234.501 78.6 238.401 78.6C242.301 78.6 245.501 75.4 245.501 71.5L245.901 53Z" stroke="#03303D" stroke-width="2.5095" stroke-miterlimit="10"/>
<path d="M28.1992 72.5996L34.9992 79.4996L42.0992 72.5996" stroke="#03303D" stroke-width="2.5095" stroke-miterlimit="10"/>
<path d="M35.0977 68V79.5" stroke="#03303D" stroke-width="2.5095" stroke-miterlimit="10"/>
<path d="M6 72.5996L12.9 79.4996L20 72.5996" stroke="#03303D" stroke-width="2.5095" stroke-miterlimit="10"/>
<path d="M13 68V79.5" stroke="#03303D" stroke-width="2.5095" stroke-miterlimit="10"/>
<path d="M49.6992 72.5996L56.4992 79.4996L63.5992 72.5996" stroke="#03303D" stroke-width="2.5095" stroke-miterlimit="10"/>
<path d="M56.6992 68V79.5" stroke="#03303D" stroke-width="2.5095" stroke-miterlimit="10"/>
<path d="M71.1992 72.5996L77.9992 79.4996L85.0992 72.5996" stroke="#03303D" stroke-width="2.5095" stroke-miterlimit="10"/>
<path d="M78.1992 68V79.5" stroke="#03303D" stroke-width="2.5095" stroke-miterlimit="10"/>
<path d="M126.9 61.4L117.7 45.5H122.8L115.3 32.7H119.5L109.9 16L100.3 32.7H104.5L97.1 45.5H102.1L93 61.4H126.9Z" stroke="#03303D" stroke-width="2.5095" stroke-miterlimit="10"/>
<path d="M109.898 17V80.2" stroke="#03303D" stroke-width="2.5095" stroke-miterlimit="10"/>
<path d="M169.502 61.4L160.302 45.5H165.402L158.002 32.7H162.202L152.602 16L143.002 32.7H147.102L139.702 45.5H144.802L135.602 61.4H169.502Z" stroke="#03303D" stroke-width="2.5095" stroke-miterlimit="10"/>
<path d="M152.602 17V80.2" stroke="#03303D" stroke-width="2.5095" stroke-miterlimit="10"/>
<path d="M277.299 13.6C274.199 16.7 272.699 20.7 272.699 24.7C276.699 24.7 280.799 23.2 283.799 20.1C286.899 17 288.399 13 288.399 9C284.399 9 280.399 10.6 277.299 13.6Z" stroke="#03303D" stroke-width="2.5095" stroke-miterlimit="10"/>
<path d="M283.799 29.2992C280.699 26.1992 276.699 24.6992 272.699 24.6992C272.699 28.6992 274.199 32.7992 277.299 35.7992C280.399 38.8992 284.399 40.3992 288.399 40.3992C288.399 36.4992 286.899 32.3992 283.799 29.2992Z" stroke="#03303D" stroke-width="2.5095" stroke-miterlimit="10"/>
<path d="M268.1 35.9008C271.2 32.8008 272.7 28.8008 272.7 24.8008C268.7 24.8008 264.6 26.3008 261.6 29.4008C258.5 32.5008 257 36.5008 257 40.5008C261 40.5008 265 39.0008 268.1 35.9008Z" stroke="#03303D" stroke-width="2.5095" stroke-miterlimit="10"/>
<path d="M261.6 20.1996C264.7 23.2996 268.7 24.7996 272.7 24.7996C272.7 20.7996 271.2 16.6996 268.1 13.6996C265 10.5996 261 9.09961 257 9.09961C257 13.0996 258.5 17.0996 261.6 20.1996Z" stroke="#03303D" stroke-width="2.5095" stroke-miterlimit="10"/>
</svg>
