<svg width="42" height="51" viewBox="0 0 42 51" fill="none" xmlns="http://www.w3.org/2000/svg">
<path d="M12.9219 1.25H28.7219L23.6219 6.25L20.8219 13.25L17.6219 6.25L12.9219 1.25Z" stroke="#03303D" stroke-width="2.5" stroke-miterlimit="10" stroke-linejoin="round"/>
<path d="M28.6196 0.949219L35.7195 12.6492C33.7195 15.0492 30.2195 15.4493 27.7195 13.5493L22.5195 9.74927" stroke="#03303D" stroke-width="2.5" stroke-miterlimit="10"/>
<path d="M13.0219 0.949219L5.92188 12.6492C7.92188 15.0492 11.3219 15.3493 13.9219 13.5493L19.1219 9.74927" stroke="#03303D" stroke-width="2.5" stroke-miterlimit="10"/>
<path d="M31.9204 15.3488V15.5488C32.2204 17.0488 32.3205 18.6488 32.3205 20.2488C32.3205 27.4488 31.0204 34.2488 28.5204 41.1488L27.2204 44.7488L20.7204 40.1488L14.9204 44.7488L13.6205 42.1488C9.72046 34.3488 8.12047 26.7488 9.32047 18.0488L9.92045 15.0488" stroke="#03303D" stroke-width="2.5" stroke-miterlimit="10"/>
<path d="M35.6211 12.6484L38.8211 19.9484C41.9211 26.8484 40.6211 34.9484 35.6211 40.6484" stroke="#03303D" stroke-width="2.5" stroke-miterlimit="10"/>
<path d="M6.12004 12.6484L2.92003 19.9484C-0.179971 26.8484 1.12004 34.9484 6.12004 40.6484" stroke="#03303D" stroke-width="2.5" stroke-miterlimit="10"/>
<path d="M17.1211 42.4492L20.8211 47.8492L24.1211 42.4492" stroke="#03303D" stroke-width="2.5" stroke-miterlimit="10"/>
</svg>
