<svg width="717" height="325" viewBox="0 0 717 325" fill="none" xmlns="http://www.w3.org/2000/svg">
<g clip-path="url(#clip0_3018_37650)">
<path d="M3.33203 301.449L75.9918 246.685L149.671 273.855L222.279 192.865L295.448 165.695L369.127 220.011L442.022 192.617L515.414 220.011L588.583 165.235L687.04 91.8164" stroke="#03303D" stroke-width="2.51" stroke-miterlimit="10"/>
<path fill-rule="evenodd" clip-rule="evenodd" d="M75.3259 243.109C77.5214 243.109 79.2856 244.701 79.2856 246.682C79.2856 248.664 77.5214 250.256 75.3259 250.256C73.1304 250.256 71.3662 248.664 71.3662 246.682C71.3662 244.701 73.1304 243.109 75.3259 243.109Z" fill="#03303D"/>
<path fill-rule="evenodd" clip-rule="evenodd" d="M3.9597 297.414C6.15517 297.414 7.9194 299.006 7.9194 300.987C7.9194 302.968 6.15517 304.56 3.9597 304.56C1.76422 304.56 0 302.968 0 300.987C0 299.006 1.76422 297.414 3.9597 297.414Z" fill="#03303D"/>
<path fill-rule="evenodd" clip-rule="evenodd" d="M149.672 270.246C151.867 270.246 153.631 271.873 153.631 273.855C153.631 275.836 151.867 277.428 149.672 277.428C147.476 277.428 145.712 275.836 145.712 273.855C145.712 271.873 147.476 270.246 149.672 270.246Z" fill="#03303D"/>
<path fill-rule="evenodd" clip-rule="evenodd" d="M222.828 189.254C224.984 189.254 226.788 190.881 226.788 192.862C226.788 194.843 224.984 196.435 222.828 196.435C220.672 196.435 218.829 194.843 218.829 192.862C218.829 190.881 220.633 189.254 222.828 189.254Z" fill="#03303D"/>
<path fill-rule="evenodd" clip-rule="evenodd" d="M295.448 162.121C297.643 162.121 299.408 163.713 299.408 165.694C299.408 167.675 297.643 169.267 295.448 169.267C293.253 169.267 291.488 167.675 291.488 165.694C291.488 163.713 293.253 162.121 295.448 162.121Z" fill="#03303D"/>
<path fill-rule="evenodd" clip-rule="evenodd" d="M369.128 216.426C371.323 216.426 373.087 218.018 373.087 219.999C373.087 221.98 371.323 223.572 369.128 223.572C366.932 223.572 365.168 221.98 365.168 219.999C365.168 218.018 366.932 216.426 369.128 216.426Z" fill="#03303D"/>
<path fill-rule="evenodd" clip-rule="evenodd" d="M441.748 188.797C443.943 188.797 445.747 190.424 445.747 192.37C445.747 194.316 443.943 195.978 441.748 195.978C439.552 195.978 437.788 194.351 437.788 192.37C437.788 190.389 439.592 188.797 441.748 188.797Z" fill="#03303D"/>
<path fill-rule="evenodd" clip-rule="evenodd" d="M515.414 215.965C517.609 215.965 519.413 217.557 519.413 219.538C519.413 221.519 517.609 223.111 515.414 223.111C513.218 223.111 511.454 221.519 511.454 219.538C511.454 217.557 513.258 215.965 515.414 215.965Z" fill="#03303D"/>
<path fill-rule="evenodd" clip-rule="evenodd" d="M687.04 88.2422C689.235 88.2422 690.999 89.8695 690.999 91.8153C690.999 93.761 689.235 95.4237 687.04 95.4237C684.844 95.4237 683.08 93.7964 683.08 91.8153C683.08 89.8342 684.844 88.2422 687.04 88.2422Z" fill="#03303D"/>
</g>
<path d="M674.601 1.24219C674.601 1.24219 679.601 1.94216 681.401 5.84216" stroke="#03303D" stroke-width="2.5095" stroke-miterlimit="10"/>
<path d="M692.3 1.24219C692.3 1.24219 687.3 1.94216 685.5 5.84216" stroke="#03303D" stroke-width="2.5095" stroke-miterlimit="10"/>
<path d="M683.6 8.84296C685.6 8.84296 687.4 9.54298 688.8 10.743C688.8 10.643 688.8 10.543 688.8 10.343C688.8 7.44296 686.4 5.04297 683.5 5.04297C680.6 5.04297 678.2 7.44296 678.2 10.343C678.2 10.543 678.2 10.743 678.2 10.943C679.7 9.64299 681.6 8.84296 683.6 8.84296Z" stroke="#03303D" stroke-width="2.5095" stroke-miterlimit="10"/>
<path d="M690.2 21.8438C691.2 20.4438 691.7 18.6438 691.7 16.9438C691.7 12.4438 688.1 8.84375 683.6 8.84375C679.1 8.84375 675.5 12.4438 675.5 16.9438C675.5 18.7438 676.1 20.4438 677 21.8438C675.5 23.9437 674.5 26.6438 674.5 29.7438C674.5 36.0438 678.6 40.0438 683.6 40.0438C688.6 40.0438 692.7 36.0438 692.7 29.7438C692.7 26.7438 691.8 23.9437 690.2 21.8438Z" stroke="#03303D" stroke-width="2.5095" stroke-miterlimit="10"/>
<path d="M675.5 16.9422C675.5 15.7422 675.8 14.6422 676.2 13.6422L657.9 7.9422C657.5 7.8422 657 7.74219 656.5 7.74219H656.4C654.1 7.74219 652.2 9.6422 652.2 11.9422C652.2 13.6422 653.2 15.0422 654.6 15.7422C655.4 16.1422 655.9 16.8422 655.9 17.7422C655.9 20.6422 658.1 23.0422 660.9 23.4422C662.3 23.6422 663.9 23.5422 665.3 23.1422C666.8 22.7422 668.3 22.1422 669.8 21.7422C671.4 21.2422 673 20.7422 674.7 20.2422C674.8 20.2422 675.5 20.0422 676.1 19.8422C675.7 19.0422 675.5 18.0422 675.5 16.9422Z" stroke="#03303D" stroke-width="2.5095" stroke-miterlimit="10"/>
<path d="M710.6 7.84375H710.5C710 7.84375 709.6 7.84376 709.1 8.04376L691 13.6438C691.5 14.6438 691.7 15.7438 691.7 16.9438C691.7 18.0438 691.5 19.0438 691.1 19.9438C691.7 20.1438 692.2 20.2438 692.3 20.2438C693.9 20.7438 695.5 21.2438 697.2 21.7438C698.7 22.2438 700.2 22.7438 701.7 23.1438C703.1 23.5438 704.6 23.6438 706.1 23.4438C708.9 23.0438 711.1 20.5438 711.1 17.7438C711.1 16.8438 711.6 16.1438 712.4 15.7438C713.8 15.0438 714.8 13.6438 714.8 11.9438C714.8 9.74379 712.9 7.84375 710.6 7.84375Z" stroke="#03303D" stroke-width="2.5095" stroke-miterlimit="10"/>
<path d="M675.5 14.4414H691.8" stroke="#03303D" stroke-width="2.5095" stroke-miterlimit="10"/>
<path d="M675.5 21.2422H691.8" stroke="#03303D" stroke-width="2.5095" stroke-miterlimit="10"/>
<path d="M675.5 27.9414H691.8" stroke="#03303D" stroke-width="2.5095" stroke-miterlimit="10"/>
<path d="M687.199 72.8438L693.999 79.7437L701.099 72.8438" stroke="#03303D" stroke-width="2.5095" stroke-miterlimit="10"/>
<path d="M694.1 68.2422V79.7422" stroke="#03303D" stroke-width="2.5095" stroke-miterlimit="10"/>
<path d="M665 72.8438L671.9 79.7437L679 72.8438" stroke="#03303D" stroke-width="2.5095" stroke-miterlimit="10"/>
<path d="M672 68.2422V79.7422" stroke="#03303D" stroke-width="2.5095" stroke-miterlimit="10"/>
<path d="M286.199 145.844L292.999 152.744L300.099 145.844" stroke="#03303D" stroke-width="2.5095" stroke-miterlimit="10"/>
<path d="M293.1 141.242V152.742" stroke="#03303D" stroke-width="2.5095" stroke-miterlimit="10"/>
<path d="M264 145.844L270.9 152.744L278 145.844" stroke="#03303D" stroke-width="2.5095" stroke-miterlimit="10"/>
<path d="M271 141.242V152.742" stroke="#03303D" stroke-width="2.5095" stroke-miterlimit="10"/>
<path d="M307.699 145.844L314.499 152.744L321.599 145.844" stroke="#03303D" stroke-width="2.5095" stroke-miterlimit="10"/>
<path d="M314.699 141.242V152.742" stroke="#03303D" stroke-width="2.5095" stroke-miterlimit="10"/>
<path d="M318.401 112.643C321.329 112.643 323.702 110.27 323.702 107.343C323.702 104.416 321.329 102.043 318.401 102.043C315.474 102.043 313.102 104.416 313.102 107.343C313.102 110.27 315.474 112.643 318.401 112.643Z" stroke="#03303D" stroke-width="2.5095" stroke-miterlimit="10"/>
<path d="M292.9 107.742C289.1 107.742 286 104.642 286 100.842V87.1422C286 83.3422 289.1 80.2422 292.9 80.2422C296.7 80.2422 299.8 83.3422 299.8 87.1422V100.942C299.7 104.642 296.6 107.742 292.9 107.742Z" stroke="#03303D" stroke-width="2.5095" stroke-miterlimit="10"/>
<path d="M66.5 184.742V237.542" stroke="#03303D" stroke-width="2.7708" stroke-miterlimit="10"/>
<path d="M66.5 205.242C77.8218 205.242 87 196.064 87 184.742C87 173.42 77.8218 164.242 66.5 164.242C55.1782 164.242 46 173.42 46 184.742C46 196.064 55.1782 205.242 66.5 205.242Z" stroke="#03303D" stroke-width="2.7708" stroke-miterlimit="10"/>
<path d="M81.2998 199.543V237.543" stroke="#03303D" stroke-width="2.7708" stroke-miterlimit="10"/>
<path d="M81.3 214.342C89.4738 214.342 96.1 207.716 96.1 199.542C96.1 191.368 89.4738 184.742 81.3 184.742C73.1262 184.742 66.5 191.368 66.5 199.542C66.5 207.716 73.1262 214.342 81.3 214.342Z" stroke="#03303D" stroke-width="2.7708" stroke-miterlimit="10"/>
<path d="M506.67 153.543H522.47L517.37 158.543L514.57 165.543L511.37 158.543L506.67 153.543Z" stroke="#03303D" stroke-width="2.5095" stroke-miterlimit="10" stroke-linejoin="round"/>
<path d="M522.37 153.242L529.47 164.942C527.47 167.342 523.97 167.742 521.47 165.842L516.27 162.042" stroke="#03303D" stroke-width="2.5095" stroke-miterlimit="10"/>
<path d="M506.77 153.242L499.67 164.942C501.67 167.342 505.07 167.642 507.67 165.842L512.87 162.042" stroke="#03303D" stroke-width="2.5095" stroke-miterlimit="10"/>
<path d="M525.67 167.644V167.844C525.97 169.344 526.07 170.944 526.07 172.544C526.07 179.744 524.77 186.544 522.27 193.444L520.97 197.044L514.47 192.444L508.67 197.044L507.37 194.444C503.47 186.644 501.87 179.044 503.07 170.344L503.67 167.344" stroke="#03303D" stroke-width="2.5095" stroke-miterlimit="10"/>
<path d="M529.37 164.941L532.57 172.241C535.67 179.141 534.37 187.241 529.37 192.941" stroke="#03303D" stroke-width="2.5095" stroke-miterlimit="10"/>
<path d="M499.87 164.941L496.67 172.241C493.57 179.141 494.87 187.241 499.87 192.941" stroke="#03303D" stroke-width="2.5095" stroke-miterlimit="10"/>
<path d="M510.87 194.742L514.57 200.142L517.87 194.742" stroke="#03303D" stroke-width="2.5095" stroke-miterlimit="10"/>
<path d="M313.008 235.242V243.742C313.008 243.742 312.508 252.342 319.508 252.342C326.508 252.342 332.208 252.342 332.208 252.342C332.208 252.342 336.608 252.042 336.608 258.942" stroke="#03303D" stroke-width="2.5095" stroke-miterlimit="10"/>
<path d="M321.908 241.344V243.744C321.908 243.744 321.408 252.344 328.408 252.344" stroke="#03303D" stroke-width="2.5095" stroke-miterlimit="10"/>
<path d="M367.008 235.242V243.742C367.008 243.742 367.508 252.342 360.508 252.342C353.508 252.342 347.808 252.342 347.808 252.342C347.808 252.342 343.408 252.042 343.408 258.942" stroke="#03303D" stroke-width="2.5095" stroke-miterlimit="10"/>
<path d="M358.008 241.344V243.744C358.008 243.744 358.508 252.344 351.508 252.344" stroke="#03303D" stroke-width="2.5095" stroke-miterlimit="10"/>
<path d="M355.508 257.844L346.608 265.044L342.808 280.944H338.008L334.308 265.044L325.408 257.844" stroke="#03303D" stroke-width="2.5095" stroke-miterlimit="10"/>
<path d="M355.107 263.842H392.007C394.307 263.842 396.807 263.742 398.907 264.842C401.107 266.042 402.907 268.642 402.907 271.242C402.907 276.342 402.907 304.642 402.907 304.642" stroke="#03303D" stroke-width="2.5095" stroke-miterlimit="10"/>
<path d="M373.908 283.743C373.108 283.743 361.308 283.743 361.308 283.743C357.808 283.743 355.008 281.043 354.808 277.543" stroke="#03303D" stroke-width="2.5095" stroke-miterlimit="10"/>
<path d="M359.708 283.742V304.642" stroke="#03303D" stroke-width="2.5095" stroke-miterlimit="10"/>
<path d="M364.607 283.742V304.642" stroke="#03303D" stroke-width="2.5095" stroke-miterlimit="10"/>
<path d="M397.908 288.043V304.643" stroke="#03303D" stroke-width="2.5095" stroke-miterlimit="10"/>
<path d="M379.508 270.844C379.508 270.844 376.208 289.344 402.908 289.344" stroke="#03303D" stroke-width="2.5095" stroke-miterlimit="10"/>
<path d="M162.9 245.642L153.7 229.742H158.8L151.4 216.842H155.6L146 200.242L136.3 216.842H140.5L133.1 229.742H138.2L129 245.642H162.9Z" stroke="#03303D" stroke-width="2.5095" stroke-miterlimit="10"/>
<path d="M146 201.242V264.342" stroke="#03303D" stroke-width="2.5095" stroke-miterlimit="10"/>
<defs>
<clipPath id="clip0_3018_37650">
<rect width="691" height="236" fill="white" transform="translate(0 88.2422)"/>
</clipPath>
</defs>
</svg>
