<svg width="245" height="61" viewBox="0 0 245 61" fill="none" xmlns="http://www.w3.org/2000/svg">
<path d="M45.2046 50.2973C45.2046 53.1736 45.2046 58.7786 45.2046 58.7786H35.2498C35.0866 53.7636 30.5172 49.7073 24.887 49.7073C19.2568 49.7073 14.769 53.7636 14.5242 58.7786H5.14062V26.3286C5.14062 14.2336 15.993 4.4248 29.3748 4.4248H34.3522C34.3522 4.4248 61.2791 4.42483 61.2791 26.6236V51.4036C61.2791 55.4598 57.6889 58.7048 53.2011 58.7048L45.3678 37.4648C30.4356 37.4648 30.2724 23.3048 30.2724 23.3048V19.2486C30.2724 16.3723 32.8835 14.0861 35.9842 14.0861H45.4494" stroke="white" stroke-width="2.5" stroke-miterlimit="10"/>
<path d="M5.22221 26.2549C5.22221 26.2549 4.9774 33.8511 0 33.8511" stroke="white" stroke-width="2.5" stroke-miterlimit="10"/>
<path d="M139.857 58.9263H119.539V40.5625L139.857 58.9263Z" stroke="white" stroke-width="2.5" stroke-miterlimit="10"/>
<path d="M133.897 37.9812C137.079 37.9812 139.69 35.6212 139.69 32.7449V22.1986C139.69 19.3224 137.079 16.9624 133.897 16.9624C130.714 16.9624 128.103 19.3224 128.103 22.1986V32.7449C128.022 35.6212 130.714 37.9812 133.897 37.9812Z" stroke="white" stroke-width="2.5" stroke-miterlimit="10"/>
<path d="M86.8984 20.2812V59.2212" stroke="white" stroke-width="2.5" stroke-miterlimit="10"/>
<path d="M86.8992 35.4001C96.1374 35.4001 103.627 28.6312 103.627 20.2813C103.627 11.9315 96.1374 5.1626 86.8992 5.1626C77.661 5.1626 70.1719 11.9315 70.1719 20.2813C70.1719 28.6312 77.661 35.4001 86.8992 35.4001Z" stroke="white" stroke-width="2.5" stroke-miterlimit="10"/>
<path d="M98.9766 31.1963V59.2213" stroke="white" stroke-width="2.5" stroke-miterlimit="10"/>
<path d="M98.9747 42.1112C105.644 42.1112 111.051 37.2244 111.051 31.1962C111.051 25.1681 105.644 20.2812 98.9747 20.2812C92.3052 20.2812 86.8984 25.1681 86.8984 31.1962C86.8984 37.2244 92.3052 42.1112 98.9747 42.1112Z" stroke="white" stroke-width="2.5" stroke-miterlimit="10"/>
<path d="M176.693 53.7497C176.693 55.4551 176.693 58.7786 176.693 58.7786H170.791C170.694 55.8049 167.984 53.3998 164.646 53.3998C161.308 53.3998 158.647 55.8049 158.501 58.7786H152.938V39.5375C152.938 32.3659 159.372 26.5498 167.307 26.5498H170.258C170.258 26.5498 186.225 26.5498 186.225 39.7124V54.4056C186.225 56.8107 184.096 58.7348 181.435 58.7348L176.79 46.1407C167.936 46.1407 167.839 37.7446 167.839 37.7446V35.3395C167.839 33.634 169.387 32.2784 171.226 32.2784H176.838" stroke="white" stroke-width="2.5" stroke-miterlimit="10"/>
<path d="M152.987 39.4937C152.987 39.4937 152.842 43.9978 149.891 43.9978" stroke="white" stroke-width="2.5" stroke-miterlimit="10"/>
<path d="M230.43 53.395L237.039 59.295L243.893 53.395" stroke="white" stroke-width="2.5" stroke-miterlimit="10"/>
<path d="M237.117 49.4126V59.2951" stroke="white" stroke-width="2.5" stroke-miterlimit="10"/>
<path d="M211.5 53.395L218.109 59.295L224.882 53.395" stroke="white" stroke-width="2.5" stroke-miterlimit="10"/>
<path d="M218.188 49.4126V59.2951" stroke="white" stroke-width="2.5" stroke-miterlimit="10"/>
<path d="M192.57 53.395L199.18 59.295L205.952 53.395" stroke="white" stroke-width="2.5" stroke-miterlimit="10"/>
<path d="M199.258 49.4126V59.2951" stroke="white" stroke-width="2.5" stroke-miterlimit="10"/>
</svg>
