<svg width="30" height="16" viewBox="0 0 30 16" fill="none" xmlns="http://www.w3.org/2000/svg">
<path d="M10.3906 5.32002C10.3906 6.32395 9.57639 7.13468 8.57592 7.13468C7.57199 7.13468 6.75781 6.3205 6.75781 5.32002C6.75781 4.3161 7.57199 3.50537 8.57592 3.50537C9.57639 3.50537 10.3906 4.31955 10.3906 5.32002Z" stroke="#57C09B" stroke-miterlimit="10"/>
<path d="M9.54688 3.74119C10.4991 2.09213 11.2649 0.763916 11.2649 0.763916" stroke="#57C09B" stroke-miterlimit="10"/>
<path d="M5.94531 9.97309C5.94531 9.97309 6.75259 8.57587 7.73582 6.86816" stroke="#57C09B" stroke-miterlimit="10"/>
<path d="M10.1328 4.42328C11.8129 3.45385 13.1825 2.66382 13.1825 2.66382" stroke="#57C09B" stroke-miterlimit="10"/>
<path d="M3.96875 7.98013C3.96875 7.98013 5.33147 7.19355 7.00813 6.22412" stroke="#57C09B" stroke-miterlimit="10"/>
<path d="M10.4141 5.32104H13.8916" stroke="#57C09B" stroke-miterlimit="10"/>
<path d="M3.25781 5.32104H6.79743" stroke="#57C09B" stroke-miterlimit="10"/>
<path d="M10.0234 6.15918C11.7553 7.15966 13.1801 7.98073 13.1801 7.98073" stroke="#57C09B" stroke-miterlimit="10"/>
<path d="M3.96875 2.66064C3.96875 2.66064 5.32112 3.44032 6.99088 4.4063" stroke="#57C09B" stroke-miterlimit="10"/>
<path d="M9.51562 6.95557C10.4644 8.60118 11.2302 9.92594 11.2302 9.92594" stroke="#57C09B" stroke-miterlimit="10"/>
<path d="M5.91406 0.715332C5.91406 0.715332 6.72479 2.12289 7.71492 3.8375" stroke="#57C09B" stroke-miterlimit="10"/>
<path d="M8.57031 7.1626V10.6401" stroke="#57C09B" stroke-miterlimit="10"/>
<path d="M8.57031 0V3.60516" stroke="#57C09B" stroke-miterlimit="10"/>
<path d="M26.5779 6.21143H10.6324C9.02474 6.21143 7.71032 7.52584 7.71032 9.13695H3.42208C1.81442 9.13695 0.5 10.4514 0.5 12.0625C0.5 13.6701 1.81442 14.988 3.42208 14.988H19.3676C20.9752 14.988 22.2897 13.6736 22.2897 12.0625H26.5779C28.1856 12.0625 29.5 10.7481 29.5 9.13695C29.5034 7.52929 28.1856 6.21143 26.5779 6.21143Z" fill="white" stroke="#57C09B" stroke-miterlimit="10"/>
</svg>
