<svg width="293" height="83" viewBox="0 0 293 83" fill="none" xmlns="http://www.w3.org/2000/svg">
<path d="M289.385 81.5133H265.366V56.6133L289.385 81.5133Z" stroke="#03303D" stroke-width="2.5095" stroke-miterlimit="10"/>
<path d="M282.343 53.8125C286.105 53.8125 289.192 50.6125 289.192 46.7125V32.4125C289.192 28.5125 286.105 25.3125 282.343 25.3125C278.581 25.3125 275.494 28.5125 275.494 32.4125V46.7125C275.398 50.6125 278.581 53.8125 282.343 53.8125Z" stroke="#03303D" stroke-width="2.7708" stroke-miterlimit="10"/>
<path d="M144.596 80.5117C147.526 80.5117 149.902 78.0493 149.902 75.0117C149.902 71.9742 147.526 69.5117 144.596 69.5117C141.666 69.5117 139.291 71.9742 139.291 75.0117C139.291 78.0493 141.666 80.5117 144.596 80.5117Z" stroke="#03303D" stroke-width="2.7708" stroke-miterlimit="10"/>
<path d="M109.001 51.3117C105.914 54.5117 104.371 58.7117 104.371 62.9117C108.422 62.9117 112.474 61.3117 115.561 58.1117C118.647 54.9117 120.191 50.7117 120.191 46.5117C116.139 46.6117 112.088 48.1117 109.001 51.3117Z" stroke="#03303D" stroke-width="2.7708" stroke-miterlimit="10"/>
<path d="M115.657 67.7102C112.571 64.5102 108.519 62.9102 104.468 62.9102C104.468 67.1102 106.011 71.3102 109.098 74.5102C112.185 77.7102 116.236 79.3102 120.287 79.3102C120.287 75.2102 118.744 71.0102 115.657 67.7102Z" stroke="#03303D" stroke-width="2.7708" stroke-miterlimit="10"/>
<path d="M99.838 74.6117C102.925 71.4117 104.468 67.2117 104.468 63.0117C100.417 63.0117 96.3654 64.6117 93.2786 67.8117C90.1918 71.0117 88.6484 75.2117 88.6484 79.4117C92.6034 79.4117 96.7512 77.8117 99.838 74.6117Z" stroke="#03303D" stroke-width="2.7708" stroke-miterlimit="10"/>
<path d="M93.1819 58.2133C96.2687 61.4133 100.32 63.0133 104.371 63.0133C104.371 58.8133 102.828 54.6133 99.7413 51.4133C96.6545 48.2133 92.6031 46.6133 88.5518 46.6133C88.5518 50.8133 90.0951 55.0133 93.1819 58.2133Z" stroke="#03303D" stroke-width="2.7708" stroke-miterlimit="10"/>
<path d="M189.257 51.3117C186.17 54.5117 184.627 58.7117 184.627 62.9117C188.678 62.9117 192.73 61.3117 195.817 58.1117C198.903 54.9117 200.447 50.7117 200.447 46.5117C196.395 46.6117 192.344 48.1117 189.257 51.3117Z" stroke="#03303D" stroke-width="2.7708" stroke-miterlimit="10"/>
<path d="M195.817 67.7102C192.73 64.5102 188.678 62.9102 184.627 62.9102C184.627 67.1102 186.17 71.3102 189.257 74.5102C192.344 77.7102 196.395 79.3102 200.447 79.3102C200.447 75.2102 198.903 71.0102 195.817 67.7102Z" stroke="#03303D" stroke-width="2.7708" stroke-miterlimit="10"/>
<path d="M179.997 74.6117C183.084 71.4117 184.627 67.2117 184.627 63.0117C180.576 63.0117 176.525 64.6117 173.438 67.8117C170.351 71.0117 168.808 75.2117 168.808 79.4117C172.859 79.4117 176.91 77.8117 179.997 74.6117Z" stroke="#03303D" stroke-width="2.7708" stroke-miterlimit="10"/>
<path d="M173.438 58.2133C176.525 61.4133 180.576 63.0133 184.627 63.0133C184.627 58.8133 183.084 54.6133 179.997 51.4133C176.91 48.2133 172.859 46.6133 168.808 46.6133C168.808 50.8133 170.351 55.0133 173.438 58.2133Z" stroke="#03303D" stroke-width="2.7708" stroke-miterlimit="10"/>
<path d="M155.785 20.3125C151.444 20.3125 147.49 22.2125 144.596 25.1125C147.49 28.1125 151.444 29.9125 155.785 29.9125C160.126 29.9125 164.081 28.0125 166.975 25.1125C164.081 22.2125 160.126 20.3125 155.785 20.3125Z" stroke="#03303D" stroke-width="2.7708" stroke-miterlimit="10"/>
<path d="M149.226 36.8109C149.226 32.3109 147.393 28.2109 144.596 25.2109C141.702 28.2109 139.966 32.3109 139.966 36.8109C139.966 41.3109 141.799 45.4109 144.596 48.4109C147.393 45.4109 149.226 41.3109 149.226 36.8109Z" stroke="#03303D" stroke-width="2.7708" stroke-miterlimit="10"/>
<path d="M133.406 30.0102C137.747 30.0102 141.702 28.1102 144.596 25.2102C141.702 22.2102 137.747 20.4102 133.406 20.4102C129.066 20.4102 125.111 22.3102 122.217 25.2102C125.014 28.2102 128.969 30.0102 133.406 30.0102Z" stroke="#03303D" stroke-width="2.7708" stroke-miterlimit="10"/>
<path d="M139.869 13.6117C139.869 18.1117 141.702 22.2117 144.499 25.2117C147.393 22.2117 149.129 18.1117 149.129 13.6117C149.129 9.11169 147.297 5.01172 144.499 2.01172C141.702 4.91172 139.869 9.01169 139.869 13.6117Z" stroke="#03303D" stroke-width="2.7708" stroke-miterlimit="10"/>
<path d="M226.781 27.8125V80.6125" stroke="#03303D" stroke-width="2.7708" stroke-miterlimit="10"/>
<path d="M226.781 48.3125C237.703 48.3125 246.556 39.1343 246.556 27.8125C246.556 16.4907 237.703 7.3125 226.781 7.3125C215.86 7.3125 207.007 16.4907 207.007 27.8125C207.007 39.1343 215.86 48.3125 226.781 48.3125Z" stroke="#03303D" stroke-width="2.7708" stroke-miterlimit="10"/>
<path d="M241.058 42.6133V80.6133" stroke="#03303D" stroke-width="2.7708" stroke-miterlimit="10"/>
<path d="M241.058 57.4125C248.942 57.4125 255.334 50.7863 255.334 42.6125C255.334 34.4387 248.942 27.8125 241.058 27.8125C233.173 27.8125 226.781 34.4387 226.781 42.6125C226.781 50.7863 233.173 57.4125 241.058 57.4125Z" stroke="#03303D" stroke-width="2.7708" stroke-miterlimit="10"/>
<path d="M37.5234 2.8125C37.5234 2.8125 37.5234 14.7125 37.5234 29.1125" stroke="#03303D" stroke-width="2.4094" stroke-miterlimit="10"/>
<path d="M37.5234 55.1133C37.5234 69.1133 37.5234 80.5133 37.5234 80.5133" stroke="#03303D" stroke-width="2.4094" stroke-miterlimit="10"/>
<path d="M18.7139 8.01172C18.7139 8.01172 24.4051 18.3117 31.4468 30.8117" stroke="#03303D" stroke-width="2.4094" stroke-miterlimit="10"/>
<path d="M44.083 53.6133C50.7389 65.6133 56.1407 75.3133 56.1407 75.3133" stroke="#03303D" stroke-width="2.4094" stroke-miterlimit="10"/>
<path d="M5.01562 22.2109C5.01562 22.2109 14.5653 27.9109 26.3337 34.9109" stroke="#03303D" stroke-width="2.4094" stroke-miterlimit="10"/>
<path d="M47.6523 47.8125C59.8065 55.1125 69.935 61.1125 69.935 61.1125" stroke="#03303D" stroke-width="2.4094" stroke-miterlimit="10"/>
<path d="M0 41.7109C0 41.7109 11.1896 41.7109 24.9836 41.7109" stroke="#03303D" stroke-width="2.4094" stroke-miterlimit="10"/>
<path d="M50.4492 41.7109C63.9539 41.7109 74.9505 41.7109 74.9505 41.7109" stroke="#03303D" stroke-width="2.4094" stroke-miterlimit="10"/>
<path d="M5.01562 61.1125C5.01562 61.1125 14.5653 55.4125 26.4301 48.3125" stroke="#03303D" stroke-width="2.4094" stroke-miterlimit="10"/>
<path d="M48.4238 35.1109C60.2886 28.0109 69.9348 22.2109 69.9348 22.2109" stroke="#03303D" stroke-width="2.4094" stroke-miterlimit="10"/>
<path d="M18.9062 75.6141C18.9062 75.6141 24.5975 65.4141 31.5427 52.9141" stroke="#03303D" stroke-width="2.4094" stroke-miterlimit="10"/>
<path d="M44.2764 30.1141C51.0287 18.1141 56.4305 8.41406 56.4305 8.41406" stroke="#03303D" stroke-width="2.4094" stroke-miterlimit="10"/>
<path d="M37.5237 55.0141C44.6092 55.0141 50.3531 49.0595 50.3531 41.7141C50.3531 34.3687 44.6092 28.4141 37.5237 28.4141C30.4383 28.4141 24.6943 34.3687 24.6943 41.7141C24.6943 49.0595 30.4383 55.0141 37.5237 55.0141Z" stroke="#03303D" stroke-width="2.4094" stroke-miterlimit="10"/>
</svg>
