<svg width="11" height="10" viewBox="0 0 11 10" fill="none" xmlns="http://www.w3.org/2000/svg">
<path d="M5.38339 8.28829L5.33009 8.34159L5.27146 8.28829C2.73966 5.99102 1.06602 4.47194 1.06602 2.93155C1.06602 1.86553 1.86553 1.06602 2.93155 1.06602C3.75238 1.06602 4.55189 1.59903 4.83439 2.32392H5.82579C6.10828 1.59903 6.90779 1.06602 7.72863 1.06602C8.79464 1.06602 9.59416 1.86553 9.59416 2.93155C9.59416 4.47194 7.92051 5.99102 5.38339 8.28829ZM7.72863 0C6.80119 0 5.91107 0.431737 5.33009 1.10866C4.74911 0.431737 3.85898 0 2.93155 0C1.28988 0 0 1.28455 0 2.93155C0 4.94099 1.81223 6.58799 4.55722 9.07714L5.33009 9.78071L6.10295 9.07714C8.84794 6.58799 10.6602 4.94099 10.6602 2.93155C10.6602 1.28455 9.37029 0 7.72863 0Z" fill="#4E4E4E"/>
</svg>
