<svg width="148" height="54" viewBox="0 0 148 54" fill="none" xmlns="http://www.w3.org/2000/svg">
<g clip-path="url(#clip0_2500_60007)">
<path d="M27.4561 53.7615C27.2441 53.7615 27.0337 53.7584 26.8217 53.7537V53.76C12.0328 53.6475 0 41.5927 0 26.8867C0 14.9068 7.10471 5.22983 17.5717 1.5795C25.6014 -1.42914 35.9067 -0.114523 43.3082 5.25794C44.406 6.05577 45.4409 6.94415 46.3832 7.89967L42.1854 11.9887C41.4693 11.2612 40.6809 10.5836 39.8423 9.97621C36.4988 7.54838 31.7717 5.94804 27.0321 5.83562V5.8528C24.3938 5.8528 21.9109 6.26342 19.64 7.0269C18.569 7.43596 17.5403 7.95432 16.5761 8.59601C13.8278 10.4212 12.1364 14.2651 14.0634 17.5376C14.8941 18.949 16.3719 20.1934 18.4575 21.2379C23.7797 23.9046 29.7584 23.8125 36.0936 23.7157L38.5969 23.6829C38.6142 23.6829 52.3634 23.6673 52.3634 23.6673L52.4263 26.6713C52.4435 27.1475 52.4922 28.4028 52.4938 29.8782C52.6932 36.0188 50.4695 41.8004 46.2324 46.1611C41.5368 50.9918 34.6928 53.7615 27.4561 53.7615ZM26.8562 47.9097C32.6952 48.0612 38.2844 45.93 42.0032 42.1017C45.1818 38.8307 46.7774 34.6542 46.6172 30.0265L46.6156 29.925C46.6156 29.7845 46.6156 29.6456 46.614 29.5097C42.9722 29.5144 38.6252 29.5222 38.6252 29.5222L36.1847 29.5534C29.4223 29.6565 22.4276 29.7658 15.8128 26.4527C12.6986 24.8929 10.4026 22.8851 8.99082 20.4854C8.46 19.5829 8.06425 18.6352 7.79728 17.6641C6.55662 20.4057 5.87819 23.5159 5.87819 26.8821C5.87819 38.3873 15.2867 47.8192 26.8562 47.9144V47.9097Z" fill="#44D0A0"/>
<path d="M75.1038 22.8897C72.8627 22.8897 70.8086 22.0231 69.5507 21.0208L67.7462 23.8062C69.6135 25.3035 72.4513 26.0716 75.0912 26.0716C78.8383 26.0716 82.2242 24.2527 82.2242 20.4275C82.2242 17.4079 79.7837 16.0839 76.6726 15.5765L75.6895 15.4157C73.5977 15.0691 72.0916 14.685 72.0916 13.411C72.0916 12.0995 73.4736 11.3313 75.4273 11.3313C77.3322 11.3313 79 11.9621 80.3695 12.8036L82.0122 9.98233C79.8214 8.68332 77.7924 8.13843 75.3519 8.13843C71.6425 8.13843 68.4058 10.0198 68.4058 13.6342C68.4058 16.7647 70.6468 18.1136 73.7218 18.5976L74.8289 18.7709C77.2568 19.155 78.5258 19.6 78.5258 20.8006C78.5273 22.1356 77.0323 22.8897 75.1038 22.8897Z" fill="black"/>
<path d="M88.8394 26.0724C90.4947 26.0724 91.6646 25.4041 92.4499 24.4377V25.7617H95.6253V13.7693H92.4499V15.0933C91.6537 14.1159 90.4962 13.4476 88.8394 13.4476C85.5148 13.4476 83.0005 16.1581 83.0005 19.76C83.0005 23.3619 85.5148 26.0724 88.8394 26.0724ZM89.4362 16.4547C91.2909 16.4547 92.5488 17.8661 92.5488 19.7584C92.5488 21.6523 91.2909 23.0637 89.4362 23.0637C87.5312 23.0637 86.3236 21.5914 86.3236 19.7584C86.3236 17.9286 87.5312 16.4547 89.4362 16.4547Z" fill="black"/>
<path d="M103.221 26.0724C105.238 26.0724 106.931 25.2667 108.065 23.8194L105.75 21.8522C105.065 22.5938 104.168 23.0653 103.122 23.0653C101.442 23.0653 100.109 21.7663 100.109 19.76C100.109 17.7678 101.453 16.4563 103.133 16.4563C104.192 16.4563 104.976 16.8763 105.711 17.6569L108.05 15.7131C106.943 14.2658 105.236 13.4476 103.22 13.4476C99.3737 13.4476 96.7966 16.1331 96.7966 19.76C96.7966 23.3978 99.3737 26.0724 103.221 26.0724Z" fill="black"/>
<path d="M112.162 19.2276C112.162 17.4446 113.195 16.5297 114.701 16.5297C115.361 16.5297 116.134 16.678 116.668 16.9137L117.153 13.7084C116.705 13.5476 116.157 13.4476 115.46 13.4476C113.979 13.4476 112.822 13.9551 112.061 15.0823V13.7708H108.913V25.7632H112.162V19.2276Z" fill="black"/>
<path d="M122.982 26.0724C125.011 26.0724 126.754 25.5025 128.123 24.2534L126.218 22.1738C125.347 22.9045 124.215 23.3245 123.169 23.3245C121.637 23.3245 120.417 22.5688 120.069 20.8373H128.621C128.659 20.5656 128.684 20.1191 128.684 19.7475C128.671 16.0097 126.294 13.4476 122.82 13.4476C119.21 13.4476 116.72 16.0222 116.72 19.7975C116.72 23.5712 119.285 26.0724 122.982 26.0724ZM122.795 16.2314C124.189 16.2314 125.122 17.098 125.422 18.6327H120.081C120.368 17.1479 121.264 16.2314 122.795 16.2314Z" fill="black"/>
<path d="M134.936 26.0721C136.591 26.0721 137.761 25.4039 138.546 24.4374V25.7614H141.722V7.93909H138.485V15.0196C137.701 14.0797 136.555 13.4474 134.937 13.4474C131.613 13.4474 129.098 16.1578 129.098 19.7597C129.097 23.3617 131.613 26.0721 134.936 26.0721ZM135.534 16.4545C137.389 16.4545 138.647 17.8659 138.647 19.7582C138.647 21.6521 137.389 23.0635 135.534 23.0635C133.629 23.0635 132.421 21.5912 132.421 19.7582C132.421 17.9283 133.629 16.4545 135.534 16.4545Z" fill="black"/>
<path d="M76.772 35.9066V38.7903H81.2038C80.7437 41.2541 79.0868 42.6155 76.249 42.6155C73.2369 42.6155 70.809 40.4 70.809 36.8605C70.809 33.4819 73.1238 31.154 76.3118 31.154C78.0927 31.154 79.536 31.8472 80.5206 32.9729L83.0224 30.5341C81.4786 28.8635 79.1748 27.8737 76.4123 27.8737C71.0587 27.8737 67.2126 31.6239 67.2126 36.859C67.2126 42.4531 71.4953 45.8318 76.326 45.8318C81.2682 45.8318 84.841 42.13 84.841 36.884C84.841 36.5623 84.8284 36.2407 84.7907 35.905H76.772V35.9066Z" fill="black"/>
<path d="M92.7473 33.2087C91.2663 33.2087 90.1089 33.7162 89.3488 34.8434V33.5319H86.2001V45.5244H89.4493V38.9887C89.4493 37.2057 90.4827 36.2908 91.9887 36.2908C92.6483 36.2908 93.421 36.4391 93.955 36.6749L94.4402 33.4695C93.9926 33.3087 93.4446 33.2087 92.7473 33.2087Z" fill="black"/>
<path d="M100.519 33.2087C96.7717 33.2087 94.0077 35.9067 94.0077 39.5211C94.0077 43.1356 96.7717 45.8335 100.519 45.8335C104.278 45.8335 107.055 43.1356 107.055 39.5211C107.055 35.9067 104.278 33.2087 100.519 33.2087ZM100.519 42.8249C98.6892 42.8249 97.3198 41.4634 97.3198 39.5196C97.3198 37.5773 98.6892 36.2158 100.519 36.2158C102.348 36.2158 103.73 37.5773 103.73 39.5196C103.73 41.465 102.348 42.8249 100.519 42.8249Z" fill="black"/>
<path d="M116.196 33.53L113.046 42.1204L109.921 33.53H106.386L111.154 45.524H114.901L119.62 33.53H116.196Z" fill="black"/>
<path d="M125.063 33.2087C121.453 33.2087 118.964 35.7833 118.964 39.5586C118.964 43.3323 121.528 45.8335 125.225 45.8335C127.254 45.8335 128.997 45.2636 130.367 44.0146L128.462 41.9349C127.59 42.6656 126.458 43.0856 125.412 43.0856C123.881 43.0856 122.661 42.3299 122.312 40.5984H130.865C130.902 40.3268 130.928 39.8802 130.928 39.5086C130.913 35.7709 128.536 33.2087 125.063 33.2087ZM122.325 38.3954C122.61 36.9106 123.507 35.9941 125.038 35.9941C126.433 35.9941 127.366 36.8606 127.666 38.3954H122.325Z" fill="black"/>
<path d="M137.988 38.1725L136.917 38.0117C135.821 37.8508 134.951 37.6775 134.951 36.9843C134.951 36.3286 135.573 35.8945 136.806 35.8945C138.163 35.907 139.694 36.4019 140.653 36.8719L141.75 34.3598C140.143 33.5807 138.637 33.2216 136.708 33.2216C133.533 33.2216 131.617 34.6814 131.617 37.1451C131.617 39.1873 132.999 40.4005 135.788 40.7845L136.771 40.9204C138.166 41.1187 138.775 41.4403 138.775 42.0227C138.775 42.7284 138.053 43.1484 136.547 43.1484C134.728 43.1484 133.472 42.6534 132.438 41.9727L131.155 44.4224C132.724 45.5247 134.877 45.8338 136.521 45.8338C140.019 45.8338 142.06 44.2366 142.06 41.7619C142.059 39.7322 140.603 38.569 137.988 38.1725Z" fill="black"/>
<path d="M144.005 9.56934V9.55997C144.005 8.67783 144.726 7.93933 145.64 7.93933C146.554 7.93933 147.265 8.66846 147.265 9.55216V9.56153C147.265 10.4437 146.545 11.1822 145.631 11.1822C144.717 11.1822 144.005 10.4515 144.005 9.56934ZM147.017 9.55997V9.55216C147.017 8.79337 146.425 8.17821 145.64 8.17821C144.852 8.17821 144.255 8.80117 144.255 9.55997V9.56778C144.255 10.3266 144.847 10.9417 145.632 10.9417C146.42 10.9417 147.017 10.3188 147.017 9.55997ZM144.977 8.66534H145.739C145.963 8.66534 146.139 8.73248 146.257 8.84957C146.347 8.93388 146.397 9.05567 146.397 9.20399V9.21336C146.397 9.48659 146.235 9.65677 146.001 9.72391L146.461 10.364H146.073L145.659 9.77699H145.649H145.302V10.364H144.979V8.66534H144.977ZM145.725 9.49283C145.937 9.49283 146.062 9.38979 146.062 9.22897V9.2196C146.062 9.04942 145.937 8.95574 145.725 8.95574H145.301V9.49283H145.725Z" fill="white"/>
</g>
<defs>
<clipPath id="clip0_2500_60007">
<rect width="147.266" height="53.7636" fill="white"/>
</clipPath>
</defs>
</svg>
