<svg width="302" height="82" viewBox="0 0 302 82" fill="none" xmlns="http://www.w3.org/2000/svg">
<path d="M45.0996 35.6992V54.4993" stroke="#03303D" stroke-width="2.5095" stroke-miterlimit="10"/>
<path d="M42.0996 26.1992L45.3997 41.2993L48.1996 26.1992" stroke="#03303D" stroke-width="2.5095" stroke-miterlimit="10"/>
<path d="M41.2998 17.1V25.2C41.2998 25.8 41.7998 26.3 42.3998 26.3H48.3998C48.9998 26.3 49.4998 25.8 49.4998 25.2V17.1C49.4998 16.5 48.9998 16 48.3998 16H42.3998C41.7998 16 41.2998 16.5 41.2998 17.1Z" stroke="#03303D" stroke-width="2.5095" stroke-miterlimit="10"/>
<path d="M41.3 16.8L20 9V11.3L29.3 24.2" stroke="#03303D" stroke-width="2.5095" stroke-miterlimit="10"/>
<path d="M25.5996 33.9993L41.2996 24.1992" stroke="#03303D" stroke-width="2.5095" stroke-miterlimit="10"/>
<path d="M49.9004 16.8L71.3004 9V11.3L62.0004 24.2" stroke="#03303D" stroke-width="2.5095" stroke-miterlimit="10"/>
<path d="M65.6 33.9993L50 24.1992" stroke="#03303D" stroke-width="2.5095" stroke-miterlimit="10"/>
<path d="M47.0996 15.6992V12.6992H43.5996V15.6992" stroke="#03303D" stroke-width="2.5095" stroke-miterlimit="10"/>
<path d="M282 59.7015L300.4 71.5015C300.4 71.5015 300.4 71.5015 300.3 71.5015C290.3 66.1015 277.6 68.9015 270.1 78.0015H270C269.2 77.3015 268.3 76.6015 267.4 76.0015C261.5 72.3015 251.9 69.6015 245.6 71.5015V69.3015L245.9 59.6016H282V59.7015Z" stroke="#03303D" stroke-width="2.5095" stroke-miterlimit="10"/>
<path d="M194.4 59.7015L176 71.5015C176 71.5015 176 71.5015 176.1 71.5015C186.1 66.1015 198.8 68.9015 206.3 78.0015H206.4C207.2 77.3015 208.1 76.6015 209 76.0015C214.9 72.3015 224.5 69.6015 230.8 71.5015V69.3015L231.1 59.6016H194.4V59.7015Z" stroke="#03303D" stroke-width="2.5095" stroke-miterlimit="10"/>
<path d="M242.3 78L243.5 80.3" stroke="#03303D" stroke-width="2.5095" stroke-miterlimit="10"/>
<path d="M233.9 78L232.6 80.3" stroke="#03303D" stroke-width="2.5095" stroke-miterlimit="10"/>
<path d="M245.9 53L238.6 58.9C238.6 58.9 232 53.3 231.7 53L231.3 71.5C231.3 75.4 234.5 78.6 238.4 78.6C242.3 78.6 245.5 75.4 245.5 71.5L245.9 53Z" stroke="#03303D" stroke-width="2.5095" stroke-miterlimit="10"/>
<path d="M28.2002 72.6016L35.0002 79.5015L42.1002 72.6016" stroke="#03303D" stroke-width="2.5095" stroke-miterlimit="10"/>
<path d="M35.1006 68V79.5" stroke="#03303D" stroke-width="2.5095" stroke-miterlimit="10"/>
<path d="M6 72.6016L12.9 79.5015L20 72.6016" stroke="#03303D" stroke-width="2.5095" stroke-miterlimit="10"/>
<path d="M13 68V79.5" stroke="#03303D" stroke-width="2.5095" stroke-miterlimit="10"/>
<path d="M49.7002 72.6016L56.5002 79.5015L63.6002 72.6016" stroke="#03303D" stroke-width="2.5095" stroke-miterlimit="10"/>
<path d="M56.7002 68V79.5" stroke="#03303D" stroke-width="2.5095" stroke-miterlimit="10"/>
<path d="M71.2002 72.6016L78.0002 79.5015L85.1002 72.6016" stroke="#03303D" stroke-width="2.5095" stroke-miterlimit="10"/>
<path d="M78.2002 68V79.5" stroke="#03303D" stroke-width="2.5095" stroke-miterlimit="10"/>
<path d="M126.9 61.4L117.7 45.5H122.8L115.3 32.7H119.5L109.9 16L100.3 32.7H104.5L97.1 45.5H102.1L93 61.4H126.9Z" stroke="#03303D" stroke-width="2.5095" stroke-miterlimit="10"/>
<path d="M109.9 17V80.2" stroke="#03303D" stroke-width="2.5095" stroke-miterlimit="10"/>
<path d="M169.501 61.4L160.301 45.5H165.401L158.001 32.7H162.201L152.601 16L143.001 32.7H147.101L139.701 45.5H144.801L135.601 61.4H169.501Z" stroke="#03303D" stroke-width="2.5095" stroke-miterlimit="10"/>
<path d="M152.601 17V80.2" stroke="#03303D" stroke-width="2.5095" stroke-miterlimit="10"/>
<path d="M277.3 13.6C274.2 16.7 272.7 20.7 272.7 24.7C276.7 24.7 280.8 23.2 283.8 20.1C286.9 17 288.4 13 288.4 9C284.4 9 280.4 10.6 277.3 13.6Z" stroke="#03303D" stroke-width="2.5095" stroke-miterlimit="10"/>
<path d="M283.8 29.2992C280.7 26.1992 276.7 24.6992 272.7 24.6992C272.7 28.6992 274.2 32.7992 277.3 35.7992C280.4 38.8992 284.4 40.3992 288.4 40.3992C288.4 36.4992 286.9 32.3992 283.8 29.2992Z" stroke="#03303D" stroke-width="2.5095" stroke-miterlimit="10"/>
<path d="M268.1 35.9008C271.2 32.8008 272.7 28.8008 272.7 24.8008C268.7 24.8008 264.6 26.3008 261.6 29.4008C258.5 32.5008 257 36.5008 257 40.5008C261 40.5008 265 39.0008 268.1 35.9008Z" stroke="#03303D" stroke-width="2.5095" stroke-miterlimit="10"/>
<path d="M261.6 20.2016C264.7 23.3016 268.7 24.8016 272.7 24.8016C272.7 20.8016 271.2 16.7016 268.1 13.7016C265 10.6016 261 9.10156 257 9.10156C257 13.1016 258.5 17.1016 261.6 20.2016Z" stroke="#03303D" stroke-width="2.5095" stroke-miterlimit="10"/>
</svg>
