<svg width="182" height="64" viewBox="0 0 182 64" fill="none" xmlns="http://www.w3.org/2000/svg">
<path d="M82.322 13.3711V19.4115C82.322 19.4115 81.9666 25.5229 86.9411 25.5229C91.9155 25.5229 95.9661 25.5229 95.9661 25.5229C95.9661 25.5229 99.0929 25.3097 99.0929 30.2131" stroke="white" stroke-width="2.5" stroke-miterlimit="10"/>
<path d="M88.6501 17.707V19.4126C88.6501 19.4126 88.2948 25.524 93.2692 25.524" stroke="white" stroke-width="2.5" stroke-miterlimit="10"/>
<path d="M120.701 13.3711V19.4115C120.701 19.4115 121.056 25.5229 116.082 25.5229C111.107 25.5229 107.056 25.5229 107.056 25.5229C107.056 25.5229 103.93 25.3097 103.93 30.2131" stroke="white" stroke-width="2.5" stroke-miterlimit="10"/>
<path d="M114.303 17.707V19.4126C114.303 19.4126 114.658 25.524 109.684 25.524" stroke="white" stroke-width="2.5" stroke-miterlimit="10"/>
<path d="M112.527 29.4316L106.202 34.5482L103.502 45.8473H100.091L97.4614 34.5482L91.1367 29.4316" stroke="white" stroke-width="2.5" stroke-miterlimit="10"/>
<path d="M112.242 33.697H138.465C140.099 33.697 141.876 33.6259 143.368 34.4076C144.931 35.2604 146.211 37.1081 146.211 38.9557C146.211 42.5799 146.211 62.6909 146.211 62.6909" stroke="white" stroke-width="2.5" stroke-miterlimit="10"/>
<path d="M125.604 47.8395C125.036 47.8395 116.65 47.8395 116.65 47.8395C114.163 47.8395 112.173 45.9208 112.031 43.4336" stroke="white" stroke-width="2.5" stroke-miterlimit="10"/>
<path d="M115.512 47.8379V62.6901" stroke="white" stroke-width="2.5" stroke-miterlimit="10"/>
<path d="M118.992 47.8379V62.6901" stroke="white" stroke-width="2.5" stroke-miterlimit="10"/>
<path d="M142.656 50.8926V62.6891" stroke="white" stroke-width="2.5" stroke-miterlimit="10"/>
<path d="M129.58 38.6699C129.58 38.6699 127.235 51.8167 146.209 51.8167" stroke="white" stroke-width="2.5" stroke-miterlimit="10"/>
<path d="M38.4816 62.7118H33.2958C31.9993 62.7118 30.9621 61.8475 30.7893 60.551L29.0607 50.6115C32.6043 48.3643 36.4937 46.5492 39.5188 43.5242C40.1238 42.9192 40.7288 42.3141 41.161 41.6227C42.0253 40.2398 42.3711 38.2519 40.9882 37.0419C40.0374 36.1776 38.6545 36.0911 37.4445 35.9183C36.148 35.659 34.7651 35.4861 33.4687 35.3132C33.4687 32.8068 31.3943 30.7324 28.8879 30.7324C26.3814 30.7324 24.3934 32.5475 24.307 35.4861C2.52642 38.7705 1.31641 62.5389 1.31641 62.5389H22.0598" stroke="white" stroke-width="2.5" stroke-miterlimit="10"/>
<path d="M1.57812 62.6277C8.2333 62.4549 14.6292 59.7755 19.7286 55.3676C21.3708 53.8982 23.4451 51.7375 23.7044 49.4038C23.9637 47.3295 22.2351 45.0823 20.1607 44.7365C17.395 44.3044 14.7156 46.1194 12.6413 47.7616C9.44332 50.2681 6.41825 53.4661 4.17105 56.9233C3.56603 57.7876 3.04746 58.7384 2.6153 59.6891C2.6153 60.0348 1.66456 62.6277 1.57812 62.6277Z" stroke="white" stroke-width="2.5" stroke-miterlimit="10"/>
<path d="M62.3281 2.54102V63.7709" stroke="white" stroke-width="2.5" stroke-miterlimit="10"/>
<path d="M74.3462 13.7864L62.3313 1.77148L50.3164 13.8634" stroke="white" stroke-width="2.5" stroke-miterlimit="10"/>
<path d="M74.3462 21.8743L62.3313 9.85938L50.3164 21.9513" stroke="white" stroke-width="2.5" stroke-miterlimit="10"/>
<path d="M74.3462 29.9613L62.3313 18.0234L50.3164 30.0383" stroke="white" stroke-width="2.5" stroke-miterlimit="10"/>
<path d="M74.3462 38.0473L62.3313 26.1094L50.3164 38.1243" stroke="white" stroke-width="2.5" stroke-miterlimit="10"/>
<path d="M74.3462 46.1352L62.3313 34.1973L50.3164 46.2122" stroke="white" stroke-width="2.5" stroke-miterlimit="10"/>
<path d="M74.3462 54.2211L62.3313 42.2832L50.3164 54.2981" stroke="white" stroke-width="2.5" stroke-miterlimit="10"/>
<path d="M168.328 2.54102V63.7709" stroke="white" stroke-width="2.5" stroke-miterlimit="10"/>
<path d="M180.346 13.7864L168.331 1.77148L156.316 13.8634" stroke="white" stroke-width="2.5" stroke-miterlimit="10"/>
<path d="M180.346 21.8743L168.331 9.85938L156.316 21.9513" stroke="white" stroke-width="2.5" stroke-miterlimit="10"/>
<path d="M180.346 29.9613L168.331 18.0234L156.316 30.0383" stroke="white" stroke-width="2.5" stroke-miterlimit="10"/>
<path d="M180.346 38.0473L168.331 26.1094L156.316 38.1243" stroke="white" stroke-width="2.5" stroke-miterlimit="10"/>
<path d="M180.346 46.1352L168.331 34.1973L156.316 46.2122" stroke="white" stroke-width="2.5" stroke-miterlimit="10"/>
<path d="M180.346 54.2211L168.331 42.2832L156.316 54.2981" stroke="white" stroke-width="2.5" stroke-miterlimit="10"/>
</svg>
