<svg width="43" height="60" viewBox="0 0 43 60" fill="none" xmlns="http://www.w3.org/2000/svg">
<path d="M17.6064 17.6094V59.3884" stroke="#44D0A0" stroke-width="2.7708" stroke-miterlimit="10"/>
<path d="M17.6068 33.8287C26.5654 33.8287 33.8278 26.5663 33.8278 17.6077C33.8278 8.64911 26.5654 1.38672 17.6068 1.38672C8.64814 1.38672 1.38574 8.64911 1.38574 17.6077C1.38574 26.5663 8.64814 33.8287 17.6068 33.8287Z" stroke="#44D0A0" stroke-width="2.7708" stroke-miterlimit="10"/>
<path d="M29.3174 29.3203V59.3885" stroke="#44D0A0" stroke-width="2.7708" stroke-miterlimit="10"/>
<path d="M29.3172 41.0309C35.7849 41.0309 41.028 35.7878 41.028 29.3201C41.028 22.8525 35.7849 17.6094 29.3172 17.6094C22.8495 17.6094 17.6064 22.8525 17.6064 29.3201C17.6064 35.7878 22.8495 41.0309 29.3172 41.0309Z" stroke="#44D0A0" stroke-width="2.7708" stroke-miterlimit="10"/>
</svg>
