<svg width="80" height="36" viewBox="0 0 80 36" fill="none" xmlns="http://www.w3.org/2000/svg">
<path d="M7.15491 13.0539C10.4134 13.0539 13.0549 10.4124 13.0549 7.15393C13.0549 3.89545 10.4134 1.25391 7.15491 1.25391C3.89643 1.25391 1.25488 3.89545 1.25488 7.15393C1.25488 10.4124 3.89643 13.0539 7.15491 13.0539Z" stroke="#44D0A0" stroke-width="2.5095" stroke-miterlimit="10"/>
<path d="M28.7545 34.1555C32.0129 34.1555 34.6545 31.514 34.6545 28.2555C34.6545 24.997 32.0129 22.3555 28.7545 22.3555C25.496 22.3555 22.8545 24.997 22.8545 28.2555C22.8545 31.514 25.496 34.1555 28.7545 34.1555Z" stroke="#44D0A0" stroke-width="2.5095" stroke-miterlimit="10"/>
<path d="M50.6549 13.0539C53.9134 13.0539 56.5549 10.4124 56.5549 7.15393C56.5549 3.89545 53.9134 1.25391 50.6549 1.25391C47.3964 1.25391 44.7549 3.89545 44.7549 7.15393C44.7549 10.4124 47.3964 13.0539 50.6549 13.0539Z" stroke="#44D0A0" stroke-width="2.5095" stroke-miterlimit="10"/>
<path d="M72.3551 34.1555C75.6136 34.1555 78.2551 31.514 78.2551 28.2555C78.2551 24.997 75.6136 22.3555 72.3551 22.3555C69.0966 22.3555 66.4551 24.997 66.4551 28.2555C66.4551 31.514 69.0966 34.1555 72.3551 34.1555Z" stroke="#44D0A0" stroke-width="2.5095" stroke-miterlimit="10"/>
<path d="M11.1553 11.4531L24.6553 24.0531" stroke="#44D0A0" stroke-width="2.5095" stroke-miterlimit="10"/>
<path d="M54.7549 11.4531L68.2549 24.0531" stroke="#44D0A0" stroke-width="2.5095" stroke-miterlimit="10"/>
<path d="M46.4545 10.9531L33.8545 24.4531" stroke="#44D0A0" stroke-width="2.5095" stroke-miterlimit="10"/>
</svg>
