<svg width="253" height="81" viewBox="0 0 253 81" fill="none" xmlns="http://www.w3.org/2000/svg">
<path d="M236.277 2.67383V78.8738" stroke="#03303D" stroke-width="2.5095" stroke-miterlimit="10"/>
<path d="M221.379 16.6754L236.279 1.77539L251.279 16.7754" stroke="#03303D" stroke-width="2.5095" stroke-miterlimit="10"/>
<path d="M221.379 26.6754L236.279 11.7754L251.279 26.7754" stroke="#03303D" stroke-width="2.5095" stroke-miterlimit="10"/>
<path d="M221.379 36.775L236.279 21.875L251.279 36.875" stroke="#03303D" stroke-width="2.5095" stroke-miterlimit="10"/>
<path d="M221.379 46.8746L236.279 31.9746L251.279 46.9746" stroke="#03303D" stroke-width="2.5095" stroke-miterlimit="10"/>
<path d="M221.379 56.8742L236.279 42.0742L251.279 56.9742" stroke="#03303D" stroke-width="2.5095" stroke-miterlimit="10"/>
<path d="M221.379 66.9742L236.279 52.0742L251.279 67.0742" stroke="#03303D" stroke-width="2.5095" stroke-miterlimit="10"/>
<path d="M120.48 9.375V17.875C120.48 17.875 119.98 26.475 126.98 26.475C133.98 26.475 139.68 26.475 139.68 26.475C139.68 26.475 144.08 26.175 144.08 33.075" stroke="#03303D" stroke-width="2.77" stroke-miterlimit="10"/>
<path d="M129.48 15.5762V17.9762C129.48 17.9762 128.98 26.5762 135.98 26.5762" stroke="#03303D" stroke-width="2.77" stroke-miterlimit="10"/>
<path d="M174.479 9.375V17.875C174.479 17.875 174.979 26.475 167.979 26.475C160.979 26.475 155.279 26.475 155.279 26.475C155.279 26.475 150.879 26.175 150.879 33.075" stroke="#03303D" stroke-width="2.77" stroke-miterlimit="10"/>
<path d="M165.582 15.5762V17.9762C165.582 17.9762 166.082 26.5762 159.082 26.5762" stroke="#03303D" stroke-width="2.77" stroke-miterlimit="10"/>
<path d="M162.98 31.9746L154.18 39.1746L150.38 55.0746H145.58L141.78 39.1746L132.98 31.9746" stroke="#03303D" stroke-width="2.77" stroke-miterlimit="10"/>
<path d="M162.68 38.0746H199.58C201.88 38.0746 204.38 37.9746 206.48 39.0746C208.68 40.2746 210.48 42.8746 210.48 45.4746C210.48 50.5746 210.48 78.8746 210.48 78.8746" stroke="#03303D" stroke-width="2.77" stroke-miterlimit="10"/>
<path d="M181.381 57.8758C180.581 57.8758 168.781 57.8758 168.781 57.8758C165.281 57.8758 162.481 55.1758 162.281 51.6758" stroke="#03303D" stroke-width="2.77" stroke-miterlimit="10"/>
<path d="M167.281 57.875V78.875" stroke="#03303D" stroke-width="2.77" stroke-miterlimit="10"/>
<path d="M172.082 57.875V78.875" stroke="#03303D" stroke-width="2.77" stroke-miterlimit="10"/>
<path d="M205.379 62.2754V78.8754" stroke="#03303D" stroke-width="2.77" stroke-miterlimit="10"/>
<path d="M186.981 44.9746C186.981 44.9746 183.681 63.4746 210.381 63.4746" stroke="#03303D" stroke-width="2.77" stroke-miterlimit="10"/>
<path d="M126.879 71.9766L133.779 78.8766L140.879 71.9766" stroke="#03303D" stroke-width="2.5095" stroke-miterlimit="10"/>
<path d="M133.879 67.377V78.877" stroke="#03303D" stroke-width="2.5095" stroke-miterlimit="10"/>
<path d="M104.781 71.9766L111.581 78.8766L118.681 71.9766" stroke="#03303D" stroke-width="2.5095" stroke-miterlimit="10"/>
<path d="M111.781 67.377V78.877" stroke="#03303D" stroke-width="2.5095" stroke-miterlimit="10"/>
<path d="M26.3789 70.7754L34.4789 78.8754L42.8789 70.7754" stroke="#03303D" stroke-width="2.7708" stroke-miterlimit="10"/>
<path d="M34.5781 65.375V78.875" stroke="#03303D" stroke-width="2.7708" stroke-miterlimit="10"/>
<path d="M0.980469 70.7754L9.08047 78.8754L17.3805 70.7754" stroke="#03303D" stroke-width="2.7708" stroke-miterlimit="10"/>
<path d="M9.17969 65.375V78.875" stroke="#03303D" stroke-width="2.7708" stroke-miterlimit="10"/>
<path d="M87.9805 56.375V78.875H60.4805V56.375" stroke="#03303D" stroke-width="2.77" stroke-miterlimit="10"/>
<path d="M53.4805 63.5758L74.3805 42.6758L94.9805 63.3758" stroke="#03303D" stroke-width="2.77" stroke-miterlimit="10"/>
<path d="M77.382 59.6758H71.082" stroke="#03303D" stroke-width="2.77" stroke-miterlimit="10"/>
<path d="M77.382 68.2754H71.082" stroke="#03303D" stroke-width="2.77" stroke-miterlimit="10"/>
</svg>
