<svg width="34" height="34" viewBox="0 0 34 34" fill="none" xmlns="http://www.w3.org/2000/svg">
<path d="M21.5551 5.85388C18.4551 8.95388 16.9551 12.9539 16.9551 16.9539C20.9551 16.9539 25.0551 15.4539 28.0551 12.3539C31.1551 9.25388 32.655 5.25391 32.655 1.25391C28.655 1.25391 24.6551 2.85388 21.5551 5.85388Z" stroke="#44D0A0" stroke-width="2.5095" stroke-miterlimit="10"/>
<path d="M28.0551 21.5531C24.9551 18.4531 20.9551 16.9531 16.9551 16.9531C16.9551 20.9531 18.4551 25.0531 21.5551 28.0531C24.6551 31.1531 28.655 32.6531 32.655 32.6531C32.655 28.7531 31.1551 24.6531 28.0551 21.5531Z" stroke="#44D0A0" stroke-width="2.5095" stroke-miterlimit="10"/>
<path d="M12.3549 28.1547C15.4549 25.0547 16.9549 21.0547 16.9549 17.0547C12.9549 17.0547 8.85486 18.5547 5.85486 21.6547C2.75486 24.7547 1.25488 28.7547 1.25488 32.7547C5.25488 32.7547 9.25486 31.2547 12.3549 28.1547Z" stroke="#44D0A0" stroke-width="2.5095" stroke-miterlimit="10"/>
<path d="M5.85486 12.4555C8.95486 15.5555 12.9549 17.0555 16.9549 17.0555C16.9549 13.0555 15.4549 8.95551 12.3549 5.95551C9.25486 2.85551 5.25488 1.35547 1.25488 1.35547C1.25488 5.35547 2.75486 9.35551 5.85486 12.4555Z" stroke="#44D0A0" stroke-width="2.5095" stroke-miterlimit="10"/>
</svg>
