<svg width="301" height="82" viewBox="0 0 301 82" fill="none" xmlns="http://www.w3.org/2000/svg">
<path d="M159.008 11V19.5C159.008 19.5 158.508 28.1 165.508 28.1C172.508 28.1 178.208 28.1 178.208 28.1C178.208 28.1 182.608 27.8 182.608 34.7" stroke="#03303D" stroke-width="2.5095" stroke-miterlimit="10"/>
<path d="M167.906 17.0996V19.4996C167.906 19.4996 167.406 28.0996 174.406 28.0996" stroke="#03303D" stroke-width="2.5095" stroke-miterlimit="10"/>
<path d="M213.006 11V19.5C213.006 19.5 213.506 28.1 206.506 28.1C199.506 28.1 193.806 28.1 193.806 28.1C193.806 28.1 189.406 27.8 189.406 34.7" stroke="#03303D" stroke-width="2.5095" stroke-miterlimit="10"/>
<path d="M204.008 17.0996V19.4996C204.008 19.4996 204.508 28.0996 197.508 28.0996" stroke="#03303D" stroke-width="2.5095" stroke-miterlimit="10"/>
<path d="M201.506 33.5996L192.606 40.7996L188.806 56.6996H184.006L180.306 40.7996L171.406 33.5996" stroke="#03303D" stroke-width="2.5095" stroke-miterlimit="10"/>
<path d="M201.109 39.6H238.009C240.309 39.6 242.809 39.5 244.909 40.6C247.109 41.8 248.909 44.4 248.909 47C248.909 52.1 248.909 80.4 248.909 80.4" stroke="#03303D" stroke-width="2.5095" stroke-miterlimit="10"/>
<path d="M219.909 59.5008C219.109 59.5008 207.309 59.5008 207.309 59.5008C203.809 59.5008 201.009 56.8008 200.809 53.3008" stroke="#03303D" stroke-width="2.5095" stroke-miterlimit="10"/>
<path d="M205.707 59.5V80.4" stroke="#03303D" stroke-width="2.5095" stroke-miterlimit="10"/>
<path d="M210.609 59.5V80.4" stroke="#03303D" stroke-width="2.5095" stroke-miterlimit="10"/>
<path d="M243.906 63.8008V80.4008" stroke="#03303D" stroke-width="2.5095" stroke-miterlimit="10"/>
<path d="M225.509 46.5996C225.509 46.5996 222.209 65.0996 248.909 65.0996" stroke="#03303D" stroke-width="2.5095" stroke-miterlimit="10"/>
<path d="M273.102 29.6992V48.4993" stroke="#03303D" stroke-width="2.5095" stroke-miterlimit="10"/>
<path d="M270.102 20.1992L273.402 35.2993L276.202 20.1992" stroke="#03303D" stroke-width="2.5095" stroke-miterlimit="10"/>
<path d="M269.301 11.1V19.2C269.301 19.8 269.801 20.3 270.401 20.3H276.401C277.001 20.3 277.501 19.8 277.501 19.2V11.1C277.501 10.5 277.001 10 276.401 10H270.401C269.801 10 269.301 10.5 269.301 11.1Z" stroke="#03303D" stroke-width="2.5095" stroke-miterlimit="10"/>
<path d="M269.3 10.8L248 3V5.29999L257.3 18.2" stroke="#03303D" stroke-width="2.5095" stroke-miterlimit="10"/>
<path d="M253.602 27.9993L269.302 18.1992" stroke="#03303D" stroke-width="2.5095" stroke-miterlimit="10"/>
<path d="M277.898 10.8L299.298 3V5.29999L289.998 18.2" stroke="#03303D" stroke-width="2.5095" stroke-miterlimit="10"/>
<path d="M293.6 27.9993L278 18.1992" stroke="#03303D" stroke-width="2.5095" stroke-miterlimit="10"/>
<path d="M275.102 9.69922V6.69922H271.602V9.69922" stroke="#03303D" stroke-width="2.5095" stroke-miterlimit="10"/>
<path d="M131 80H125C123.5 80 122.3 79 122.1 77.5L120.1 66C124.2 63.4 128.7 61.3 132.2 57.8C132.9 57.1 133.6 56.4 134.1 55.6C135.1 54 135.5 51.7 133.9 50.3C132.8 49.3 131.2 49.2 129.8 49C128.3 48.7 126.7 48.5 125.2 48.3C125.2 45.4 122.8 43 119.9 43C117 43 114.7 45.1 114.6 48.5C89.4 52.3 88 79.8 88 79.8H112" stroke="#03303D" stroke-width="2.7708" stroke-miterlimit="10"/>
<path d="M88.3008 79.8998C96.0008 79.6998 103.401 76.5999 109.301 71.4999C111.201 69.7999 113.601 67.2998 113.901 64.5998C114.201 62.1998 112.201 59.5998 109.801 59.1998C106.601 58.6998 103.501 60.7998 101.101 62.6998C97.4008 65.5998 93.9008 69.2999 91.3008 73.2999C90.6008 74.2999 90.0008 75.3999 89.5008 76.4999C89.5008 76.8999 88.4008 79.8998 88.3008 79.8998Z" stroke="#03303D" stroke-width="2.7708" stroke-miterlimit="10"/>
<path d="M55.7016 68.2C55.7016 72.1 55.7016 79.7 55.7016 79.7H43.5016C43.3016 72.9 37.7015 67.4 30.8015 67.4C23.9015 67.4 18.4016 72.9 18.1016 79.7H6.60156V35.7C6.60156 19.3 19.9015 6 36.3015 6H42.4016C42.4016 6 75.4016 6.00004 75.4016 36.1V69.7C75.4016 75.2 71.0016 79.6 65.5016 79.6L55.9016 50.8C37.6016 50.8 37.4016 31.6 37.4016 31.6V26.1C37.4016 22.2 40.6016 19.1 44.4016 19.1H56.0016" stroke="#03303D" stroke-width="2.7708" stroke-miterlimit="10"/>
<path d="M6.70081 35.5996C6.70081 35.5996 6.40078 45.8996 0.300781 45.8996" stroke="#03303D" stroke-width="2.7708" stroke-miterlimit="10"/>
<path d="M167.898 72.5996L174.698 79.4996L181.798 72.5996" stroke="#03303D" stroke-width="2.5095" stroke-miterlimit="10"/>
<path d="M174.797 68V79.5" stroke="#03303D" stroke-width="2.5095" stroke-miterlimit="10"/>
<path d="M145.699 72.5996L152.599 79.4996L159.699 72.5996" stroke="#03303D" stroke-width="2.5095" stroke-miterlimit="10"/>
<path d="M152.699 68V79.5" stroke="#03303D" stroke-width="2.5095" stroke-miterlimit="10"/>
<path d="M273.3 69.5004C276.227 69.5004 278.6 67.1275 278.6 64.2004C278.6 61.2733 276.227 58.9004 273.3 58.9004C270.373 58.9004 268 61.2733 268 64.2004C268 67.1275 270.373 69.5004 273.3 69.5004Z" stroke="#03303D" stroke-width="2.5095" stroke-miterlimit="10"/>
</svg>
