<svg width="120" height="54" viewBox="0 0 120 54" fill="none" xmlns="http://www.w3.org/2000/svg">
<rect width="119.939" height="53.9916" rx="26.9958" fill="white"/>
<path d="M74.8738 18.2298L66.2212 9.91992C63.9149 13.2154 64.2773 17.7214 67.3109 20.6348C70.3445 23.5482 75.0363 23.8962 78.4677 21.6813L76.6088 19.896" stroke="#03303D" stroke-width="2.5" stroke-miterlimit="10" stroke-linecap="round" stroke-linejoin="round"/>
<path d="M72.3438 15.7987L74.8731 13.3691" stroke="#03303D" stroke-width="2.5" stroke-miterlimit="10" stroke-linecap="round" stroke-linejoin="round"/>
<path d="M77.8598 12.6523C78.1469 11.7416 77.611 10.7798 76.6628 10.5041C75.7147 10.2283 74.7133 10.7431 74.4261 11.6538C74.139 12.5645 74.6749 13.5263 75.6231 13.802C76.5713 14.0777 77.5727 13.563 77.8598 12.6523Z" stroke="#03303D" stroke-width="2.5" stroke-miterlimit="10" stroke-linecap="round" stroke-linejoin="round"/>
<path d="M69.5441 27.2069L60.5391 18.5586L49.2725 29.3788L58.2776 38.0272L69.5441 27.2069Z" stroke="#03303D" stroke-width="2.5" stroke-miterlimit="10" stroke-linecap="round" stroke-linejoin="round"/>
<path d="M58.2804 38.0254L49.2752 29.377L47.4062 31.172C46.2917 32.2423 46.2917 33.9777 47.4062 35.0481L52.3754 39.8204C53.4899 40.8907 55.2969 40.8907 56.4114 39.8204L58.2804 38.0254Z" stroke="#03303D" stroke-width="2.5" stroke-miterlimit="10" stroke-linecap="round" stroke-linejoin="round"/>
<path d="M67.3065 20.6303C66.9506 20.2885 66.633 19.9241 66.3507 19.543L63.9609 21.8384L66.1298 23.9216L68.5328 21.6134C68.1015 21.3267 67.6906 20.9994 67.3065 20.6303Z" stroke="#03303D" stroke-width="2.5" stroke-miterlimit="10" stroke-linecap="round" stroke-linejoin="round"/>
<path d="M54.0596 19.4326L51.8906 21.5156L54.6752 24.1899L56.8442 22.1068L54.0596 19.4326Z" stroke="#03303D" stroke-width="2.5" stroke-miterlimit="10" stroke-linecap="round" stroke-linejoin="round"/>
<path d="M50.3055 12.1353L55.1167 16.7559C55.5954 17.2156 55.5954 17.9611 55.1167 18.4208L50.8371 22.5309C50.3584 22.9906 49.5822 22.9906 49.1035 22.5309L40.3434 14.1178C39.8647 13.6581 39.8647 12.9127 40.3434 12.4529L44.623 8.34285C45.1017 7.88311 45.8779 7.88311 46.3566 8.34285L48.5587 10.4577" stroke="#03303D" stroke-width="2.5" stroke-miterlimit="10" stroke-linecap="round" stroke-linejoin="round"/>
<path d="M65.8487 30.7548L63.6797 32.8379L66.4643 35.5122L68.6333 33.4291L65.8487 30.7548Z" stroke="#03303D" stroke-width="2.5" stroke-miterlimit="10" stroke-linecap="round" stroke-linejoin="round"/>
<path d="M69.6979 42.3066L74.1738 46.6052C74.6525 47.0649 75.4287 47.0649 75.9074 46.6052L80.187 42.4951C80.6657 42.0354 80.6657 41.2899 80.187 40.8302L71.4269 32.4171C70.9482 31.9573 70.172 31.9573 69.6933 32.4171L65.4137 36.5272C64.935 36.9869 64.935 37.7323 65.4137 38.1921L67.9623 40.6397" stroke="#03303D" stroke-width="2.5" stroke-miterlimit="10" stroke-linecap="round" stroke-linejoin="round"/>
<path d="M47.4096 35.0488L52.3789 39.8212L50.883 41.2578C49.9249 42.1779 48.3717 42.1779 47.4137 41.2578L45.9138 39.8173C44.9558 38.8973 44.9558 37.4055 45.9138 36.4855L47.4096 35.0488Z" stroke="#03303D" stroke-width="2.5" stroke-miterlimit="10" stroke-linecap="round" stroke-linejoin="round"/>
</svg>
