<svg width="477" height="425" viewBox="0 0 477 425" fill="none" xmlns="http://www.w3.org/2000/svg">
<path d="M377.844 188.293C329.705 188.293 290.672 148.498 290.672 99.417" stroke="#03313E" stroke-width="2.7998" stroke-miterlimit="10" stroke-linejoin="round"/>
<path d="M258.742 99.417C258.742 166.483 312.065 220.848 377.845 220.848" stroke="#03313E" stroke-width="2.7998" stroke-miterlimit="10" stroke-linejoin="round"/>
<path d="M377.849 154.279C348.123 154.279 324.039 129.724 324.039 99.417" stroke="#03313E" stroke-width="2.7998" stroke-miterlimit="10" stroke-linejoin="round"/>
<path d="M290.672 99.417C290.672 148.498 329.705 188.293 377.844 188.293" stroke="#03313E" stroke-width="2.7998" stroke-miterlimit="10" stroke-linejoin="round"/>
<path d="M389.9 87.1242C377.042 74.0146 356.194 74.0146 343.336 87.1242L389.9 134.599C402.759 121.489 402.787 100.234 389.9 87.1242Z" stroke="#03313E" stroke-width="2.7998" stroke-miterlimit="10" stroke-linejoin="round"/>
<path d="M420.021 101.358L457.523 139.593L472.569 124.253L435.067 86.0181L420.021 101.358Z" stroke="#03313E" stroke-width="2.7998" stroke-miterlimit="10" stroke-linejoin="round"/>
<path d="M429.907 47.5916C435.234 53.0222 435.234 61.8106 429.907 67.2413L400.039 97.694L380.766 78.0443L410.663 47.5916C415.961 42.1609 424.609 42.1609 429.907 47.5916Z" stroke="#03313E" stroke-width="2.7998" stroke-miterlimit="10" stroke-linejoin="round"/>
<path d="M351.641 126.132L366.618 110.862" stroke="#03313E" stroke-width="2.7998" stroke-miterlimit="10" stroke-linejoin="round"/>
<path d="M427.504 93.7226L415.734 81.6934" stroke="#03313E" stroke-width="2.7998" stroke-miterlimit="10" stroke-linejoin="round"/>
<path d="M392.229 42.3309L354.727 4.0957L339.681 19.4352L377.183 57.6704L392.229 42.3309Z" stroke="#03313E" stroke-width="2.7998" stroke-miterlimit="10" stroke-linejoin="round"/>
<path d="M384.75 49.9561L396.549 61.9853" stroke="#03313E" stroke-width="2.7998" stroke-miterlimit="10" stroke-linejoin="round"/>
<path d="M293.915 320.996C293.978 299.323 282.579 281.72 268.455 281.678C254.331 281.636 242.831 299.171 242.769 320.843C242.707 342.515 254.106 360.118 268.229 360.16C282.353 360.203 293.853 342.668 293.915 320.996Z" stroke="#03313E" stroke-width="2.49" stroke-miterlimit="10"/>
<path d="M268.336 283.768V400.469" stroke="#03313E" stroke-width="2.49" stroke-miterlimit="10"/>
<path d="M239.97 258.13C240.032 236.458 228.633 218.855 214.51 218.813C200.386 218.771 188.886 236.305 188.824 257.978C188.761 279.65 200.16 297.253 214.284 297.295C228.408 297.337 239.908 279.803 239.97 258.13Z" stroke="#03313E" stroke-width="2.49" stroke-miterlimit="10"/>
<path d="M214.406 221.285V400.468" stroke="#03313E" stroke-width="2.49" stroke-miterlimit="10"/>
<path d="M175.372 351.096L151.46 308.877H164.719L145.36 274.716H156.243L131.214 230.512L106.184 274.716H117.067L97.7364 308.877H110.967L87.0547 351.096H175.372Z" stroke="#03313E" stroke-width="2.49" stroke-miterlimit="10"/>
<path d="M131.211 232.644V400.469" stroke="#03313E" stroke-width="2.49" stroke-miterlimit="10"/>
<path d="M19.0391 334.542C19.0391 334.542 38.1116 354.104 40.4885 356.557" stroke="#03313E" stroke-width="2.49" stroke-miterlimit="10"/>
<path d="M41.0078 356.528C43.4134 354.075 61.9704 335.272 61.9704 335.272" stroke="#03313E" stroke-width="2.49" stroke-miterlimit="10"/>
<path d="M5.64062 286.162C5.64062 286.162 36.4831 317.783 40.4064 321.812" stroke="#03313E" stroke-width="2.49" stroke-miterlimit="10"/>
<path d="M41.1797 321.9C44.788 318.25 75.2582 287.359 75.2582 287.359" stroke="#03313E" stroke-width="2.49" stroke-miterlimit="10"/>
<path d="M40.5234 247.038V400.469" stroke="#03313E" stroke-width="2.49" stroke-miterlimit="10"/>
<path d="M19.0391 263.943L40.7462 286.192" stroke="#03313E" stroke-width="2.49" stroke-miterlimit="10"/>
<path d="M41.0078 285.928C43.4706 283.447 61.9704 264.673 61.9704 264.673" stroke="#03313E" stroke-width="2.49" stroke-miterlimit="10"/>
</svg>
