<svg width="43" height="42" viewBox="0 0 43 42" fill="none" xmlns="http://www.w3.org/2000/svg">
<path d="M35.9094 11.4786L27.313 3.1709C25.0218 6.4655 25.3818 10.9703 28.3956 13.8829C31.4095 16.7955 36.0709 17.1434 39.48 14.9292L37.6331 13.1443" stroke="#03303D" stroke-width="2.5" stroke-miterlimit="10" stroke-linecap="round" stroke-linejoin="round"/>
<path d="M33.3984 9.04441L35.9121 6.61523" stroke="#03303D" stroke-width="2.5" stroke-miterlimit="10" stroke-linecap="round" stroke-linejoin="round"/>
<path d="M38.8821 5.89867C39.1673 4.9881 38.6347 4.0264 37.6924 3.75065C36.7501 3.4749 35.755 3.98952 35.4697 4.90009C35.1844 5.81066 35.717 6.77237 36.6593 7.04811C37.6016 7.32386 38.5968 6.80924 38.8821 5.89867Z" stroke="#03303D" stroke-width="2.5" stroke-miterlimit="10" stroke-linecap="round" stroke-linejoin="round"/>
<path d="M30.6184 20.454L21.6719 11.8076L10.4785 22.6254L19.4251 31.2718L30.6184 20.454Z" stroke="#03303D" stroke-width="2.5" stroke-miterlimit="10" stroke-linecap="round" stroke-linejoin="round"/>
<path d="M19.4309 31.2683L10.4842 22.6221L8.6273 24.4166C7.52007 25.4867 7.52007 27.2217 8.6273 28.2917L13.5642 33.0629C14.6715 34.1329 16.4667 34.1329 17.574 33.0629L19.4309 31.2683Z" stroke="#03303D" stroke-width="2.5" stroke-miterlimit="10" stroke-linecap="round" stroke-linejoin="round"/>
<path d="M28.3945 13.879C28.0409 13.5373 27.7253 13.1729 27.4448 12.792L25.0703 15.0865L27.2253 17.169L29.613 14.8617C29.1844 14.5751 28.7761 14.2478 28.3945 13.879Z" stroke="#03303D" stroke-width="2.5" stroke-miterlimit="10" stroke-linecap="round" stroke-linejoin="round"/>
<path d="M15.2413 12.6816L13.0859 14.7646L15.853 17.4389L18.0083 15.3559L15.2413 12.6816Z" stroke="#03303D" stroke-width="2.5" stroke-miterlimit="10" stroke-linecap="round" stroke-linejoin="round"/>
<path d="M11.504 5.38637L16.284 10.006C16.7596 10.4657 16.7596 11.211 16.284 11.6706L12.0322 15.7798C11.5566 16.2395 10.7854 16.2395 10.3099 15.7798L1.60669 7.36851C1.1311 6.90888 1.1311 6.1636 1.60669 5.70396L5.85851 1.59473C6.3341 1.13509 7.10524 1.13509 7.58082 1.59473L9.76864 3.70918" stroke="#03303D" stroke-width="2.5" stroke-miterlimit="10" stroke-linecap="round" stroke-linejoin="round"/>
<path d="M26.9444 24.001L24.7891 26.084L27.5561 28.7582L29.7114 26.6752L26.9444 24.001Z" stroke="#03303D" stroke-width="2.5" stroke-miterlimit="10" stroke-linecap="round" stroke-linejoin="round"/>
<path d="M30.7693 35.5506L35.2161 39.8483C35.6917 40.3079 36.4628 40.3079 36.9384 39.8483L41.1902 35.739C41.6658 35.2794 41.6658 34.5341 41.1902 34.0745L32.4871 25.6631C32.0115 25.2035 31.2403 25.2035 30.7648 25.6631L26.5129 29.7723C26.0374 30.232 26.0374 30.9772 26.5129 31.4369L29.045 33.884" stroke="#03303D" stroke-width="2.5" stroke-miterlimit="10" stroke-linecap="round" stroke-linejoin="round"/>
<path d="M8.62204 28.2939L13.5595 33.0653L12.0732 34.5015C11.1213 35.4214 9.57794 35.4214 8.6261 34.5015L7.13582 33.0614C6.18389 32.1415 6.18389 30.6501 7.13582 29.7303L8.62204 28.2939Z" stroke="#03303D" stroke-width="2.5" stroke-miterlimit="10" stroke-linecap="round" stroke-linejoin="round"/>
</svg>
