<svg width="117" height="22" viewBox="0 0 117 22" fill="none" xmlns="http://www.w3.org/2000/svg">
<path d="M10.6323 18.9992C12.9448 19.0597 15.1566 18.2143 16.6298 16.6965C17.8881 15.3988 18.5197 13.7431 18.4566 11.9084L18.4553 11.8685C18.4553 11.8128 18.4553 11.7584 18.4553 11.704C17.0124 11.7052 15.2914 11.7088 15.2914 11.7088C14.9744 11.7112 14.6501 11.7161 14.3258 11.7209C11.6477 11.762 8.87848 11.8056 6.25988 10.4909C5.02709 9.8729 4.1186 9.07589 3.55868 8.12528C3.34856 7.76729 3.19188 7.39116 3.085 7.00656C2.59431 8.09384 2.32589 9.32745 2.32589 10.6627C2.32589 15.2246 6.05097 18.9654 10.6323 19.0029V18.9992ZM10.8704 21.3201C9.67159 21.3274 8.48375 21.1569 7.34448 20.7807C6.26716 20.4239 5.25057 19.8942 4.33965 19.2194C3.43601 18.5505 2.63925 17.7414 1.98582 16.8295C1.32631 15.9092 0.81376 14.8848 0.477325 13.8047C0.160323 12.7888 0 11.7257 0 10.6627C0 5.91203 2.81294 2.07452 6.95704 0.62684C10.1368 -0.565655 14.2165 -0.0443925 17.146 2.08541C17.5809 2.40107 17.9902 2.75422 18.3642 3.13277L16.7015 4.7534C16.7355 4.72075 16.0177 4.16078 15.9643 4.11966C15.5756 3.81852 15.1821 3.55123 14.7424 3.32507C13.7562 2.82074 12.6716 2.50871 11.5712 2.39018C10.1343 2.23538 8.61371 2.36841 7.2959 2.99369C6.67283 3.28879 6.09712 3.68306 5.71332 4.26479C5.36353 4.7921 5.1777 5.43552 5.26029 6.06684C5.30037 6.38008 5.40846 6.68244 5.56757 6.95456C5.89672 7.51452 6.48214 8.00676 7.30805 8.42159C8.61249 9.0771 10.0675 9.31536 11.5153 9.38792C13.0663 9.46533 14.621 9.39155 16.172 9.38913C17.3112 9.38672 18.4517 9.3843 19.591 9.3843H20.7314L20.7557 10.5756C20.763 10.7643 20.7824 11.2625 20.7824 11.8479C20.8614 14.2825 19.982 16.5755 18.3035 18.305C17.3792 19.2581 16.2473 20.0019 15.0193 20.5074C13.7173 21.0444 12.3194 21.3056 10.9129 21.3177C10.8983 21.3201 10.8849 21.3201 10.8704 21.3201Z" fill="#59BF99"/>
<path d="M32.8437 14.0987C31.6067 14.0987 30.4723 13.5839 29.7777 12.9883L28.7812 14.6438C29.8131 15.5335 31.3803 15.9903 32.8378 15.9903C34.9073 15.9903 36.7764 14.9088 36.7764 12.6362C36.7764 10.8406 35.4297 10.0545 33.7104 9.75289L33.1668 9.65699C32.0123 9.4513 31.181 9.22291 31.181 8.46453C31.181 7.6847 31.9439 7.22917 33.0229 7.22917C34.0748 7.22917 34.9958 7.60394 35.7516 8.10364L36.6585 6.42663C35.4486 5.65438 34.3283 5.33008 32.9805 5.33008C30.931 5.33008 29.1445 6.44808 29.1445 8.59703C29.1445 10.4583 30.3815 11.2595 32.0795 11.5472L32.6916 11.6507C34.0311 11.8779 34.7328 12.1428 34.7328 12.8571C34.734 13.6495 33.9085 14.0987 32.8437 14.0987Z" fill="#002E3F"/>
<path d="M41.1129 10.3066C42.2097 10.3066 42.9519 11.1412 42.9519 12.2594C42.9519 13.3788 42.2084 14.2134 41.1129 14.2134C39.987 14.2134 39.2726 13.3437 39.2726 12.2594C39.2726 11.1763 39.987 10.3066 41.1129 10.3066ZM40.7594 15.9904C41.7377 15.9904 42.4293 15.5951 42.8938 15.0254V15.8085H44.7707V8.71908H42.8938V9.50219C42.423 8.92364 41.7389 8.52832 40.7594 8.52832C38.7942 8.52832 37.3086 10.1309 37.3086 12.2594C37.3073 14.3891 38.7942 15.9904 40.7594 15.9904Z" fill="#002E3F"/>
<path d="M48.9508 15.9904C50.0966 15.9904 51.0569 15.5148 51.7008 14.6589L50.3864 13.4955C49.9972 13.9335 49.4891 14.2121 48.895 14.2121C47.9407 14.2121 47.1841 13.4441 47.1841 12.2581C47.1841 11.081 47.948 10.3054 48.9023 10.3054C49.5025 10.3054 49.9487 10.5539 50.3658 11.0157L51.6947 9.86739C51.0654 9.01149 50.0978 8.52832 48.952 8.52832C46.7682 8.52832 45.3047 10.1159 45.3047 12.2594C45.3035 14.4104 46.767 15.9904 48.9508 15.9904Z" fill="#002E3F"/>
<path d="M54.1271 11.782C54.1271 10.7795 54.7286 10.2633 55.6048 10.2633C55.9888 10.2633 56.4374 10.3469 56.7494 10.4796L57.0315 8.67529C56.7705 8.58448 56.4511 8.52832 56.0459 8.52832C55.1847 8.52832 54.5099 8.8139 54.0675 9.44718V8.70875H52.2344V15.4574H54.1259V11.782H54.1271Z" fill="#002E3F"/>
<path d="M60.0196 10.1758C60.8271 10.1758 61.3676 10.6878 61.5407 11.595H58.4478C58.6147 10.7166 59.1329 10.1758 60.0196 10.1758ZM60.1284 15.9904C61.3033 15.9904 62.3124 15.6542 63.1051 14.9151L62.002 13.6854C61.4974 14.1171 60.842 14.3655 60.236 14.3655C59.3493 14.3655 58.6432 13.9188 58.4403 12.8949H63.3933C63.4143 12.7343 63.4291 12.4708 63.4291 12.2525C63.4217 10.0441 62.0453 8.52832 60.0332 8.52832C57.942 8.52832 56.5 10.0504 56.5 12.2813C56.5012 14.5136 57.9865 15.9904 60.1284 15.9904Z" fill="#002E3F"/>
<path d="M67.4923 10.3036C68.5112 10.3036 69.2017 11.1386 69.2017 12.2573C69.2017 13.3773 68.5112 14.2123 67.4923 14.2123C66.4465 14.2123 65.7841 13.3422 65.7841 12.2573C65.7841 11.1737 66.4477 10.3036 67.4923 10.3036ZM67.1652 15.9903C68.0739 15.9903 68.7163 15.5947 69.1478 15.0247V15.8082H70.8901V5.33008H69.1138V9.45477C68.6823 8.89854 68.0539 8.52436 67.1664 8.52436C65.3409 8.52436 63.9609 10.1278 63.9609 12.2573C63.9598 14.3881 65.3397 15.9903 67.1652 15.9903Z" fill="#002E3F"/>
<path d="M79.2943 10.0969V11.8081H81.7059C81.4549 13.2698 80.5541 14.0787 79.0095 14.0787C77.3696 14.0787 76.0482 12.7632 76.0482 10.6627C76.0482 8.65792 77.308 7.27688 79.0432 7.27688C80.0125 7.27688 80.7982 7.68766 81.334 8.35676L82.6949 6.9102C81.8547 5.91853 80.6018 5.33008 79.0967 5.33008C76.183 5.33008 74.0898 7.55662 74.0898 10.6639C74.0898 13.9842 76.4201 15.9903 79.0491 15.9903C81.7396 15.9903 83.684 13.794 83.684 10.6791C83.684 10.4875 83.677 10.2973 83.6573 10.0982H79.2943V10.0969Z" fill="#002E3F"/>
<path d="M88.5626 8.52832C87.6999 8.52832 87.0261 8.81385 86.5836 9.44702V8.70872H84.75V15.4574H86.642V11.7802C86.642 10.7779 87.2436 10.2618 88.12 10.2618C88.5041 10.2618 88.9529 10.3454 89.2649 10.478L89.5471 8.67407C89.2873 8.58447 88.969 8.52832 88.5626 8.52832Z" fill="#002E3F"/>
<path d="M92.7354 14.2112C91.6888 14.2112 90.9059 13.4069 90.9059 12.2575C90.9059 11.1094 91.6888 10.3051 92.7354 10.3051C93.7821 10.3051 94.5723 11.1094 94.5723 12.2575C94.5723 13.4069 93.7821 14.2112 92.7354 14.2112ZM92.7354 8.52832C90.5921 8.52832 89.0117 10.1231 89.0117 12.2588C89.0117 14.3956 90.5921 15.9904 92.7354 15.9904C94.8849 15.9904 96.4738 14.3956 96.4738 12.2588C96.4738 10.1231 94.8862 8.52832 92.7354 8.52832Z" fill="#002E3F"/>
<path d="M101.473 8.52832L99.6978 13.4912L97.9346 8.52832H95.9414L98.6295 15.4574H100.743L103.404 8.52832H101.473Z" fill="#002E3F"/>
<path d="M105.198 11.5925C105.351 10.7141 105.83 10.1733 106.649 10.1733C107.394 10.1733 107.893 10.6853 108.053 11.5925H105.198ZM106.663 8.52832C104.732 8.52832 103.402 10.0504 103.402 12.2813C103.402 14.5123 104.773 15.9904 106.749 15.9904C107.834 15.9904 108.766 15.6542 109.498 14.9151L108.48 13.6854C108.014 14.1171 107.409 14.3655 106.85 14.3655C106.031 14.3655 105.38 13.9188 105.193 12.8949H109.765C109.786 12.7343 109.798 12.4708 109.798 12.2512C109.79 10.0416 108.519 8.52832 106.663 8.52832Z" fill="#002E3F"/>
<path d="M114.008 11.4569L113.432 11.3615C112.843 11.266 112.374 11.1643 112.374 10.7536C112.374 10.3656 112.708 10.1094 113.372 10.1094C114.101 10.1169 114.924 10.4095 115.44 10.6871L116.029 9.20144C115.165 8.74056 114.356 8.52832 113.318 8.52832C111.611 8.52832 110.581 9.39233 110.581 10.8491C110.581 12.0572 111.324 12.7743 112.823 13.0016L113.351 13.0832C114.101 13.2 114.429 13.3909 114.429 13.735C114.429 14.1532 114.041 14.4018 113.231 14.4018C112.254 14.4018 111.578 14.108 111.022 13.7061L110.332 15.1553C111.176 15.8071 112.333 15.9904 113.217 15.9904C115.098 15.9904 116.195 15.0461 116.195 13.5818C116.197 12.3799 115.414 11.6917 114.008 11.4569Z" fill="#002E3F"/>
</svg>
