<svg width="302" height="82" viewBox="0 0 302 82" fill="none" xmlns="http://www.w3.org/2000/svg">
<path d="M201.363 67.5C197.563 67.5 194.463 64.4 194.463 60.6V46.9C194.463 43.1 197.563 40 201.363 40C205.163 40 208.263 43.1 208.263 46.9V60.6C208.163 64.4 205.063 67.5 201.363 67.5Z" stroke="white" stroke-width="2.5095" stroke-miterlimit="10"/>
<path d="M36.064 61.4L26.864 45.5H31.9641L24.4641 32.7H28.6641L19.064 16L9.46405 32.7H13.6641L6.26404 45.5H11.264L2.16406 61.4H36.064Z" stroke="white" stroke-width="2.5095" stroke-miterlimit="10"/>
<path d="M19.0645 17V80.2" stroke="white" stroke-width="2.5095" stroke-miterlimit="10"/>
<path d="M78.6637 61.4L69.4637 45.5H74.5637L67.1637 32.7H71.3636L61.7637 16L52.1637 32.7H56.2637L48.8636 45.5H53.9637L44.7637 61.4H78.6637Z" stroke="white" stroke-width="2.5095" stroke-miterlimit="10"/>
<path d="M61.7637 17V80.2" stroke="white" stroke-width="2.5095" stroke-miterlimit="10"/>
<path d="M221.964 28.8C225.223 28.8 227.864 26.1585 227.864 22.9C227.864 19.6415 225.223 17 221.964 17C218.706 17 216.064 19.6415 216.064 22.9C216.064 26.1585 218.706 28.8 221.964 28.8Z" stroke="white" stroke-width="2.5095" stroke-miterlimit="10"/>
<path d="M243.564 49.9016C246.823 49.9016 249.464 47.2601 249.464 44.0016C249.464 40.7431 246.823 38.1016 243.564 38.1016C240.306 38.1016 237.664 40.7431 237.664 44.0016C237.664 47.2601 240.306 49.9016 243.564 49.9016Z" stroke="white" stroke-width="2.5095" stroke-miterlimit="10"/>
<path d="M265.464 28.8C268.723 28.8 271.364 26.1585 271.364 22.9C271.364 19.6415 268.723 17 265.464 17C262.206 17 259.564 19.6415 259.564 22.9C259.564 26.1585 262.206 28.8 265.464 28.8Z" stroke="white" stroke-width="2.5095" stroke-miterlimit="10"/>
<path d="M287.164 49.9016C290.422 49.9016 293.064 47.2601 293.064 44.0016C293.064 40.7431 290.422 38.1016 287.164 38.1016C283.905 38.1016 281.264 40.7431 281.264 44.0016C281.264 47.2601 283.905 49.9016 287.164 49.9016Z" stroke="white" stroke-width="2.5095" stroke-miterlimit="10"/>
<path d="M225.965 27.1992L239.465 39.7992" stroke="white" stroke-width="2.5095" stroke-miterlimit="10"/>
<path d="M269.564 27.1992L283.064 39.7992" stroke="white" stroke-width="2.5095" stroke-miterlimit="10"/>
<path d="M261.264 26.6992L248.664 40.1992" stroke="white" stroke-width="2.5095" stroke-miterlimit="10"/>
<path d="M178.364 42.6H145.264C143.864 42.6 142.764 41.5 142.764 40.1V18.5C142.764 17.1 143.864 16 145.264 16H178.364C179.764 16 180.864 17.1 180.864 18.5V40.1C180.964 41.5 179.764 42.6 178.364 42.6Z" stroke="white" stroke-width="2.5095" stroke-miterlimit="10"/>
<path d="M175.463 22.6992H168.863" stroke="white" stroke-width="2.5095" stroke-miterlimit="10"/>
<path d="M147.764 36.3008H175.564" stroke="white" stroke-width="2.5095" stroke-miterlimit="10"/>
<path d="M115.063 7.59998C111.963 10.7 110.463 14.7 110.463 18.7C114.463 18.7 118.563 17.2 121.563 14.1C124.663 11 126.163 7 126.163 3C122.163 3 118.163 4.59998 115.063 7.59998Z" stroke="white" stroke-width="2.5095" stroke-miterlimit="10"/>
<path d="M121.563 23.2992C118.463 20.1992 114.463 18.6992 110.463 18.6992C110.463 22.6992 111.963 26.7992 115.063 29.7992C118.163 32.8992 122.163 34.3992 126.163 34.3992C126.163 30.4992 124.663 26.3992 121.563 23.2992Z" stroke="white" stroke-width="2.5095" stroke-miterlimit="10"/>
<path d="M105.864 29.9008C108.964 26.8008 110.464 22.8008 110.464 18.8008C106.464 18.8008 102.364 20.3008 99.3636 23.4008C96.2636 26.5008 94.7637 30.5008 94.7637 34.5008C98.7637 34.5008 102.764 33.0008 105.864 29.9008Z" stroke="white" stroke-width="2.5095" stroke-miterlimit="10"/>
<path d="M99.3636 14.2016C102.464 17.3016 106.464 18.8016 110.464 18.8016C110.464 14.8016 108.964 10.7016 105.864 7.7016C102.764 4.6016 98.7637 3.10156 94.7637 3.10156C94.7637 7.10156 96.2636 11.1016 99.3636 14.2016Z" stroke="white" stroke-width="2.5095" stroke-miterlimit="10"/>
<path d="M251.963 72.6016L258.763 79.5015L265.863 72.6016" stroke="white" stroke-width="2.5095" stroke-miterlimit="10"/>
<path d="M258.863 68V79.5" stroke="white" stroke-width="2.5095" stroke-miterlimit="10"/>
<path d="M229.764 72.6016L236.664 79.5015L243.764 72.6016" stroke="white" stroke-width="2.5095" stroke-miterlimit="10"/>
<path d="M236.764 68V79.5" stroke="white" stroke-width="2.5095" stroke-miterlimit="10"/>
<path d="M273.463 72.6016L280.263 79.5015L287.363 72.6016" stroke="white" stroke-width="2.5095" stroke-miterlimit="10"/>
<path d="M280.463 68V79.5" stroke="white" stroke-width="2.5095" stroke-miterlimit="10"/>
<path d="M127.466 80H122.764C121.588 80 120.647 79.2162 120.491 78.0405L118.923 69.027C122.137 66.9892 125.664 65.3432 128.407 62.6C128.956 62.0513 129.504 61.5027 129.896 60.8757C130.68 59.6216 130.993 57.8189 129.739 56.7216C128.877 55.9378 127.623 55.8595 126.526 55.7027C125.35 55.4676 124.096 55.3108 122.92 55.154C122.92 52.8811 121.039 51 118.766 51C116.493 51 114.691 52.6459 114.612 55.3108C94.8609 58.2892 93.7637 79.8432 93.7637 79.8432H112.574" stroke="white" stroke-width="2.51" stroke-miterlimit="10"/>
<path d="M94 79.9236C100.035 79.7668 105.835 77.3371 110.459 73.3398C111.949 72.0074 113.83 70.0479 114.065 67.9317C114.3 66.0506 112.732 64.0128 110.851 63.6993C108.343 63.3074 105.914 64.9533 104.032 66.4425C101.132 68.7155 98.3892 71.6155 96.3514 74.7507C95.8027 75.5344 95.3324 76.3966 94.9405 77.2588C94.9405 77.5723 94.0784 79.9236 94 79.9236Z" stroke="white" stroke-width="2.51" stroke-miterlimit="10"/>
</svg>
