<svg width="43" height="42" viewBox="0 0 43 42" fill="none" xmlns="http://www.w3.org/2000/svg">
<path d="M36.0313 11.4831L27.4042 3.17188C25.1048 6.46787 25.4661 10.9746 28.4907 13.8884C31.5153 16.8023 36.1933 17.1503 39.6146 14.9351L37.7612 13.1495" stroke="#03303D" stroke-width="2.5" stroke-miterlimit="10" stroke-linecap="round" stroke-linejoin="round"/>
<path d="M33.5088 9.05065L36.0306 6.62109" stroke="#03303D" stroke-width="2.5" stroke-miterlimit="10" stroke-linecap="round" stroke-linejoin="round"/>
<path d="M39.0081 5.90434C39.2944 4.99364 38.76 4.03181 37.8147 3.75605C36.8693 3.48029 35.8709 3.99501 35.5847 4.90571C35.2984 5.81642 35.8328 6.77824 36.7781 7.054C37.7235 7.32977 38.7219 6.81505 39.0081 5.90434Z" stroke="#03303D" stroke-width="2.5" stroke-miterlimit="10" stroke-linecap="round" stroke-linejoin="round"/>
<path d="M30.7236 20.4622L21.7451 11.8125L10.5118 22.6344L19.4903 31.2841L30.7236 20.4622Z" stroke="#03303D" stroke-width="2.5" stroke-miterlimit="10" stroke-linecap="round" stroke-linejoin="round"/>
<path d="M19.4919 31.2826L10.5133 22.6328L8.64979 24.4281C7.53861 25.4986 7.53861 27.2343 8.64979 28.3048L13.6043 33.0779C14.7155 34.1484 16.5172 34.1484 17.6284 33.0779L19.4919 31.2826Z" stroke="#03303D" stroke-width="2.5" stroke-miterlimit="10" stroke-linecap="round" stroke-linejoin="round"/>
<path d="M28.4909 13.8843C28.1361 13.5424 27.8195 13.178 27.5379 12.7969L25.1553 15.0923L27.3177 17.1755L29.7137 14.8673C29.2836 14.5806 28.8739 14.2533 28.4909 13.8843Z" stroke="#03303D" stroke-width="2.5" stroke-miterlimit="10" stroke-linecap="round" stroke-linejoin="round"/>
<path d="M15.2855 12.6863L13.123 14.7695L15.8992 17.444L18.0616 15.3608L15.2855 12.6863Z" stroke="#03303D" stroke-width="2.5" stroke-miterlimit="10" stroke-linecap="round" stroke-linejoin="round"/>
<path d="M11.5406 5.38788L16.3376 10.0092C16.8149 10.469 16.8149 11.2146 16.3376 11.6744L12.0706 15.7851C11.5933 16.2449 10.8195 16.2449 10.3422 15.7851L1.60796 7.37075C1.13068 6.91095 1.13068 6.1654 1.60796 5.70559L5.87495 1.59485C6.35223 1.13505 7.12612 1.13505 7.6034 1.59485L9.79902 3.71007" stroke="#03303D" stroke-width="2.5" stroke-miterlimit="10" stroke-linecap="round" stroke-linejoin="round"/>
<path d="M27.0374 24.0105L24.875 26.0938L27.6512 28.7682L29.8136 26.685L27.0374 24.0105Z" stroke="#03303D" stroke-width="2.5" stroke-miterlimit="10" stroke-linecap="round" stroke-linejoin="round"/>
<path d="M30.8746 35.5641L35.3373 39.8633C35.8146 40.3231 36.5885 40.3231 37.0657 39.8633L41.3327 35.7526C41.81 35.2928 41.81 34.5472 41.3327 34.0874L32.5985 25.673C32.1212 25.2132 31.3473 25.2132 30.8701 25.673L26.6031 29.7837C26.1258 30.2435 26.1258 30.9891 26.6031 31.4489L29.1441 33.8969" stroke="#03303D" stroke-width="2.5" stroke-miterlimit="10" stroke-linecap="round" stroke-linejoin="round"/>
<path d="M8.65015 28.3047L13.6047 33.0778L12.1132 34.5146C11.158 35.4349 9.60936 35.4349 8.65423 34.5146L7.15879 33.074C6.20358 32.1537 6.20358 30.6617 7.15879 29.7416L8.65015 28.3047Z" stroke="#03303D" stroke-width="2.5" stroke-miterlimit="10" stroke-linecap="round" stroke-linejoin="round"/>
</svg>
