<svg width="476" height="424" viewBox="0 0 476 424" fill="none" xmlns="http://www.w3.org/2000/svg">
<path d="M376.697 187.722C328.703 187.722 289.789 148.047 289.789 99.1152" stroke="#03313E" stroke-width="2.7998" stroke-miterlimit="10" stroke-linejoin="round"/>
<path d="M257.955 99.1152C257.955 165.978 311.116 220.178 376.697 220.178" stroke="#03313E" stroke-width="2.7998" stroke-miterlimit="10" stroke-linejoin="round"/>
<path d="M376.697 153.81C347.062 153.81 323.051 129.33 323.051 99.1152" stroke="#03313E" stroke-width="2.7998" stroke-miterlimit="10" stroke-linejoin="round"/>
<path d="M289.789 99.1152C289.789 148.047 328.703 187.722 376.697 187.722" stroke="#03313E" stroke-width="2.7998" stroke-miterlimit="10" stroke-linejoin="round"/>
<path d="M388.716 86.86C375.897 73.7902 355.112 73.7902 342.293 86.86L388.716 134.191C401.535 121.121 401.564 99.9298 388.716 86.86Z" stroke="#03313E" stroke-width="2.7998" stroke-miterlimit="10" stroke-linejoin="round"/>
<path d="M418.748 101.051L456.137 139.17L471.136 123.877L433.748 85.7577L418.748 101.051Z" stroke="#03313E" stroke-width="2.7998" stroke-miterlimit="10" stroke-linejoin="round"/>
<path d="M428.602 47.4464C433.912 52.8606 433.912 61.6223 428.602 67.0366L398.823 97.3969L379.609 77.8068L409.416 47.4464C414.698 42.0322 423.32 42.0322 428.602 47.4464Z" stroke="#03313E" stroke-width="2.7998" stroke-miterlimit="10" stroke-linejoin="round"/>
<path d="M350.574 125.749L365.506 110.525" stroke="#03313E" stroke-width="2.7998" stroke-miterlimit="10" stroke-linejoin="round"/>
<path d="M426.203 93.4391L414.469 81.4463" stroke="#03313E" stroke-width="2.7998" stroke-miterlimit="10" stroke-linejoin="round"/>
<path d="M391.036 42.2023L353.648 4.08301L338.648 19.376L376.037 57.4953L391.036 42.2023Z" stroke="#03313E" stroke-width="2.7998" stroke-miterlimit="10" stroke-linejoin="round"/>
<path d="M383.578 49.8047L395.34 61.7975" stroke="#03313E" stroke-width="2.7998" stroke-miterlimit="10" stroke-linejoin="round"/>
<path d="M293.021 320.022C293.083 298.416 281.718 280.866 267.638 280.824C253.557 280.782 242.092 298.264 242.029 319.87C241.967 341.477 253.332 359.026 267.413 359.068C281.494 359.11 292.959 341.629 293.021 320.022Z" stroke="#03313E" stroke-width="2.49" stroke-miterlimit="10"/>
<path d="M267.519 282.907V399.255" stroke="#03313E" stroke-width="2.49" stroke-miterlimit="10"/>
<path d="M239.24 257.349C239.303 235.742 227.938 218.192 213.857 218.15C199.776 218.108 188.311 235.59 188.249 257.196C188.187 278.803 199.552 296.352 213.632 296.395C227.713 296.437 239.178 278.955 239.24 257.349Z" stroke="#03313E" stroke-width="2.49" stroke-miterlimit="10"/>
<path d="M213.757 220.614V399.254" stroke="#03313E" stroke-width="2.49" stroke-miterlimit="10"/>
<path d="M174.843 350.032L151.003 307.941H164.222L144.922 273.884H155.771L130.818 229.813L105.865 273.884H116.714L97.4423 307.941H110.633L86.793 350.032H174.843Z" stroke="#03313E" stroke-width="2.49" stroke-miterlimit="10"/>
<path d="M130.819 231.938V399.255" stroke="#03313E" stroke-width="2.49" stroke-miterlimit="10"/>
<path d="M18.9854 333.526C18.9854 333.526 38 353.029 40.3697 355.474" stroke="#03313E" stroke-width="2.49" stroke-miterlimit="10"/>
<path d="M40.8848 355.446C43.283 353.001 61.7838 334.255 61.7838 334.255" stroke="#03313E" stroke-width="2.49" stroke-miterlimit="10"/>
<path d="M5.62402 285.294C5.62402 285.294 36.373 316.819 40.2844 320.836" stroke="#03313E" stroke-width="2.49" stroke-miterlimit="10"/>
<path d="M41.0552 320.923C44.6525 317.284 75.0304 286.487 75.0304 286.487" stroke="#03313E" stroke-width="2.49" stroke-miterlimit="10"/>
<path d="M40.3984 246.288V399.254" stroke="#03313E" stroke-width="2.49" stroke-miterlimit="10"/>
<path d="M18.9854 263.142L40.6267 285.322" stroke="#03313E" stroke-width="2.49" stroke-miterlimit="10"/>
<path d="M40.8848 285.061C43.3401 282.587 61.7838 263.87 61.7838 263.87" stroke="#03313E" stroke-width="2.49" stroke-miterlimit="10"/>
</svg>
