<svg width="171" height="250" viewBox="0 0 171 250" fill="none" xmlns="http://www.w3.org/2000/svg">
<path d="M168.047 246.849L168.047 2.33008L2.33333 2.33007L2.33332 246.849L168.047 246.849Z" stroke="white" stroke-width="4.66058" stroke-miterlimit="10"/>
<path d="M168.047 124.59L2.33333 124.59" stroke="white" stroke-width="4.66058" stroke-miterlimit="10"/>
<path d="M130.555 246.852L130.555 203.463L39.8261 203.463L39.8261 246.852L130.555 246.852Z" stroke="white" stroke-width="4.66058" stroke-miterlimit="10"/>
<path d="M130.555 45.7194L130.555 2.33008L39.8261 2.33007L39.8261 45.7194L130.555 45.7194Z" stroke="white" stroke-width="4.66058" stroke-miterlimit="10"/>
<path d="M61.1963 125.556C61.1963 139.189 71.9395 150.241 85.1919 150.241C98.4443 150.241 109.187 139.189 109.187 125.556C109.187 111.924 98.4443 100.872 85.1919 100.872C71.9395 100.872 61.1963 111.924 61.1963 125.556Z" stroke="white" stroke-width="4.66058" stroke-miterlimit="10"/>
</svg>
