<svg width="133" height="115" viewBox="0 0 133 115" fill="none" xmlns="http://www.w3.org/2000/svg">
<path d="M66.2148 0C66.2148 0 66.2148 17.4855 66.2148 38.6443" stroke="white" stroke-width="2.5" stroke-miterlimit="10"/>
<path d="M66.2148 76.8457C66.2148 97.4168 66.2148 114.168 66.2148 114.168" stroke="white" stroke-width="2.5" stroke-miterlimit="10"/>
<path d="M33.0234 7.64062C33.0234 7.64062 43.0661 22.7751 55.4917 41.1422" stroke="white" stroke-width="2.5" stroke-miterlimit="10"/>
<path d="M77.7891 74.6426C89.5339 92.275 99.0659 106.528 99.0659 106.528" stroke="white" stroke-width="2.5" stroke-miterlimit="10"/>
<path d="M8.85156 28.5059C8.85156 28.5059 25.7028 36.8812 46.4689 47.1668" stroke="white" stroke-width="2.5" stroke-miterlimit="10"/>
<path d="M84.0859 66.1211C105.533 76.8475 123.405 85.6637 123.405 85.6637" stroke="white" stroke-width="2.5" stroke-miterlimit="10"/>
<path d="M0 57.1582C0 57.1582 19.7449 57.1582 44.0855 57.1582" stroke="white" stroke-width="2.5" stroke-miterlimit="10"/>
<path d="M89.0234 57.1582C112.853 57.1582 132.258 57.1582 132.258 57.1582" stroke="white" stroke-width="2.5" stroke-miterlimit="10"/>
<path d="M8.85156 85.6634C8.85156 85.6634 25.7028 77.288 46.6391 66.8555" stroke="white" stroke-width="2.5" stroke-miterlimit="10"/>
<path d="M85.4492 47.4607C106.386 37.0282 123.407 28.5059 123.407 28.5059" stroke="white" stroke-width="2.5" stroke-miterlimit="10"/>
<path d="M33.3633 106.968C33.3633 106.968 43.4059 91.9804 55.6614 73.6133" stroke="white" stroke-width="2.5" stroke-miterlimit="10"/>
<path d="M78.1289 40.1118C90.0439 22.4794 99.5759 8.22656 99.5759 8.22656" stroke="white" stroke-width="2.5" stroke-miterlimit="10"/>
<path d="M66.2127 76.7004C78.7156 76.7004 88.8512 67.9509 88.8512 57.1578C88.8512 46.3647 78.7156 37.6152 66.2127 37.6152C53.7098 37.6152 43.5742 46.3647 43.5742 57.1578C43.5742 67.9509 53.7098 76.7004 66.2127 76.7004Z" stroke="white" stroke-width="2.5" stroke-miterlimit="10"/>
</svg>
