<svg width="11" height="24" viewBox="0 0 11 24" fill="none" xmlns="http://www.w3.org/2000/svg">
<path d="M8.10564 14.331V3.49833C8.10564 1.98139 6.87425 0.75 5.35731 0.75H4.98552C3.46858 0.75 2.23719 1.98139 2.23719 3.49833V14.5422C1.32406 15.372 0.75 16.5677 0.75 17.8973C0.75 20.4077 2.78448 22.4421 5.29485 22.4421C7.80523 22.4421 9.8397 20.4077 9.8397 17.8973C9.8397 16.4488 9.16154 15.1638 8.10564 14.331Z" stroke="#57C09B" stroke-width="1.5" stroke-miterlimit="10"/>
<path d="M5.3152 19.5132C6.24004 19.5132 6.98977 18.7635 6.98977 17.8386C6.98977 16.9138 6.24004 16.1641 5.3152 16.1641C4.39036 16.1641 3.64062 16.9138 3.64062 17.8386C3.64062 18.7635 4.39036 19.5132 5.3152 19.5132Z" stroke="#57C09B" stroke-width="1.5" stroke-miterlimit="10"/>
<path d="M5.31641 16.1628V4.55078" stroke="#57C09B" stroke-width="1.5" stroke-miterlimit="10"/>
<path d="M8.10547 5.13281H10.7497" stroke="#57C09B" stroke-width="1.5" stroke-miterlimit="10"/>
<path d="M8.10547 8.16797H10.7497" stroke="#57C09B" stroke-width="1.5" stroke-miterlimit="10"/>
<path d="M8.10547 11.2031H10.7497" stroke="#57C09B" stroke-width="1.5" stroke-miterlimit="10"/>
</svg>
