<svg width="303" height="83" viewBox="0 0 303 83" fill="none" xmlns="http://www.w3.org/2000/svg">
<path d="M247.055 14.7773H291.055C296.455 14.7773 300.855 19.1773 300.855 24.5773V32.7773V39.1774V65.1774C300.855 66.2774 299.455 66.7774 298.755 65.8774L285.755 48.9774H247.055C241.655 48.9774 237.255 44.5774 237.255 39.1774V24.5773C237.255 19.1773 241.655 14.7773 247.055 14.7773Z" stroke="white" stroke-width="2.7708" stroke-miterlimit="10"/>
<path d="M283.155 31.9766H278.955" stroke="white" stroke-width="2.7708" stroke-miterlimit="10"/>
<path d="M271.155 31.9766H266.955" stroke="white" stroke-width="2.7708" stroke-miterlimit="10"/>
<path d="M259.054 31.9766H254.854" stroke="white" stroke-width="2.7708" stroke-miterlimit="10"/>
<path d="M7.15491 36.0773C10.4134 36.0773 13.0549 33.4358 13.0549 30.1774C13.0549 26.9189 10.4134 24.2773 7.15491 24.2773C3.89643 24.2773 1.25488 26.9189 1.25488 30.1774C1.25488 33.4358 3.89643 36.0773 7.15491 36.0773Z" stroke="white" stroke-width="2.5095" stroke-miterlimit="10"/>
<path d="M28.7545 57.179C32.0129 57.179 34.6545 54.5374 34.6545 51.2789C34.6545 48.0205 32.0129 45.3789 28.7545 45.3789C25.496 45.3789 22.8545 48.0205 22.8545 51.2789C22.8545 54.5374 25.496 57.179 28.7545 57.179Z" stroke="white" stroke-width="2.5095" stroke-miterlimit="10"/>
<path d="M50.6549 36.0773C53.9134 36.0773 56.5549 33.4358 56.5549 30.1774C56.5549 26.9189 53.9134 24.2773 50.6549 24.2773C47.3964 24.2773 44.7549 26.9189 44.7549 30.1774C44.7549 33.4358 47.3964 36.0773 50.6549 36.0773Z" stroke="white" stroke-width="2.5095" stroke-miterlimit="10"/>
<path d="M72.3551 57.179C75.6136 57.179 78.2551 54.5374 78.2551 51.2789C78.2551 48.0205 75.6136 45.3789 72.3551 45.3789C69.0966 45.3789 66.4551 48.0205 66.4551 51.2789C66.4551 54.5374 69.0966 57.179 72.3551 57.179Z" stroke="white" stroke-width="2.5095" stroke-miterlimit="10"/>
<path d="M11.1553 34.4766L24.6553 47.0765" stroke="white" stroke-width="2.5095" stroke-miterlimit="10"/>
<path d="M54.7549 34.4766L68.2549 47.0765" stroke="white" stroke-width="2.5095" stroke-miterlimit="10"/>
<path d="M46.4545 33.9766L33.8545 47.4766" stroke="white" stroke-width="2.5095" stroke-miterlimit="10"/>
<path d="M147.155 80.4766C150.193 80.4766 152.655 78.0141 152.655 74.9766C152.655 71.939 150.193 69.4766 147.155 69.4766C144.118 69.4766 141.655 71.939 141.655 74.9766C141.655 78.0141 144.118 80.4766 147.155 80.4766Z" stroke="white" stroke-width="2.7708" stroke-miterlimit="10"/>
<path d="M110.255 51.2766C107.055 54.4766 105.455 58.6765 105.455 62.8765C109.655 62.8765 113.855 61.2765 117.055 58.0765C120.255 54.8765 121.855 50.6766 121.855 46.4766C117.655 46.5766 113.455 48.0766 110.255 51.2766Z" stroke="white" stroke-width="2.7708" stroke-miterlimit="10"/>
<path d="M117.155 67.675C113.955 64.475 109.755 62.875 105.555 62.875C105.555 67.075 107.155 71.275 110.355 74.475C113.555 77.675 117.755 79.275 121.955 79.275C121.955 75.175 120.355 70.975 117.155 67.675Z" stroke="white" stroke-width="2.7708" stroke-miterlimit="10"/>
<path d="M100.754 74.5765C103.954 71.3765 105.554 67.1766 105.554 62.9766C101.354 62.9766 97.1543 64.5766 93.9543 67.7766C90.7543 70.9766 89.1543 75.1765 89.1543 79.3765C93.2543 79.3765 97.5543 77.7765 100.754 74.5765Z" stroke="white" stroke-width="2.7708" stroke-miterlimit="10"/>
<path d="M93.8547 58.1782C97.0547 61.3782 101.255 62.9781 105.455 62.9781C105.455 58.7781 103.855 54.5781 100.655 51.3781C97.4547 48.1781 93.2547 46.5781 89.0547 46.5781C89.0547 50.7781 90.6547 54.9782 93.8547 58.1782Z" stroke="white" stroke-width="2.7708" stroke-miterlimit="10"/>
<path d="M193.455 51.2766C190.255 54.4766 188.655 58.6765 188.655 62.8765C192.855 62.8765 197.055 61.2765 200.255 58.0765C203.455 54.8765 205.055 50.6766 205.055 46.4766C200.855 46.5766 196.655 48.0766 193.455 51.2766Z" stroke="white" stroke-width="2.7708" stroke-miterlimit="10"/>
<path d="M200.255 67.675C197.055 64.475 192.855 62.875 188.655 62.875C188.655 67.075 190.255 71.275 193.455 74.475C196.655 77.675 200.855 79.275 205.055 79.275C205.055 75.175 203.455 70.975 200.255 67.675Z" stroke="white" stroke-width="2.7708" stroke-miterlimit="10"/>
<path d="M183.855 74.5765C187.055 71.3765 188.655 67.1766 188.655 62.9766C184.455 62.9766 180.255 64.5766 177.055 67.7766C173.855 70.9766 172.255 75.1765 172.255 79.3765C176.455 79.3765 180.655 77.7765 183.855 74.5765Z" stroke="white" stroke-width="2.7708" stroke-miterlimit="10"/>
<path d="M177.055 58.1782C180.255 61.3782 184.455 62.9781 188.655 62.9781C188.655 58.7781 187.055 54.5781 183.855 51.3781C180.655 48.1781 176.455 46.5781 172.255 46.5781C172.255 50.7781 173.855 54.9782 177.055 58.1782Z" stroke="white" stroke-width="2.7708" stroke-miterlimit="10"/>
<path d="M158.755 20.2773C154.255 20.2773 150.155 22.1773 147.155 25.0773C150.155 28.0773 154.255 29.8773 158.755 29.8773C163.255 29.8773 167.355 27.9773 170.355 25.0773C167.355 22.1773 163.255 20.2773 158.755 20.2773Z" stroke="white" stroke-width="2.7708" stroke-miterlimit="10"/>
<path d="M151.955 36.7758C151.955 32.2758 150.055 28.1758 147.155 25.1758C144.155 28.1758 142.355 32.2758 142.355 36.7758C142.355 41.2758 144.255 45.3757 147.155 48.3757C150.055 45.3757 151.955 41.2758 151.955 36.7758Z" stroke="white" stroke-width="2.7708" stroke-miterlimit="10"/>
<path d="M135.555 29.975C140.055 29.975 144.155 28.075 147.155 25.175C144.155 22.175 140.055 20.375 135.555 20.375C131.055 20.375 126.955 22.275 123.955 25.175C126.855 28.175 130.955 29.975 135.555 29.975Z" stroke="white" stroke-width="2.7708" stroke-miterlimit="10"/>
<path d="M142.255 13.5765C142.255 18.0765 144.155 22.1766 147.055 25.1766C150.055 22.1766 151.855 18.0765 151.855 13.5765C151.855 9.07654 149.955 4.97656 147.055 1.97656C144.155 4.87656 142.255 8.97654 142.255 13.5765Z" stroke="white" stroke-width="2.7708" stroke-miterlimit="10"/>
<path d="M249.155 73.3789L255.955 80.2789L263.055 73.3789" stroke="white" stroke-width="2.5095" stroke-miterlimit="10"/>
<path d="M256.056 68.7773V80.2773" stroke="white" stroke-width="2.5095" stroke-miterlimit="10"/>
<path d="M226.955 73.3789L233.855 80.2789L240.955 73.3789" stroke="white" stroke-width="2.5095" stroke-miterlimit="10"/>
<path d="M233.955 68.7773V80.2773" stroke="white" stroke-width="2.5095" stroke-miterlimit="10"/>
<path d="M270.655 73.3789L277.455 80.2789L284.555 73.3789" stroke="white" stroke-width="2.5095" stroke-miterlimit="10"/>
<path d="M277.655 68.7773V80.2773" stroke="white" stroke-width="2.5095" stroke-miterlimit="10"/>
</svg>
