<svg width="62" height="38" viewBox="0 0 62 38" fill="none" xmlns="http://www.w3.org/2000/svg">
<line x1="30.25" y1="11" x2="53.25" y2="11" stroke="white" stroke-width="2.5"/>
<line x1="30.25" y1="17" x2="53.25" y2="17" stroke="white" stroke-width="2.5"/>
<line x1="30.25" y1="23" x2="53.25" y2="23" stroke="white" stroke-width="2.5"/>
<path d="M56.6563 1.25L5.11744 1.25202C3.16134 1.38654 1.51007 2.21022 1.27513 4.32133C1.22545 4.7665 1.26461 5.25611 1.26545 5.70491L1.26629 31.1841C1.26587 31.7791 1.2284 32.4012 1.28103 32.993C1.42628 34.6255 2.82199 35.8931 4.49137 36.0442C4.9945 36.0894 5.52247 36.0583 6.02854 36.0583L56.5671 36.0248C58.3025 36.0167 59.6321 35.351 60.1509 33.6099L60.1681 33.5554C60.3066 33.0985 60.2275 32.4723 60.2275 31.9949L60.2279 5.66209C60.2279 5.14542 60.2506 4.61744 60.2195 4.10198C60.121 2.48088 58.2339 1.29888 56.6563 1.25Z" stroke="white" stroke-width="2.5" stroke-miterlimit="10"/>
</svg>
