<svg width="300" height="80" viewBox="0 0 300 80" fill="none" xmlns="http://www.w3.org/2000/svg">
<path d="M260.359 0.995117C260.359 0.995117 260.359 12.8373 260.359 27.1673" stroke="#03303D" stroke-width="2.4094" stroke-miterlimit="10"/>
<path d="M260.359 53.041C260.359 66.973 260.359 78.3176 260.359 78.3176" stroke="#03303D" stroke-width="2.4094" stroke-miterlimit="10"/>
<path d="M240.898 6.16992C240.898 6.16992 246.786 16.4199 254.071 28.8591" stroke="#03303D" stroke-width="2.4094" stroke-miterlimit="10"/>
<path d="M267.145 51.5483C274.03 63.49 279.619 73.1429 279.619 73.1429" stroke="#03303D" stroke-width="2.4094" stroke-miterlimit="10"/>
<path d="M226.727 20.3008C226.727 20.3008 236.606 25.9731 248.781 32.9391" stroke="#03303D" stroke-width="2.4094" stroke-miterlimit="10"/>
<path d="M270.836 45.7764C283.41 53.0409 293.888 59.0117 293.888 59.0117" stroke="#03303D" stroke-width="2.4094" stroke-miterlimit="10"/>
<path d="M221.539 39.7061C221.539 39.7061 233.115 39.7061 247.385 39.7061" stroke="#03303D" stroke-width="2.4094" stroke-miterlimit="10"/>
<path d="M273.73 39.7061C287.701 39.7061 299.078 39.7061 299.078 39.7061" stroke="#03303D" stroke-width="2.4094" stroke-miterlimit="10"/>
<path d="M226.727 59.0117C226.727 59.0117 236.606 53.3394 248.88 46.2739" stroke="#03303D" stroke-width="2.4094" stroke-miterlimit="10"/>
<path d="M271.633 33.1381C283.907 26.0726 293.886 20.3008 293.886 20.3008" stroke="#03303D" stroke-width="2.4094" stroke-miterlimit="10"/>
<path d="M241.098 73.4413C241.098 73.4413 246.985 63.2908 254.17 50.8516" stroke="#03303D" stroke-width="2.4094" stroke-miterlimit="10"/>
<path d="M267.344 28.1624C274.329 16.2207 279.918 6.56787 279.918 6.56787" stroke="#03303D" stroke-width="2.4094" stroke-miterlimit="10"/>
<path d="M260.358 52.9415C267.688 52.9415 273.631 47.0158 273.631 39.7061C273.631 32.3964 267.688 26.4707 260.358 26.4707C253.028 26.4707 247.086 32.3964 247.086 39.7061C247.086 47.0158 253.028 52.9415 260.358 52.9415Z" stroke="#03303D" stroke-width="2.4094" stroke-miterlimit="10"/>
<path d="M39.9161 31.8445C39.8163 31.8445 39.8163 31.8445 39.7165 31.8445C28.9389 31.8445 20.1573 40.6017 20.1573 51.3493C20.1573 40.6017 11.3755 31.8445 0.597973 31.8445C0.498181 31.8445 0.49823 31.8445 0.398438 31.8445" stroke="#03303D" stroke-width="2.7708" stroke-miterlimit="10"/>
<path d="M74.6451 10.9465H74.5453C68.0588 10.9465 62.7698 16.2208 62.7698 22.6892C62.7698 16.2208 57.4808 10.9465 50.9943 10.9465H50.8945" stroke="#03303D" stroke-width="2.7708" stroke-miterlimit="10"/>
<path d="M172.039 35.8252C172.039 35.8252 177.029 36.5218 178.825 40.4028" stroke="#03303D" stroke-width="2.5095" stroke-miterlimit="10"/>
<path d="M189.704 35.8252C189.704 35.8252 184.714 36.5218 182.918 40.4028" stroke="#03303D" stroke-width="2.5095" stroke-miterlimit="10"/>
<path d="M181.022 43.3882C183.017 43.3882 184.814 44.0848 186.211 45.279C186.211 45.1795 186.211 45.08 186.211 44.8809C186.211 41.995 183.816 39.6067 180.922 39.6067C178.028 39.6067 175.633 41.995 175.633 44.8809C175.633 45.08 175.633 45.279 175.633 45.478C177.13 44.1844 179.026 43.3882 181.022 43.3882Z" stroke="#03303D" stroke-width="2.5095" stroke-miterlimit="10"/>
<path d="M187.609 56.325C188.607 54.9318 189.106 53.1406 189.106 51.4489C189.106 46.9707 185.513 43.3882 181.022 43.3882C176.532 43.3882 172.939 46.9707 172.939 51.4489C172.939 53.2401 173.538 54.9318 174.436 56.325C172.939 58.4148 171.941 61.1017 171.941 64.1867C171.941 70.456 176.033 74.4366 181.022 74.4366C186.012 74.4366 190.104 70.456 190.104 64.1867C190.104 61.2012 189.205 58.4148 187.609 56.325Z" stroke="#03303D" stroke-width="2.5095" stroke-miterlimit="10"/>
<path d="M172.939 51.449C172.939 50.2548 173.238 49.1602 173.638 48.1651L155.376 42.4927C154.976 42.3932 154.478 42.2937 153.979 42.2937H153.879C151.584 42.2937 149.688 44.1845 149.688 46.4733C149.688 48.165 150.685 49.5582 152.082 50.2548C152.881 50.6529 153.38 51.3495 153.38 52.2451C153.38 55.131 155.575 57.5194 158.369 57.9174C159.767 58.1165 161.363 58.017 162.76 57.6189C164.257 57.2208 165.754 56.6237 167.251 56.2257C168.848 55.7281 170.444 55.2305 172.141 54.733C172.24 54.733 172.939 54.5339 173.538 54.3349C173.139 53.5388 172.939 52.5437 172.939 51.449Z" stroke="#03303D" stroke-width="2.5095" stroke-miterlimit="10"/>
<path d="M207.965 42.3933H207.866C207.367 42.3933 206.968 42.3933 206.469 42.5924L188.406 48.1652C188.905 49.1603 189.105 50.255 189.105 51.4491C189.105 52.5438 188.905 53.5389 188.506 54.4346C189.105 54.6336 189.604 54.7331 189.704 54.7331C191.3 55.2307 192.897 55.7282 194.593 56.2258C196.09 56.7234 197.587 57.221 199.084 57.619C200.481 58.0171 201.978 58.1166 203.475 57.9175C206.269 57.5195 208.464 55.0316 208.464 52.2452C208.464 51.3496 208.963 50.653 209.762 50.2549C211.159 49.5583 212.157 48.1652 212.157 46.4734C212.157 44.2841 210.261 42.3933 207.965 42.3933Z" stroke="#03303D" stroke-width="2.5095" stroke-miterlimit="10"/>
<path d="M172.938 48.9612H189.204" stroke="#03303D" stroke-width="2.5095" stroke-miterlimit="10"/>
<path d="M172.938 55.728H189.204" stroke="#03303D" stroke-width="2.5095" stroke-miterlimit="10"/>
<path d="M172.938 62.3955H189.204" stroke="#03303D" stroke-width="2.5095" stroke-miterlimit="10"/>
<path d="M130.329 23.6843H88.2164C83.0272 23.6843 78.8359 27.8639 78.8359 33.0387V40.8008V46.8711V71.6501C78.8359 72.7448 80.233 73.1429 80.8318 72.3467L93.206 56.2254H130.229C135.418 56.2254 139.609 52.0459 139.609 46.8711V32.9392C139.809 27.8639 135.518 23.6843 130.329 23.6843Z" stroke="#03303D" stroke-width="2.5095" stroke-miterlimit="10"/>
<path d="M95.8008 40.1042H99.7925" stroke="#03303D" stroke-width="2.5095" stroke-miterlimit="10"/>
<path d="M107.375 40.1042H111.367" stroke="#03303D" stroke-width="2.5095" stroke-miterlimit="10"/>
<path d="M118.852 40.1042H122.943" stroke="#03303D" stroke-width="2.5095" stroke-miterlimit="10"/>
<path d="M161.465 12.3398L168.75 19.6044L176.334 12.3398" stroke="#03303D" stroke-width="2.5095" stroke-miterlimit="10"/>
<path d="M168.848 7.46362V19.6044" stroke="#03303D" stroke-width="2.5095" stroke-miterlimit="10"/>
<path d="M184.414 12.3398L191.699 19.6044L199.283 12.3398" stroke="#03303D" stroke-width="2.5095" stroke-miterlimit="10"/>
<path d="M191.797 7.46362V19.6044" stroke="#03303D" stroke-width="2.5095" stroke-miterlimit="10"/>
<path d="M53.7893 61.4002C56.8206 61.4002 59.2779 58.9497 59.2779 55.9269C59.2779 52.9041 56.8206 50.4536 53.7893 50.4536C50.7581 50.4536 48.3008 52.9041 48.3008 55.9269C48.3008 58.9497 50.7581 61.4002 53.7893 61.4002Z" stroke="#03303D" stroke-width="2.7708" stroke-miterlimit="10"/>
</svg>
