<svg width="444" height="482" viewBox="0 0 444 482" fill="none" xmlns="http://www.w3.org/2000/svg">
<g clip-path="url(#clip0_2936_62529)">
<path d="M412.553 49.2616C404.028 17.1121 371.874 -1.32709 340.47 6.39559C311.93 13.4038 292.358 44.5327 295.699 73.6884C296.79 83.1461 299.45 92.2977 303.064 101.245C313.873 127.917 330.138 151.051 349.881 171.838C350.836 172.824 351.859 173.743 352.95 174.73C353.973 175.648 355.575 175.648 356.598 174.696C358.099 173.335 359.497 172.076 360.826 170.715C374.056 157.107 385.343 142.036 394.856 125.638C403.142 111.383 409.791 96.4482 412.86 80.1183C414.838 69.81 415.281 59.5018 412.553 49.2616Z" stroke="#03313E" stroke-width="2.7294" stroke-miterlimit="10" stroke-linejoin="round"/>
<path d="M334.297 62.1893C334.774 51.2347 343.81 42.5254 354.892 42.5254C366.281 42.5254 375.521 51.745 375.521 63.1079C375.521 74.4708 366.281 83.6904 354.892 83.6904C354.653 83.6904 354.381 83.6904 354.142 83.6904" stroke="#03313E" stroke-width="2.7294" stroke-miterlimit="10" stroke-linejoin="round"/>
<path d="M294.711 358.271H423.499" stroke="#03313E" stroke-width="2.49" stroke-miterlimit="10"/>
<path d="M294.711 383.957H423.499" stroke="#03313E" stroke-width="2.49" stroke-miterlimit="10"/>
<path d="M294.711 409.643H423.499" stroke="#03313E" stroke-width="2.49" stroke-miterlimit="10" stroke-dasharray="5 5"/>
<path d="M228.59 137.138H23.6953V341.568H228.59V137.138Z" stroke="#03313E" stroke-width="2.9149" stroke-miterlimit="10" stroke-dasharray="7.27 7.27"/>
<path d="M228.562 113.697V160.544" stroke="#03313E" stroke-width="2.9149" stroke-miterlimit="10"/>
<path d="M204.898 137.138H252.261" stroke="#03313E" stroke-width="2.9149" stroke-miterlimit="10"/>
<path d="M23.6953 113.697V160.544" stroke="#03313E" stroke-width="2.9149" stroke-miterlimit="10"/>
<path d="M0 137.138H47.3621" stroke="#03313E" stroke-width="2.9149" stroke-miterlimit="10"/>
<path d="M228.562 318.127V364.973" stroke="#03313E" stroke-width="2.9149" stroke-miterlimit="10"/>
<path d="M204.898 341.533H252.261" stroke="#03313E" stroke-width="2.9149" stroke-miterlimit="10"/>
<path d="M23.6953 318.127V364.973" stroke="#03313E" stroke-width="2.9149" stroke-miterlimit="10"/>
<path d="M0 341.533H47.3621" stroke="#03313E" stroke-width="2.9149" stroke-miterlimit="10"/>
<path d="M164.796 254.985C164.319 259.646 163.807 265.191 163.193 270.771C162.989 272.642 161.932 273.561 160.534 273.356C159.067 273.152 158.454 271.893 158.761 269.92C160.738 257.333 160.534 244.779 157.669 232.328C154.328 217.835 141.371 208.411 126.027 209.057C112.217 209.636 100.146 220.76 98.0321 234.811C97.4865 238.451 97.7934 242.023 98.2708 245.664C98.8163 249.678 98.8845 253.761 98.9527 257.843C98.9868 259.612 97.8616 260.667 96.5318 260.531C95.2361 260.395 94.3154 259.646 94.4518 258.285C94.9292 253.148 93.9744 248.113 93.3266 243.044C91.5876 229.334 99.1232 215.249 111.364 208.751C132.642 197.456 158.147 209.704 162.545 233.314C163.057 235.968 163.534 238.655 163.807 241.377C164.182 245.562 164.421 249.814 164.796 254.985Z" fill="#03313E"/>
<path d="M128.099 188.066C152.854 188.168 174.233 206.029 178.564 230.252C178.837 231.851 179.178 233.45 179.416 235.049C179.723 236.852 179.007 238.077 177.541 238.281C176.177 238.451 175.154 237.532 174.915 235.797C173.858 228.177 171.847 220.896 167.55 214.398C159.401 202.083 148.012 194.666 133.282 193.033C108.458 190.278 87.0107 206.233 81.9301 230.796C81.7596 231.647 80.9754 232.599 80.1911 233.042C79.7138 233.314 78.4862 232.94 78.0771 232.429C77.5997 231.851 77.361 230.796 77.5315 230.048C82.0665 209.193 94.5464 195.721 115.107 189.801C117.187 189.189 119.37 188.849 121.518 188.543C123.734 188.305 125.917 188.237 128.099 188.066Z" fill="#03313E"/>
<path d="M128.236 171.771C138.193 171.873 147.672 174.016 156.674 178.2C157.015 178.371 157.356 178.541 157.697 178.711C158.992 179.357 159.368 180.378 158.89 181.705C158.447 182.929 157.151 183.338 155.719 182.759C154.014 182.079 152.343 181.262 150.604 180.582C124.519 170.546 94.7518 178.983 77.8392 201.198C76.3048 203.206 75.1114 203.648 73.8498 202.695C72.5881 201.743 72.6904 200.416 74.2589 198.443C86.5342 182.861 102.56 174.016 122.371 172.145C124.315 171.975 126.292 171.907 128.236 171.771Z" fill="#03313E"/>
<path d="M131.754 254.134C131.652 272.675 125.548 289.005 113.546 303.158C112.114 304.859 110.886 305.131 109.693 304.11C108.568 303.09 108.636 301.933 110.068 300.266C118.32 290.638 123.707 279.65 126.094 267.198C127.765 258.387 127.696 249.575 126.094 240.764C125.992 240.118 125.719 239.301 125.992 238.859C126.469 238.144 127.287 237.328 128.072 237.192C129.367 236.954 130.22 237.94 130.39 239.199C130.902 243.009 131.345 246.854 131.754 250.664C131.856 251.821 131.754 252.977 131.754 254.134Z" fill="#03313E"/>
<path d="M195.818 236.988C195.818 238.077 195.852 239.268 195.818 240.459C195.75 242.058 194.761 243.044 193.397 242.976C192.102 242.908 191.283 241.955 191.317 240.391C191.317 231.205 189.578 222.36 185.828 213.956C181.395 203.954 174.78 195.687 166.051 189.087C165.539 188.679 164.994 188.339 164.482 187.931C163.357 187.012 163.05 185.651 163.903 184.665C164.823 183.576 165.983 183.406 167.074 184.291C169.358 186.06 171.711 187.761 173.825 189.7C187.567 202.389 194.659 218.243 195.818 236.988Z" fill="#03313E"/>
<path d="M148.148 251.039C148.148 251.923 148.182 252.774 148.148 253.658C148.08 255.019 147.16 256.074 145.966 256.006C144.534 255.938 143.75 255.121 143.647 253.726C143.477 251.005 143.511 248.283 143.204 245.595C142.727 241.411 142.59 237.09 140.715 233.212C138.055 227.734 132.497 224.775 126.326 225.421C120.768 225.999 115.926 230.218 114.391 235.831C114.221 236.444 114.05 237.294 113.607 237.532C112.891 237.941 111.868 238.247 111.118 238.043C109.925 237.702 109.618 236.58 109.856 235.389C110.572 231.953 112.175 228.925 114.664 226.476C120.018 221.202 126.428 219.467 133.589 221.679C140.817 223.924 145.182 229.027 146.443 236.512C147.262 241.309 147.773 246.208 148.421 251.039C148.319 251.005 148.251 251.039 148.148 251.039Z" fill="#03313E"/>
<path d="M115.519 253.42C115.212 270.464 109.279 284.719 97.4474 296.49C97.1405 296.796 96.8336 297.102 96.4926 297.374C95.4356 298.157 94.3444 298.157 93.3897 297.238C92.5031 296.422 92.6395 295.061 93.5261 294.006C96.1857 290.91 99.1182 288.019 101.403 284.685C109.007 273.594 112.007 261.244 110.575 247.84C110.575 247.738 110.541 247.636 110.541 247.5C110.336 245.289 110.984 244.166 112.485 244.03C113.951 243.894 114.906 244.982 115.076 247.126C115.247 249.337 115.383 251.548 115.519 253.42Z" fill="#03313E"/>
<path d="M69.5564 207.459C71.6705 207.424 72.4888 209.126 71.7046 211.099C70.2725 214.569 68.6698 217.971 67.5787 221.543C64.3735 231.953 64.1007 242.5 66.4876 253.114C66.5899 253.522 66.6922 253.965 66.7604 254.373C67.0331 255.87 66.4535 256.959 65.1578 257.299C63.8961 257.639 62.6686 256.959 62.4299 255.428C61.6798 250.869 60.7591 246.31 60.5204 241.751C59.9067 230.456 62.4299 219.74 67.3741 209.602C67.8515 208.479 68.3971 207.493 69.5564 207.459Z" fill="#03313E"/>
<path d="M147.506 265.259C146.176 275.942 142.971 286.556 137.686 296.49C136.083 299.518 134.242 302.41 132.435 305.301C131.412 306.934 130.184 307.309 128.923 306.458C127.764 305.676 127.627 304.383 128.65 302.886C136.152 291.761 140.823 279.548 142.835 266.28C142.937 265.565 142.971 264.885 143.108 264.17C143.415 262.503 144.335 261.687 145.699 261.857C146.995 262.061 147.643 263.082 147.506 265.259Z" fill="#03313E"/>
<path d="M176.176 253.692C176.176 251.583 176.21 249.44 176.176 247.331C176.108 245.289 176.79 244.167 178.256 244.065C179.688 243.963 180.711 244.983 180.677 247.058C180.541 254.237 180.609 261.415 179.927 268.525C179.416 274.105 177.984 279.616 176.858 285.162C176.688 286.012 175.972 286.931 175.222 287.373C174.71 287.679 173.414 287.407 173.073 286.965C172.562 286.284 172.323 285.162 172.46 284.311C173.108 280.773 174.165 277.337 174.608 273.799C175.494 267.131 176.04 260.429 176.756 253.726C176.586 253.726 176.381 253.726 176.176 253.692Z" fill="#03313E"/>
<path d="M82.7867 253.454C82.5821 261.823 79.7179 268.389 73.9894 273.662C73.3757 274.207 72.4891 274.819 71.7731 274.785C71.057 274.751 70.1023 274.105 69.7613 273.458C69.1816 272.404 69.6931 271.417 70.6137 270.601C74.2963 267.403 76.615 263.354 77.7402 258.625C78.6268 254.713 78.0812 250.869 77.3651 246.99C77.0242 245.187 76.956 243.316 76.8196 241.479C76.7514 240.152 77.3992 239.302 78.7291 239.063C79.9566 238.859 81.0818 239.71 81.2523 241.037C81.832 245.391 82.3434 249.712 82.7867 253.454Z" fill="#03313E"/>
<path d="M96.6006 268.253C96.2255 269.239 96.055 269.818 95.8163 270.362C93.1226 276.86 89.0649 282.337 83.7115 286.896C82.3476 288.053 81.0519 288.087 80.1312 286.998C79.1765 285.876 79.347 284.651 80.745 283.494C85.7233 279.31 89.3718 274.206 91.8268 268.219C92.3383 266.926 93.2248 266.11 94.5547 266.552C95.373 266.824 95.9868 267.709 96.6006 268.253Z" fill="#03313E"/>
<path d="M160.937 281.521C160.733 282.235 160.562 283.086 160.255 283.902C158.209 289.38 156.129 294.823 154.049 300.3C153.947 300.607 153.777 300.913 153.64 301.185C152.89 302.444 151.594 302.92 150.469 302.24C149.242 301.491 149.037 300.402 149.582 299.144C150.708 296.49 152.003 293.939 152.992 291.251C154.288 287.815 155.311 284.277 156.47 280.773C156.879 279.514 157.766 278.833 159.062 279.071C160.255 279.276 160.869 280.16 160.937 281.521Z" fill="#03313E"/>
<path d="M421.692 221.645H296.484V312.48H421.692V221.645Z" stroke="#03313E" stroke-width="2.49" stroke-miterlimit="10"/>
<path d="M379.203 261.721C385.398 261.721 390.421 256.709 390.421 250.528C390.421 244.346 385.398 239.335 379.203 239.335C373.007 239.335 367.984 244.346 367.984 250.528C367.984 256.709 373.007 261.721 379.203 261.721Z" stroke="#03313E" stroke-width="2.49" stroke-miterlimit="10"/>
<path d="M341.625 312.48L421.687 254.917" stroke="#03313E" stroke-width="2.49" stroke-miterlimit="10"/>
<path d="M296.484 239.335L383.571 283.698" stroke="#03313E" stroke-width="2.49" stroke-miterlimit="10"/>
</g>
<defs>
<clipPath id="clip0_2936_62529">
<rect width="443.649" height="481.46" fill="white"/>
</clipPath>
</defs>
</svg>
