<svg width="443" height="480" viewBox="0 0 443 480" fill="none" xmlns="http://www.w3.org/2000/svg">
<g clip-path="url(#clip0_2500_62869)">
<path d="M411.299 49.1126C402.8 17.0606 370.744 -1.32265 339.435 6.37661C310.981 13.3636 291.468 44.3981 294.8 73.4654C295.887 82.8944 298.539 92.0182 302.142 100.939C312.919 127.53 329.134 150.594 348.817 171.317C349.769 172.301 350.789 173.217 351.877 174.2C352.896 175.116 354.494 175.116 355.514 174.166C357.01 172.81 358.404 171.555 359.729 170.198C372.919 156.631 384.171 141.606 393.656 125.257C401.917 111.046 408.546 96.1561 411.605 79.8758C413.577 69.5988 414.019 59.3218 411.299 49.1126Z" stroke="#03313E" stroke-width="2.7294" stroke-miterlimit="10" stroke-linejoin="round"/>
<path d="M333.282 62.0018C333.758 51.0803 342.767 42.3975 353.815 42.3975C365.169 42.3975 374.382 51.5891 374.382 62.9175C374.382 74.246 365.169 83.4376 353.815 83.4376C353.577 83.4376 353.305 83.4376 353.067 83.4376" stroke="#03313E" stroke-width="2.7294" stroke-miterlimit="10" stroke-linejoin="round"/>
<path d="M293.815 357.185H422.213" stroke="#03313E" stroke-width="2.49" stroke-miterlimit="10"/>
<path d="M293.815 382.792H422.213" stroke="#03313E" stroke-width="2.49" stroke-miterlimit="10"/>
<path d="M293.815 408.4H422.213" stroke="#03313E" stroke-width="2.49" stroke-miterlimit="10" stroke-dasharray="5 5"/>
<path d="M227.899 136.722H23.6255V340.532H227.899V136.722Z" stroke="#03313E" stroke-width="2.9149" stroke-miterlimit="10" stroke-dasharray="7.27 7.27"/>
<path d="M227.867 113.353V160.057" stroke="#03313E" stroke-width="2.9149" stroke-miterlimit="10"/>
<path d="M204.273 136.722H251.492" stroke="#03313E" stroke-width="2.9149" stroke-miterlimit="10"/>
<path d="M23.6255 113.353V160.057" stroke="#03313E" stroke-width="2.9149" stroke-miterlimit="10"/>
<path d="M0 136.722H47.2185" stroke="#03313E" stroke-width="2.9149" stroke-miterlimit="10"/>
<path d="M227.867 317.163V363.867" stroke="#03313E" stroke-width="2.9149" stroke-miterlimit="10"/>
<path d="M204.273 340.498H251.492" stroke="#03313E" stroke-width="2.9149" stroke-miterlimit="10"/>
<path d="M23.6255 317.163V363.867" stroke="#03313E" stroke-width="2.9149" stroke-miterlimit="10"/>
<path d="M0 340.498H47.2185" stroke="#03313E" stroke-width="2.9149" stroke-miterlimit="10"/>
<path d="M164.296 254.212C163.82 258.859 163.31 264.387 162.698 269.95C162.494 271.815 161.44 272.731 160.046 272.527C158.585 272.324 157.973 271.069 158.279 269.102C160.25 256.552 160.046 244.037 157.191 231.623C153.859 217.174 140.941 207.779 125.644 208.423C111.876 209 99.842 220.091 97.7344 234.099C97.1904 237.728 97.4964 241.289 97.9723 244.919C98.5162 248.921 98.5842 252.991 98.6522 257.061C98.6862 258.825 97.5644 259.876 96.2386 259.741C94.9468 259.605 94.0289 258.859 94.1649 257.502C94.6409 252.38 93.689 247.361 93.0431 242.307C91.3094 228.638 98.8222 214.596 111.026 208.118C132.239 196.858 157.667 209.068 162.052 232.607C162.562 235.252 163.038 237.932 163.31 240.645C163.684 244.817 163.922 249.057 164.296 254.212Z" fill="#03313E"/>
<path d="M127.717 187.496C152.397 187.598 173.711 205.405 178.029 229.554C178.301 231.148 178.641 232.742 178.879 234.336C179.185 236.134 178.471 237.355 177.009 237.558C175.649 237.728 174.629 236.812 174.391 235.082C173.338 227.485 171.332 220.226 167.049 213.748C158.924 201.47 147.57 194.076 132.884 192.448C108.136 189.701 86.7533 205.608 81.6881 230.096C81.5181 230.944 80.7363 231.894 79.9544 232.335C79.4785 232.606 78.2547 232.233 77.8467 231.724C77.3708 231.148 77.1328 230.096 77.3028 229.35C81.8241 208.559 94.2661 195.128 114.765 189.226C116.839 188.615 119.014 188.276 121.156 187.971C123.365 187.734 125.541 187.666 127.717 187.496Z" fill="#03313E"/>
<path d="M127.854 171.25C137.781 171.352 147.231 173.489 156.206 177.66C156.546 177.83 156.886 178 157.225 178.169C158.517 178.814 158.891 179.831 158.415 181.154C157.973 182.375 156.682 182.782 155.254 182.205C153.554 181.527 151.888 180.713 150.155 180.035C124.149 170.029 94.4715 178.44 77.6101 200.589C76.0804 202.59 74.8906 203.031 73.6328 202.081C72.375 201.131 72.477 199.808 74.0407 197.841C86.2788 182.307 102.256 173.489 122.007 171.623C123.945 171.453 125.916 171.386 127.854 171.25Z" fill="#03313E"/>
<path d="M131.355 253.364C131.253 271.849 125.168 288.129 113.202 302.239C111.774 303.935 110.551 304.206 109.361 303.189C108.239 302.171 108.307 301.018 109.735 299.356C117.961 289.757 123.333 278.802 125.712 266.388C127.378 257.604 127.31 248.819 125.712 240.034C125.61 239.39 125.338 238.576 125.61 238.135C126.086 237.423 126.902 236.609 127.684 236.473C128.976 236.236 129.826 237.219 129.996 238.474C130.505 242.273 130.947 246.106 131.355 249.904C131.457 251.058 131.355 252.211 131.355 253.364Z" fill="#03313E"/>
<path d="M195.23 236.27C195.23 237.356 195.264 238.543 195.23 239.73C195.162 241.324 194.177 242.308 192.817 242.24C191.525 242.172 190.709 241.222 190.743 239.662C190.743 230.504 189.009 221.686 185.27 213.308C180.851 203.336 174.256 195.095 165.553 188.515C165.043 188.108 164.499 187.768 163.989 187.361C162.868 186.446 162.562 185.089 163.411 184.105C164.329 183.02 165.485 182.85 166.573 183.732C168.851 185.496 171.196 187.192 173.304 189.125C187.004 201.776 194.075 217.582 195.23 236.27Z" fill="#03313E"/>
<path d="M147.704 250.278C147.704 251.16 147.738 252.007 147.704 252.889C147.636 254.246 146.719 255.298 145.529 255.23C144.101 255.162 143.319 254.348 143.217 252.957C143.047 250.244 143.081 247.53 142.775 244.851C142.299 240.679 142.163 236.372 140.294 232.505C137.642 227.044 132.101 224.093 125.948 224.738C120.407 225.314 115.579 229.52 114.05 235.117C113.88 235.727 113.71 236.575 113.268 236.812C112.554 237.219 111.534 237.525 110.786 237.321C109.596 236.982 109.29 235.863 109.528 234.676C110.242 231.25 111.84 228.231 114.322 225.789C119.659 220.532 126.05 218.802 133.189 221.007C140.396 223.246 144.747 228.333 146.005 235.795C146.821 240.577 147.33 245.461 147.976 250.278C147.874 250.244 147.806 250.278 147.704 250.278Z" fill="#03313E"/>
<path d="M115.175 252.652C114.869 269.644 108.954 283.856 97.1578 295.591C96.8519 295.897 96.5459 296.202 96.206 296.473C95.1522 297.253 94.0643 297.253 93.1125 296.338C92.2286 295.524 92.3646 294.167 93.2485 293.115C95.9 290.029 98.8236 287.146 101.101 283.822C108.682 272.765 111.674 260.453 110.246 247.089C110.246 246.988 110.212 246.886 110.212 246.75C110.008 244.546 110.654 243.426 112.149 243.291C113.611 243.155 114.563 244.24 114.733 246.377C114.903 248.582 115.039 250.786 115.175 252.652Z" fill="#03313E"/>
<path d="M69.3485 206.83C71.4562 206.796 72.2721 208.492 71.4902 210.459C70.0624 213.918 68.4647 217.31 67.3769 220.871C64.1814 231.25 63.9094 241.765 66.289 252.347C66.391 252.754 66.493 253.195 66.561 253.602C66.8329 255.094 66.255 256.18 64.9632 256.519C63.7054 256.858 62.4816 256.18 62.2437 254.653C61.4958 250.108 60.5779 245.563 60.34 241.018C59.7281 229.758 62.2437 219.074 67.1729 208.966C67.6488 207.847 68.1927 206.864 69.3485 206.83Z" fill="#03313E"/>
<path d="M147.06 264.455C145.734 275.105 142.539 285.687 137.27 295.591C135.672 298.61 133.836 301.493 132.035 304.376C131.015 306.004 129.791 306.377 128.533 305.529C127.377 304.749 127.241 303.46 128.261 301.967C135.74 290.876 140.397 278.7 142.403 265.472C142.505 264.76 142.539 264.082 142.675 263.369C142.981 261.707 143.899 260.893 145.259 261.063C146.55 261.267 147.196 262.284 147.06 264.455Z" fill="#03313E"/>
<path d="M175.648 252.923C175.648 250.82 175.682 248.683 175.648 246.58C175.58 244.545 176.26 243.426 177.722 243.324C179.149 243.223 180.169 244.24 180.135 246.309C179.999 253.466 180.067 260.622 179.387 267.711C178.877 273.273 177.45 278.768 176.328 284.297C176.158 285.145 175.444 286.06 174.696 286.501C174.186 286.807 172.894 286.535 172.554 286.094C172.044 285.416 171.807 284.297 171.943 283.449C172.588 279.921 173.642 276.496 174.084 272.968C174.968 266.32 175.512 259.639 176.226 252.957C176.056 252.957 175.852 252.957 175.648 252.923Z" fill="#03313E"/>
<path d="M82.538 252.686C82.334 261.029 79.4785 267.576 73.7674 272.833C73.1555 273.375 72.2716 273.986 71.5577 273.952C70.8438 273.918 69.892 273.274 69.552 272.629C68.9741 271.578 69.4841 270.594 70.4019 269.78C74.0733 266.592 76.385 262.556 77.5068 257.841C78.3906 253.941 77.8467 250.108 77.1328 246.241C76.7929 244.444 76.7249 242.578 76.5889 240.747C76.5209 239.424 77.1668 238.576 78.4926 238.339C79.7164 238.135 80.8383 238.983 81.0082 240.306C81.5861 244.647 82.0961 248.955 82.538 252.686Z" fill="#03313E"/>
<path d="M96.3071 267.44C95.9332 268.423 95.7632 269 95.5252 269.543C92.8396 276.021 88.7943 281.482 83.4571 286.027C82.0973 287.18 80.8056 287.214 79.8877 286.128C78.9359 285.009 79.1058 283.788 80.4996 282.635C85.4628 278.463 89.1002 273.375 91.5479 267.406C92.0578 266.117 92.9416 265.303 94.2674 265.744C95.0833 266.015 95.6952 266.897 96.3071 267.44Z" fill="#03313E"/>
<path d="M160.454 280.668C160.25 281.38 160.08 282.228 159.774 283.042C157.734 288.503 155.66 293.929 153.587 299.39C153.485 299.695 153.315 300.001 153.179 300.272C152.431 301.527 151.139 302.002 150.017 301.323C148.793 300.577 148.589 299.492 149.133 298.237C150.255 295.591 151.547 293.048 152.533 290.368C153.825 286.942 154.844 283.415 156 279.922C156.408 278.667 157.292 277.988 158.584 278.226C159.774 278.429 160.386 279.311 160.454 280.668Z" fill="#03313E"/>
<path d="M420.411 220.973H295.583V311.532H420.411V220.973Z" stroke="#03313E" stroke-width="2.49" stroke-miterlimit="10"/>
<path d="M378.052 260.927C384.229 260.927 389.237 255.931 389.237 249.768C389.237 243.605 384.229 238.609 378.052 238.609C371.876 238.609 366.868 243.605 366.868 249.768C366.868 255.931 371.876 260.927 378.052 260.927Z" stroke="#03313E" stroke-width="2.49" stroke-miterlimit="10"/>
<path d="M340.59 311.532L420.409 254.144" stroke="#03313E" stroke-width="2.49" stroke-miterlimit="10"/>
<path d="M295.583 238.609L382.405 282.838" stroke="#03313E" stroke-width="2.49" stroke-miterlimit="10"/>
</g>
<defs>
<clipPath id="clip0_2500_62869">
<rect width="442.304" height="480" fill="white"/>
</clipPath>
</defs>
</svg>
