<svg width="300" height="80" viewBox="0 0 300 80" fill="none" xmlns="http://www.w3.org/2000/svg">
<path d="M260.898 0.995117C260.898 0.995117 260.898 12.8373 260.898 27.1673" stroke="#03303D" stroke-width="2.4094" stroke-miterlimit="10"/>
<path d="M260.898 53.041C260.898 66.973 260.898 78.3176 260.898 78.3176" stroke="#03303D" stroke-width="2.4094" stroke-miterlimit="10"/>
<path d="M241.398 6.16992C241.398 6.16992 247.298 16.4199 254.598 28.8591" stroke="#03303D" stroke-width="2.4094" stroke-miterlimit="10"/>
<path d="M267.699 51.5479C274.599 63.4895 280.199 73.1424 280.199 73.1424" stroke="#03303D" stroke-width="2.4094" stroke-miterlimit="10"/>
<path d="M227.199 20.3008C227.199 20.3008 237.099 25.9731 249.299 32.9391" stroke="#03303D" stroke-width="2.4094" stroke-miterlimit="10"/>
<path d="M271.398 45.7764C283.998 53.0409 294.498 59.0117 294.498 59.0117" stroke="#03303D" stroke-width="2.4094" stroke-miterlimit="10"/>
<path d="M222 39.7061C222 39.7061 233.6 39.7061 247.9 39.7061" stroke="#03303D" stroke-width="2.4094" stroke-miterlimit="10"/>
<path d="M274.301 39.7061C288.301 39.7061 299.701 39.7061 299.701 39.7061" stroke="#03303D" stroke-width="2.4094" stroke-miterlimit="10"/>
<path d="M227.199 59.0122C227.199 59.0122 237.099 53.3399 249.399 46.2744" stroke="#03303D" stroke-width="2.4094" stroke-miterlimit="10"/>
<path d="M272.199 33.1381C284.499 26.0726 294.499 20.3008 294.499 20.3008" stroke="#03303D" stroke-width="2.4094" stroke-miterlimit="10"/>
<path d="M241.602 73.4413C241.602 73.4413 247.502 63.2908 254.702 50.8516" stroke="#03303D" stroke-width="2.4094" stroke-miterlimit="10"/>
<path d="M267.898 28.1629C274.898 16.2212 280.498 6.56836 280.498 6.56836" stroke="#03303D" stroke-width="2.4094" stroke-miterlimit="10"/>
<path d="M260.902 52.9415C268.247 52.9415 274.202 47.0158 274.202 39.7061C274.202 32.3964 268.247 26.4707 260.902 26.4707C253.556 26.4707 247.602 32.3964 247.602 39.7061C247.602 47.0158 253.556 52.9415 260.902 52.9415Z" stroke="#03303D" stroke-width="2.4094" stroke-miterlimit="10"/>
<path d="M39.9984 31.8447C39.8984 31.8447 39.8984 31.8447 39.7984 31.8447C28.9984 31.8447 20.1984 40.602 20.1984 51.3495C20.1984 40.602 11.3984 31.8447 0.598389 31.8447C0.498389 31.8447 0.498438 31.8447 0.398438 31.8447" stroke="#03303D" stroke-width="2.7708" stroke-miterlimit="10"/>
<path d="M74.8 10.9463H74.7001C68.2001 10.9463 62.9 16.2205 62.9 22.6889C62.9 16.2205 57.6 10.9463 51.1 10.9463H51" stroke="#03303D" stroke-width="2.7708" stroke-miterlimit="10"/>
<path d="M172.398 35.8252C172.398 35.8252 177.398 36.5218 179.198 40.4028" stroke="#03303D" stroke-width="2.5095" stroke-miterlimit="10"/>
<path d="M190.101 35.8252C190.101 35.8252 185.101 36.5218 183.301 40.4028" stroke="#03303D" stroke-width="2.5095" stroke-miterlimit="10"/>
<path d="M181.4 43.388C183.4 43.388 185.2 44.0846 186.6 45.2788C186.6 45.1792 186.6 45.0797 186.6 44.8807C186.6 41.9948 184.2 39.6064 181.3 39.6064C178.4 39.6064 176 41.9948 176 44.8807C176 45.0797 176 45.2788 176 45.4778C177.5 44.1841 179.4 43.388 181.4 43.388Z" stroke="#03303D" stroke-width="2.5095" stroke-miterlimit="10"/>
<path d="M188.001 56.3255C189.001 54.9323 189.501 53.1411 189.501 51.4493C189.501 46.9712 185.901 43.3887 181.401 43.3887C176.901 43.3887 173.301 46.9712 173.301 51.4493C173.301 53.2406 173.901 54.9323 174.801 56.3255C173.301 58.4153 172.301 61.1022 172.301 64.1871C172.301 70.4565 176.401 74.4371 181.401 74.4371C186.401 74.4371 190.501 70.4565 190.501 64.1871C190.501 61.2017 189.601 58.4153 188.001 56.3255Z" stroke="#03303D" stroke-width="2.5095" stroke-miterlimit="10"/>
<path d="M173.3 51.4493C173.3 50.2551 173.6 49.1604 174 48.1653L155.7 42.493C155.3 42.3935 154.8 42.2939 154.3 42.2939H154.2C151.9 42.2939 150 44.1847 150 46.4735C150 48.1653 151 49.5585 152.4 50.2551C153.2 50.6531 153.7 51.3497 153.7 52.2454C153.7 55.1313 155.9 57.5196 158.7 57.9177C160.1 58.1167 161.7 58.0172 163.1 57.6191C164.6 57.2211 166.1 56.624 167.6 56.2259C169.2 55.7283 170.8 55.2308 172.5 54.7332C172.6 54.7332 173.3 54.5342 173.9 54.3351C173.5 53.539 173.3 52.5439 173.3 51.4493Z" stroke="#03303D" stroke-width="2.5095" stroke-miterlimit="10"/>
<path d="M208.401 42.3936H208.301C207.801 42.3936 207.401 42.3936 206.901 42.5926L188.801 48.1654C189.301 49.1606 189.501 50.2552 189.501 51.4494C189.501 52.544 189.301 53.5392 188.901 54.4348C189.501 54.6338 190.001 54.7333 190.101 54.7333C191.701 55.2309 193.301 55.7285 195.001 56.226C196.501 56.7236 198.001 57.2212 199.501 57.6193C200.901 58.0173 202.401 58.1168 203.901 57.9178C206.701 57.5197 208.901 55.0319 208.901 52.2455C208.901 51.3498 209.401 50.6532 210.201 50.2552C211.601 49.5586 212.601 48.1654 212.601 46.4737C212.601 44.2844 210.701 42.3936 208.401 42.3936Z" stroke="#03303D" stroke-width="2.5095" stroke-miterlimit="10"/>
<path d="M173.301 48.9609H189.601" stroke="#03303D" stroke-width="2.5095" stroke-miterlimit="10"/>
<path d="M173.301 55.7275H189.601" stroke="#03303D" stroke-width="2.5095" stroke-miterlimit="10"/>
<path d="M173.301 62.3955H189.601" stroke="#03303D" stroke-width="2.5095" stroke-miterlimit="10"/>
<path d="M130.6 23.6846H88.4C83.2 23.6846 79 27.8642 79 33.0389V40.801V46.8714V71.6504C79 72.745 80.4 73.1431 81 72.347L93.4 56.2257H130.5C135.7 56.2257 139.9 52.0461 139.9 46.8714V32.9394C140.1 27.8642 135.8 23.6846 130.6 23.6846Z" stroke="#03303D" stroke-width="2.5095" stroke-miterlimit="10"/>
<path d="M96 40.1045H100" stroke="#03303D" stroke-width="2.5095" stroke-miterlimit="10"/>
<path d="M107.602 40.1045H111.602" stroke="#03303D" stroke-width="2.5095" stroke-miterlimit="10"/>
<path d="M119.102 40.1045H123.202" stroke="#03303D" stroke-width="2.5095" stroke-miterlimit="10"/>
<path d="M161.801 12.3398L169.101 19.6044L176.701 12.3398" stroke="#03303D" stroke-width="2.5095" stroke-miterlimit="10"/>
<path d="M169.199 7.46387V19.6046" stroke="#03303D" stroke-width="2.5095" stroke-miterlimit="10"/>
<path d="M184.801 12.3398L192.101 19.6044L199.701 12.3398" stroke="#03303D" stroke-width="2.5095" stroke-miterlimit="10"/>
<path d="M192.199 7.46387V19.6046" stroke="#03303D" stroke-width="2.5095" stroke-miterlimit="10"/>
<path d="M53.8984 61.3997C56.936 61.3997 59.3984 58.9492 59.3984 55.9264C59.3984 52.9036 56.936 50.4531 53.8984 50.4531C50.8609 50.4531 48.3984 52.9036 48.3984 55.9264C48.3984 58.9492 50.8609 61.3997 53.8984 61.3997Z" stroke="#03303D" stroke-width="2.7708" stroke-miterlimit="10"/>
</svg>
